<?xml version="1.0" standalone="no"?>
<!DOCTYPE svg PUBLIC "-//W3C//DTD SVG 1.1//EN" "http://www.w3.org/Graphics/SVG/1.1/DTD/svg11.dtd" >
<svg xmlns="http://www.w3.org/2000/svg" xmlns:xlink="http://www.w3.org/1999/xlink" version="1.1">
<metadata>
Created by FontForge 20200314 at Mon Oct 21 14:19:36 2013
 By Unknown
Copyright (c) 2011-2013 Canada Type. All rights reserved.
</metadata>
<defs>
<font id="Recta-Bold" horiz-adv-x="542" >
  <font-face 
    font-family="Recta-Bold"
    font-weight="400"
    font-stretch="normal"
    units-per-em="1000"
    panose-1="2 0 0 0 0 0 0 0 0 0"
    ascent="766"
    descent="-234"
    x-height="450"
    cap-height="700"
    bbox="-45 -250 1470 950"
    underline-thickness="50"
    underline-position="-100"
    unicode-range="U+0020-FB04"
  />
<missing-glyph horiz-adv-x="586" 
d="M536 0h-486v700h486v-700zM430 98v504h-274v-504h274z" />
    <glyph glyph-name=".notdef" horiz-adv-x="586" 
d="M536 0h-486v700h486v-700zM430 98v504h-274v-504h274z" />
    <glyph glyph-name=".null" horiz-adv-x="0" 
 />
    <glyph glyph-name="nonmarkingreturn" horiz-adv-x="333" 
 />
    <glyph glyph-name="space" unicode=" " horiz-adv-x="211" 
 />
    <glyph glyph-name="exclam" unicode="!" horiz-adv-x="262" 
d="M180 182h-98l-17 518h132zM197 0h-132v114h132v-114z" />
    <glyph glyph-name="quotedbl" unicode="&#x22;" horiz-adv-x="392" 
d="M156 450h-91l-18 250h127zM327 450h-91l-18 250h127z" />
    <glyph glyph-name="numbersign" unicode="#" horiz-adv-x="1214" 
d="M1086 81h-230v85h230v-85zM708 0h-152l-337 512v-512h-127v700h151l338 -511v511h127v-700zM1170 408q0 -78 -52.5 -134.5t-146.5 -56.5t-146.5 56.5t-52.5 134.5q0 77 52.5 133.5t146.5 56.5t146.5 -56.5t52.5 -133.5zM971 300q42 0 64.5 29.5t22.5 78.5q0 48 -22.5 78
t-64.5 30t-65 -30t-23 -78q0 -49 23 -78.5t65 -29.5z" />
    <glyph glyph-name="dollar" unicode="$" horiz-adv-x="619" 
d="M344 -100h-74v88q-99 8 -158.5 65.5t-59.5 169.5h122q0 -115 96 -133v213q-38 10 -62.5 17.5t-56 23.5t-49.5 35t-31 50.5t-13 71.5q0 85 51.5 144t160.5 69v66h74v-66q100 -8 152 -61.5t52 -143.5h-122q0 87 -82 103v-200q42 -10 65.5 -16.5t58.5 -22.5t54 -35.5
t33.5 -52.5t14.5 -75q0 -91 -58.5 -152t-167.5 -70v-88zM344 285v-196q56 7 78.5 34.5t22.5 62.5q0 39 -26 61.5t-75 37.5zM270 432v181q-51 -7 -71 -31.5t-20 -53.5q0 -37 23.5 -59t67.5 -37z" />
    <glyph glyph-name="percent" unicode="%" horiz-adv-x="1045" 
d="M438 526q0 -78 -52.5 -134.5t-146.5 -56.5t-146.5 56.5t-52.5 134.5q0 77 52.5 133.5t146.5 56.5t146.5 -56.5t52.5 -133.5zM239 418q42 0 64.5 29.5t22.5 77.5q0 49 -22.5 79t-64.5 30t-65 -30t-23 -78q0 -49 23 -78.5t65 -29.5zM380 -27h-116l398 763h117zM1006 176
q0 -77 -52.5 -133.5t-146.5 -56.5t-146.5 56.5t-52.5 133.5q0 78 52.5 134.5t146.5 56.5t146.5 -56.5t52.5 -134.5zM807 68q42 0 64.5 30t22.5 78t-22.5 78.5t-64.5 30.5t-65 -30.5t-23 -78.5q0 -49 23 -78.5t65 -29.5z" />
    <glyph glyph-name="ampersand" unicode="&#x26;" horiz-adv-x="643" 
d="M636 53l-74 -76l-88 84q-78 -75 -195 -75q-104 0 -173 53t-69 143q0 70 40.5 114.5t113.5 82.5q-71 103 -71 173q0 65 51.5 114.5t144.5 49.5q95 0 139.5 -50.5t44.5 -119.5q0 -68 -40 -111.5t-112 -83.5q42 -54 115 -130q19 40 37 109l99 -28q-20 -92 -59 -158zM402 133
q-100 104 -149 165q-87 -54 -87 -120q0 -44 31.5 -69t84.5 -25q72 0 120 49zM290 429q90 53 90 118q0 31 -16.5 53.5t-50.5 22.5q-37 0 -53.5 -25t-16.5 -53q0 -44 47 -116z" />
    <glyph glyph-name="quotesingle" unicode="'" horiz-adv-x="221" 
d="M156 450h-91l-18 250h127z" />
    <glyph glyph-name="parenleft" unicode="(" horiz-adv-x="303" 
d="M286 -113l-84 -45q-75 108 -121 218.5t-46 250.5t46 250.5t121 218.5l84 -45q-130 -184 -130 -424q0 -242 130 -424z" />
    <glyph glyph-name="parenright" unicode=")" horiz-adv-x="303" 
d="M101 -158l-84 45q130 182 130 424q0 240 -130 424l84 45q75 -108 121 -218.5t46 -250.5t-46 -250.5t-121 -218.5z" />
    <glyph glyph-name="asterisk" unicode="*" horiz-adv-x="525" 
d="M374 302l-112 148l-111 -148l-79 80l138 98l-164 52l50 102l137 -99l-25 165h108l-25 -165l138 99l50 -102l-165 -52l139 -98z" />
    <glyph glyph-name="plus" unicode="+" horiz-adv-x="496" 
d="M298 50h-100v157h-155v100h155v153h100v-153h155v-100h-155v-157z" />
    <glyph glyph-name="comma" unicode="," horiz-adv-x="237" 
d="M126 -89h-69v203h131z" />
    <glyph glyph-name="hyphen" unicode="-" horiz-adv-x="370" 
d="M315 203h-260v100h260v-100z" />
    <glyph glyph-name="period" unicode="." horiz-adv-x="241" 
d="M186 0h-131v114h131v-114z" />
    <glyph glyph-name="slash" unicode="/" horiz-adv-x="412" 
d="M147 0h-111l229 700h112z" />
    <glyph glyph-name="zero" unicode="0" horiz-adv-x="604" 
d="M302 -14q-78 0 -136.5 50.5t-87.5 132.5t-29 182t29 182t87.5 132.5t136.5 50.5t136.5 -50.5t87.5 -132.5t29 -182t-29 -182t-87.5 -132.5t-136.5 -50.5zM302 92q61 0 90.5 73.5t29.5 185.5q0 111 -29.5 185t-90.5 74q-42 0 -70 -38t-39 -94t-11 -127q0 -72 11 -128
t39 -93.5t70 -37.5z" />
    <glyph glyph-name="one" unicode="1" horiz-adv-x="421" 
d="M335 0h-127v552q-74 -96 -183 -150v109q114 75 174 189h136v-700z" />
    <glyph glyph-name="two" unicode="2" horiz-adv-x="544" 
d="M485 0h-435v61q0 64 17 113t44.5 78.5t61 52.5t66.5 42t60.5 39.5t44.5 52t17 74.5q0 103 -87 103q-24 0 -41.5 -9t-27 -22t-14.5 -34.5t-6.5 -39t-1.5 -42.5h-126q0 126 57.5 186.5t162.5 60.5q114 0 165 -60.5t51 -149.5q0 -51 -17 -92.5t-44.5 -69t-61 -50t-67 -41.5
t-61 -38.5t-44.5 -46.5t-17 -60h304v-108z" />
    <glyph glyph-name="three" unicode="3" horiz-adv-x="551" 
d="M243 303h-65v106h29q90 0 123 28.5t33 80.5q0 98 -88 98q-91 0 -91 -109h-126q2 106 61 157.5t156 51.5q106 0 160 -54t54 -136q0 -125 -120 -166q61 -17 95 -60.5t34 -106.5q0 -83 -56.5 -145t-174.5 -62q-103 0 -162.5 53.5t-59.5 165.5h126q0 -119 97 -119
q47 0 71.5 28t24.5 80q0 109 -121 109z" />
    <glyph glyph-name="four" unicode="4" horiz-adv-x="559" 
d="M448 0h-127v172h-292v127l267 401h152v-420h67v-108h-67v-172zM321 280v270l-177 -270h177z" />
    <glyph glyph-name="five" unicode="5" horiz-adv-x="549" 
d="M464 592h-266l-5 -149q47 47 115 47q90 0 142.5 -71t52.5 -173q0 -108 -60 -184t-179 -76q-100 0 -156.5 57.5t-56.5 161.5h121q0 -119 91 -119q106 0 106 153q0 68 -24 108t-73 40q-70 0 -92 -75h-113l11 388h386v-108z" />
    <glyph glyph-name="six" unicode="6" horiz-adv-x="574" 
d="M503 529h-119q-6 39 -29.5 60t-56.5 21q-55 0 -85 -63t-30 -171q59 72 147 72q92 0 145 -60.5t53 -152.5q0 -101 -62 -175t-168 -74q-82 0 -139 49.5t-83 128.5t-26 180q0 104 25.5 186t83 134t141.5 52q80 0 136 -47.5t67 -139.5zM189 257q0 -72 26 -118.5t82 -46.5
q48 0 73 35.5t25 96.5q0 60 -25.5 92t-72.5 32q-41 0 -69.5 -25t-38.5 -66z" />
    <glyph glyph-name="seven" unicode="7" horiz-adv-x="478" 
d="M221 0h-136l239 592h-298v108h427v-120z" />
    <glyph glyph-name="eight" unicode="8" horiz-adv-x="581" 
d="M406 360q60 -23 92 -70t32 -104q0 -83 -62.5 -141.5t-176.5 -58.5t-176.5 59t-62.5 142q0 57 31.5 103.5t92.5 69.5q-55 21 -84.5 62.5t-29.5 97.5q0 80 60 138t169 58q108 0 168 -58t60 -138q0 -55 -29.5 -97t-83.5 -63zM291 85q51 0 78.5 33.5t27.5 81.5
q0 49 -29.5 80.5t-76.5 31.5t-76.5 -31t-29.5 -81q0 -48 27.5 -81.5t78.5 -33.5zM291 414q46 0 70.5 30t24.5 73q0 45 -26.5 72.5t-68.5 27.5t-69 -27.5t-27 -72.5q0 -43 25 -73t71 -30z" />
    <glyph glyph-name="nine" unicode="9" horiz-adv-x="579" 
d="M60 201h119q3 -56 29.5 -82.5t65.5 -26.5q121 0 121 239q-46 -72 -145 -72q-93 0 -146.5 60t-53.5 151q0 102 64 174t170 72q122 0 183 -98t61 -258q0 -77 -14.5 -143t-44 -118.5t-79 -82.5t-114.5 -30q-89 0 -149 55t-67 160zM389 450q0 73 -26 116.5t-80 43.5
q-48 0 -74.5 -34.5t-26.5 -93.5q0 -58 26 -90.5t74 -32.5q41 0 69 24t38 67z" />
    <glyph glyph-name="colon" unicode=":" horiz-adv-x="241" 
d="M186 356h-131v114h131v-114zM186 0h-131v114h131v-114z" />
    <glyph glyph-name="semicolon" unicode=";" horiz-adv-x="239" 
d="M187 356h-131v114h131v-114zM126 -89h-70v203h131z" />
    <glyph glyph-name="less" unicode="&#x3c;" horiz-adv-x="579" 
d="M506 40l-463 220v93l463 220v-112l-322 -155l322 -154v-112z" />
    <glyph glyph-name="equal" unicode="=" horiz-adv-x="560" 
d="M495 107h-430v100h430v-100zM495 307h-430v100h430v-100z" />
    <glyph glyph-name="greater" unicode="&#x3e;" horiz-adv-x="579" 
d="M536 260l-463 -220v112l321 154l-321 155v112l463 -220v-93z" />
    <glyph glyph-name="question" unicode="?" horiz-adv-x="532" 
d="M305 0h-127v109h127v-109zM305 169h-127q0 31 5 59q7 44 26.5 76.5t42 51.5t44 37.5t36 48t14.5 70.5q0 104 -87 104q-24 0 -41.5 -9t-27 -22t-15 -34.5t-7 -38.5t-2.5 -43h-124q0 247 222 247q114 0 164 -60.5t50 -151.5q0 -55 -18 -94.5t-43 -62.5t-50.5 -44.5
t-43.5 -54.5t-18 -79z" />
    <glyph glyph-name="at" unicode="@" horiz-adv-x="1057" 
d="M599 -99l-17 -88q-40 -5 -88 -5q-112 0 -199 33t-139 90t-78.5 129t-26.5 154q0 73 20 144t62.5 135.5t103.5 114t150 78.5t194 29q110 0 195 -31t136 -84.5t77 -119.5t26 -141q0 -159 -101 -269t-225 -110q-53 0 -83 22.5t-30 66.5q0 16 4 31q-65 -53 -145 -53
q-81 0 -123.5 48.5t-42.5 125.5q0 112 76 204.5t194 92.5q80 0 120 -48l7 35h126q-18 -87 -34 -160.5t-24.5 -110t-15 -64t-8.5 -39t-2 -18.5q0 -26 31 -26q65 0 118 85t53 184q0 117 -85.5 198t-244.5 81q-82 0 -152.5 -24t-119 -64t-83 -92.5t-50.5 -108t-16 -111.5
q0 -133 91 -227t263 -94q45 0 86 7zM486 120q63 0 104 55.5t41 128.5q0 98 -80 98q-59 0 -103.5 -53t-44.5 -128q0 -101 83 -101z" />
    <glyph glyph-name="A" unicode="A" horiz-adv-x="628" 
d="M626 0h-129l-54 168h-259l-54 -168h-128l238 704h148zM410 271l-96 297l-96 -297h192z" />
    <glyph glyph-name="B" unicode="B" horiz-adv-x="599" 
d="M287 0h-206v700h235q108 0 163.5 -48.5t55.5 -131.5q0 -108 -107 -155q128 -41 128 -166q0 -97 -69.5 -148t-199.5 -51zM204 110h80q82 0 112 25.5t30 70.5q0 53 -35 77t-113 24h-74v-197zM204 409h67q73 0 103.5 24.5t30.5 70.5t-28.5 66.5t-95.5 20.5h-77v-182z" />
    <glyph glyph-name="C" unicode="C" horiz-adv-x="724" 
d="M572 236h121q-7 -109 -94 -179.5t-213 -70.5q-143 0 -244 99t-101 268q0 86 29.5 156.5t78.5 114.5t110.5 68t128.5 24q127 0 204.5 -66.5t88.5 -163.5h-121q-12 65 -62 94.5t-115 29.5q-87 0 -147.5 -66.5t-60.5 -188.5q0 -128 60.5 -195.5t152.5 -67.5q70 0 123 35
t61 109z" />
    <glyph glyph-name="D" unicode="D" horiz-adv-x="711" 
d="M243 0h-162v700h174q169 0 262 -55q77 -46 114 -123.5t37 -171.5q0 -74 -23 -134.5t-71 -110.5t-132.5 -77.5t-198.5 -27.5zM204 109h47q286 0 286 243q0 239 -286 239h-47v-482z" />
    <glyph glyph-name="E" unicode="E" horiz-adv-x="572" 
d="M525 0h-444v700h439v-108h-312v-180h292v-108h-292v-196h317v-108z" />
    <glyph glyph-name="F" unicode="F" horiz-adv-x="538" 
d="M208 0h-127v700h424v-108h-297v-195h278v-106h-278v-291z" />
    <glyph glyph-name="G" unicode="G" horiz-adv-x="734" 
d="M570 241h-174v102h305q0 -28 -4 -68q-13 -132 -91 -210.5t-212 -78.5q-153 0 -253 99.5t-100 267.5q0 87 29.5 157.5t79 114.5t111.5 67.5t130 23.5q125 0 203.5 -70.5t86.5 -158.5h-122q-11 59 -60.5 91t-112.5 32q-88 0 -149.5 -64.5t-61.5 -192.5q0 -124 59.5 -192.5
t155.5 -68.5q70 0 120.5 36.5t59.5 112.5z" />
    <glyph glyph-name="H" unicode="H" horiz-adv-x="723" 
d="M642 0h-127v303h-307v-303h-127v700h127v-289h307v289h127v-700z" />
    <glyph glyph-name="I" unicode="I" horiz-adv-x="289" 
d="M208 0h-127v700h127v-700z" />
    <glyph glyph-name="J" unicode="J" horiz-adv-x="325" 
d="M26 5v94q24 -7 44 -7q33 0 42 19t9 69v520h127v-507q0 -207 -145 -207q-49 0 -77 19z" />
    <glyph glyph-name="K" unicode="K" horiz-adv-x="605" 
d="M610 0h-158l-244 329v-329h-127v700h127v-321l228 322h149l-246 -341z" />
    <glyph glyph-name="L" unicode="L" horiz-adv-x="505" 
d="M495 0h-414v700h127v-592h287v-108z" />
    <glyph glyph-name="M" unicode="M" horiz-adv-x="892" 
d="M811 0h-126v536l-188 -539h-101l-189 539v-536h-126v700h195l170 -480l170 480h195v-700z" />
    <glyph glyph-name="N" unicode="N" horiz-adv-x="778" 
d="M697 0h-152l-337 512v-512h-127v700h151l338 -511v511h127v-700z" />
    <glyph glyph-name="O" unicode="O" horiz-adv-x="795" 
d="M397 -14q-94 0 -174 41.5t-131.5 126.5t-51.5 197q0 167 106 266t251 99q146 0 252 -99t106 -266q0 -112 -51.5 -197t-132 -126.5t-174.5 -41.5zM397 92q102 0 163 71t61 188q0 116 -61.5 187.5t-162.5 71.5t-162 -71.5t-61 -187.5q0 -117 61 -188t162 -71z" />
    <glyph glyph-name="P" unicode="P" horiz-adv-x="571" 
d="M204 0h-123v700h202q140 0 200.5 -56.5t60.5 -163.5q0 -108 -61.5 -166.5t-202.5 -58.5h-76v-255zM204 363h77q71 0 102.5 29t31.5 86t-31 85t-103 28h-77v-228z" />
    <glyph glyph-name="Q" unicode="Q" horiz-adv-x="801" 
d="M705 -8l-88 65q-95 -71 -220 -71q-94 0 -174 41.5t-131.5 126.5t-51.5 197q0 167 106 266t251 99q146 0 252 -99t106 -266q0 -125 -64 -217l72 -54zM520 128l-129 96l59 88l138 -104q33 63 33 143q0 116 -61.5 187.5t-162.5 71.5t-162 -71.5t-61 -187.5q0 -117 61 -188
t162 -71q72 0 123 36z" />
    <glyph glyph-name="R" unicode="R" horiz-adv-x="590" 
d="M550 0h-142l-148 276h-56v-276h-123v700h192q123 0 184 -39q84 -53 84 -165q0 -76 -41 -127.5t-115 -73.5zM204 378h69q139 0 139 107q0 54 -31.5 80t-106.5 26h-70v-213z" />
    <glyph glyph-name="S" unicode="S" horiz-adv-x="598" 
d="M539 509h-122q0 107 -121 107q-69 0 -97.5 -28.5t-28.5 -65.5q0 -43 40.5 -66.5t98 -36t114.5 -30t97.5 -62t40.5 -117.5q0 -98 -67 -161t-195 -63q-115 0 -185.5 57t-70.5 180h122q0 -136 137 -136q74 0 104 29.5t30 69.5q0 34 -21.5 56.5t-55.5 34.5t-75.5 21.5
t-82.5 22.5t-75 32.5t-55.5 56.5t-21.5 90q0 94 63.5 155t189.5 61q116 0 176.5 -54.5t60.5 -152.5z" />
    <glyph glyph-name="T" unicode="T" horiz-adv-x="524" 
d="M325 0h-127v592h-182v108h492v-108h-183v-592z" />
    <glyph glyph-name="U" unicode="U" horiz-adv-x="699" 
d="M497 268v432h127v-433q0 -125 -41 -184q-68 -97 -233 -97q-164 0 -232 97q-42 61 -42 184v433h127v-432q0 -74 17 -109q33 -67 130 -67q98 0 131 67q16 33 16 109z" />
    <glyph glyph-name="V" unicode="V" horiz-adv-x="616" 
d="M382 -4h-147l-229 704h132l170 -550l171 550h131z" />
    <glyph glyph-name="W" unicode="W" horiz-adv-x="985" 
d="M794 -4h-147l-155 537l-154 -537h-147l-175 704h132l121 -521l147 521h153l147 -521l121 521h132z" />
    <glyph glyph-name="X" unicode="X" horiz-adv-x="586" 
d="M580 0h-143l-147 245l-146 -245h-140l216 364l-199 336h143l133 -222l131 222h141l-202 -343z" />
    <glyph glyph-name="Y" unicode="Y" horiz-adv-x="565" 
d="M346 0h-127v256l-220 444h139l144 -298l145 298h138l-219 -444v-256z" />
    <glyph glyph-name="Z" unicode="Z" horiz-adv-x="581" 
d="M538 0h-504v134l359 458h-334v108h480v-123l-366 -469h365v-108z" />
    <glyph glyph-name="bracketleft" unicode="[" horiz-adv-x="336" 
d="M305 -122h-237v822h237v-98h-114v-626h114v-98z" />
    <glyph glyph-name="backslash" unicode="\" horiz-adv-x="412" 
d="M376 0h-112l-229 700h111z" />
    <glyph glyph-name="bracketright" unicode="]" horiz-adv-x="336" 
d="M268 -122h-237v98h114v626h-114v98h237v-822z" />
    <glyph glyph-name="asciicircum" unicode="^" horiz-adv-x="518" 
d="M468 397h-109l-101 197l-100 -197h-108l147 303h122z" />
    <glyph glyph-name="underscore" unicode="_" horiz-adv-x="566" 
d="M513 -43h-460v85h460v-85z" />
    <glyph glyph-name="grave" unicode="`" horiz-adv-x="315" 
d="M265 520h-93l-122 148h142z" />
    <glyph glyph-name="a" unicode="a" horiz-adv-x="499" 
d="M318 144q0 30 -22.5 47t-57.5 17q-38 0 -59 -19t-21 -49q0 -29 19.5 -46.5t55.5 -17.5q39 0 62 19t23 49zM444 0h-126v46q-46 -54 -131 -54q-76 0 -116.5 41.5t-40.5 102.5q0 65 45 107.5t127 42.5q75 0 114 -40v24q0 35 -3.5 54.5t-20.5 34.5t-50 15q-60 0 -71 -53h-116
q18 142 194 142q109 0 152 -51.5t43 -142.5v-269z" />
    <glyph glyph-name="b" unicode="b" horiz-adv-x="558" 
d="M184 0h-126v716h126v-308q53 55 135 55q97 0 152 -68t55 -165q0 -45 -13 -86.5t-38.5 -76t-67 -55t-94.5 -20.5q-81 0 -129 50v-42zM283 88q53 0 82 41t29 101t-28 100t-80 40t-80.5 -38.5t-28.5 -104.5q0 -64 27.5 -101.5t78.5 -37.5z" />
    <glyph glyph-name="c" unicode="c" horiz-adv-x="511" 
d="M365 168h119q-6 -71 -57 -123.5t-151 -52.5q-115 0 -179.5 68.5t-64.5 166.5t65 167t179 69q90 0 141 -44.5t61 -116.5h-118q-14 67 -83 67q-53 0 -82.5 -37.5t-29.5 -105.5q0 -67 29.5 -104t83.5 -37q77 0 87 83z" />
    <glyph glyph-name="d" unicode="d" horiz-adv-x="559" 
d="M501 0h-126v45q-51 -53 -134 -53q-98 0 -153 68t-55 167q0 102 58.5 169t154.5 67q78 0 129 -48v301h126v-716zM273 84q52 0 80.5 39t28.5 105q0 69 -30.5 104t-76.5 35q-49 0 -79.5 -38t-30.5 -103q0 -62 28.5 -102t79.5 -40z" />
    <glyph glyph-name="e" unicode="e" horiz-adv-x="528" 
d="M500 203h-335q2 -57 31.5 -87.5t81.5 -30.5q78 0 94 63h124q-10 -64 -66 -110t-152 -46q-118 0 -182 68.5t-64 167.5t63.5 167t180.5 68q110 0 167 -66t57 -194zM170 280h201q-9 92 -96 92q-86 0 -105 -92z" />
    <glyph glyph-name="f" unicode="f" horiz-adv-x="319" 
d="M214 0h-127v349h-59v101h59v70q0 91 39.5 143.5t119.5 52.5q30 0 51 -9v-84q-13 3 -24 3q-33 0 -46 -25.5t-13 -81.5v-69h86v-101h-86v-349z" />
    <glyph glyph-name="g" unicode="g" horiz-adv-x="558" 
d="M374 -6v53q-49 -55 -131 -55q-100 0 -155.5 68t-55.5 166q0 102 59.5 169.5t153.5 67.5q78 0 129 -51v38h126v-455q0 -95 -56 -154.5t-175 -59.5q-94 0 -151 41t-57 127h117q0 -35 20 -55.5t73 -20.5q57 0 80 27.5t23 93.5zM273 84q51 0 79.5 38t28.5 105
q0 71 -29.5 105.5t-76.5 34.5q-50 0 -80.5 -37.5t-30.5 -102.5q0 -62 28.5 -102.5t80.5 -40.5z" />
    <glyph glyph-name="h" unicode="h" 
d="M487 0h-127v267q0 47 -13 68.5t-50 21.5q-50 0 -81.5 -34t-31.5 -89v-234h-126v716h126v-332q57 79 156 79q147 0 147 -173v-290z" />
    <glyph glyph-name="i" unicode="i" horiz-adv-x="242" 
d="M184 0h-126v450h126v-450zM184 559h-126v110h126v-110z" />
    <glyph glyph-name="j" unicode="j" horiz-adv-x="242" 
d="M-1 -192v90q4 -1 8 -1q31 0 41 21.5t10 77.5v454h126v-444q0 -93 -38.5 -146.5t-119.5 -53.5q-19 0 -27 2zM184 559h-126v110h126v-110z" />
    <glyph glyph-name="k" unicode="k" horiz-adv-x="509" 
d="M505 0h-152l-169 223v-223h-126v716h126v-456l155 190h153l-177 -209z" />
    <glyph glyph-name="l" unicode="l" horiz-adv-x="246" 
d="M186 0h-126v716h126v-716z" />
    <glyph glyph-name="m" unicode="m" horiz-adv-x="806" 
d="M751 0h-126v264q0 46 -9.5 66t-43.5 20q-41 0 -73 -28t-32 -86v-236h-127v273q0 42 -11 59.5t-40 17.5q-41 0 -73 -28.5t-32 -87.5v-234h-126v450h126v-65q48 78 136 78q98 0 130 -85q55 85 150 85q151 0 151 -192v-271z" />
    <glyph glyph-name="n" unicode="n" 
d="M487 0h-127v264q0 48 -15 70.5t-54 22.5q-50 0 -78.5 -34t-28.5 -89v-234h-126v450h126v-65q57 78 150 78q153 0 153 -189v-274z" />
    <glyph glyph-name="o" unicode="o" horiz-adv-x="561" 
d="M530 227q0 -97 -66 -166t-184 -69t-183.5 69t-65.5 166t66 166.5t183 69.5q118 0 184 -69.5t66 -166.5zM280 88q56 0 86 37.5t30 100.5q0 64 -30 102.5t-86 38.5t-86 -38.5t-30 -102.5q0 -63 30 -100.5t86 -37.5z" />
    <glyph glyph-name="p" unicode="p" horiz-adv-x="558" 
d="M184 -193h-126v643h126v-38q49 51 131 51q99 0 155 -68.5t56 -166.5q0 -100 -59 -168t-155 -68q-80 0 -128 48v-233zM284 88q50 0 80 37.5t30 102.5q0 62 -28 102t-80 40q-51 0 -80 -38t-29 -105q0 -70 30.5 -104.5t76.5 -34.5z" />
    <glyph glyph-name="q" unicode="q" horiz-adv-x="558" 
d="M500 -193h-126v235q-52 -50 -132 -50q-99 0 -154.5 68t-55.5 166q0 102 60 169.5t154 67.5q76 0 128 -50v37h126v-643zM274 84q50 0 78.5 38t28.5 106q0 70 -29 104.5t-75 34.5q-50 0 -81.5 -37.5t-31.5 -103.5q0 -61 28.5 -101.5t81.5 -40.5z" />
    <glyph glyph-name="r" unicode="r" horiz-adv-x="384" 
d="M184 0h-126v450h126v-72q53 85 136 85q32 0 50 -12v-103q-18 7 -49 7q-137 0 -137 -196v-159z" />
    <glyph glyph-name="s" unicode="s" horiz-adv-x="470" 
d="M425 332h-120q-4 50 -69 50q-36 0 -53 -12.5t-17 -31.5q0 -24 28 -37t68 -20.5t80.5 -19t68.5 -40.5t28 -77q0 -64 -49 -108t-155 -44q-193 0 -200 151l119 3q3 -72 82 -72q37 0 55.5 14t18.5 36q0 26 -28 40t-68.5 21.5t-80.5 18t-68 39t-28 75.5q0 67 53 106t149 39
q88 0 136 -34t50 -97z" />
    <glyph glyph-name="t" unicode="t" horiz-adv-x="373" 
d="M343 109v-94q-38 -23 -99 -23q-158 0 -158 174v183h-67v101h67v133l127 42v-175h130v-101h-130v-147q0 -60 11 -82.5t50 -22.5q33 0 69 12z" />
    <glyph glyph-name="u" unicode="u" 
d="M484 0h-127v70q-53 -78 -147 -78q-80 0 -121 56q-34 46 -34 132v270h126v-259q0 -48 15 -70.5t55 -22.5q50 0 78 33.5t28 91.5v227h127v-450z" />
    <glyph glyph-name="v" unicode="v" horiz-adv-x="493" 
d="M328 -3h-163l-160 453h137l104 -326l105 326h137z" />
    <glyph glyph-name="w" unicode="w" horiz-adv-x="802" 
d="M653 -3h-165l-87 293l-87 -293h-165l-139 453h135l88 -326l99 327h138l99 -327l88 326h135z" />
    <glyph glyph-name="x" unicode="x" horiz-adv-x="486" 
d="M477 0h-147l-90 131l-84 -131h-146l158 234l-151 216h146l81 -119l77 119h147l-151 -223z" />
    <glyph glyph-name="y" unicode="y" horiz-adv-x="483" 
d="M68 -181v97q23 -10 48 -10q32 0 50 18.5t32 64.5l11 36h-49l-155 425h134l105 -314l99 314h134l-158 -476q-28 -84 -71.5 -125.5t-113.5 -41.5q-40 0 -66 12z" />
    <glyph glyph-name="z" unicode="z" horiz-adv-x="466" 
d="M427 0h-393v111l226 236h-212v103h379v-105l-231 -242h231v-103z" />
    <glyph glyph-name="braceleft" unicode="{" horiz-adv-x="382" 
d="M352 -138h-68q-46 0 -78.5 9.5t-50.5 24t-27.5 40.5t-12 50t-2.5 61v85q0 63 -12.5 83t-59.5 20h-23v101h23q47 0 59.5 20t12.5 83v76q0 37 2.5 61t12 50t27.5 40.5t50.5 24t78.5 9.5h68v-98h-46q-47 0 -58.5 -15t-11.5 -70v-84q0 -41 -4.5 -65t-26 -48t-62.5 -35
q31 -9 50.5 -23t28.5 -35t11.5 -40.5t2.5 -49.5v-93q0 -54 11.5 -69t58.5 -15h46v-98z" />
    <glyph glyph-name="bar" unicode="|" horiz-adv-x="258" 
d="M192 -250h-126v950h126v-950z" />
    <glyph glyph-name="braceright" unicode="}" horiz-adv-x="381" 
d="M98 -138h-68v98h46q46 0 57.5 15t11.5 69v93q0 30 2.5 49.5t11.5 40.5t29 35t51 23q-59 16 -76.5 51t-17.5 97v84q0 55 -11.5 70t-57.5 15h-46v98h68q46 0 78.5 -9.5t50 -24t27 -41t12 -50t2.5 -60.5v-76q0 -64 12.5 -83.5t60.5 -19.5h23v-101h-23q-48 0 -60.5 -19.5
t-12.5 -83.5v-85q0 -37 -2.5 -60.5t-12 -50t-27 -41t-50 -24t-78.5 -9.5z" />
    <glyph glyph-name="asciitilde" unicode="~" horiz-adv-x="496" 
d="M452 642v-43q0 -129 -84 -129q-43 0 -112.5 37.5t-92.5 37.5q-17 0 -24.5 -12t-7.5 -49h-84v40q0 132 92 132q45 0 114 -37.5t86 -37.5q16 0 22.5 12t6.5 49h84z" />
    <glyph glyph-name="nbspace" unicode="&#xa0;" horiz-adv-x="211" 
 />
    <glyph glyph-name="exclamdown" unicode="&#xa1;" horiz-adv-x="240" 
d="M169 325l17 -518h-132l17 518h98zM186 507v-114h-132v114h132z" />
    <glyph glyph-name="cent" unicode="&#xa2;" horiz-adv-x="570" 
d="M279 0h-60l15 101q-87 22 -134 90.5t-47 159.5q0 110 67.5 184.5t187.5 74.5l14 90h60l-14 -96q64 -14 102 -57t47 -104h-122q-10 44 -42 61l-46 -315q83 0 93 86h123q-3 -34 -16.5 -64.5t-37.5 -58t-66 -44t-96 -16.5h-15zM249 203l45 310q-106 -11 -106 -162
q0 -112 61 -148z" />
    <glyph glyph-name="sterling" unicode="&#xa3;" horiz-adv-x="621" 
d="M569 0h-518v88l107 20v181h-109v106h109v92q0 117 62 173t161 56q121 0 188 -101l-68 -69q-36 63 -109 63q-55 0 -81 -34t-26 -85v-95h235v-106h-235v-181h284v-108z" />
    <glyph glyph-name="currency" unicode="&#xa4;" horiz-adv-x="613" 
d="M484 99l-67 67q-49 -31 -111 -31q-59 0 -111 31l-66 -66l-69 70l66 65q-32 53 -32 111q0 60 31 110l-66 65l68 72l67 -67q51 32 112 32q63 0 111 -32l67 67l69 -70l-67 -66q32 -53 32 -111t-32 -111l67 -65zM419 347q0 46 -34 79t-79 33q-47 0 -80 -33t-33 -79
q0 -47 33.5 -80t79.5 -33t79.5 33t33.5 80z" />
    <glyph glyph-name="yen" unicode="&#xa5;" horiz-adv-x="658" 
d="M589 93h-196v-93h-127v93h-197v95h197v48l-3 18h-194v95h151l-174 351h139l144 -298l145 298h138l-173 -351h150v-95h-194l-2 -18v-48h196v-95z" />
    <glyph glyph-name="brokenbar" unicode="&#xa6;" horiz-adv-x="266" 
d="M196 -250h-126v380h126v-380zM196 320h-126v380h126v-380z" />
    <glyph glyph-name="section" unicode="&#xa7;" horiz-adv-x="519" 
d="M56 140l119 3q3 -72 82 -72q37 0 55.5 14t18.5 36q0 26 -28 42.5t-68.5 28t-80.5 26t-68 46t-28 78.5q0 84 78 121q-73 40 -73 108q0 67 53 106t149 39q88 0 136 -34t50 -97h-120q-4 50 -68 50q-37 0 -54 -12.5t-17 -31.5q0 -24 28 -41.5t68 -31t80.5 -30.5t68.5 -51
t28 -82q0 -78 -62 -118q57 -36 57 -96q0 -64 -49 -108t-155 -44q-193 0 -200 151zM248 409q-61 -9 -61 -45q0 -30 33.5 -50.5t66.5 -25.5q49 6 49 45q0 57 -88 76z" />
    <glyph glyph-name="dieresis" unicode="&#xa8;" horiz-adv-x="385" 
d="M165 520h-115v103h115v-103zM335 520h-115v103h115v-103z" />
    <glyph glyph-name="copyright" unicode="&#xa9;" horiz-adv-x="835" 
d="M418 -17q-152 0 -260.5 108t-108.5 261t108.5 260.5t260.5 107.5q153 0 260.5 -107.5t107.5 -260.5t-107.5 -261t-260.5 -108zM418 44q127 0 217 90t90 218t-89.5 217.5t-217.5 89.5q-127 0 -217.5 -89.5t-90.5 -217.5q0 -127 90.5 -217.5t217.5 -90.5zM515 292h110
q-6 -66 -53 -114.5t-140 -48.5q-107 0 -167.5 65t-60.5 157q0 91 61 156.5t167 65.5q83 0 130.5 -41.5t57.5 -108.5h-110q-14 63 -78 63q-49 0 -76 -36t-27 -100q0 -63 27 -98.5t77 -35.5q72 0 82 76z" />
    <glyph glyph-name="ordfeminine" unicode="&#xaa;" horiz-adv-x="436" 
d="M274 422q0 22 -18 35t-47 13t-46 -14t-17 -37t16.5 -35t43.5 -12q29 0 48.5 13.5t19.5 36.5zM381 305h-107v36q-40 -43 -107 -43q-62 0 -95.5 33.5t-33.5 84.5q0 52 36 87.5t101 35.5t98 -33v21q0 39 -11 58t-48 19q-49 0 -58 -38h-99q14 114 162 114q89 0 125.5 -40
t36.5 -112v-223z" />
    <glyph glyph-name="guillemotleft" unicode="&#xab;" horiz-adv-x="526" 
d="M286 35h-97l-155 223l155 223h97l-132 -223zM491 35h-97l-155 223l155 223h97l-132 -223z" />
    <glyph glyph-name="logicalnot" unicode="&#xac;" horiz-adv-x="544" 
d="M475 172h-100v178h-330v100h430v-278z" />
    <glyph glyph-name="uni00AD" unicode="&#xad;" horiz-adv-x="370" 
d="M315 203h-260v100h260v-100z" />
    <glyph glyph-name="registered" unicode="&#xae;" horiz-adv-x="835" 
d="M418 -17q-152 0 -260.5 108t-108.5 261t108.5 260.5t260.5 107.5q153 0 260.5 -107.5t107.5 -260.5t-107.5 -261t-260.5 -108zM418 44q127 0 217 90t90 218t-89.5 217.5t-217.5 89.5q-127 0 -217.5 -89.5t-90.5 -217.5q0 -127 90.5 -217.5t217.5 -90.5zM599 132h-103
l-98 171h-23v-171h-91v453h127q183 0 183 -134q0 -53 -28.5 -88.5t-81.5 -46.5zM375 378h31q94 0 94 67q0 60 -93 60h-32v-127z" />
    <glyph glyph-name="macron" unicode="&#xaf;" horiz-adv-x="400" 
d="M357 540h-315v89h315v-89z" />
    <glyph glyph-name="degree" unicode="&#xb0;" horiz-adv-x="361" 
d="M326 550q0 -61 -43 -103.5t-103 -42.5t-102.5 42.5t-42.5 103.5t42 103t103 42q60 0 103 -42.5t43 -102.5zM252 550q0 30 -21 50.5t-51 20.5t-50.5 -21t-20.5 -50q0 -30 21 -51t50 -21q30 0 51 21t21 51z" />
    <glyph glyph-name="plusminus" unicode="&#xb1;" horiz-adv-x="524" 
d="M467 274h-155v-132h-100v132h-155v100h155v133h100v-133h155v-100zM467 0h-410v100h410v-100z" />
    <glyph glyph-name="twosuperior" unicode="&#xb2;" horiz-adv-x="338" 
d="M312 286h-279v66q0 45 19.5 75.5t47.5 46t56 29t47.5 35t19.5 52.5q0 16 -10.5 30t-32.5 14q-56 0 -56 -68h-89q0 73 34 111.5t100 38.5q63 0 103 -33.5t40 -93.5q0 -37 -14 -66t-35 -45t-46 -31t-46 -24.5t-35 -24t-14 -31.5h190v-81z" />
    <glyph glyph-name="threesuperior" unicode="&#xb3;" horiz-adv-x="340" 
d="M142 460h-12v82q89 0 89 51q0 22 -14 31.5t-32 9.5q-23 0 -35.5 -14t-12.5 -32h-89q0 128 136 128q69 0 102.5 -31.5t33.5 -78.5q0 -71 -75 -102q81 -23 81 -103q0 -52 -35 -87.5t-109 -35.5q-70 0 -106.5 34t-36.5 100h89q0 -27 17 -40t40 -13q52 0 52 55q0 46 -83 46z
" />
    <glyph glyph-name="acute" unicode="&#xb4;" horiz-adv-x="315" 
d="M143 520h-93l72 148h143z" />
    <glyph glyph-name="mu" unicode="&#xb5;" horiz-adv-x="803" 
d="M718 -17l-102 74q-94 -71 -219 -71q-94 0 -174 41.5t-131.5 126.5t-51.5 197q0 167 106 266t251 99q146 0 252 -99t106 -266q0 -123 -64 -217l85 -63zM397 92q102 0 163 71t61 188q0 116 -61.5 187.5t-162.5 71.5t-162 -71.5t-61 -187.5q0 -117 61 -188t162 -71z" />
    <glyph glyph-name="paragraph" unicode="&#xb6;" horiz-adv-x="617" 
d="M523 -49h-99v642h-91v-642h-99v345q-55 4 -95.5 24.5t-60.5 51.5t-29 61.5t-9 61.5q0 102 67 153t179 51h237v-748z" />
    <glyph glyph-name="periodcentered" unicode="&#xb7;" horiz-adv-x="241" 
d="M186 293h-131v114h131v-114z" />
    <glyph glyph-name="cedilla" unicode="&#xb8;" horiz-adv-x="333" 
d="M53 -203l16 60q28 -13 71 -13q26 0 43 11.5t17 29.5q0 13 -10.5 22t-29.5 10q-25 3 -57 -2l28 92h70l-14 -44q46 -2 76 -23.5t30 -58.5q0 -47 -42.5 -74t-104.5 -27q-50 0 -93 17z" />
    <glyph glyph-name="onesuperior" unicode="&#xb9;" horiz-adv-x="238" 
d="M212 283h-84v307q-35 -47 -95 -89v92q57 42 99 110h80v-420z" />
    <glyph glyph-name="ordmasculine" unicode="&#xba;" horiz-adv-x="466" 
d="M432 489q0 -77 -52.5 -133.5t-146.5 -56.5t-146.5 56.5t-52.5 133.5q0 78 52.5 134.5t146.5 56.5t146.5 -56.5t52.5 -134.5zM233 381q42 0 64.5 30t22.5 78q0 49 -22.5 79t-64.5 30t-65 -30.5t-23 -78.5q0 -49 23 -78.5t65 -29.5z" />
    <glyph glyph-name="guillemotright" unicode="&#xbb;" horiz-adv-x="526" 
d="M132 35h-97l132 223l-132 223h97l155 -223zM337 35h-97l132 223l-132 223h97l155 -223z" />
    <glyph glyph-name="onequarter" unicode="&#xbc;" horiz-adv-x="800" 
d="M629 700l-373 -700h-96l373 700h96zM224 283h-84v307q-35 -47 -95 -89v92q57 42 99 110h80v-420zM710 0h-84v92h-189v91l166 237h107v-247h45v-81h-45v-92zM626 173v152l-101 -152h101z" />
    <glyph glyph-name="onehalf" unicode="&#xbd;" horiz-adv-x="852" 
d="M629 700l-373 -700h-96l373 700h96zM224 283h-84v307q-35 -47 -95 -89v92q57 42 99 110h80v-420zM807 0h-279v66q0 45 19.5 75.5t47.5 46t56 29t47.5 35t19.5 52.5q0 16 -10.5 30t-32.5 14q-56 0 -56 -68h-89q0 73 34 111.5t100 38.5q63 0 103 -33.5t40 -93.5
q0 -37 -14 -66t-35 -45t-46 -31t-46 -24.5t-35 -24t-14 -31.5h190v-81z" />
    <glyph glyph-name="threequarters" unicode="&#xbe;" horiz-adv-x="875" 
d="M704 700l-373 -700h-96l373 700h96zM785 0h-84v92h-189v91l166 237h107v-247h45v-81h-45v-92zM701 173v152l-101 -152h101zM160 460h-12v82q89 0 89 51q0 22 -14 31.5t-32 9.5q-23 0 -35.5 -14t-12.5 -32h-89q0 128 136 128q69 0 102.5 -31.5t33.5 -78.5q0 -71 -75 -102
q81 -23 81 -103q0 -52 -35 -87.5t-109 -35.5q-70 0 -106.5 34t-36.5 100h89q0 -27 17 -40t40 -13q52 0 52 55q0 46 -83 46z" />
    <glyph glyph-name="questiondown" unicode="&#xbf;" horiz-adv-x="517" 
d="M345 398h-127v109h127v-109zM357 38h124q0 -247 -222 -247q-114 0 -164 60.5t-50 151.5q0 55 18 94.5t43.5 62.5t50.5 44.5t43 54.5t18 78h127q0 -31 -5 -59q-7 -44 -26.5 -76.5t-42 -51.5t-44 -37.5t-36 -47.5t-14.5 -70q0 -104 87 -104q30 0 49.5 12t28 36t11.5 45
t4 54z" />
    <glyph glyph-name="Agrave" unicode="&#xc0;" horiz-adv-x="628" 
d="M626 0h-129l-54 168h-259l-54 -168h-128l238 704h148zM410 271l-96 297l-96 -297h192zM373 770h-93l-122 148h143z" />
    <glyph glyph-name="Aacute" unicode="&#xc1;" horiz-adv-x="628" 
d="M626 0h-129l-54 168h-259l-54 -168h-128l238 704h148zM410 271l-96 297l-96 -297h192zM342 770h-93l73 148h142z" />
    <glyph glyph-name="Acircumflex" unicode="&#xc2;" horiz-adv-x="628" 
d="M626 0h-129l-54 168h-259l-54 -168h-128l238 704h148zM410 271l-96 297l-96 -297h192zM476 770h-98l-65 83l-64 -83h-98l87 148h150z" />
    <glyph glyph-name="Atilde" unicode="&#xc3;" horiz-adv-x="628" 
d="M626 0h-129l-54 168h-259l-54 -168h-128l238 704h148zM410 271l-96 297l-96 -297h192zM411 893h68q-1 -50 -22 -85t-62 -36q-18 0 -27 2q-25 3 -62.5 22t-54.5 19q-33 0 -35 -44h-69q2 114 87 121q16 2 28 -1q19 -2 57.5 -20.5t53.5 -18.5q36 0 38 41z" />
    <glyph glyph-name="Adieresis" unicode="&#xc4;" horiz-adv-x="628" 
d="M626 0h-129l-54 168h-259l-54 -168h-128l238 704h148zM410 271l-96 297l-96 -297h192zM286 770h-115v103h115v-103zM456 770h-115v103h115v-103z" />
    <glyph glyph-name="Aring" unicode="&#xc5;" horiz-adv-x="628" 
d="M626 0h-129l-54 168h-259l-54 -168h-128l238 704h148zM410 271l-96 297l-96 -297h192zM410 852q0 -40 -28.5 -68.5t-68.5 -28.5t-68 28.5t-28 68.5q0 41 28 69.5t68 28.5q41 0 69 -28.5t28 -69.5zM355 852q0 17 -12 29.5t-29 12.5q-18 0 -30 -12.5t-12 -28.5
q0 -18 12.5 -30t29.5 -12t29 12t12 29z" />
    <glyph glyph-name="AE" unicode="&#xc6;" horiz-adv-x="889" 
d="M842 0h-411v168h-224l-79 -168h-134l331 700h512v-108h-279v-180h259v-108h-259v-196h284v-108zM431 271v321h-23l-152 -321h175z" />
    <glyph glyph-name="Ccedilla" unicode="&#xc7;" horiz-adv-x="724" 
d="M277 -207l16 60q28 -13 71 -13q26 0 43 11.5t17 29.5q0 13 -10.5 22t-29.5 10q-25 3 -57 -2l23 77q-131 12 -220 109t-89 256q0 86 29.5 156.5t78.5 114.5t110.5 68t128.5 24q127 0 204.5 -66.5t88.5 -163.5h-121q-12 65 -62 94.5t-115 29.5q-87 0 -147.5 -66.5
t-60.5 -188.5q0 -128 60.5 -195.5t152.5 -67.5q70 0 123 35t61 109h121q-7 -101 -83.5 -170t-189.5 -78l-9 -29q46 -2 76 -23.5t30 -58.5q0 -47 -42.5 -74t-104.5 -27q-50 0 -93 17z" />
    <glyph glyph-name="Egrave" unicode="&#xc8;" horiz-adv-x="572" 
d="M525 0h-444v700h439v-108h-312v-180h292v-108h-292v-196h317v-108zM380 770h-93l-122 148h143z" />
    <glyph glyph-name="Eacute" unicode="&#xc9;" horiz-adv-x="572" 
d="M525 0h-444v700h439v-108h-312v-180h292v-108h-292v-196h317v-108zM327 770h-93l72 148h143z" />
    <glyph glyph-name="Ecircumflex" unicode="&#xca;" horiz-adv-x="572" 
d="M525 0h-444v700h439v-108h-312v-180h292v-108h-292v-196h317v-108zM466 770h-98l-65 83l-64 -83h-98l88 148h150z" />
    <glyph glyph-name="Edieresis" unicode="&#xcb;" horiz-adv-x="572" 
d="M525 0h-444v700h439v-108h-312v-180h292v-108h-292v-196h317v-108zM277 770h-115v103h115v-103zM447 770h-115v103h115v-103z" />
    <glyph glyph-name="Igrave" unicode="&#xcc;" horiz-adv-x="289" 
d="M208 0h-127v700h127v-700zM208 770h-93l-122 148h142z" />
    <glyph glyph-name="Iacute" unicode="&#xcd;" horiz-adv-x="289" 
d="M208 0h-127v700h127v-700zM176 770h-93l72 148h143z" />
    <glyph glyph-name="Icircumflex" unicode="&#xce;" horiz-adv-x="289" 
d="M208 0h-127v700h127v-700zM308 770h-98l-65 83l-64 -83h-98l87 148h150z" />
    <glyph glyph-name="Idieresis" unicode="&#xcf;" horiz-adv-x="289" 
d="M208 0h-127v700h127v-700zM118 770h-115v103h115v-103zM288 770h-115v103h115v-103z" />
    <glyph glyph-name="Eth" unicode="&#xd0;" horiz-adv-x="712" 
d="M245 0h-162v300h-61v103h61v297h174q156 0 242 -43q59 -29 98.5 -79t56 -106.5t16.5 -121.5q0 -74 -23 -134.5t-71 -110.5t-132.5 -77.5t-198.5 -27.5zM206 109h47q286 0 286 243q0 239 -286 239h-47v-188h159v-103h-159v-191z" />
    <glyph glyph-name="Ntilde" unicode="&#xd1;" horiz-adv-x="778" 
d="M697 0h-152l-337 512v-512h-127v700h151l338 -511v511h127v-700zM496 893h69q-2 -52 -24 -86.5t-67 -34.5q-31 0 -75.5 21.5t-61.5 21.5q-34 0 -36 -44h-68q0 52 23 87t75 35q24 0 68 -20.5t60 -20.5q35 0 37 41z" />
    <glyph glyph-name="Ograve" unicode="&#xd2;" horiz-adv-x="795" 
d="M397 -14q-94 0 -174 41.5t-131.5 126.5t-51.5 197q0 167 106 266t251 99q146 0 252 -99t106 -266q0 -112 -51.5 -197t-132 -126.5t-174.5 -41.5zM397 92q102 0 163 71t61 188q0 116 -61.5 187.5t-162.5 71.5t-162 -71.5t-61 -187.5q0 -117 61 -188t162 -71zM459 770h-93
l-122 148h143z" />
    <glyph glyph-name="Oacute" unicode="&#xd3;" horiz-adv-x="795" 
d="M397 -14q-94 0 -174 41.5t-131.5 126.5t-51.5 197q0 167 106 266t251 99q146 0 252 -99t106 -266q0 -112 -51.5 -197t-132 -126.5t-174.5 -41.5zM397 92q102 0 163 71t61 188q0 116 -61.5 187.5t-162.5 71.5t-162 -71.5t-61 -187.5q0 -117 61 -188t162 -71zM417 770h-93
l73 148h142z" />
    <glyph glyph-name="Ocircumflex" unicode="&#xd4;" horiz-adv-x="795" 
d="M397 -14q-94 0 -174 41.5t-131.5 126.5t-51.5 197q0 167 106 266t251 99q146 0 252 -99t106 -266q0 -112 -51.5 -197t-132 -126.5t-174.5 -41.5zM397 92q102 0 163 71t61 188q0 116 -61.5 187.5t-162.5 71.5t-162 -71.5t-61 -187.5q0 -117 61 -188t162 -71zM559 770h-98
l-65 83l-64 -83h-98l88 148h150z" />
    <glyph glyph-name="Otilde" unicode="&#xd5;" horiz-adv-x="795" 
d="M397 -14q-94 0 -174 41.5t-131.5 126.5t-51.5 197q0 167 106 266t251 99q146 0 252 -99t106 -266q0 -112 -51.5 -197t-132 -126.5t-174.5 -41.5zM397 92q102 0 163 71t61 188q0 116 -61.5 187.5t-162.5 71.5t-162 -71.5t-61 -187.5q0 -117 61 -188t162 -71zM494 893h69
q-2 -52 -24 -86.5t-67 -34.5q-31 0 -75.5 21.5t-61.5 21.5q-34 0 -36 -44h-68q0 52 23 87t75 35q24 0 68 -20.5t60 -20.5q35 0 37 41z" />
    <glyph glyph-name="Odieresis" unicode="&#xd6;" horiz-adv-x="795" 
d="M397 -14q-94 0 -174 41.5t-131.5 126.5t-51.5 197q0 167 106 266t251 99q146 0 252 -99t106 -266q0 -112 -51.5 -197t-132 -126.5t-174.5 -41.5zM397 92q102 0 163 71t61 188q0 116 -61.5 187.5t-162.5 71.5t-162 -71.5t-61 -187.5q0 -117 61 -188t162 -71zM369 770h-115
v103h115v-103zM539 770h-115v103h115v-103z" />
    <glyph glyph-name="multiply" unicode="&#xd7;" horiz-adv-x="468" 
d="M344 76l-110 110l-111 -111l-70 70l111 111l-110 110l71 71l110 -110l108 108l70 -70l-108 -108l110 -110z" />
    <glyph glyph-name="Oslash" unicode="&#xd8;" horiz-adv-x="795" 
d="M135 -11l-68 62l54 60q-81 97 -81 240q0 167 106 266t251 99q116 0 209 -65l55 61l67 -60l-55 -61q82 -98 82 -240q0 -112 -51.5 -197t-132 -126.5t-174.5 -41.5q-118 0 -208 63zM589 497l-324 -363q54 -42 132 -42q105 0 164.5 74t59.5 186q0 80 -32 145zM206 206
l324 360q-55 44 -133 44q-110 0 -166 -76t-56 -187q0 -76 31 -141z" />
    <glyph glyph-name="Ugrave" unicode="&#xd9;" horiz-adv-x="699" 
d="M497 268v432h127v-433q0 -125 -41 -184q-68 -97 -233 -97q-164 0 -232 97q-42 61 -42 184v433h127v-432q0 -74 17 -109q33 -67 130 -67q98 0 131 67q16 33 16 109zM419 770h-93l-122 148h142z" />
    <glyph glyph-name="Uacute" unicode="&#xda;" horiz-adv-x="699" 
d="M497 268v432h127v-433q0 -125 -41 -184q-68 -97 -233 -97q-164 0 -232 97q-42 61 -42 184v433h127v-432q0 -74 17 -109q33 -67 130 -67q98 0 131 67q16 33 16 109zM386 770h-93l73 148h142z" />
    <glyph glyph-name="Ucircumflex" unicode="&#xdb;" horiz-adv-x="699" 
d="M497 268v432h127v-433q0 -125 -41 -184q-68 -97 -233 -97q-164 0 -232 97q-42 61 -42 184v433h127v-432q0 -74 17 -109q33 -67 130 -67q98 0 131 67q16 33 16 109zM515 770h-98l-65 83l-64 -83h-98l87 148h150z" />
    <glyph glyph-name="Udieresis" unicode="&#xdc;" horiz-adv-x="699" 
d="M497 268v432h127v-433q0 -125 -41 -184q-68 -97 -233 -97q-164 0 -232 97q-42 61 -42 184v433h127v-432q0 -74 17 -109q33 -67 130 -67q98 0 131 67q16 33 16 109zM325 770h-115v103h115v-103zM495 770h-115v103h115v-103z" />
    <glyph glyph-name="Yacute" unicode="&#xdd;" horiz-adv-x="565" 
d="M346 0h-127v256l-220 444h139l144 -298l145 298h138l-219 -444v-256zM308 770h-93l73 148h142z" />
    <glyph glyph-name="Thorn" unicode="&#xde;" horiz-adv-x="570" 
d="M204 0h-123v700h123v-125h79q140 0 200.5 -56.5t60.5 -163.5q0 -108 -61.5 -166t-202.5 -58h-76v-131zM204 239h77q72 0 103 28.5t31 86.5q0 57 -31.5 84.5t-102.5 27.5h-77v-227z" />
    <glyph glyph-name="germandbls" unicode="&#xdf;" horiz-adv-x="539" 
d="M262 -4v86q2 0 6 -0.5t10 -0.5q49 0 79.5 29.5t30.5 83.5q0 58 -36.5 87.5t-95.5 30.5v89q120 16 120 118q0 52 -26 80t-70 28q-96 0 -96 -133v-494h-126v494q0 117 58.5 169.5t154.5 52.5q103 0 166.5 -52.5t63.5 -141.5q0 -125 -128 -162q71 -18 102.5 -64.5
t31.5 -103.5q0 -80 -53 -140t-143 -60q-29 0 -49 4z" />
    <glyph glyph-name="agrave" unicode="&#xe0;" horiz-adv-x="499" 
d="M337 520h-93l-122 148h142zM318 144q0 30 -22.5 47t-57.5 17q-38 0 -59 -19t-21 -49q0 -29 19.5 -46.5t55.5 -17.5q39 0 62 19t23 49zM444 0h-126v46q-46 -54 -131 -54q-76 0 -116.5 41.5t-40.5 102.5q0 65 45 107.5t127 42.5q75 0 114 -40v24q0 35 -3.5 54.5t-20.5 34.5
t-50 15q-60 0 -71 -53h-116q18 142 194 142q109 0 152 -51.5t43 -142.5v-269z" />
    <glyph glyph-name="aacute" unicode="&#xe1;" horiz-adv-x="499" 
d="M249 520h-93l73 148h142zM318 144q0 30 -22.5 47t-57.5 17q-38 0 -59 -19t-21 -49q0 -29 19.5 -46.5t55.5 -17.5q39 0 62 19t23 49zM444 0h-126v46q-46 -54 -131 -54q-76 0 -116.5 41.5t-40.5 102.5q0 65 45 107.5t127 42.5q75 0 114 -40v24q0 35 -3.5 54.5t-20.5 34.5
t-50 15q-60 0 -71 -53h-116q18 142 194 142q109 0 152 -51.5t43 -142.5v-269z" />
    <glyph glyph-name="acircumflex" unicode="&#xe2;" horiz-adv-x="499" 
d="M412 520h-98l-65 83l-64 -83h-98l87 148h150zM318 144q0 30 -22.5 47t-57.5 17q-38 0 -59 -19t-21 -49q0 -29 19.5 -46.5t55.5 -17.5q39 0 62 19t23 49zM444 0h-126v46q-46 -54 -131 -54q-76 0 -116.5 41.5t-40.5 102.5q0 65 45 107.5t127 42.5q75 0 114 -40v24
q0 35 -3.5 54.5t-20.5 34.5t-50 15q-60 0 -71 -53h-116q18 142 194 142q109 0 152 -51.5t43 -142.5v-269z" />
    <glyph glyph-name="atilde" unicode="&#xe3;" horiz-adv-x="499" 
d="M347 643h68q-1 -50 -22 -85t-62 -36q-19 0 -27 2q-25 3 -62.5 22t-54.5 19q-33 0 -35 -44h-69q2 114 87 121q16 2 28 -1q19 -2 57.5 -20.5t53.5 -18.5q36 0 38 41zM318 144q0 30 -22.5 47t-57.5 17q-38 0 -59 -19t-21 -49q0 -29 19.5 -46.5t55.5 -17.5q39 0 62 19t23 49z
M444 0h-126v46q-46 -54 -131 -54q-76 0 -116.5 41.5t-40.5 102.5q0 65 45 107.5t127 42.5q75 0 114 -40v24q0 35 -3.5 54.5t-20.5 34.5t-50 15t-49 -13t-22 -40h-116q18 142 194 142q109 0 152 -51.5t43 -142.5v-269z" />
    <glyph glyph-name="adieresis" unicode="&#xe4;" horiz-adv-x="499" 
d="M222 520h-115v103h115v-103zM392 520h-115v103h115v-103zM318 144q0 30 -22.5 47t-57.5 17q-38 0 -59 -19t-21 -49q0 -29 19.5 -46.5t55.5 -17.5q39 0 62 19t23 49zM444 0h-126v46q-46 -54 -131 -54q-76 0 -116.5 41.5t-40.5 102.5q0 65 45 107.5t127 42.5q75 0 114 -40
v24q0 35 -3.5 54.5t-20.5 34.5t-50 15q-60 0 -71 -53h-116q18 142 194 142q109 0 152 -51.5t43 -142.5v-269z" />
    <glyph glyph-name="aring" unicode="&#xe5;" horiz-adv-x="499" 
d="M346 612q0 -40 -28.5 -68.5t-68.5 -28.5t-68 28.5t-28 68.5q0 41 28 69.5t68 28.5q41 0 69 -28.5t28 -69.5zM291 612q0 17 -12 29.5t-29 12.5q-18 0 -30 -12.5t-12 -28.5q0 -18 12.5 -30t29.5 -12t29 12t12 29zM318 144q0 30 -22.5 47t-57.5 17q-38 0 -59 -19t-21 -49
q0 -29 19.5 -46.5t55.5 -17.5q39 0 62 19t23 49zM444 0h-126v46q-46 -54 -131 -54q-76 0 -116.5 41.5t-40.5 102.5q0 65 45 107.5t127 42.5q75 0 114 -40v24q0 35 -3.5 54.5t-20.5 34.5t-50 15q-60 0 -71 -53h-116q18 142 194 142q109 0 152 -51.5t43 -142.5v-269z" />
    <glyph glyph-name="ae" unicode="&#xe6;" horiz-adv-x="807" 
d="M779 203h-335q2 -57 31.5 -87.5t81.5 -30.5q78 0 94 63h124q-10 -64 -66 -110t-152 -46q-117 0 -185 71q-61 -71 -156 -71q-91 0 -138.5 37.5t-47.5 105.5q0 66 45 109t127 43q75 0 114 -40v23q0 35 -3.5 54.5t-20.5 34.5t-50 15t-49 -13t-22 -40h-116q18 142 193 142
q100 0 148 -56q58 56 159 56q110 0 167 -66t57 -194zM318 145q0 30 -22.5 47t-57.5 17q-38 0 -59 -19.5t-21 -49.5q0 -29 19.5 -46.5t55.5 -17.5q39 0 62 19.5t23 49.5zM449 280h201q-9 92 -96 92q-86 0 -105 -92z" />
    <glyph glyph-name="ccedilla" unicode="&#xe7;" horiz-adv-x="509" 
d="M154 -205l17 61q24 -13 70 -13q27 0 44 11t17 29q0 45 -93 48q4 15 20 65q-94 14 -146 79t-52 152q0 98 65 167t179 69q90 0 141 -44.5t61 -116.5h-118q-14 67 -83 67q-53 0 -82.5 -37.5t-29.5 -105.5q0 -67 29.5 -104t83.5 -37q77 0 87 83h119q-6 -67 -51.5 -118
t-133.5 -57l-9 -32q45 -2 75 -23t30 -59q0 -47 -42.5 -73.5t-103.5 -26.5q-49 0 -94 16z" />
    <glyph glyph-name="egrave" unicode="&#xe8;" horiz-adv-x="528" 
d="M333 520h-93l-122 148h143zM500 203h-335q2 -57 31.5 -87.5t81.5 -30.5q78 0 94 63h124q-10 -64 -66 -110t-152 -46q-118 0 -182 68.5t-64 167.5t63.5 167t180.5 68q110 0 167 -66t57 -194zM170 280h201q-9 92 -96 92q-86 0 -105 -92z" />
    <glyph glyph-name="eacute" unicode="&#xe9;" horiz-adv-x="528" 
d="M287 520h-93l72 148h143zM500 203h-335q2 -57 31.5 -87.5t81.5 -30.5q78 0 94 63h124q-10 -64 -66 -110t-152 -46q-118 0 -182 68.5t-64 167.5t63.5 167t180.5 68q110 0 167 -66t57 -194zM170 280h201q-9 92 -96 92q-86 0 -105 -92z" />
    <glyph glyph-name="ecircumflex" unicode="&#xea;" horiz-adv-x="528" 
d="M428 520h-98l-65 83l-64 -83h-98l87 148h150zM500 203h-335q2 -57 31.5 -87.5t81.5 -30.5q78 0 94 63h124q-10 -64 -66 -110t-152 -46q-118 0 -182 68.5t-64 167.5t63.5 167t180.5 68q110 0 167 -66t57 -194zM170 280h201q-9 92 -96 92q-86 0 -105 -92z" />
    <glyph glyph-name="edieresis" unicode="&#xeb;" horiz-adv-x="528" 
d="M238 520h-115v103h115v-103zM408 520h-115v103h115v-103zM500 203h-335q2 -57 31.5 -87.5t81.5 -30.5q78 0 94 63h124q-10 -64 -66 -110t-152 -46q-118 0 -182 68.5t-64 167.5t63.5 167t180.5 68q110 0 167 -66t57 -194zM170 280h201q-9 92 -96 92q-86 0 -105 -92z" />
    <glyph glyph-name="igrave" unicode="&#xec;" horiz-adv-x="242" 
d="M184 0h-126v450h126v-450zM184 520h-93l-122 148h143z" />
    <glyph glyph-name="iacute" unicode="&#xed;" horiz-adv-x="242" 
d="M184 0h-126v450h126v-450zM152 520h-93l72 148h143z" />
    <glyph glyph-name="icircumflex" unicode="&#xee;" horiz-adv-x="242" 
d="M184 0h-126v450h126v-450zM284 520h-98l-65 83l-64 -83h-98l87 148h150z" />
    <glyph glyph-name="idieresis" unicode="&#xef;" horiz-adv-x="242" 
d="M184 0h-126v450h126v-450zM94 520h-115v103h115v-103zM264 520h-115v103h115v-103z" />
    <glyph glyph-name="eth" unicode="&#xf0;" horiz-adv-x="581" 
d="M521 659l-60 -47q79 -108 79 -282q0 -71 -14 -130.5t-43.5 -107t-80.5 -74t-120 -26.5q-116 0 -183.5 69.5t-67.5 169.5q0 98 66 165t179 67q80 0 130 -38q-7 68 -48 115l-45 -34l-37 45l42 33q-27 27 -59 27q-39 0 -81 -26l-48 94q61 37 131 37q87 0 153 -55l63 49z
M415 312q-63 54 -132 54q-61 0 -90 -37t-29 -96q0 -65 33 -105t85 -40q65 0 98 63t35 161z" />
    <glyph glyph-name="ntilde" unicode="&#xf1;" 
d="M487 0h-127v264q0 48 -15 70.5t-54 22.5q-50 0 -78.5 -34t-28.5 -89v-234h-126v450h126v-65q57 78 150 78q153 0 153 -189v-274zM367 643h69q-2 -52 -24 -86.5t-67 -34.5q-31 0 -75.5 21.5t-61.5 21.5q-34 0 -36 -44h-68q0 52 23 87t75 35q24 0 68 -20.5t60 -20.5
q35 0 37 41z" />
    <glyph glyph-name="ograve" unicode="&#xf2;" horiz-adv-x="561" 
d="M345 520h-93l-122 148h142zM530 227q0 -97 -66 -166t-184 -69t-183.5 69t-65.5 166t66 166.5t183 69.5q118 0 184 -69.5t66 -166.5zM280 88q56 0 86 37.5t30 100.5q0 64 -30 102.5t-86 38.5t-86 -38.5t-30 -102.5q0 -63 30 -100.5t86 -37.5z" />
    <glyph glyph-name="oacute" unicode="&#xf3;" horiz-adv-x="561" 
d="M301 520h-93l73 148h142zM530 227q0 -97 -66 -166t-184 -69t-183.5 69t-65.5 166t66 166.5t183 69.5q118 0 184 -69.5t66 -166.5zM280 88q56 0 86 37.5t30 100.5q0 64 -30 102.5t-86 38.5t-86 -38.5t-30 -102.5q0 -63 30 -100.5t86 -37.5z" />
    <glyph glyph-name="ocircumflex" unicode="&#xf4;" horiz-adv-x="561" 
d="M442 520h-98l-65 83l-64 -83h-98l88 148h150zM530 227q0 -97 -66 -166t-184 -69t-183.5 69t-65.5 166t66 166.5t183 69.5q118 0 184 -69.5t66 -166.5zM280 88q56 0 86 37.5t30 100.5q0 64 -30 102.5t-86 38.5t-86 -38.5t-30 -102.5q0 -63 30 -100.5t86 -37.5z" />
    <glyph glyph-name="otilde" unicode="&#xf5;" horiz-adv-x="561" 
d="M530 227q0 -97 -66 -166t-184 -69t-183.5 69t-65.5 166t66 166.5t183 69.5q118 0 184 -69.5t66 -166.5zM280 88q56 0 86 37.5t30 100.5q0 64 -30 102.5t-86 38.5t-86 -38.5t-30 -102.5q0 -63 30 -100.5t86 -37.5zM377 643h69q-2 -52 -24 -86.5t-67 -34.5
q-31 0 -75.5 21.5t-61.5 21.5q-34 0 -36 -44h-68q0 52 23 87t75 35q24 0 68 -20.5t60 -20.5q35 0 37 41z" />
    <glyph glyph-name="odieresis" unicode="&#xf6;" horiz-adv-x="561" 
d="M252 520h-115v103h115v-103zM422 520h-115v103h115v-103zM530 227q0 -97 -66 -166t-184 -69t-183.5 69t-65.5 166t66 166.5t183 69.5q118 0 184 -69.5t66 -166.5zM280 88q56 0 86 37.5t30 100.5q0 64 -30 102.5t-86 38.5t-86 -38.5t-30 -102.5q0 -63 30 -100.5t86 -37.5z
" />
    <glyph glyph-name="divide" unicode="&#xf7;" horiz-adv-x="522" 
d="M326 378h-131v114h131v-114zM326 22h-131v114h131v-114zM466 207h-410v100h410v-100z" />
    <glyph glyph-name="oslash" unicode="&#xf8;" horiz-adv-x="561" 
d="M114 -44l-58 45l45 58q-70 67 -70 169q0 97 66 166t183 69q66 0 117 -23l49 64l58 -42l-47 -62q73 -70 73 -173q0 -97 -66 -166t-184 -69q-67 0 -119 25zM385 305l-163 -207q26 -15 58 -15q56 0 88.5 40t32.5 104q0 45 -16 78zM174 154l161 205q-22 13 -55 13
q-56 0 -88.5 -41t-32.5 -104q0 -40 15 -73z" />
    <glyph glyph-name="ugrave" unicode="&#xf9;" 
d="M336 520h-93l-122 148h143zM484 0h-127v70q-53 -78 -147 -78q-78 0 -120 57q-35 48 -35 131v270h126v-259q0 -48 15 -70.5t55 -22.5q50 0 78 33.5t28 91.5v227h127v-450z" />
    <glyph glyph-name="uacute" unicode="&#xfa;" 
d="M301 520h-93l72 148h143zM484 0h-127v70q-53 -78 -147 -78q-78 0 -120 57q-35 48 -35 131v270h126v-259q0 -48 15 -70.5t55 -22.5q50 0 78 33.5t28 91.5v227h127v-450z" />
    <glyph glyph-name="ucircumflex" unicode="&#xfb;" 
d="M432 520h-98l-65 83l-64 -83h-98l88 148h150zM484 0h-127v70q-53 -78 -147 -78q-78 0 -120 57q-35 48 -35 131v270h126v-259q0 -48 15 -70.5t55 -22.5q50 0 78 33.5t28 91.5v227h127v-450z" />
    <glyph glyph-name="udieresis" unicode="&#xfc;" 
d="M241 520h-115v103h115v-103zM411 520h-115v103h115v-103zM484 0h-127v70q-53 -78 -147 -78q-78 0 -120 57q-35 48 -35 131v270h126v-259q0 -48 15 -70.5t55 -22.5q50 0 78 33.5t28 91.5v227h127v-450z" />
    <glyph glyph-name="yacute" unicode="&#xfd;" horiz-adv-x="483" 
d="M68 -181v97q23 -10 48 -10q32 0 50 18.5t32 64.5l11 36h-49l-155 425h134l105 -314l99 314h134l-158 -476q-28 -84 -71.5 -125.5t-113.5 -41.5q-40 0 -66 12zM278 520h-93l72 148h143z" />
    <glyph glyph-name="thorn" unicode="&#xfe;" horiz-adv-x="558" 
d="M184 -193h-126v909h126v-304q49 51 131 51q99 0 155 -68.5t56 -166.5q0 -100 -59 -168t-155 -68q-80 0 -128 48v-233zM284 88q50 0 80 37.5t30 102.5q0 62 -28 102t-80 40q-51 0 -80 -38t-29 -105q0 -70 30.5 -104.5t76.5 -34.5z" />
    <glyph glyph-name="ydieresis" unicode="&#xff;" horiz-adv-x="483" 
d="M68 -181v97q23 -10 48 -10q32 0 50 18.5t32 64.5l11 36h-49l-155 425h134l105 -314l99 314h134l-158 -476q-28 -84 -71.5 -125.5t-113.5 -41.5q-40 0 -66 12zM214 520h-115v103h115v-103zM384 520h-115v103h115v-103z" />
    <glyph glyph-name="Amacron" unicode="&#x100;" horiz-adv-x="628" 
d="M626 0h-129l-54 168h-259l-54 -168h-128l238 704h148zM410 271l-96 297l-96 -297h192zM471 790h-315v89h315v-89z" />
    <glyph glyph-name="amacron" unicode="&#x101;" horiz-adv-x="499" 
d="M404 540h-315v89h315v-89zM318 144q0 30 -22.5 47t-57.5 17q-38 0 -59 -19t-21 -49q0 -29 19.5 -46.5t55.5 -17.5q39 0 62 19t23 49zM444 0h-126v46q-46 -54 -131 -54q-76 0 -116.5 41.5t-40.5 102.5q0 65 45 107.5t127 42.5q75 0 114 -40v24q0 35 -3.5 54.5t-20.5 34.5
t-50 15q-60 0 -71 -53h-116q18 142 194 142q109 0 152 -51.5t43 -142.5v-269z" />
    <glyph glyph-name="Abreve" unicode="&#x102;" horiz-adv-x="628" 
d="M626 0h-129l-54 168h-259l-54 -168h-128l238 704h148zM410 271l-96 297l-96 -297h192zM393 909h71q-7 -65 -48.5 -102.5t-101.5 -37.5q-61 0 -102.5 37t-48.5 103h71q11 -68 78 -68q70 0 81 68z" />
    <glyph glyph-name="abreve" unicode="&#x103;" horiz-adv-x="499" 
d="M329 659h71q-7 -65 -49 -102.5t-102 -37.5t-102 37t-49 103h71q13 -68 79 -68q70 0 81 68zM318 144q0 30 -22.5 47t-57.5 17q-38 0 -59 -19t-21 -49q0 -29 19.5 -46.5t55.5 -17.5q39 0 62 19t23 49zM444 0h-126v46q-46 -54 -131 -54q-76 0 -116.5 41.5t-40.5 102.5
q0 65 45 107.5t127 42.5q75 0 114 -40v24q0 35 -3.5 54.5t-20.5 34.5t-50 15q-60 0 -71 -53h-116q18 142 194 142q109 0 152 -51.5t43 -142.5v-269z" />
    <glyph glyph-name="Aogonek" unicode="&#x104;" horiz-adv-x="627" 
d="M672 -153l-34 -67q-14 -3 -28 -3q-74 0 -117 34.5t-43 85.5q0 56 47 103l-54 168h-259l-54 -168h-128l238 704h148l238 -705q-47 -6 -68 -31.5t-21 -57.5q0 -58 75 -65q27 -3 60 2zM410 271l-96 297l-96 -297h192z" />
    <glyph glyph-name="aogonek" unicode="&#x105;" horiz-adv-x="498" 
d="M493 -153l-34 -67q-13 -3 -28 -3q-74 0 -117 34.5t-43 85.5q0 56 47 103v46q-46 -54 -131 -54q-76 0 -116.5 41.5t-40.5 102.5q0 65 45 107.5t127 42.5q75 0 114 -40v24q0 35 -3.5 54.5t-20.5 34.5t-50 15t-49 -13t-22 -40h-116q18 142 194 142q109 0 152 -51.5
t43 -142.5v-274q-45 -4 -65.5 -28.5t-20.5 -56.5q0 -61 82 -66q26 -2 53 3zM318 144q0 30 -22.5 47t-57.5 17q-38 0 -59 -19t-21 -49q0 -29 19.5 -46.5t55.5 -17.5q39 0 62 19t23 49z" />
    <glyph glyph-name="Cacute" unicode="&#x106;" horiz-adv-x="724" 
d="M393 770h-93l73 148h142zM572 236h121q-7 -109 -94 -179.5t-213 -70.5q-143 0 -244 99t-101 268q0 86 29.5 156.5t78.5 114.5t110.5 68t128.5 24q127 0 204.5 -66.5t88.5 -163.5h-121q-12 65 -62 94.5t-115 29.5q-87 0 -147.5 -66.5t-60.5 -188.5q0 -128 60.5 -195.5
t152.5 -67.5q70 0 123 35t61 109z" />
    <glyph glyph-name="cacute" unicode="&#x107;" horiz-adv-x="511" 
d="M273 520h-93l72 148h143zM365 168h119q-6 -71 -57 -123.5t-151 -52.5q-115 0 -179.5 68.5t-64.5 166.5t65 167t179 69q90 0 141 -44.5t61 -116.5h-118q-14 67 -83 67q-53 0 -82.5 -37.5t-29.5 -105.5q0 -67 29.5 -104t83.5 -37q77 0 87 83z" />
    <glyph glyph-name="Ccircumflex" unicode="&#x108;" horiz-adv-x="724" 
d="M529 770h-98l-65 83l-64 -83h-98l88 148h150zM572 236h121q-7 -109 -94 -179.5t-213 -70.5q-143 0 -244 99t-101 268q0 86 29.5 156.5t78.5 114.5t110.5 68t128.5 24q127 0 204.5 -66.5t88.5 -163.5h-121q-12 65 -62 94.5t-115 29.5q-87 0 -147.5 -66.5t-60.5 -188.5
q0 -128 60.5 -195.5t152.5 -67.5q70 0 123 35t61 109z" />
    <glyph glyph-name="ccircumflex" unicode="&#x109;" horiz-adv-x="511" 
d="M422 520h-98l-65 83l-64 -83h-98l87 148h150zM365 168h119q-6 -71 -57 -123.5t-151 -52.5q-115 0 -179.5 68.5t-64.5 166.5t65 167t179 69q90 0 141 -44.5t61 -116.5h-118q-14 67 -83 67q-53 0 -82.5 -37.5t-29.5 -105.5q0 -67 29.5 -104t83.5 -37q77 0 87 83z" />
    <glyph glyph-name="Cdotaccent" unicode="&#x10a;" horiz-adv-x="724" 
d="M430 770h-117v104h117v-104zM572 236h121q-7 -109 -94 -179.5t-213 -70.5q-143 0 -244 99t-101 268q0 86 29.5 156.5t78.5 114.5t110.5 68t128.5 24q127 0 204.5 -66.5t88.5 -163.5h-121q-12 65 -62 94.5t-115 29.5q-87 0 -147.5 -66.5t-60.5 -188.5q0 -128 60.5 -195.5
t152.5 -67.5q70 0 123 35t61 109z" />
    <glyph glyph-name="cdotaccent" unicode="&#x10b;" horiz-adv-x="511" 
d="M318 520h-117v104h117v-104zM365 168h119q-6 -71 -57 -123.5t-151 -52.5q-115 0 -179.5 68.5t-64.5 166.5t65 167t179 69q90 0 141 -44.5t61 -116.5h-118q-14 67 -83 67q-53 0 -82.5 -37.5t-29.5 -105.5q0 -67 29.5 -104t83.5 -37q77 0 87 83z" />
    <glyph glyph-name="Ccaron" unicode="&#x10c;" horiz-adv-x="724" 
d="M451 770h-150l-87 148h98l64 -84l65 84h98zM572 236h121q-7 -109 -94 -179.5t-213 -70.5q-143 0 -244 99t-101 268q0 86 29.5 156.5t78.5 114.5t110.5 68t128.5 24q127 0 204.5 -66.5t88.5 -163.5h-121q-12 65 -62 94.5t-115 29.5q-87 0 -147.5 -66.5t-60.5 -188.5
q0 -128 60.5 -195.5t152.5 -67.5q70 0 123 35t61 109z" />
    <glyph glyph-name="ccaron" unicode="&#x10d;" horiz-adv-x="511" 
d="M332 520h-150l-87 148h98l64 -84l65 84h98zM365 168h119q-6 -71 -57 -123.5t-151 -52.5q-115 0 -179.5 68.5t-64.5 166.5t65 167t179 69q90 0 141 -44.5t61 -116.5h-118q-14 67 -83 67q-53 0 -82.5 -37.5t-29.5 -105.5q0 -67 29.5 -104t83.5 -37q77 0 87 83z" />
    <glyph glyph-name="Dcaron" unicode="&#x10e;" horiz-adv-x="711" 
d="M243 0h-162v700h174q169 0 262 -55q77 -46 114 -123.5t37 -171.5q0 -74 -23 -134.5t-71 -110.5t-132.5 -77.5t-198.5 -27.5zM204 109h47q286 0 286 243q0 239 -286 239h-47v-482zM400 770h-150l-88 148h98l64 -84l65 84h98z" />
    <glyph glyph-name="dcaron" unicode="&#x10f;" horiz-adv-x="596" 
d="M501 0h-126v45q-51 -53 -134 -53q-98 0 -153 68t-55 167q0 102 58.5 169t154.5 67q78 0 129 -48v301h126v-716zM273 84q52 0 80.5 39t28.5 105q0 69 -30.5 104t-76.5 35q-49 0 -79.5 -38t-30.5 -103q0 -62 28.5 -102t79.5 -40zM645 506h-67v194h126z" />
    <glyph glyph-name="Dcroat" unicode="&#x110;" horiz-adv-x="712" 
d="M245 0h-162v300h-61v103h61v297h174q156 0 242 -43q59 -29 98.5 -79t56 -106.5t16.5 -121.5q0 -74 -23 -134.5t-71 -110.5t-132.5 -77.5t-198.5 -27.5zM206 109h47q286 0 286 243q0 239 -286 239h-47v-188h159v-103h-159v-191z" />
    <glyph glyph-name="dcroat" unicode="&#x111;" horiz-adv-x="559" 
d="M501 0h-126v45q-51 -53 -134 -53q-98 0 -153 68t-55 167q0 102 58.5 169t154.5 67q78 0 129 -48v133h-154v90h154v78h126v-78h52v-90h-52v-548zM273 84q52 0 80.5 39t28.5 105q0 69 -30.5 104t-76.5 35q-49 0 -79.5 -38t-30.5 -103q0 -62 28.5 -102t79.5 -40z" />
    <glyph glyph-name="Emacron" unicode="&#x112;" horiz-adv-x="572" 
d="M525 0h-444v700h439v-108h-312v-180h292v-108h-292v-196h317v-108zM465 790h-315v89h315v-89z" />
    <glyph glyph-name="emacron" unicode="&#x113;" horiz-adv-x="528" 
d="M423 540h-315v89h315v-89zM500 203h-335q2 -57 31.5 -87.5t81.5 -30.5q78 0 94 63h124q-10 -64 -66 -110t-152 -46q-118 0 -182 68.5t-64 167.5t63.5 167t180.5 68q110 0 167 -66t57 -194zM170 280h201q-9 92 -96 92q-86 0 -105 -92z" />
    <glyph glyph-name="Ebreve" unicode="&#x114;" horiz-adv-x="572" 
d="M525 0h-444v700h439v-108h-312v-180h292v-108h-292v-196h317v-108zM389 909h71q-7 -65 -48.5 -102.5t-101.5 -37.5q-61 0 -102.5 37t-48.5 103h71q11 -68 78 -68q70 0 81 68z" />
    <glyph glyph-name="ebreve" unicode="&#x115;" horiz-adv-x="528" 
d="M345 659h71q-7 -65 -48.5 -102.5t-101.5 -37.5q-61 0 -102.5 37t-48.5 103h71q11 -68 78 -68q70 0 81 68zM500 203h-335q2 -57 31.5 -87.5t81.5 -30.5q78 0 94 63h124q-10 -64 -66 -110t-152 -46q-118 0 -182 68.5t-64 167.5t63.5 167t180.5 68q110 0 167 -66t57 -194z
M170 280h201q-9 92 -96 92q-86 0 -105 -92z" />
    <glyph glyph-name="Edotaccent" unicode="&#x116;" horiz-adv-x="572" 
d="M525 0h-444v700h439v-108h-312v-180h292v-108h-292v-196h317v-108zM370 770h-117v104h117v-104z" />
    <glyph glyph-name="edotaccent" unicode="&#x117;" horiz-adv-x="528" 
d="M324 520h-117v104h117v-104zM500 203h-335q2 -57 31.5 -87.5t81.5 -30.5q78 0 94 63h124q-10 -64 -66 -110t-152 -46q-118 0 -182 68.5t-64 167.5t63.5 167t180.5 68q110 0 167 -66t57 -194zM170 280h201q-9 92 -96 92q-86 0 -105 -92z" />
    <glyph glyph-name="Eogonek" unicode="&#x118;" horiz-adv-x="572" 
d="M496 -153l-34 -67q-14 -3 -28 -3q-74 0 -117 34.5t-43 85.5q0 56 47 103h-240v700h439v-108h-312v-180h292v-108h-292v-196h317v-108h-119q-45 -45 -45 -90q0 -58 75 -65q27 -3 60 2z" />
    <glyph glyph-name="eogonek" unicode="&#x119;" horiz-adv-x="529" 
d="M485 -130l-34 -67q-12 -3 -27 -3q-74 0 -117 34.5t-43 85.5q0 38 22 73q-31 0 -46 3q-100 9 -154 75.5t-54 156.5q0 99 63.5 167t180.5 68q110 0 167 -66t57 -194h-335q2 -57 31.5 -87.5t81.5 -30.5q78 0 94 63h124q-5 -31 -26.5 -62t-43 -50.5t-56.5 -47.5
q-20 -27 -20 -55q0 -52 63 -61q30 -7 72 -2zM170 280h201q-9 92 -96 92q-86 0 -105 -92z" />
    <glyph glyph-name="Ecaron" unicode="&#x11a;" horiz-adv-x="572" 
d="M525 0h-444v700h439v-108h-312v-180h292v-108h-292v-196h317v-108zM384 770h-150l-88 148h98l64 -84l65 84h98z" />
    <glyph glyph-name="ecaron" unicode="&#x11b;" horiz-adv-x="528" 
d="M340 520h-150l-87 148h98l64 -84l65 84h98zM500 203h-335q2 -57 31.5 -87.5t81.5 -30.5q78 0 94 63h124q-10 -64 -66 -110t-152 -46q-118 0 -182 68.5t-64 167.5t63.5 167t180.5 68q110 0 167 -66t57 -194zM170 280h201q-9 92 -96 92q-86 0 -105 -92z" />
    <glyph glyph-name="Gcircumflex" unicode="&#x11c;" horiz-adv-x="734" 
d="M535 770h-98l-65 83l-64 -83h-98l87 148h150zM570 241h-174v102h305q0 -28 -4 -68q-13 -132 -91 -210.5t-212 -78.5q-153 0 -253 99.5t-100 267.5q0 87 29.5 157.5t79 114.5t111.5 67.5t130 23.5q125 0 203.5 -70.5t86.5 -158.5h-122q-11 59 -60.5 91t-112.5 32
q-88 0 -149.5 -64.5t-61.5 -192.5q0 -124 59.5 -192.5t155.5 -68.5q70 0 120.5 36.5t59.5 112.5z" />
    <glyph glyph-name="gcircumflex" unicode="&#x11d;" horiz-adv-x="558" 
d="M374 -6v53q-49 -55 -131 -55q-100 0 -155.5 68t-55.5 166q0 102 59.5 169.5t153.5 67.5q78 0 129 -51v38h126v-455q0 -95 -56 -154.5t-175 -59.5q-94 0 -151 41t-57 127h117q0 -35 20 -55.5t73 -20.5q57 0 80 27.5t23 93.5zM273 84q51 0 79.5 38t28.5 105
q0 71 -29.5 105.5t-76.5 34.5q-50 0 -80.5 -37.5t-30.5 -102.5q0 -62 28.5 -102.5t80.5 -40.5zM432 520h-98l-65 83l-64 -83h-98l88 148h150z" />
    <glyph glyph-name="Gbreve" unicode="&#x11e;" horiz-adv-x="734" 
d="M452 909h71q-7 -65 -49 -102.5t-102 -37.5t-102 37t-49 103h71q13 -68 79 -68q70 0 81 68zM570 241h-174v102h305q0 -28 -4 -68q-13 -132 -91 -210.5t-212 -78.5q-153 0 -253 99.5t-100 267.5q0 87 29.5 157.5t79 114.5t111.5 67.5t130 23.5q125 0 203.5 -70.5
t86.5 -158.5h-122q-11 59 -60.5 91t-112.5 32q-88 0 -149.5 -64.5t-61.5 -192.5q0 -124 59.5 -192.5t155.5 -68.5q70 0 120.5 36.5t59.5 112.5z" />
    <glyph glyph-name="gbreve" unicode="&#x11f;" horiz-adv-x="558" 
d="M374 -6v53q-49 -55 -131 -55q-100 0 -155.5 68t-55.5 166q0 102 59.5 169.5t153.5 67.5q78 0 129 -51v38h126v-455q0 -95 -56 -154.5t-175 -59.5q-94 0 -151 41t-57 127h117q0 -35 20 -55.5t73 -20.5q57 0 80 27.5t23 93.5zM273 84q51 0 79.5 38t28.5 105
q0 71 -29.5 105.5t-76.5 34.5q-50 0 -80.5 -37.5t-30.5 -102.5q0 -62 28.5 -102.5t80.5 -40.5zM352 659h71q-7 -65 -48.5 -102.5t-101.5 -37.5q-61 0 -102.5 37t-48.5 103h71q11 -68 78 -68q70 0 81 68z" />
    <glyph glyph-name="Gdotaccent" unicode="&#x120;" horiz-adv-x="734" 
d="M431 770h-117v104h117v-104zM570 241h-174v102h305q0 -28 -4 -68q-13 -132 -91 -210.5t-212 -78.5q-153 0 -253 99.5t-100 267.5q0 87 29.5 157.5t79 114.5t111.5 67.5t130 23.5q125 0 203.5 -70.5t86.5 -158.5h-122q-11 59 -60.5 91t-112.5 32q-88 0 -149.5 -64.5
t-61.5 -192.5q0 -124 59.5 -192.5t155.5 -68.5q70 0 120.5 36.5t59.5 112.5z" />
    <glyph glyph-name="gdotaccent" unicode="&#x121;" horiz-adv-x="558" 
d="M374 -6v53q-49 -55 -131 -55q-100 0 -155.5 68t-55.5 166q0 102 59.5 169.5t153.5 67.5q78 0 129 -51v38h126v-455q0 -95 -56 -154.5t-175 -59.5q-94 0 -151 41t-57 127h117q0 -35 20 -55.5t73 -20.5q57 0 80 27.5t23 93.5zM273 84q51 0 79.5 38t28.5 105
q0 71 -29.5 105.5t-76.5 34.5q-50 0 -80.5 -37.5t-30.5 -102.5q0 -62 28.5 -102.5t80.5 -40.5zM327 520h-117v104h117v-104z" />
    <glyph glyph-name="Gcommaaccent" unicode="&#x122;" horiz-adv-x="734" 
d="M400 -244h-71v183h117zM570 241h-174v102h305q0 -28 -4 -68q-13 -132 -91 -210.5t-212 -78.5q-153 0 -253 99.5t-100 267.5q0 87 29.5 157.5t79 114.5t111.5 67.5t130 23.5q125 0 203.5 -70.5t86.5 -158.5h-122q-11 59 -60.5 91t-112.5 32q-88 0 -149.5 -64.5
t-61.5 -192.5q0 -124 59.5 -192.5t155.5 -68.5q70 0 120.5 36.5t59.5 112.5z" />
    <glyph glyph-name="gcommaaccent" unicode="&#x123;" horiz-adv-x="558" 
d="M374 -6v53q-49 -55 -131 -55q-100 0 -155.5 68t-55.5 166q0 102 59.5 169.5t153.5 67.5q78 0 129 -51v38h126v-455q0 -95 -56 -154.5t-175 -59.5q-94 0 -151 41t-57 127h117q0 -35 20 -55.5t73 -20.5q57 0 80 27.5t23 93.5zM273 84q51 0 79.5 38t28.5 105
q0 71 -29.5 105.5t-76.5 34.5q-50 0 -80.5 -37.5t-30.5 -102.5q0 -62 28.5 -102.5t80.5 -40.5zM321 520h-126l59 194h67v-194z" />
    <glyph glyph-name="Hcircumflex" unicode="&#x124;" horiz-adv-x="723" 
d="M642 0h-127v303h-307v-303h-127v700h127v-289h307v289h127v-700zM524 770h-98l-65 83l-64 -83h-98l87 148h150z" />
    <glyph glyph-name="hcircumflex" unicode="&#x125;" 
d="M487 0h-127v267q0 47 -13 68.5t-50 21.5q-50 0 -81.5 -34t-31.5 -89v-234h-126v716h126v-332q57 79 156 79q147 0 147 -173v-290zM284 753h-98l-65 84l-64 -84h-98l88 148h150z" />
    <glyph glyph-name="Hbar" unicode="&#x126;" horiz-adv-x="725" 
d="M643 0h-127v303h-307v-303h-127v523h-57v89h57v88h127v-88h307v88h127v-88h57v-89h-57v-523zM516 411v112h-307v-112h307z" />
    <glyph glyph-name="hbar" unicode="&#x127;" 
d="M487 0h-127v267q0 47 -13 68.5t-50 21.5q-50 0 -81.5 -34t-31.5 -89v-234h-126v548h-52v90h52v78h126v-78h154v-90h-154v-164q57 79 156 79q147 0 147 -173v-290z" />
    <glyph glyph-name="Itilde" unicode="&#x128;" horiz-adv-x="289" 
d="M208 0h-127v700h127v-700zM242 892h69q-2 -52 -24 -86.5t-67 -34.5q-31 0 -75.5 21.5t-61.5 21.5q-34 0 -36 -44h-68q0 52 23 87t75 35q24 0 68 -20.5t60 -20.5q35 0 37 41z" />
    <glyph glyph-name="itilde" unicode="&#x129;" horiz-adv-x="242" 
d="M184 0h-126v450h126v-450zM218 643h69q-2 -52 -24 -86.5t-67 -34.5q-31 0 -75.5 21.5t-61.5 21.5q-34 0 -36 -44h-68q0 52 23 87t75 35q24 0 68 -20.5t60 -20.5q35 0 37 41z" />
    <glyph glyph-name="Imacron" unicode="&#x12a;" horiz-adv-x="289" 
d="M208 0h-127v700h127v-700zM303 790h-315v89h315v-89z" />
    <glyph glyph-name="imacron" unicode="&#x12b;" horiz-adv-x="242" 
d="M184 0h-126v450h126v-450zM279 540h-315v89h315v-89z" />
    <glyph glyph-name="Ibreve" unicode="&#x12c;" horiz-adv-x="289" 
d="M208 0h-127v700h127v-700zM225 909h71q-7 -65 -49 -102.5t-102 -37.5t-102 37t-49 103h71q13 -68 79 -68q70 0 81 68z" />
    <glyph glyph-name="ibreve" unicode="&#x12d;" horiz-adv-x="242" 
d="M184 0h-126v450h126v-450zM201 659h71q-7 -65 -49 -102.5t-102 -37.5t-102 37t-49 103h71q13 -68 79 -68q70 0 81 68z" />
    <glyph glyph-name="Iogonek" unicode="&#x12e;" horiz-adv-x="289" 
d="M253 -156l-34 -67q-27 -3 -28 -3q-74 0 -117 34.5t-43 86.5q0 56 50 105v700h127v-704q-48 -8 -69 -32.5t-21 -56.5q0 -57 75 -64q31 -3 60 1z" />
    <glyph glyph-name="iogonek" unicode="&#x12f;" horiz-adv-x="242" 
d="M232 -153l-34 -67q-12 -3 -27 -3q-74 0 -117 34.5t-43 85.5q0 56 47 103v450h126v-454q-46 -7 -66.5 -31t-20.5 -55q0 -60 83 -66q26 -2 52 3zM184 559h-126v110h126v-110z" />
    <glyph glyph-name="Idotaccent" unicode="&#x130;" horiz-adv-x="289" 
d="M208 0h-127v700h127v-700zM203 770h-117v104h117v-104z" />
    <glyph glyph-name="dotlessi" unicode="&#x131;" horiz-adv-x="242" 
d="M184 0h-126v450h126v-450z" />
    <glyph glyph-name="IJ" unicode="&#x132;" horiz-adv-x="614" 
d="M208 0h-127v700h127v-700zM315 5v94q24 -7 44 -7q33 0 42 19t9 69v520h127v-507q0 -207 -145 -207q-48 0 -77 19z" />
    <glyph glyph-name="ij" unicode="&#x133;" horiz-adv-x="484" 
d="M184 0h-126v450h126v-450zM184 559h-126v110h126v-110zM241 -192v90q4 -1 8 -1q31 0 41 21.5t10 77.5v454h126v-444q0 -93 -38.5 -146.5t-119.5 -53.5q-19 0 -27 2zM426 559h-126v110h126v-110z" />
    <glyph glyph-name="Jcircumflex" unicode="&#x134;" horiz-adv-x="325" 
d="M26 5v94q24 -7 44 -7q33 0 42 19t9 69v520h127v-507q0 -207 -145 -207q-49 0 -77 19zM346 770h-98l-65 83l-64 -83h-98l88 148h150z" />
    <glyph glyph-name="jcircumflex" unicode="&#x135;" horiz-adv-x="242" 
d="M-1 -192v90q4 -1 8 -1q31 0 41 21.5t10 77.5v454h126v-444q0 -93 -38.5 -146.5t-119.5 -53.5q-19 0 -27 2zM284 520h-98l-65 83l-64 -83h-98l87 148h150z" />
    <glyph glyph-name="Kcommaaccent" unicode="&#x136;" horiz-adv-x="604" 
d="M610 0h-158l-244 329v-329h-127v700h127v-321l228 322h149l-246 -341zM339 -244h-71v183h117z" />
    <glyph glyph-name="kcommaaccent" unicode="&#x137;" horiz-adv-x="509" 
d="M506 0h-152l-169 223v-223h-126v716h126v-456l155 190h153l-177 -209zM281 -244h-71v183h117z" />
    <glyph glyph-name="kgreenlandic" unicode="&#x138;" horiz-adv-x="509" 
d="M505 0h-152l-169 223v-223h-126v450h126v-190l155 190h153l-177 -209z" />
    <glyph glyph-name="Lacute" unicode="&#x139;" horiz-adv-x="505" 
d="M495 0h-414v700h127v-592h287v-108zM179 770h-93l72 148h143z" />
    <glyph glyph-name="lacute" unicode="&#x13a;" horiz-adv-x="246" 
d="M186 0h-126v716h126v-716zM153 767h-93l73 148h142z" />
    <glyph glyph-name="Lcommaaccent" unicode="&#x13b;" horiz-adv-x="506" 
d="M495 0h-414v700h127v-592h287v-108zM313 -244h-71v183h117z" />
    <glyph glyph-name="lcommaaccent" unicode="&#x13c;" horiz-adv-x="248" 
d="M187 0h-126v716h126v-716zM139 -244h-72v183h118z" />
    <glyph glyph-name="Lcaron" unicode="&#x13d;" horiz-adv-x="510" 
d="M495 0h-414v700h127v-592h287v-108zM419 497h-70v203h132z" />
    <glyph glyph-name="lcaron" unicode="&#x13e;" horiz-adv-x="281" 
d="M186 0h-126v716h126v-716zM330 506h-67v194h126z" />
    <glyph glyph-name="Ldot" unicode="&#x13f;" horiz-adv-x="512" 
d="M495 0h-414v700h127v-592h287v-108zM474 303h-132v114h132v-114z" />
    <glyph glyph-name="ldot" unicode="&#x140;" horiz-adv-x="424" 
d="M186 0h-126v716h126v-716zM401 293h-132v114h132v-114z" />
    <glyph glyph-name="Lslash" unicode="&#x141;" horiz-adv-x="512" 
d="M502 0h-414v181l-69 -58v121l69 59v397h127v-290l114 100v-122l-114 -99v-181h287v-108z" />
    <glyph glyph-name="lslash" unicode="&#x142;" horiz-adv-x="313" 
d="M221 0h-126v205l-67 -58v110l67 58v401h126v-292l67 58v-110l-67 -58v-314z" />
    <glyph glyph-name="Nacute" unicode="&#x143;" horiz-adv-x="778" 
d="M697 0h-152l-337 512v-512h-127v700h151l338 -511v511h127v-700zM439 770h-93l73 148h142z" />
    <glyph glyph-name="nacute" unicode="&#x144;" 
d="M487 0h-127v264q0 48 -15 70.5t-54 22.5q-50 0 -78.5 -34t-28.5 -89v-234h-126v450h126v-65q57 78 150 78q153 0 153 -189v-274zM292 520h-93l73 148h142z" />
    <glyph glyph-name="Ncommaaccent" unicode="&#x145;" horiz-adv-x="778" 
d="M697 0h-152l-337 512v-512h-127v700h151l338 -511v511h127v-700zM401 -244h-71v183h117z" />
    <glyph glyph-name="ncommaaccent" unicode="&#x146;" horiz-adv-x="543" 
d="M488 0h-127v264q0 48 -15 70.5t-54 22.5q-50 0 -78.5 -34t-28.5 -89v-234h-126v450h126v-65q57 78 150 78q153 0 153 -189v-274zM288 -244h-71v183h117z" />
    <glyph glyph-name="Ncaron" unicode="&#x147;" horiz-adv-x="778" 
d="M697 0h-152l-337 512v-512h-127v700h151l338 -511v511h127v-700zM481 770h-150l-87 148h98l64 -84l65 84h98z" />
    <glyph glyph-name="ncaron" unicode="&#x148;" 
d="M487 0h-127v264q0 48 -15 70.5t-54 22.5q-50 0 -78.5 -34t-28.5 -89v-234h-126v450h126v-65q57 78 150 78q153 0 153 -189v-274zM345 520h-150l-88 148h98l64 -84l65 84h98z" />
    <glyph glyph-name="Eng" unicode="&#x14a;" horiz-adv-x="778" 
d="M476 -192v94q24 -7 43 -7q34 0 43 21.5t9 83.5h-26l-337 511v-511h-127v700h151l338 -511v511h127v-732q0 -85 -36 -132t-108 -47q-50 0 -77 19z" />
    <glyph glyph-name="eng" unicode="&#x14b;" 
d="M302 -192v90q4 -1 8 -1q31 0 40.5 21.5t9.5 77.5v268q0 48 -15 70.5t-54 22.5q-50 0 -78.5 -34t-28.5 -89v-234h-126v450h126v-65q57 78 150 78q153 0 153 -189v-268q0 -93 -38.5 -146.5t-119.5 -53.5q-19 0 -27 2z" />
    <glyph glyph-name="Omacron" unicode="&#x14c;" horiz-adv-x="795" 
d="M397 -14q-94 0 -174 41.5t-131.5 126.5t-51.5 197q0 167 106 266t251 99q146 0 252 -99t106 -266q0 -112 -51.5 -197t-132 -126.5t-174.5 -41.5zM397 92q102 0 163 71t61 188q0 116 -61.5 187.5t-162.5 71.5t-162 -71.5t-61 -187.5q0 -117 61 -188t162 -71zM554 790h-315
v89h315v-89z" />
    <glyph glyph-name="omacron" unicode="&#x14d;" horiz-adv-x="561" 
d="M437 540h-315v89h315v-89zM530 227q0 -97 -66 -166t-184 -69t-183.5 69t-65.5 166t66 166.5t183 69.5q118 0 184 -69.5t66 -166.5zM280 88q56 0 86 37.5t30 100.5q0 64 -30 102.5t-86 38.5t-86 -38.5t-30 -102.5q0 -63 30 -100.5t86 -37.5z" />
    <glyph glyph-name="Obreve" unicode="&#x14e;" horiz-adv-x="795" 
d="M397 -14q-94 0 -174 41.5t-131.5 126.5t-51.5 197q0 167 106 266t251 99q146 0 252 -99t106 -266q0 -112 -51.5 -197t-132 -126.5t-174.5 -41.5zM397 92q102 0 163 71t61 188q0 116 -61.5 187.5t-162.5 71.5t-162 -71.5t-61 -187.5q0 -117 61 -188t162 -71zM477 909h71
q-7 -65 -49 -102.5t-102 -37.5t-102 37t-49 103h71q13 -68 79 -68q70 0 81 68z" />
    <glyph glyph-name="obreve" unicode="&#x14f;" horiz-adv-x="561" 
d="M360 659h71q-7 -65 -49 -102.5t-102 -37.5t-102 37t-49 103h71q13 -68 79 -68q70 0 81 68zM530 227q0 -97 -66 -166t-184 -69t-183.5 69t-65.5 166t66 166.5t183 69.5q118 0 184 -69.5t66 -166.5zM280 88q56 0 86 37.5t30 100.5q0 64 -30 102.5t-86 38.5t-86 -38.5
t-30 -102.5q0 -63 30 -100.5t86 -37.5z" />
    <glyph glyph-name="Ohungarumlaut" unicode="&#x150;" horiz-adv-x="795" 
d="M397 -14q-94 0 -174 41.5t-131.5 126.5t-51.5 197q0 167 106 266t251 99q146 0 252 -99t106 -266q0 -112 -51.5 -197t-132 -126.5t-174.5 -41.5zM397 92q102 0 163 71t61 188q0 116 -61.5 187.5t-162.5 71.5t-162 -71.5t-61 -187.5q0 -117 61 -188t162 -71zM317 770h-93
l72 148h143zM505 770h-93l72 148h143z" />
    <glyph glyph-name="ohungarumlaut" unicode="&#x151;" horiz-adv-x="561" 
d="M196 520h-93l73 148h142zM384 520h-93l73 148h142zM530 227q0 -97 -66 -166t-184 -69t-183.5 69t-65.5 166t66 166.5t183 69.5q118 0 184 -69.5t66 -166.5zM280 88q56 0 86 37.5t30 100.5q0 64 -30 102.5t-86 38.5t-86 -38.5t-30 -102.5q0 -63 30 -100.5t86 -37.5z" />
    <glyph glyph-name="OE" unicode="&#x152;" horiz-adv-x="1111" 
d="M1064 0h-443v77q-88 -91 -224 -91q-94 0 -174 41.5t-131.5 126.5t-51.5 197q0 167 106 266t251 99q135 0 224 -93v77h438v-108h-311v-180h291v-108h-291v-196h316v-108zM397 92q102 0 163 71t61 188q0 116 -61.5 187.5t-162.5 71.5t-162 -71.5t-61 -187.5q0 -117 61 -188
t162 -71z" />
    <glyph glyph-name="oe" unicode="&#x153;" horiz-adv-x="893" 
d="M864 203h-334q2 -57 31 -87.5t81 -30.5q79 0 94 63h125q-10 -64 -66 -110t-153 -46q-115 0 -180 68q-70 -68 -182 -68q-118 0 -183.5 69t-65.5 166t66 166.5t183 69.5q112 0 181 -69q66 69 180 69q110 0 166.5 -66t56.5 -194zM280 88q56 0 86 37.5t30 104.5
q0 62 -30 99.5t-86 37.5t-86 -38.5t-30 -102.5q0 -63 30 -100.5t86 -37.5zM535 280h201q-9 92 -96 92t-105 -92z" />
    <glyph glyph-name="Racute" unicode="&#x154;" horiz-adv-x="590" 
d="M550 0h-142l-148 276h-56v-276h-123v700h192q123 0 184 -39q84 -53 84 -165q0 -76 -41 -127.5t-115 -73.5zM204 378h69q139 0 139 107q0 54 -31.5 80t-106.5 26h-70v-213zM304 770h-93l72 148h143z" />
    <glyph glyph-name="racute" unicode="&#x155;" horiz-adv-x="384" 
d="M184 0h-126v450h126v-72q53 85 136 85q32 0 50 -12v-103q-18 7 -49 7q-137 0 -137 -196v-159zM224 520h-93l73 148h142z" />
    <glyph glyph-name="Rcommaaccent" unicode="&#x156;" horiz-adv-x="590" 
d="M550 0h-142l-148 276h-56v-276h-123v700h192q123 0 184 -39q84 -53 84 -165q0 -76 -41 -127.5t-115 -73.5zM204 378h69q139 0 139 107q0 54 -31.5 80t-106.5 26h-70v-213zM314 -244h-71v183h117z" />
    <glyph glyph-name="rcommaaccent" unicode="&#x157;" horiz-adv-x="386" 
d="M185 0h-126v450h126v-72q53 85 136 85q32 0 50 -12v-103q-18 7 -49 7q-71 0 -104 -54t-33 -182v-119zM146 -244h-72v183h118z" />
    <glyph glyph-name="Rcaron" unicode="&#x158;" horiz-adv-x="590" 
d="M550 0h-142l-148 276h-56v-276h-123v700h192q123 0 184 -39q84 -53 84 -165q0 -76 -41 -127.5t-115 -73.5zM204 378h69q139 0 139 107q0 54 -31.5 80t-106.5 26h-70v-213zM359 770h-150l-88 148h98l64 -84l65 84h98z" />
    <glyph glyph-name="rcaron" unicode="&#x159;" horiz-adv-x="384" 
d="M184 0h-126v450h126v-72q53 85 136 85q32 0 50 -12v-103q-18 7 -49 7q-137 0 -137 -196v-159zM278 520h-150l-87 148h98l64 -84l65 84h98z" />
    <glyph glyph-name="Sacute" unicode="&#x15a;" horiz-adv-x="598" 
d="M539 509h-122q0 107 -121 107q-69 0 -97.5 -28.5t-28.5 -65.5q0 -43 40.5 -66.5t98 -36t114.5 -30t97.5 -62t40.5 -117.5q0 -98 -67 -161t-195 -63q-115 0 -185.5 57t-70.5 180h122q0 -136 137 -136q74 0 104 29.5t30 69.5q0 34 -21.5 56.5t-55.5 34.5t-75.5 21.5
t-82.5 22.5t-75 32.5t-55.5 56.5t-21.5 90q0 94 63.5 155t189.5 61q116 0 176.5 -54.5t60.5 -152.5zM307 770h-93l73 148h142z" />
    <glyph glyph-name="sacute" unicode="&#x15b;" horiz-adv-x="470" 
d="M244 520h-93l73 148h142zM425 332h-120q-4 50 -69 50q-36 0 -53 -12.5t-17 -31.5q0 -24 28 -37t68 -20.5t80.5 -19t68.5 -40.5t28 -77q0 -64 -49 -108t-155 -44q-193 0 -200 151l119 3q3 -72 82 -72q37 0 55.5 14t18.5 36q0 26 -28 40t-68.5 21.5t-80.5 18t-68 39
t-28 75.5q0 67 53 106t149 39q88 0 136 -34t50 -97z" />
    <glyph glyph-name="Scircumflex" unicode="&#x15c;" horiz-adv-x="598" 
d="M539 509h-122q0 107 -121 107q-69 0 -97.5 -28.5t-28.5 -65.5q0 -43 40.5 -66.5t98 -36t114.5 -30t97.5 -62t40.5 -117.5q0 -98 -67 -161t-195 -63q-115 0 -185.5 57t-70.5 180h122q0 -136 137 -136q74 0 104 29.5t30 69.5q0 34 -21.5 56.5t-55.5 34.5t-75.5 21.5
t-82.5 22.5t-75 32.5t-55.5 56.5t-21.5 90q0 94 63.5 155t189.5 61q116 0 176.5 -54.5t60.5 -152.5zM455 770h-98l-65 83l-64 -83h-98l88 148h150z" />
    <glyph glyph-name="scircumflex" unicode="&#x15d;" horiz-adv-x="470" 
d="M393 520h-98l-65 83l-64 -83h-98l87 148h150zM425 332h-120q-4 50 -69 50q-36 0 -53 -12.5t-17 -31.5q0 -24 28 -37t68 -20.5t80.5 -19t68.5 -40.5t28 -77q0 -64 -49 -108t-155 -44q-193 0 -200 151l119 3q3 -72 82 -72q37 0 55.5 14t18.5 36q0 26 -28 40t-68.5 21.5
t-80.5 18t-68 39t-28 75.5q0 67 53 106t149 39q88 0 136 -34t50 -97z" />
    <glyph glyph-name="Scedilla" unicode="&#x15e;" horiz-adv-x="598" 
d="M194 -209l16 60q28 -13 71 -13q26 0 43 11.5t17 29.5q0 8 -3.5 14.5t-10.5 10.5t-13.5 7t-18 5t-17.5 3t-17.5 2t-13.5 1l20 65q-102 7 -163 64.5t-61 171.5h122q0 -136 137 -136q74 0 104 29.5t30 69.5q0 34 -21.5 56.5t-55.5 34.5t-75.5 21.5t-82.5 22.5t-75 32.5
t-55.5 56.5t-21.5 90q0 94 63.5 155t189.5 61q116 0 176.5 -54.5t60.5 -152.5h-122q0 107 -121 107q-69 0 -97.5 -28.5t-28.5 -65.5q0 -43 40.5 -66.5t98 -36t114.5 -30t97.5 -62t40.5 -117.5q0 -90 -57.5 -151.5t-166.5 -70.5l-9 -31q46 -2 76 -23.5t30 -58.5
q0 -47 -42.5 -74t-104.5 -27q-50 0 -93 17z" />
    <glyph glyph-name="scedilla" unicode="&#x15f;" horiz-adv-x="470" 
d="M124 -207l16 61q24 -13 71 -13q26 0 43 11t17 29q0 32 -48 35q-25 0 -49 -4l24 81q-156 14 -163 150l119 3q3 -72 82 -72q36 0 55 14t19 36q0 26 -28 40t-68.5 21.5t-80.5 18t-68 39t-28 75.5q0 67 53 106t149 39q88 0 136 -34t50 -97h-120q-4 50 -69 50q-36 0 -53 -12.5
t-17 -31.5q0 -24 28 -37t68 -20.5t80.5 -19t68.5 -40.5t28 -77q0 -59 -41 -101.5t-130 -49.5l-10 -34q46 -2 76 -23t30 -59q0 -47 -42.5 -73.5t-103.5 -26.5q-49 0 -94 16z" />
    <glyph glyph-name="Scaron" unicode="&#x160;" horiz-adv-x="598" 
d="M539 509h-122q0 107 -121 107q-69 0 -97.5 -28.5t-28.5 -65.5q0 -43 40.5 -66.5t98 -36t114.5 -30t97.5 -62t40.5 -117.5q0 -98 -67 -161t-195 -63q-115 0 -185.5 57t-70.5 180h122q0 -136 137 -136q74 0 104 29.5t30 69.5q0 34 -21.5 56.5t-55.5 34.5t-75.5 21.5
t-82.5 22.5t-75 32.5t-55.5 56.5t-21.5 90q0 94 63.5 155t189.5 61q116 0 176.5 -54.5t60.5 -152.5zM367 770h-150l-88 148h98l64 -84l65 84h98z" />
    <glyph glyph-name="scaron" unicode="&#x161;" horiz-adv-x="470" 
d="M307 520h-150l-88 148h98l64 -84l65 84h98zM425 332h-120q-4 50 -69 50q-36 0 -53 -12.5t-17 -31.5q0 -24 28 -37t68 -20.5t80.5 -19t68.5 -40.5t28 -77q0 -64 -49 -108t-155 -44q-193 0 -200 151l119 3q3 -72 82 -72q37 0 55.5 14t18.5 36q0 26 -28 40t-68.5 21.5
t-80.5 18t-68 39t-28 75.5q0 67 53 106t149 39q88 0 136 -34t50 -97z" />
    <glyph glyph-name="Tcommaaccent" unicode="&#x162;" horiz-adv-x="524" 
d="M325 0h-127v592h-182v108h492v-108h-183v-592zM276 -244h-72v183h118z" />
    <glyph glyph-name="tcommaaccent" unicode="&#x163;" horiz-adv-x="373" 
d="M343 109v-94q-38 -23 -99 -23q-158 0 -158 174v183h-67v101h67v133l127 42v-175h130v-101h-130v-147q0 -60 11 -82.5t50 -22.5q33 0 69 12zM235 -244h-72v183h118z" />
    <glyph glyph-name="Tcaron" unicode="&#x164;" horiz-adv-x="524" 
d="M325 0h-127v592h-182v108h492v-108h-183v-592zM336 770h-150l-87 148h98l64 -84l65 84h98z" />
    <glyph glyph-name="tcaron" unicode="&#x165;" horiz-adv-x="373" 
d="M343 109v-94q-38 -23 -99 -23q-158 0 -158 174v183h-67v101h67v133l127 42v-175h130v-101h-130v-147q0 -60 11 -82.5t50 -22.5q33 0 69 12zM359 510h-68v194h127z" />
    <glyph glyph-name="Tbar" unicode="&#x166;" horiz-adv-x="524" 
d="M325 0h-127v361h-104v89h104v142h-182v108h492v-108h-183v-142h104v-89h-104v-361z" />
    <glyph glyph-name="tbar" unicode="&#x167;" horiz-adv-x="374" 
d="M343 109v-94q-38 -23 -99 -23q-86 0 -122 49t-36 160h-59v84h59v64h-67v101h67v133l127 42v-175h130v-101h-130v-64h114v-84h-114v-22q0 -43 13 -62.5t48 -19.5q33 0 69 12z" />
    <glyph glyph-name="Utilde" unicode="&#x168;" horiz-adv-x="699" 
d="M497 268v432h127v-433q0 -125 -41 -184q-68 -97 -233 -97q-164 0 -232 97q-42 61 -42 184v433h127v-432q0 -93 32.5 -134.5t114.5 -41.5q84 0 115.5 42t31.5 134zM449 893h69q-2 -52 -24 -86.5t-67 -34.5q-31 0 -75.5 21.5t-61.5 21.5q-34 0 -36 -44h-68q0 52 23 87
t75 35q24 0 68 -20.5t60 -20.5q35 0 37 41z" />
    <glyph glyph-name="utilde" unicode="&#x169;" 
d="M484 0h-127v70q-53 -78 -147 -78q-78 0 -120 57q-35 48 -35 131v270h126v-259q0 -48 15 -70.5t55 -22.5q50 0 78 33.5t28 91.5v227h127v-450zM366 643h69q-2 -52 -24 -86.5t-67 -34.5q-31 0 -75.5 21.5t-61.5 21.5q-34 0 -36 -44h-68q0 52 23 87t75 35q24 0 68 -20.5
t60 -20.5q35 0 37 41z" />
    <glyph glyph-name="Umacron" unicode="&#x16a;" horiz-adv-x="699" 
d="M497 268v432h127v-433q0 -125 -41 -184q-68 -97 -233 -97q-164 0 -232 97q-42 61 -42 184v433h127v-432q0 -74 17 -109q33 -67 130 -67q98 0 131 67q16 33 16 109zM510 790h-315v89h315v-89z" />
    <glyph glyph-name="umacron" unicode="&#x16b;" 
d="M429 540h-315v89h315v-89zM484 0h-127v70q-53 -78 -147 -78q-78 0 -120 57q-35 48 -35 131v270h126v-259q0 -48 15 -70.5t55 -22.5q50 0 78 33.5t28 91.5v227h127v-450z" />
    <glyph glyph-name="Ubreve" unicode="&#x16c;" horiz-adv-x="699" 
d="M497 268v432h127v-433q0 -125 -41 -184q-68 -97 -233 -97q-164 0 -232 97q-42 61 -42 184v433h127v-432q0 -74 17 -109q33 -67 130 -67q98 0 131 67q16 33 16 109zM432 909h71q-7 -68 -49.5 -104t-101.5 -36q-62 0 -103 38t-47 102h71q11 -68 79 -68q69 0 80 68z" />
    <glyph glyph-name="ubreve" unicode="&#x16d;" 
d="M351 659h71q-7 -68 -49.5 -104t-101.5 -36q-62 0 -103 38t-47 102h71q11 -68 79 -68q69 0 80 68zM484 0h-127v70q-53 -78 -147 -78q-78 0 -120 57q-35 48 -35 131v270h126v-259q0 -48 15 -70.5t55 -22.5q50 0 78 33.5t28 91.5v227h127v-450z" />
    <glyph glyph-name="Uring" unicode="&#x16e;" horiz-adv-x="699" 
d="M497 268v432h127v-433q0 -125 -41 -184q-68 -97 -233 -97q-164 0 -232 97q-42 61 -42 184v433h127v-432q0 -74 17 -109q33 -67 130 -67q98 0 131 67q16 33 16 109zM352 750q-40 0 -68 28.5t-28 69.5q0 40 28 68.5t68 28.5t68.5 -28.5t28.5 -68.5q0 -41 -28.5 -69.5
t-68.5 -28.5zM394 847q0 17 -12 29.5t-29 12.5q-18 0 -30 -12.5t-12 -29.5t12.5 -29t29.5 -12t29 12t12 29z" />
    <glyph glyph-name="uring" unicode="&#x16f;" 
d="M269 510q-40 0 -68 28.5t-28 69.5q0 40 28 68.5t68 28.5q41 0 69 -28.5t28 -68.5q0 -41 -28.5 -69.5t-68.5 -28.5zM311 607q0 17 -12 29.5t-29 12.5q-18 0 -30 -12.5t-12 -29.5t12.5 -29t29.5 -12t29 12t12 29zM484 0h-127v70q-53 -78 -147 -78q-78 0 -120 57
q-35 48 -35 131v270h126v-259q0 -48 15 -70.5t55 -22.5q50 0 78 33.5t28 91.5v227h127v-450z" />
    <glyph glyph-name="Uhungarumlaut" unicode="&#x170;" horiz-adv-x="699" 
d="M497 268v432h127v-433q0 -125 -41 -184q-68 -97 -233 -97q-164 0 -232 97q-42 61 -42 184v433h127v-432q0 -74 17 -109q33 -67 130 -67q98 0 131 67q16 33 16 109zM282 770h-93l73 148h142zM470 770h-93l73 148h142z" />
    <glyph glyph-name="uhungarumlaut" unicode="&#x171;" 
d="M198 520h-93l72 148h143zM386 520h-93l72 148h143zM484 0h-127v70q-53 -78 -147 -78q-78 0 -120 57q-35 48 -35 131v270h126v-259q0 -48 15 -70.5t55 -22.5q50 0 78 33.5t28 91.5v227h127v-450z" />
    <glyph glyph-name="Uogonek" unicode="&#x172;" horiz-adv-x="699" 
d="M528 -155l-34 -67q-12 -3 -27 -3q-74 0 -117 34.5t-43 86.5q0 48 36 90q-137 3 -202 68.5t-65 212.5v433h127v-432q0 -93 32.5 -134.5t114.5 -41.5q83 0 115 41.5t32 134.5v432h127v-405q0 -143 -43 -212.5t-147 -88.5q-41 -45 -41 -85q0 -58 76 -66q27 -3 59 2z" />
    <glyph glyph-name="uogonek" unicode="&#x173;" 
d="M532 -153l-34 -67q-14 -3 -28 -3q-74 0 -117 34.5t-43 85.5q0 56 47 103v70q-54 -78 -152 -78q-82 0 -116 52.5t-34 159.5v246h126v-259q0 -48 15.5 -70.5t54.5 -22.5q50 0 78 33.5t28 91.5v227h127v-454q-44 -6 -65.5 -30t-21.5 -55q0 -62 82 -67q26 -2 53 3z" />
    <glyph glyph-name="Wcircumflex" unicode="&#x174;" horiz-adv-x="985" 
d="M794 -4h-147l-155 537l-154 -537h-147l-175 704h132l121 -521l147 521h153l147 -521l121 521h132zM655 770h-98l-65 83l-64 -83h-98l87 148h150z" />
    <glyph glyph-name="wcircumflex" unicode="&#x175;" horiz-adv-x="802" 
d="M653 -3h-165l-87 293l-87 -293h-165l-139 453h135l88 -326l99 327h138l99 -327l88 326h135zM563 520h-98l-65 83l-64 -83h-98l88 148h150z" />
    <glyph glyph-name="Ycircumflex" unicode="&#x176;" horiz-adv-x="565" 
d="M346 0h-127v256l-220 444h139l144 -298l145 298h138l-219 -444v-256zM444 770h-98l-65 83l-64 -83h-98l88 148h150z" />
    <glyph glyph-name="ycircumflex" unicode="&#x177;" horiz-adv-x="483" 
d="M68 -181v97q23 -10 48 -10q32 0 50 18.5t32 64.5l11 36h-49l-155 425h134l105 -314l99 314h134l-158 -476q-28 -84 -71.5 -125.5t-113.5 -41.5q-40 0 -66 12zM404 520h-98l-65 83l-64 -83h-98l87 148h150z" />
    <glyph glyph-name="Ydieresis" unicode="&#x178;" horiz-adv-x="565" 
d="M346 0h-127v256l-220 444h139l144 -298l145 298h138l-219 -444v-256zM254 770h-115v103h115v-103zM424 770h-115v103h115v-103z" />
    <glyph glyph-name="Zacute" unicode="&#x179;" horiz-adv-x="581" 
d="M538 0h-504v134l359 458h-334v108h480v-123l-366 -469h365v-108zM305 770h-93l73 148h142z" />
    <glyph glyph-name="zacute" unicode="&#x17a;" horiz-adv-x="466" 
d="M427 0h-393v111l226 236h-212v103h379v-105l-231 -242h231v-103zM250 520h-93l73 148h142z" />
    <glyph glyph-name="Zdotaccent" unicode="&#x17b;" horiz-adv-x="581" 
d="M538 0h-504v134l359 458h-334v108h480v-123l-366 -469h365v-108zM352 770h-117v104h117v-104z" />
    <glyph glyph-name="zdotaccent" unicode="&#x17c;" horiz-adv-x="466" 
d="M427 0h-393v111l226 236h-212v103h379v-105l-231 -242h231v-103zM289 520h-117v104h117v-104z" />
    <glyph glyph-name="Zcaron" unicode="&#x17d;" horiz-adv-x="581" 
d="M538 0h-504v134l359 458h-334v108h480v-123l-366 -469h365v-108zM370 770h-150l-87 148h98l64 -84l65 84h98z" />
    <glyph glyph-name="zcaron" unicode="&#x17e;" horiz-adv-x="466" 
d="M427 0h-393v111l226 236h-212v103h379v-105l-231 -242h231v-103zM306 520h-150l-87 148h98l64 -84l65 84h98z" />
    <glyph glyph-name="florin" unicode="&#x192;" horiz-adv-x="350" 
d="M11 -193l8 90q11 -1 21 2q22 7 30 22t14 70l26 263h-86l10 101h86l14 146q20 205 178 213q29 1 52 -4l-8 -83q-18 2 -30 -1q-34 -7 -46 -30.5t-19 -92.5l-15 -148h86l-10 -101h-86l-25 -255q-17 -177 -167 -191q-22 -2 -33 -1z" />
    <glyph glyph-name="AEacute" unicode="&#x1fc;" horiz-adv-x="889" 
d="M842 0h-411v168h-224l-79 -168h-134l331 700h512v-108h-279v-180h259v-108h-259v-196h284v-108zM431 271v321h-23l-152 -321h175zM592 770h-93l73 148h142z" />
    <glyph glyph-name="aeacute" unicode="&#x1fd;" horiz-adv-x="807" 
d="M428 520h-93l72 148h143zM779 203h-335q2 -57 31.5 -87.5t81.5 -30.5q78 0 94 63h124q-10 -64 -66 -110t-152 -46q-117 0 -185 71q-61 -71 -156 -71q-91 0 -138.5 37.5t-47.5 105.5q0 66 45 109t127 43q75 0 114 -40v23q0 35 -3.5 54.5t-20.5 34.5t-50 15t-49 -13
t-22 -40h-116q18 142 193 142q100 0 148 -56q58 56 159 56q110 0 167 -66t57 -194zM318 145q0 30 -22.5 47t-57.5 17q-38 0 -59 -19.5t-21 -49.5q0 -29 19.5 -46.5t55.5 -17.5q39 0 62 19.5t23 49.5zM449 280h201q-9 92 -96 92q-86 0 -105 -92z" />
    <glyph glyph-name="Oslashacute" unicode="&#x1fe;" horiz-adv-x="795" 
d="M417 770h-93l73 148h142zM135 -11l-68 62l54 60q-81 97 -81 240q0 167 106 266t251 99q116 0 209 -65l55 61l67 -60l-55 -61q82 -98 82 -240q0 -112 -51.5 -197t-132 -126.5t-174.5 -41.5q-118 0 -208 63zM589 497l-324 -363q54 -42 132 -42q105 0 164.5 74t59.5 186
q0 80 -32 145zM206 206l324 360q-55 44 -133 44q-110 0 -166 -76t-56 -187q0 -76 31 -141z" />
    <glyph glyph-name="oslashacute" unicode="&#x1ff;" horiz-adv-x="561" 
d="M296 520h-93l73 148h142zM114 -44l-58 45l45 58q-70 67 -70 169q0 97 66 166t183 69q66 0 117 -23l49 64l58 -42l-47 -62q73 -70 73 -173q0 -97 -66 -166t-184 -69q-67 0 -119 25zM385 305l-163 -207q26 -15 58 -15q56 0 88.5 40t32.5 104q0 45 -16 78zM174 154l161 205
q-22 13 -55 13q-56 0 -88.5 -41t-32.5 -104q0 -40 15 -73z" />
    <glyph glyph-name="Scommaaccent" unicode="&#x218;" horiz-adv-x="598" 
d="M539 509h-122q0 107 -121 107q-69 0 -97.5 -28.5t-28.5 -65.5q0 -43 40.5 -66.5t98 -36t114.5 -30t97.5 -62t40.5 -117.5q0 -98 -67 -161t-195 -63q-115 0 -185.5 57t-70.5 180h122q0 -136 137 -136q74 0 104 29.5t30 69.5q0 34 -21.5 56.5t-55.5 34.5t-75.5 21.5
t-82.5 22.5t-75 32.5t-55.5 56.5t-21.5 90q0 94 63.5 155t189.5 61q116 0 176.5 -54.5t60.5 -152.5zM326 -244h-71v183h117z" />
    <glyph glyph-name="scommaaccent" unicode="&#x219;" horiz-adv-x="470" 
d="M256 -244h-71v183h117zM425 332h-120q-4 50 -69 50q-36 0 -53 -12.5t-17 -31.5q0 -24 28 -37t68 -20.5t80.5 -19t68.5 -40.5t28 -77q0 -64 -49 -108t-155 -44q-193 0 -200 151l119 3q3 -72 82 -72q37 0 55.5 14t18.5 36q0 26 -28 40t-68.5 21.5t-80.5 18t-68 39t-28 75.5
q0 67 53 106t149 39q88 0 136 -34t50 -97z" />
    <glyph glyph-name="dotlessj" unicode="&#x237;" horiz-adv-x="242" 
d="M-1 -192v90q4 -1 8 -1q31 0 41 21.5t10 77.5v454h126v-444q0 -93 -38.5 -146.5t-119.5 -53.5q-19 0 -27 2z" />
    <glyph glyph-name="circumflex" unicode="&#x2c6;" horiz-adv-x="425" 
d="M375 520h-98l-65 83l-64 -83h-98l87 148h150z" />
    <glyph glyph-name="caron" unicode="&#x2c7;" horiz-adv-x="425" 
d="M287 520h-150l-87 148h98l64 -84l65 84h98z" />
    <glyph glyph-name="breve" unicode="&#x2d8;" horiz-adv-x="386" 
d="M273 659h71q-7 -65 -49 -102.5t-102 -37.5t-102 37t-49 103h71q13 -68 79 -68q70 0 81 68z" />
    <glyph glyph-name="dotaccent" unicode="&#x2d9;" horiz-adv-x="217" 
d="M167 520h-117v104h117v-104z" />
    <glyph glyph-name="ring" unicode="&#x2da;" horiz-adv-x="283" 
d="M238 612q0 -40 -28.5 -68.5t-68.5 -28.5t-68 28.5t-28 68.5q0 41 28 69.5t68 28.5q41 0 69 -28.5t28 -69.5zM183 612q0 17 -12 29.5t-29 12.5q-18 0 -30 -12.5t-12 -28.5q0 -18 12.5 -30t29.5 -12t29 12t12 29z" />
    <glyph glyph-name="ogonek" unicode="&#x2db;" horiz-adv-x="333" 
d="M330 -220l-18 -3q-19 0 -28 1q-65 4 -103.5 38t-38.5 81q0 63 62 116h84q-59 -55 -59 -103q0 -58 75 -65q27 -3 60 2z" />
    <glyph glyph-name="tilde" unicode="&#x2dc;" horiz-adv-x="432" 
d="M313 643h69q-2 -52 -24 -86.5t-67 -34.5q-31 0 -75.5 21.5t-61.5 21.5q-34 0 -36 -44h-68q0 52 23 87t75 35q24 0 68 -20.5t60 -20.5q35 0 37 41z" />
    <glyph glyph-name="hungarumlaut" unicode="&#x2dd;" horiz-adv-x="503" 
d="M143 520h-93l72 148h143zM331 520h-93l72 148h143z" />
    <glyph glyph-name="uni1E02" unicode="&#x1e02;" horiz-adv-x="599" 
d="M287 0h-206v700h235q108 0 163.5 -48.5t55.5 -131.5q0 -108 -107 -155q128 -41 128 -165q0 -97 -69.5 -148.5t-199.5 -51.5zM204 110h80q83 0 112.5 26t29.5 72q0 52 -35.5 75.5t-112.5 23.5h-74v-197zM204 409h67q73 0 103.5 24.5t30.5 70.5t-28.5 66.5t-95.5 20.5h-77
v-182zM337 770h-117v104h117v-104z" />
    <glyph glyph-name="uni1E03" unicode="&#x1e03;" horiz-adv-x="558" 
d="M184 0h-126v716h126v-308q53 55 135 55q97 0 152 -68t55 -165q0 -45 -13 -86.5t-38.5 -76t-67 -55t-94.5 -20.5q-81 0 -129 50v-42zM283 88q53 0 82 41t29 101t-28 100t-80 40t-80.5 -38.5t-28.5 -104.5q0 -64 27.5 -101.5t78.5 -37.5zM415 543h-117v105h117v-105z" />
    <glyph glyph-name="uni1E0A" unicode="&#x1e0a;" horiz-adv-x="711" 
d="M243 0h-162v700h174q169 0 262 -55q77 -46 114 -123.5t37 -171.5q0 -74 -23 -134.5t-71 -110.5t-132.5 -77.5t-198.5 -27.5zM204 109h47q286 0 286 243q0 239 -286 239h-47v-482zM384 770h-117v104h117v-104z" />
    <glyph glyph-name="uni1E0B" unicode="&#x1e0b;" horiz-adv-x="559" 
d="M501 0h-126v45q-51 -53 -134 -53q-98 0 -153 68t-55 167q0 102 58.5 169t154.5 67q78 0 129 -48v301h126v-716zM273 84q52 0 80.5 39t28.5 105q0 69 -30.5 104t-76.5 35q-49 0 -79.5 -38t-30.5 -103q0 -62 28.5 -102t79.5 -40zM250 543h-117v105h117v-105z" />
    <glyph glyph-name="uni1E1E" unicode="&#x1e1e;" horiz-adv-x="538" 
d="M208 0h-127v700h424v-108h-297v-195h278v-106h-278v-291zM359 770h-117v104h117v-104z" />
    <glyph glyph-name="uni1E1F" unicode="&#x1e1f;" horiz-adv-x="319" 
d="M214 0h-127v349h-59v101h59v70q0 91 39.5 143.5t119.5 52.5q30 0 51 -9v-84q-13 3 -24 3q-33 0 -46 -25.5t-13 -81.5v-69h86v-101h-86v-349zM246 767h-117v104h117v-104z" />
    <glyph glyph-name="uni1E40" unicode="&#x1e40;" horiz-adv-x="892" 
d="M811 0h-126v536l-188 -539h-101l-189 539v-536h-126v700h195l170 -480l170 480h195v-700zM505 726h-117v105h117v-105z" />
    <glyph glyph-name="uni1E41" unicode="&#x1e41;" horiz-adv-x="806" 
d="M461 520h-117v104h117v-104zM751 0h-126v264q0 46 -9.5 66t-43.5 20q-41 0 -73 -28t-32 -86v-236h-127v273q0 42 -11 59.5t-40 17.5q-41 0 -73 -28.5t-32 -87.5v-234h-126v450h126v-65q48 78 136 78q98 0 130 -85q55 85 150 85q151 0 151 -192v-271z" />
    <glyph glyph-name="uni1E56" unicode="&#x1e56;" horiz-adv-x="571" 
d="M204 0h-123v700h202q140 0 200.5 -56.5t60.5 -163.5q0 -108 -61.5 -166.5t-202.5 -58.5h-76v-255zM204 363h77q71 0 102.5 29t31.5 86t-31 85t-103 28h-77v-228zM349 770h-117v104h117v-104z" />
    <glyph glyph-name="uni1E57" unicode="&#x1e57;" horiz-adv-x="558" 
d="M184 -193h-126v643h126v-38q49 51 131 51q99 0 155 -68.5t56 -166.5q0 -100 -59 -168t-155 -68q-80 0 -128 48v-233zM284 88q50 0 80 37.5t30 102.5q0 62 -28 102t-80 40q-51 0 -80 -38t-29 -105q0 -70 30.5 -104.5t76.5 -34.5zM338 520h-117v104h117v-104z" />
    <glyph glyph-name="uni1E60" unicode="&#x1e60;" horiz-adv-x="598" 
d="M539 509h-122q0 107 -121 107q-69 0 -97.5 -28.5t-28.5 -65.5q0 -43 40.5 -66.5t98 -36t114.5 -30t97.5 -62t40.5 -117.5q0 -98 -67 -161t-195 -63q-115 0 -185.5 57t-70.5 180h122q0 -136 137 -136q74 0 104 29.5t30 69.5q0 34 -21.5 56.5t-55.5 34.5t-75.5 21.5
t-82.5 22.5t-75 32.5t-55.5 56.5t-21.5 90q0 94 63.5 155t189.5 61q116 0 176.5 -54.5t60.5 -152.5zM350 770h-117v104h117v-104z" />
    <glyph glyph-name="uni1E61" unicode="&#x1e61;" horiz-adv-x="470" 
d="M290 520h-117v104h117v-104zM425 332h-120q-4 50 -69 50q-36 0 -53 -12.5t-17 -31.5q0 -24 28 -37t68 -20.5t80.5 -19t68.5 -40.5t28 -77q0 -64 -49 -108t-155 -44q-193 0 -200 151l119 3q3 -72 82 -72q37 0 55.5 14t18.5 36q0 26 -28 40t-68.5 21.5t-80.5 18t-68 39
t-28 75.5q0 67 53 106t149 39q88 0 136 -34t50 -97z" />
    <glyph glyph-name="uni1E6A" unicode="&#x1e6a;" horiz-adv-x="524" 
d="M325 0h-127v592h-182v108h492v-108h-183v-592zM320 770h-117v104h117v-104z" />
    <glyph glyph-name="uni1E6B" unicode="&#x1e6b;" horiz-adv-x="373" 
d="M343 109v-94q-38 -23 -99 -23q-158 0 -158 174v183h-67v101h67v133l127 42v-175h130v-101h-130v-147q0 -60 11 -82.5t50 -22.5q33 0 69 12zM206 677h-117v105h117v-105z" />
    <glyph glyph-name="Wgrave" unicode="&#x1e80;" horiz-adv-x="985" 
d="M794 -4h-147l-155 537l-154 -537h-147l-175 704h132l121 -521l147 521h153l147 -521l121 521h132zM565 770h-93l-122 148h142z" />
    <glyph glyph-name="wgrave" unicode="&#x1e81;" horiz-adv-x="802" 
d="M653 -3h-165l-87 293l-87 -293h-165l-139 453h135l88 -326l99 327h138l99 -327l88 326h135zM473 520h-93l-122 148h143z" />
    <glyph glyph-name="Wacute" unicode="&#x1e82;" horiz-adv-x="985" 
d="M794 -4h-147l-155 537l-154 -537h-147l-175 704h132l121 -521l147 521h153l147 -521l121 521h132zM518 770h-93l72 148h143z" />
    <glyph glyph-name="wacute" unicode="&#x1e83;" horiz-adv-x="802" 
d="M653 -3h-165l-87 293l-87 -293h-165l-139 453h135l88 -326l99 327h138l99 -327l88 326h135zM426 520h-93l73 148h142z" />
    <glyph glyph-name="Wdieresis" unicode="&#x1e84;" horiz-adv-x="985" 
d="M794 -4h-147l-155 537l-154 -537h-147l-175 704h132l121 -521l147 521h153l147 -521l121 521h132zM465 770h-115v103h115v-103zM635 770h-115v103h115v-103z" />
    <glyph glyph-name="wdieresis" unicode="&#x1e85;" horiz-adv-x="802" 
d="M653 -3h-165l-87 293l-87 -293h-165l-139 453h135l88 -326l99 327h138l99 -327l88 326h135zM373 520h-115v103h115v-103zM543 520h-115v103h115v-103z" />
    <glyph glyph-name="Ygrave" unicode="&#x1ef2;" horiz-adv-x="565" 
d="M346 0h-127v256l-220 444h139l144 -298l145 298h138l-219 -444v-256zM346 770h-93l-122 148h142z" />
    <glyph glyph-name="ygrave" unicode="&#x1ef3;" horiz-adv-x="483" 
d="M68 -181v97q23 -10 48 -10q32 0 50 18.5t32 64.5l11 36h-49l-155 425h134l105 -314l99 314h134l-158 -476q-28 -84 -71.5 -125.5t-113.5 -41.5q-40 0 -66 12zM301 520h-93l-122 148h143z" />
    <glyph glyph-name="endash" unicode="&#x2013;" horiz-adv-x="610" 
d="M555 203h-500v100h500v-100z" />
    <glyph glyph-name="emdash" unicode="&#x2014;" horiz-adv-x="1110" 
d="M1055 203h-1000v100h1000v-100z" />
    <glyph glyph-name="quoteleft" unicode="&#x2018;" horiz-adv-x="220" 
d="M166 497h-131l62 203h69v-203z" />
    <glyph glyph-name="quoteright" unicode="&#x2019;" horiz-adv-x="211" 
d="M123 497h-69v203h131z" />
    <glyph glyph-name="quotesinglbase" unicode="&#x201a;" horiz-adv-x="237" 
d="M126 -89h-69v203h131z" />
    <glyph glyph-name="quotedblleft" unicode="&#x201c;" horiz-adv-x="403" 
d="M166 497h-131l62 203h69v-203zM349 497h-132l62 203h70v-203z" />
    <glyph glyph-name="quotedblright" unicode="&#x201d;" horiz-adv-x="394" 
d="M306 497h-69v203h131zM124 497h-70v203h132z" />
    <glyph glyph-name="quotedblbase" unicode="&#x201e;" horiz-adv-x="420" 
d="M309 -89h-69v203h131zM127 -89h-70v203h132z" />
    <glyph glyph-name="dagger" unicode="&#x2020;" horiz-adv-x="464" 
d="M295 -50h-126v469h-128v101h128v196h126v-196h128v-101h-128v-469z" />
    <glyph glyph-name="daggerdbl" unicode="&#x2021;" horiz-adv-x="480" 
d="M303 -50h-126v233h-128v101h128v135h-128v101h128v196h126v-196h128v-101h-128v-135h128v-101h-128v-233z" />
    <glyph glyph-name="bullet" unicode="&#x2022;" horiz-adv-x="346" 
d="M307 350q0 -55 -39.5 -94.5t-94.5 -39.5t-94.5 39t-39.5 95t39.5 95t94.5 39t94.5 -39t39.5 -95z" />
    <glyph glyph-name="ellipsis" unicode="&#x2026;" horiz-adv-x="784" 
d="M186 0h-131v114h131v-114zM458 0h-132v114h132v-114zM729 0h-131v114h131v-114z" />
    <glyph glyph-name="perthousand" unicode="&#x2030;" horiz-adv-x="1509" 
d="M438 526q0 -78 -52.5 -134.5t-146.5 -56.5t-146.5 56.5t-52.5 134.5q0 77 52.5 133.5t146.5 56.5t146.5 -56.5t52.5 -133.5zM239 418q42 0 64.5 29.5t22.5 78.5q0 48 -22.5 78t-64.5 30t-65 -30t-23 -78q0 -49 23 -78.5t65 -29.5zM380 -27h-116l398 763h117zM1006 176
q0 -77 -52.5 -133.5t-146.5 -56.5t-146.5 56.5t-52.5 133.5q0 78 52.5 134.5t146.5 56.5t146.5 -56.5t52.5 -134.5zM807 68q42 0 64.5 30t22.5 78t-22.5 78.5t-64.5 30.5t-65 -30.5t-23 -78.5q0 -49 23 -78.5t65 -29.5zM1470 176q0 -77 -53 -133.5t-147 -56.5t-146.5 56.5
t-52.5 133.5q0 78 52.5 134.5t146.5 56.5t147 -56.5t53 -134.5zM1270 68q43 0 65.5 30t22.5 78q0 49 -22.5 79t-65.5 30q-42 0 -65 -30.5t-23 -78.5q0 -49 23 -78.5t65 -29.5z" />
    <glyph glyph-name="guilsinglleft" unicode="&#x2039;" horiz-adv-x="321" 
d="M286 35h-97l-155 223l155 223h97l-132 -223z" />
    <glyph glyph-name="guilsinglright" unicode="&#x203a;" horiz-adv-x="321" 
d="M132 35h-97l132 223l-132 223h97l155 -223z" />
    <glyph glyph-name="fraction" unicode="&#x2044;" horiz-adv-x="490" 
d="M476 700l-373 -700h-96l373 700h96z" />
    <glyph glyph-name="foursuperior" unicode="&#x2074;" horiz-adv-x="377" 
d="M306 282h-84v92h-189v91l166 237h107v-247h45v-81h-45v-92zM222 455v152l-101 -152h101z" />
    <glyph glyph-name="Euro" unicode="&#x20ac;" horiz-adv-x="652" 
d="M552 114l53 -93q-67 -35 -153 -35q-108 0 -192 60t-117 173h-101l15 92h68q-2 11 -2 31q0 26 2 40h-64l15 93h63q31 116 115.5 178.5t198.5 62.5q87 0 152 -35l-53 -98q-43 27 -104 27q-133 0 -174 -135h264l-15 -93h-266q-2 -14 -2 -26q0 -16 3 -45h261l-15 -92h-223
q45 -127 174 -127q57 0 97 22z" />
    <glyph glyph-name="trademark" unicode="&#x2122;" horiz-adv-x="871" 
d="M235 363h-79v284h-92v69h263v-69h-92v-284zM793 363h-78v255l-95 -256h-71l-95 256v-255h-78v353h123l86 -242l85 242h123v-353z" />
    <glyph glyph-name="onethird" unicode="&#x2153;" horiz-adv-x="871" 
d="M629 700l-373 -700h-96l373 700h96zM224 283h-84v307q-35 -47 -95 -89v92q57 42 99 110h80v-420zM654 174h-12v82q89 0 89 51q0 22 -14 31.5t-32 9.5q-23 0 -35.5 -14t-12.5 -32h-89q0 128 136 128q69 0 102.5 -31.5t33.5 -78.5q0 -71 -75 -102q81 -23 81 -103
q0 -52 -35 -87.5t-109 -35.5q-70 0 -106.5 34t-36.5 100h89q0 -27 17 -40t40 -13q52 0 52 55q0 46 -83 46z" />
    <glyph glyph-name="twothirds" unicode="&#x2154;" horiz-adv-x="935" 
d="M693 700l-373 -700h-96l373 700h96zM718 174h-12v82q89 0 89 51q0 22 -14 31.5t-32 9.5q-23 0 -35.5 -14t-12.5 -32h-89q0 128 136 128q69 0 102.5 -31.5t33.5 -78.5q0 -71 -75 -102q81 -23 81 -103q0 -52 -35 -87.5t-109 -35.5q-70 0 -106.5 34t-36.5 100h89
q0 -27 17 -40t40 -13q52 0 52 55q0 46 -83 46zM289 286h-244v66q0 45 19.5 75.5t47.5 46t56 29t47.5 35t19.5 52.5q0 16 -10.5 30t-32.5 14q-56 0 -56 -68h-89q0 73 34 111.5t100 38.5q63 0 103 -33.5t40 -93.5q0 -37 -14 -66t-35 -45t-46 -31t-46 -24.5t-35 -24t-14 -31.5
h190z" />
    <glyph glyph-name="Delta" unicode="&#x2206;" horiz-adv-x="685" 
d="M431 0h-110l41 170h-131l-40 -170h-110l40 170h-73v100h98l39 165h-97v100h122l40 165h110l-40 -165h130l40 165h110l-40 -165h78v-100h-102l-40 -165h102v-100h-126zM386 270l40 165h-131l-39 -165h130z" />
    <glyph glyph-name="minus" unicode="&#x2212;" horiz-adv-x="540" 
d="M475 207h-410v100h410v-100z" />
    <glyph glyph-name="commaaccent" unicode="&#xf6c3;" horiz-adv-x="197" 
d="M114 -244h-72v183h118z" />
    <glyph glyph-name="apple" unicode="&#xf8ff;" horiz-adv-x="990" 
d="M595 0h-200l-99 498l198 195l199 -195zM346 0h-169l-130 168l85 163l164 -82zM812 0h-168l49 249l165 82l84 -163z" />
    <glyph glyph-name="ff" unicode="&#xfb00;" horiz-adv-x="638" 
d="M214 0h-127v349h-59v101h59v70q0 91 39.5 143.5t119.5 52.5q30 0 51 -9v-84q-13 3 -24 3q-33 0 -46 -25.5t-13 -81.5v-69h86v-101h-86v-349zM533 0h-127v349h-59v101h59v70q0 91 39.5 143.5t119.5 52.5q30 0 51 -9v-84q-13 3 -24 3q-33 0 -46 -25.5t-13 -81.5v-69h86
v-101h-86v-349z" />
    <glyph glyph-name="fi" unicode="&#xfb01;" horiz-adv-x="561" 
d="M214 0h-127v349h-59v101h59v70q0 91 39.5 143.5t119.5 52.5q30 0 51 -9v-84q-13 3 -24 3q-33 0 -46 -25.5t-13 -81.5v-69h86v-101h-86v-349zM503 0h-126v450h126v-450zM503 559h-126v110h126v-110z" />
    <glyph glyph-name="fl" unicode="&#xfb02;" horiz-adv-x="565" 
d="M214 0h-127v349h-59v101h59v70q0 91 39.5 143.5t119.5 52.5q30 0 51 -9v-84q-13 3 -24 3q-33 0 -46 -25.5t-13 -81.5v-69h86v-101h-86v-349zM505 0h-126v716h126v-716z" />
    <glyph glyph-name="ffi" unicode="&#xfb03;" horiz-adv-x="880" 
d="M214 0h-127v349h-59v101h59v70q0 91 39.5 143.5t119.5 52.5q30 0 51 -9v-84q-13 3 -24 3q-33 0 -46 -25.5t-13 -81.5v-69h86v-101h-86v-349zM533 0h-127v349h-59v101h59v70q0 91 39.5 143.5t119.5 52.5q30 0 51 -9v-84q-13 3 -24 3q-33 0 -46 -25.5t-13 -81.5v-69h86
v-101h-86v-349zM822 0h-126v450h126v-450zM822 559h-126v110h126v-110z" />
    <glyph glyph-name="ffl" unicode="&#xfb04;" horiz-adv-x="884" 
d="M214 0h-127v349h-59v101h59v70q0 91 39.5 143.5t119.5 52.5q30 0 51 -9v-84q-13 3 -24 3q-33 0 -46 -25.5t-13 -81.5v-69h86v-101h-86v-349zM533 0h-127v349h-59v101h59v70q0 91 39.5 143.5t119.5 52.5q30 0 51 -9v-84q-13 3 -24 3q-33 0 -46 -25.5t-13 -81.5v-69h86
v-101h-86v-349zM824 0h-126v716h126v-716z" />
    </font>
</defs>
</svg>
