<?xml version="1.0" standalone="no"?>
<!DOCTYPE svg PUBLIC "-//W3C//DTD SVG 1.1//EN" "http://www.w3.org/Graphics/SVG/1.1/DTD/svg11.dtd" >
<svg xmlns="http://www.w3.org/2000/svg" xmlns:xlink="http://www.w3.org/1999/xlink" version="1.1">
<metadata>
Created by FontForge 20200314 at Fri Dec  5 19:25:28 2014
 By Unknown
Copyright 2014 Monotype Imaging Inc. All rights reserved.
</metadata>
<defs>
<font id="TanseekModernProArabic-Book" horiz-adv-x="358" >
  <font-face 
    font-family="TanseekModernProArabic-Book"
    font-weight="400"
    font-stretch="normal"
    units-per-em="1000"
    panose-1="2 11 5 4 3 2 2 2 3 3"
    ascent="675"
    descent="-325"
    x-height="332"
    cap-height="467"
    bbox="-88 -319 931 899"
    underline-thickness="50"
    underline-position="-175"
    unicode-range="U+0020-FEFC"
  />
<missing-glyph horiz-adv-x="500" 
d="M12 665h475v-665h-475v665zM250 375l161 243h-323zM60 91l161 242l-161 242v-484zM278 333l162 -243v485zM250 290l-162 -242h323z" />
    <glyph glyph-name="IJ" unicode="IJ" horiz-adv-x="398" 
d="M108 0h-53v467h53v-467zM347 108q0 -22 -4 -42.5t-15 -36.5t-31 -25.5t-53 -9.5q-15 0 -32.5 2t-29.5 4l-10 51q14 -4 31 -6.5t30 -2.5q35 0 48 12.5t13 44.5v322h-92l9 46h136v-359z" />
    <glyph glyph-name="ij" unicode="ij" horiz-adv-x="283" 
d="M106 431q0 -14 -9.5 -23.5t-23.5 -9.5t-24 9.5t-10 23.5t10 23.5t24 9.5t23.5 -9.5t9.5 -23.5zM48 332h49v-283q0 -8 3 -13.5t12 -5.5q8 0 17 4l8 -28q-13 -6 -23 -8.5t-24 -2.5q-23 0 -32.5 12t-9.5 36v289zM101 -82q9 -3 20.5 -5.5t23.5 -2.5q25 0 33.5 10t8.5 39v373
h49v-362q0 -22 -2 -41t-10.5 -33.5t-25.5 -22.5t-46 -8q-16 0 -29 2.5t-31 8.5zM245 431q0 -14 -9.5 -23.5t-23.5 -9.5t-24 9.5t-10 23.5t10 23.5t24 9.5t23.5 -9.5t9.5 -23.5z" />
    <glyph glyph-name="napostrophe" unicode="&#x27;n" horiz-adv-x="378" 
d="M282 233q0 33 -10 46.5t-37 13.5q-20 0 -38 -5.5t-33.5 -13.5t-28 -16.5t-20.5 -14.5v-243h-49v332h49v-46q25 20 56.5 36t66.5 16q52 0 72.5 -25t20.5 -81v-183q0 -8 3 -13.5t12 -5.5q8 0 17 4l8 -28q-13 -6 -23 -8.5t-24 -2.5q-23 0 -32.5 12t-9.5 36v190zM51 451
q0 -31 -18.5 -53.5t-46.5 -36.5l-8 21q14 11 22.5 21t8.5 21q0 6 -3.5 11l-7 10t-7 10.5t-3.5 12.5q0 10 7.5 18.5t23.5 8.5q14 0 23 -11.5t9 -32.5z" />
    <glyph glyph-name="uni0622" unicode="&#x627;&#x653;" horiz-adv-x="141" 
d="M94 0l-47 -27v494h47v-467zM142 585l-20 -21q-10 -11 -24 -11q-8 0 -16 4.5t-15 9.5t-13 9.5t-11 4.5t-7.5 -2t-6.5 -6l-16 -17l-14 14l21 21q6 6 10.5 9t12.5 3t15 -4.5t13.5 -9.5t13 -9.5t13.5 -4.5q4 0 6.5 1.5t7.5 6.5l16 16z" />
    <glyph glyph-name="uni0623" unicode="&#x627;&#x654;" horiz-adv-x="141" 
d="M94 0l-47 -27v494h47v-467zM107 633h-22q-13 0 -21 -7.5t-8 -21.5t8.5 -22.5t25.5 -8.5h37v-19h-113v19h32q-5 6 -8.5 13.5t-3.5 18.5q0 22 15 34.5t37 12.5h21v-19z" />
    <glyph glyph-name="uni0624" unicode="&#x648;&#x654;" horiz-adv-x="316" 
d="M195 499h-22q-13 0 -21 -7.5t-8 -21.5t8.5 -22.5t25.5 -8.5h37v-19h-113v19h32q-5 6 -8.5 13.5t-3.5 18.5q0 22 15 34.5t37 12.5h21v-19zM47 227q0 105 98 105h124v-342q0 -37 -7 -66.5t-24 -50.5t-46.5 -34t-75.5 -16l-30 41q70 2 103 28t33 83v25h-77q-98 0 -98 105
v122zM94 103q0 -30 11 -43.5t39 -13.5h78v240h-78q-28 0 -39 -13.5t-11 -43.5v-126z" />
    <glyph glyph-name="uni0625" unicode="&#x627;&#x655;" horiz-adv-x="141" 
d="M94 0l-47 -27v494h47v-467zM107 -96h-22q-13 0 -21 -7.5t-8 -21.5t8.5 -22.5t25.5 -8.5h37v-19h-113v19h32q-5 6 -8.5 13.5t-3.5 18.5q0 22 15 34.5t37 12.5h21v-19z" />
    <glyph glyph-name="uni0626" unicode="&#x64a;&#x654;" horiz-adv-x="490" 
d="M106 338h-22q-13 0 -21 -7.5t-8 -21.5t8.5 -22.5t25.5 -8.5h37v-19h-113v19h32q-5 6 -8.5 13.5t-3.5 18.5q0 22 15 34.5t37 12.5h21v-19zM94 -20q0 -32 13.5 -53t35.5 -33.5t49 -18t54 -5.5t54.5 6t49 19t35 33.5t13.5 49.5v22h-78q-98 0 -98 105v122q0 105 98 105h125
v-46h-126q-28 0 -39 -13.5t-11 -43.5v-126q0 -30 11 -43.5t39 -13.5h126v-66q0 -39 -16 -68.5t-43.5 -49t-63.5 -29.5t-76 -10q-38 0 -73.5 8t-63.5 27t-45 49.5t-17 74.5v164l47 30v-196z" />
    <glyph glyph-name="uniFB00" unicode="ff" horiz-adv-x="394" 
d="M190 425q-9 5 -21.5 7.5t-22.5 2.5q-25 0 -33 -10t-8 -39v-54h73v-40h-73v-292h-49v292h-47l8 40h39v49q0 49 16 74t67 25q18 0 31.5 -2.5t29.5 -8.5zM387 425q-9 5 -21.5 7.5t-22.5 2.5q-25 0 -33 -10t-8 -39v-54h73v-40h-73v-292h-49v292h-47l8 40h39v49q0 49 16 74
t67 25q18 0 31.5 -2.5t29.5 -8.5z" />
    <glyph glyph-name="uniFB01" unicode="fi" horiz-adv-x="343" 
d="M190 425q-9 5 -21.5 7.5t-22.5 2.5q-25 0 -33 -10t-8 -39v-54h73v-40h-73v-292h-49v292h-47l8 40h39v49q0 49 16 74t67 25q18 0 31.5 -2.5t29.5 -8.5zM303 431q0 -14 -9.5 -23.5t-23.5 -9.5t-24 9.5t-10 23.5t10 23.5t24 9.5t23.5 -9.5t9.5 -23.5zM245 332h49v-283
q0 -8 3 -13.5t12 -5.5q8 0 17 4l8 -28q-13 -6 -23 -8.5t-24 -2.5q-23 0 -32.5 12t-9.5 36v289z" />
    <glyph glyph-name="uniFB02" unicode="fl" horiz-adv-x="342" 
d="M190 425q-9 5 -21.5 7.5t-22.5 2.5q-25 0 -33 -10t-8 -39v-54h73v-40h-73v-292h-49v292h-47l8 40h39v49q0 49 16 74t67 25q18 0 31.5 -2.5t29.5 -8.5zM245 467h49v-418q0 -8 3 -13.5t12 -5.5q8 0 17 4l8 -28q-13 -6 -23 -8.5t-24 -2.5q-23 0 -32.5 12t-9.5 36v424z" />
    <glyph glyph-name="uniFB03" unicode="ffi" horiz-adv-x="540" 
d="M190 425q-9 5 -21.5 7.5t-22.5 2.5q-25 0 -33 -10t-8 -39v-54h73v-40h-73v-292h-49v292h-47l8 40h39v49q0 49 16 74t67 25q18 0 31.5 -2.5t29.5 -8.5zM387 425q-9 5 -21.5 7.5t-22.5 2.5q-25 0 -33 -10t-8 -39v-54h73v-40h-73v-292h-49v292h-47l8 40h39v49q0 49 16 74
t67 25q18 0 31.5 -2.5t29.5 -8.5zM500 431q0 -14 -9.5 -23.5t-23.5 -9.5t-24 9.5t-10 23.5t10 23.5t24 9.5t23.5 -9.5t9.5 -23.5zM442 332h49v-283q0 -8 3 -13.5t12 -5.5q8 0 17 4l8 -28q-13 -6 -23 -8.5t-24 -2.5q-23 0 -32.5 12t-9.5 36v289z" />
    <glyph glyph-name="uniFB04" unicode="ffl" horiz-adv-x="539" 
d="M190 425q-9 5 -21.5 7.5t-22.5 2.5q-25 0 -33 -10t-8 -39v-54h73v-40h-73v-292h-49v292h-47l8 40h39v49q0 49 16 74t67 25q18 0 31.5 -2.5t29.5 -8.5zM387 425q-9 5 -21.5 7.5t-22.5 2.5q-25 0 -33 -10t-8 -39v-54h73v-40h-73v-292h-49v292h-47l8 40h39v49q0 49 16 74
t67 25q18 0 31.5 -2.5t29.5 -8.5zM442 467h49v-418q0 -8 3 -13.5t12 -5.5q8 0 17 4l8 -28q-13 -6 -23 -8.5t-24 -2.5q-23 0 -32.5 12t-9.5 36v424z" />
    <glyph glyph-name="uniFDF2" unicode="&#xfedf;&#xfee0;&#xfeea;" horiz-adv-x="632" arabic-form="isolated" 
d="M94 103q0 -30 10 -43.5t40 -13.5h78v240h-78q-28 0 -39 -13.5t-11 -43.5v-126zM222 0v30l-30 -30h-47q-98 0 -98 105v122q0 105 98 105h124v-286h111v421h47v-421h61q28 0 39 13.5t11 43.5v364h47v-362q0 -105 -98 -105h-265zM393 733v138h19v-138h-19zM351 554
q-35 0 -35 35v66h19v-66q0 -6 3 -11t13 -5h42v82h19v-82h41q10 0 13 5t3 11v66h19v-66q0 -35 -35 -35h-102z" />
    <glyph glyph-name="uniFEF5" unicode="&#xfedf;&#xfe82;" horiz-adv-x="406" arabic-form="isolated" 
d="M47 0v46h124l-112 286h50l112 -286h52q21 0 30 13.5t9 33.5v374h47v-372q0 -48 -26 -71.5t-60 -23.5h-226zM159 452l-20 -21q-10 -11 -24 -11q-8 0 -16 4.5t-15 9.5t-13 9.5t-11 4.5t-7.5 -2t-6.5 -6l-16 -17l-14 14l21 21q6 6 10.5 9t12.5 3t15 -4.5t13.5 -9.5t13 -9.5
t13.5 -4.5q4 0 6.5 1.5t7.5 6.5l16 16z" />
    <glyph glyph-name="uniFEF6" unicode="&#xfee0;&#xfe82;" horiz-adv-x="394" arabic-form="final" 
d="M399 46v-46h-352v46h124l-112 286h50l112 -286h91v421h47v-421h40zM159 452l-20 -21q-10 -11 -24 -11q-8 0 -16 4.5t-15 9.5t-13 9.5t-11 4.5t-7.5 -2t-6.5 -6l-16 -17l-14 14l21 21q6 6 10.5 9t12.5 3t15 -4.5t13.5 -9.5t13 -9.5t13.5 -4.5q4 0 6.5 1.5t7.5 6.5l16 16z
" />
    <glyph glyph-name="uniFEF7" unicode="&#xfedf;&#xfe84;" horiz-adv-x="406" arabic-form="isolated" 
d="M114 500h-22q-13 0 -21 -7.5t-8 -21.5t8.5 -22.5t25.5 -8.5h37v-19h-113v19h32q-5 6 -8.5 13.5t-3.5 18.5q0 22 15 34.5t37 12.5h21v-19zM47 0v46h124l-112 286h50l112 -286h52q21 0 30 13.5t9 33.5v374h47v-372q0 -48 -26 -71.5t-60 -23.5h-226z" />
    <glyph glyph-name="uniFEF8" unicode="&#xfee0;&#xfe84;" horiz-adv-x="394" arabic-form="final" 
d="M399 46v-46h-352v46h124l-112 286h50l112 -286h91v421h47v-421h40zM114 500h-22q-13 0 -21 -7.5t-8 -21.5t8.5 -22.5t25.5 -8.5h37v-19h-113v19h32q-5 6 -8.5 13.5t-3.5 18.5q0 22 15 34.5t37 12.5h21v-19z" />
    <glyph glyph-name="uniFEF9" unicode="&#xfedf;&#xfe88;" horiz-adv-x="407" arabic-form="isolated" 
d="M140 -96h-22q-13 0 -21 -7.5t-8 -21.5t8.5 -22.5t25.5 -8.5h37v-19h-113v19h32q-5 6 -8.5 13.5t-3.5 18.5q0 22 15 34.5t37 12.5h21v-19zM47 0v46h124l-112 286h50l112 -286h52q21 0 30 13.5t9 33.5v374h47v-372q0 -48 -26 -71.5t-60 -23.5h-226z" />
    <glyph glyph-name="uniFEFA" unicode="&#xfee0;&#xfe88;" horiz-adv-x="395" arabic-form="final" 
d="M400 46v-46h-352v46h124l-112 286h50l112 -286h91v421h47v-421h40zM140 -96h-22q-13 0 -21 -7.5t-8 -21.5t8.5 -22.5t25.5 -8.5h37v-19h-113v19h32q-5 6 -8.5 13.5t-3.5 18.5q0 22 15 34.5t37 12.5h21v-19z" />
    <glyph glyph-name="uniFEFB" unicode="&#xfedf;&#xfe8e;" horiz-adv-x="406" arabic-form="isolated" 
d="M47 0v46h124l-112 286h50l112 -286h52q21 0 30 13.5t9 33.5v374h47v-372q0 -48 -26 -71.5t-60 -23.5h-226z" />
    <glyph glyph-name="uniFEFC" unicode="&#xfee0;&#xfe8e;" horiz-adv-x="394" arabic-form="final" 
d="M399 46v-46h-352v46h124l-112 286h50l112 -286h91v421h47v-421h40z" />
    <glyph glyph-name="uni0621" unicode="&#x621;" horiz-adv-x="383" arabic-form="isolated" 
d="M337 24q-63 -19 -120 -50t-118 -78l-25 41q32 23 59.5 40t56.5 31q-74 19 -108.5 65.5t-34.5 104.5q0 36 12.5 65t35.5 49.5t54.5 31.5t70.5 11q9 0 24.5 -0.5t26.5 -2.5v-48q-13 2 -26 3t-24 1q-24 0 -46.5 -6t-40 -19.5t-28 -34t-10.5 -49.5q0 -58 38 -93.5t103 -35.5
q14 0 25 1t22.5 4t23.5 7.5t29 12.5v-51z" />
    <glyph glyph-name="uni0627" unicode="&#x627;" horiz-adv-x="141" arabic-form="isolated" 
d="M94 0l-47 -27v494h47v-467z" />
    <glyph glyph-name="uni0628" unicode="&#x628;" horiz-adv-x="602" arabic-form="isolated" 
d="M555 105q0 -105 -98 -105h-312q-98 0 -98 105v92l47 30v-124q0 -30 11 -43.5t39 -13.5h314q28 0 39 13.5t11 43.5v229h47v-227zM271 -144q0 13 9 22t22 9t22 -9t9 -22t-9 -22t-22 -9t-22 9t-9 22z" />
    <glyph glyph-name="uni0629" unicode="&#x629;" horiz-adv-x="316" arabic-form="isolated" 
d="M47 227q0 105 98 105h124v-221q0 -53 -30.5 -82.5t-80.5 -29.5q-53 0 -82 29.5t-29 82.5v116zM222 286h-78q-28 0 -39 -13.5t-11 -43.5v-121q0 -29 17.5 -46t46.5 -17t46.5 17t17.5 46v178zM81 451q0 13 9 22t22 9t22 -9t9 -22t-9 -22t-22 -9t-22 9t-9 22zM179 451
q0 13 9 22t22 9t22 -9t9 -22t-9 -22t-22 -9t-22 9t-9 22z" />
    <glyph glyph-name="uni062A" unicode="&#x62a;" horiz-adv-x="602" arabic-form="isolated" 
d="M555 105q0 -105 -98 -105h-312q-98 0 -98 105v92l47 30v-124q0 -30 11 -43.5t39 -13.5h314q28 0 39 13.5t11 43.5v229h47v-227zM222 451q0 13 9 22t22 9t22 -9t9 -22t-9 -22t-22 -9t-22 9t-9 22zM320 451q0 13 9 22t22 9t22 -9t9 -22t-9 -22t-22 -9t-22 9t-9 22z" />
    <glyph glyph-name="uni062B" unicode="&#x62b;" horiz-adv-x="602" arabic-form="isolated" 
d="M555 105q0 -105 -98 -105h-312q-98 0 -98 105v92l47 30v-124q0 -30 11 -43.5t39 -13.5h314q28 0 39 13.5t11 43.5v229h47v-227zM222 451q0 13 9 22t22 9t22 -9t9 -22t-9 -22t-22 -9t-22 9t-9 22zM320 451q0 13 9 22t22 9t22 -9t9 -22t-9 -22t-22 -9t-22 9t-9 22zM275 531
q0 11 8.5 19.5t19.5 8.5t19.5 -8.5t8.5 -19.5t-8.5 -19.5t-19.5 -8.5t-19.5 8.5t-8.5 19.5z" />
    <glyph glyph-name="uni062C" unicode="&#x62c;" horiz-adv-x="383" arabic-form="isolated" 
d="M239 46q28 0 39 13.5t11 43.5v126q0 30 -11 43.5t-39 13.5h-124v46h123q98 0 98 -105v-122q0 -105 -98 -105h-81q-11 0 -22 -3t-20 -10.5t-14.5 -20t-5.5 -30.5q0 -35 24.5 -50t56.5 -15h23l-31 -46q-58 2 -89.5 31t-31.5 79q0 24 8.5 44.5t23.5 35t35 23t44 8.5h81z
M275 -144q0 13 9 22t22 9t22 -9t9 -22t-9 -22t-22 -9t-22 9t-9 22z" />
    <glyph glyph-name="uni062D" unicode="&#x62d;" horiz-adv-x="383" arabic-form="isolated" 
d="M168 -175q-58 0 -89.5 30t-31.5 80q0 24 8.5 44.5t23.5 35t35 23t44 8.5h81q28 0 39 13.5t11 43.5v126q0 30 -11 43.5t-39 13.5h-124v46h123q98 0 98 -105v-122q0 -105 -98 -105h-81q-11 0 -22 -3t-20 -10.5t-14.5 -20t-5.5 -30.5q0 -35 22.5 -50t48.5 -15h162l-31 -46
h-129z" />
    <glyph glyph-name="uni062E" unicode="&#x62e;" horiz-adv-x="383" arabic-form="isolated" 
d="M168 -175q-58 0 -89.5 30t-31.5 80q0 24 8.5 44.5t23.5 35t35 23t44 8.5h81q28 0 39 13.5t11 43.5v126q0 30 -11 43.5t-39 13.5h-124v46h123q98 0 98 -105v-122q0 -105 -98 -105h-81q-11 0 -22 -3t-20 -10.5t-14.5 -20t-5.5 -30.5q0 -35 22.5 -50t48.5 -15h162l-31 -46
h-129zM169 451q0 13 9 22t22 9t22 -9t9 -22t-9 -22t-22 -9t-22 9t-9 22z" />
    <glyph glyph-name="uni062F" unicode="&#x62f;" horiz-adv-x="333" arabic-form="isolated" 
d="M239 181q0 30 -8.5 50t-22 32.5t-30.5 17.5t-35 5h-41v46h39q30 0 56.5 -9.5t46 -28.5t31 -48t11.5 -67v-74q0 -105 -98 -105h-141v46h142q28 0 39 13.5t11 43.5v78z" />
    <glyph glyph-name="uni0630" unicode="&#x630;" horiz-adv-x="333" arabic-form="isolated" 
d="M239 181q0 30 -8.5 50t-22 32.5t-30.5 17.5t-35 5h-41v46h39q30 0 56.5 -9.5t46 -28.5t31 -48t11.5 -67v-74q0 -105 -98 -105h-141v46h142q28 0 39 13.5t11 43.5v78zM102 451q0 13 9 22t22 9t22 -9t9 -22t-9 -22t-22 -9t-22 9t-9 22z" />
    <glyph glyph-name="uni0631" unicode="&#x631;" horiz-adv-x="186" arabic-form="isolated" 
d="M139 -35q0 -28 -4 -48.5t-14 -36.5t-27.5 -29.5t-43.5 -27.5l-33 42q22 10 36.5 19t23 20t12 25t3.5 35v368h47v-367z" />
    <glyph glyph-name="uni0632" unicode="&#x632;" horiz-adv-x="186" arabic-form="isolated" 
d="M139 -35q0 -28 -4 -48.5t-14 -36.5t-27.5 -29.5t-43.5 -27.5l-33 42q22 10 36.5 19t23 20t12 25t3.5 35v368h47v-367zM84 451q0 13 9 22t22 9t22 -9t9 -22t-9 -22t-22 -9t-22 9t-9 22z" />
    <glyph glyph-name="uni0633" unicode="&#x633;" horiz-adv-x="842" arabic-form="isolated" 
d="M445 -20q0 -39 -16 -68.5t-43.5 -49t-63.5 -29.5t-76 -10q-38 0 -73.5 8t-63.5 27t-45 49.5t-17 74.5v164l47 30v-196q0 -32 13.5 -53t35.5 -33.5t49 -18t54 -5.5t54.5 6t49 19t35 33.5t13.5 49.5v354h47v-286h128v286h47v-286h78q28 0 39 13.5t11 43.5v229h47v-227
q0 -105 -98 -105h-252v-20z" />
    <glyph glyph-name="uni0634" unicode="&#x634;" horiz-adv-x="842" arabic-form="isolated" 
d="M445 -20q0 -39 -16 -68.5t-43.5 -49t-63.5 -29.5t-76 -10q-38 0 -73.5 8t-63.5 27t-45 49.5t-17 74.5v164l47 30v-196q0 -32 13.5 -53t35.5 -33.5t49 -18t54 -5.5t54.5 6t49 19t35 33.5t13.5 49.5v354h47v-286h128v286h47v-286h78q28 0 39 13.5t11 43.5v229h47v-227
q0 -105 -98 -105h-252v-20zM517 451q0 13 9 22t22 9t22 -9t9 -22t-9 -22t-22 -9t-22 9t-9 22zM615 451q0 13 9 22t22 9t22 -9t9 -22t-9 -22t-22 -9t-22 9t-9 22zM570 531q0 11 8.5 19.5t19.5 8.5t19.5 -8.5t8.5 -19.5t-8.5 -19.5t-19.5 -8.5t-19.5 8.5t-8.5 19.5z" />
    <glyph glyph-name="uni0635" unicode="&#x635;" horiz-adv-x="787" arabic-form="isolated" 
d="M740 105q0 -105 -98 -105h-197v-20q0 -39 -16 -68.5t-43.5 -49t-63.5 -29.5t-76 -10q-38 0 -73.5 8t-63.5 27t-45 49.5t-17 74.5v164l47 30v-196q0 -32 13.5 -53t35.5 -33.5t49 -18t54 -5.5t54.5 6t49 19t35 33.5t13.5 49.5v354h47v-62l155 55q14 5 24.5 7t21.5 2
q50 0 72 -29t22 -68v-132zM693 238q0 21 -11 35t-36 14q-9 0 -16.5 -1.5t-18.5 -5.5l-124 -43q-14 -5 -22 -9t-12.5 -9.5t-6 -14t-1.5 -22.5v-136h198q28 0 39 13.5t11 43.5v135z" />
    <glyph glyph-name="uni0636" unicode="&#x636;" horiz-adv-x="787" arabic-form="isolated" 
d="M740 105q0 -105 -98 -105h-197v-20q0 -39 -16 -68.5t-43.5 -49t-63.5 -29.5t-76 -10q-38 0 -73.5 8t-63.5 27t-45 49.5t-17 74.5v164l47 30v-196q0 -32 13.5 -53t35.5 -33.5t49 -18t54 -5.5t54.5 6t49 19t35 33.5t13.5 49.5v354h47v-62l155 55q14 5 24.5 7t21.5 2
q50 0 72 -29t22 -68v-132zM693 238q0 21 -11 35t-36 14q-9 0 -16.5 -1.5t-18.5 -5.5l-124 -43q-14 -5 -22 -9t-12.5 -9.5t-6 -14t-1.5 -22.5v-136h198q28 0 39 13.5t11 43.5v135zM538 451q0 13 9 22t22 9t22 -9t9 -22t-9 -22t-22 -9t-22 9t-9 22z" />
    <glyph glyph-name="uni0637" unicode="&#x637;" horiz-adv-x="530" arabic-form="isolated" 
d="M188 -31l-47 -25v56h-94l21 46h73v421h47v-197l155 55q14 5 24.5 7t21.5 2q50 0 72 -29t22 -68v-132q0 -105 -98 -105h-197v-31zM436 239q0 21 -11 35t-36 14q-9 0 -16.5 -1.5t-18.5 -5.5l-124 -43q-14 -5 -22 -9t-12.5 -9.5t-6 -14t-1.5 -22.5v-137h198q28 0 39 13.5
t11 43.5v136z" />
    <glyph glyph-name="uni0638" unicode="&#x638;" horiz-adv-x="530" arabic-form="isolated" 
d="M188 -31l-47 -25v56h-94l21 46h73v421h47v-197l155 55q14 5 24.5 7t21.5 2q50 0 72 -29t22 -68v-132q0 -105 -98 -105h-197v-31zM436 239q0 21 -11 35t-36 14q-9 0 -16.5 -1.5t-18.5 -5.5l-124 -43q-14 -5 -22 -9t-12.5 -9.5t-6 -14t-1.5 -22.5v-137h198q28 0 39 13.5
t11 43.5v136zM280 451q0 13 9 22t22 9t22 -9t9 -22t-9 -22t-22 -9t-22 9t-9 22z" />
    <glyph glyph-name="uni0639" unicode="&#x639;" horiz-adv-x="382" arabic-form="isolated" 
d="M47 -65q0 30 12.5 54t34.5 38q-26 24 -26 78v122q0 105 98 105h125v-46h-126q-28 0 -39 -13.5t-11 -43.5v-126q0 -30 11 -43.5t39 -13.5h172v-46h-180q-11 0 -22 -3t-20 -10.5t-14.5 -20t-5.5 -30.5q0 -35 22.5 -50t48.5 -15h162l-31 -46h-129q-58 0 -89.5 30t-31.5 80z
" />
    <glyph glyph-name="uni063A" unicode="&#x63a;" horiz-adv-x="382" arabic-form="isolated" 
d="M47 -65q0 30 12.5 54t34.5 38q-26 24 -26 78v122q0 105 98 105h125v-46h-126q-28 0 -39 -13.5t-11 -43.5v-126q0 -30 11 -43.5t39 -13.5h172v-46h-180q-11 0 -22 -3t-20 -10.5t-14.5 -20t-5.5 -30.5q0 -35 22.5 -50t48.5 -15h162l-31 -46h-129q-58 0 -89.5 30t-31.5 80z
M162 451q0 13 9 22t22 9t22 -9t9 -22t-9 -22t-22 -9t-22 9t-9 22z" />
    <glyph glyph-name="uni0641" unicode="&#x641;" horiz-adv-x="602" arabic-form="isolated" 
d="M416 451q0 13 9 22t22 9t22 -9t9 -22t-9 -22t-22 -9t-22 9t-9 22zM94 103q0 -30 11 -43.5t39 -13.5h189v181q0 105 98 105h124v-227q0 -105 -98 -105h-312q-98 0 -98 105v92l47 30v-124zM380 46h78q28 0 39 13.5t11 43.5v183h-78q-28 0 -39 -13.5t-11 -43.5v-183z" />
    <glyph glyph-name="uni0642" unicode="&#x642;" horiz-adv-x="492" arabic-form="isolated" 
d="M398 286h-79q-28 0 -39 -13.5t-11 -43.5v-126q0 -30 11 -43.5t39 -13.5h79v240zM445 -20q0 -39 -16 -68.5t-43.5 -49t-63.5 -29.5t-76 -10q-38 0 -73.5 8t-63.5 27t-45 49.5t-17 74.5v164l47 30v-196q0 -32 13.5 -53t35.5 -33.5t49 -18t54 -5.5t54.5 6t49 19t35 33.5
t13.5 49.5v22h-78q-98 0 -98 105v122q0 105 98 105h125v-352zM258 451q0 13 9 22t22 9t22 -9t9 -22t-9 -22t-22 -9t-22 9t-9 22zM356 451q0 13 9 22t22 9t22 -9t9 -22t-9 -22t-22 -9t-22 9t-9 22z" />
    <glyph glyph-name="uni0643" unicode="&#x643;" horiz-adv-x="602" arabic-form="isolated" 
d="M555 105q0 -105 -98 -105h-312q-98 0 -98 105v92l47 30v-124q0 -30 11 -43.5t39 -13.5h314q28 0 39 13.5t11 43.5v364h47v-362zM335 308h-22q-13 0 -21 -7.5t-8 -21.5t8.5 -22.5t25.5 -8.5h37v-19h-113v19h32q-5 6 -8.5 13.5t-3.5 18.5q0 22 15 34.5t37 12.5h21v-19z" />
    <glyph glyph-name="uni0644" unicode="&#x644;" horiz-adv-x="492" arabic-form="isolated" 
d="M445 -20q0 -39 -16 -68.5t-43.5 -49t-63.5 -29.5t-76 -10q-38 0 -73.5 8t-63.5 27t-45 49.5t-17 74.5v164l47 30v-196q0 -32 13.5 -53t35.5 -33.5t49 -18t54 -5.5t54.5 6t49 19t35 33.5t13.5 49.5v489h47v-487z" />
    <glyph glyph-name="uni0645" unicode="&#x645;" horiz-adv-x="417" arabic-form="isolated" 
d="M195 46h78q28 0 39 13.5t11 43.5v183h-78q-28 0 -39 -13.5t-11 -43.5v-183zM148 227q0 105 98 105h124v-227q0 -105 -98 -105h-125q-28 0 -40.5 -14t-12.5 -40v-97l-47 -26v122q0 51 26.5 76.5t74.5 25.5v180z" />
    <glyph glyph-name="uni0646" unicode="&#x646;" horiz-adv-x="492" arabic-form="isolated" 
d="M445 -20q0 -39 -16 -68.5t-43.5 -49t-63.5 -29.5t-76 -10q-38 0 -73.5 8t-63.5 27t-45 49.5t-17 74.5v164l47 30v-196q0 -32 13.5 -53t35.5 -33.5t49 -18t54 -5.5t54.5 6t49 19t35 33.5t13.5 49.5v354h47v-352zM221 451q0 13 9 22t22 9t22 -9t9 -22t-9 -22t-22 -9t-22 9
t-9 22z" />
    <glyph glyph-name="uni0647" unicode="&#x647;" horiz-adv-x="316" arabic-form="isolated" 
d="M47 227q0 105 98 105h124v-221q0 -53 -30.5 -82.5t-80.5 -29.5q-53 0 -82 29.5t-29 82.5v116zM222 286h-78q-28 0 -39 -13.5t-11 -43.5v-121q0 -29 17.5 -46t46.5 -17t46.5 17t17.5 46v178z" />
    <glyph glyph-name="uni0648" unicode="&#x648;" horiz-adv-x="316" arabic-form="isolated" 
d="M47 227q0 105 98 105h124v-342q0 -37 -7 -66.5t-24 -50.5t-46.5 -34t-75.5 -16l-30 41q70 2 103 28t33 83v25h-77q-98 0 -98 105v122zM94 103q0 -30 11 -43.5t39 -13.5h78v240h-78q-28 0 -39 -13.5t-11 -43.5v-126z" />
    <glyph glyph-name="uni0649" unicode="&#x649;" horiz-adv-x="490" arabic-form="isolated" 
d="M94 -20q0 -32 13.5 -53t35.5 -33.5t49 -18t54 -5.5t54.5 6t49 19t35 33.5t13.5 49.5v22h-78q-98 0 -98 105v122q0 105 98 105h125v-46h-126q-28 0 -39 -13.5t-11 -43.5v-126q0 -30 11 -43.5t39 -13.5h126v-66q0 -39 -16 -68.5t-43.5 -49t-63.5 -29.5t-76 -10
q-38 0 -73.5 8t-63.5 27t-45 49.5t-17 74.5v164l47 30v-196z" />
    <glyph glyph-name="uni064A" unicode="&#x64a;" horiz-adv-x="490" arabic-form="isolated" 
d="M94 -20q0 -32 13.5 -53t35.5 -33.5t49 -18t54 -5.5t54.5 6t49 19t35 33.5t13.5 49.5v22h-78q-98 0 -98 105v122q0 105 98 105h125v-46h-126q-28 0 -39 -13.5t-11 -43.5v-126q0 -30 11 -43.5t39 -13.5h126v-66q0 -39 -16 -68.5t-43.5 -49t-63.5 -29.5t-76 -10
q-38 0 -73.5 8t-63.5 27t-45 49.5t-17 74.5v164l47 30v-196zM166 -288q0 13 9 22t22 9t22 -9t9 -22t-9 -22t-22 -9t-22 9t-9 22zM264 -288q0 13 9 22t22 9t22 -9t9 -22t-9 -22t-22 -9t-22 9t-9 22z" />
    <glyph glyph-name="uni0671" unicode="&#x671;" horiz-adv-x="141" arabic-form="isolated" 
d="M2 591q3 4 7 7.5t10 3.5q11 0 20.5 -9t16.5 -9t11.5 8.5t10 19t14 19.5t24.5 9q18 0 27 -11t9 -26q0 -26 -21.5 -38t-47.5 -12q-27 0 -41 11t-20 11q-3 0 -7 -5l-15 -19l-18 14zM78 574q4 -1 12 -1q20 0 31 10t11 21q0 5 -3.5 10.5t-11.5 5.5q-7 0 -11 -5t-7.5 -12
t-8 -15t-12.5 -14zM94 0l-47 -27v494h47v-467z" />
    <glyph glyph-name="uni0679" unicode="&#x679;" horiz-adv-x="602" arabic-form="isolated" 
d="M348 439q9 0 12 3t3 9v41q0 8 -3 14t-11 6q-6 0 -13 -3l-47 -17q-8 -3 -11.5 -6t-3.5 -14v-33h74zM274 401l-19 -10v29h-37l8 19h29v131h19v-64l61 22q9 3 15 3q17 0 24.5 -9.5t7.5 -22.5v-48q0 -18 -9.5 -24.5t-23.5 -6.5h-75v-19zM555 105q0 -105 -98 -105h-312
q-98 0 -98 105v92l47 30v-124q0 -30 11 -43.5t39 -13.5h314q28 0 39 13.5t11 43.5v229h47v-227z" />
    <glyph glyph-name="uni067E" unicode="&#x67e;" horiz-adv-x="602" arabic-form="isolated" 
d="M555 105q0 -105 -98 -105h-312q-98 0 -98 105v92l47 30v-124q0 -30 11 -43.5t39 -13.5h314q28 0 39 13.5t11 43.5v229h47v-227zM222 -144q0 13 9 22t22 9t22 -9t9 -22t-9 -22t-22 -9t-22 9t-9 22zM320 -144q0 13 9 22t22 9t22 -9t9 -22t-9 -22t-22 -9t-22 9t-9 22z
M275 -224q0 11 8.5 19.5t19.5 8.5t19.5 -8.5t8.5 -19.5t-8.5 -19.5t-19.5 -8.5t-19.5 8.5t-8.5 19.5z" />
    <glyph glyph-name="uni0686" unicode="&#x686;" horiz-adv-x="383" arabic-form="isolated" 
d="M143 -175q-45 10 -70.5 37.5t-25.5 72.5q0 24 8.5 44.5t23.5 35t35 23t44 8.5h81q28 0 39 13.5t11 43.5v126q0 30 -11 43.5t-39 13.5h-124v46h123q98 0 98 -105v-122q0 -105 -98 -105h-81q-11 0 -22 -3t-20 -10.5t-14.5 -20t-5.5 -30.5q0 -35 23.5 -50t55.5 -15z
M224 -125q0 11 7 18t18 7t18 -7t7 -18t-7 -18t-18 -7t-18 7t-7 18zM286 -125q0 11 7 18t18 7t18 -7t7 -18t-7 -18t-18 -7t-18 7t-7 18zM257 -178q0 10 6.5 16.5t16.5 6.5t16.5 -6.5t6.5 -16.5t-6.5 -16.5t-16.5 -6.5t-16.5 6.5t-6.5 16.5z" />
    <glyph glyph-name="uni0688" unicode="&#x688;" horiz-adv-x="333" arabic-form="isolated" 
d="M239 181q0 30 -8.5 50t-22 32.5t-30.5 17.5t-35 5h-41v46h39q30 0 56.5 -9.5t46 -28.5t31 -48t11.5 -67v-74q0 -105 -98 -105h-141v46h142q28 0 39 13.5t11 43.5v78zM233 439q9 0 12 3t3 9v41q0 8 -3 14t-11 6q-6 0 -13 -3l-47 -17q-8 -3 -11.5 -6t-3.5 -14v-33h74z
M159 401l-19 -10v29h-37l8 19h29v131h19v-64l61 22q9 3 15 3q17 0 24.5 -9.5t7.5 -22.5v-48q0 -18 -9.5 -24.5t-23.5 -6.5h-75v-19z" />
    <glyph glyph-name="uni0691" unicode="&#x691;" horiz-adv-x="245" arabic-form="isolated" 
d="M198 -35q0 -28 -4 -48.5t-14 -36.5t-27.5 -29.5t-43.5 -27.5l-33 42q22 10 36.5 19t23 20t12 25t3.5 35v368h47v-367zM164 439q9 0 12 3t3 9v41q0 8 -3 14t-11 6q-6 0 -13 -3l-47 -17q-8 -3 -11.5 -6t-3.5 -14v-33h74zM90 401l-19 -10v29h-37l8 19h29v131h19v-64l61 22
q9 3 15 3q17 0 24.5 -9.5t7.5 -22.5v-48q0 -18 -9.5 -24.5t-23.5 -6.5h-75v-19z" />
    <glyph glyph-name="uni0698" unicode="&#x698;" horiz-adv-x="233" arabic-form="isolated" 
d="M186 -35q0 -28 -4 -48.5t-14 -36.5t-27.5 -29.5t-43.5 -27.5l-33 42q22 10 36.5 19t23 20t12 25t3.5 35v368h47v-367zM34 451q0 13 9 22t22 9t22 -9t9 -22t-9 -22t-22 -9t-22 9t-9 22zM132 451q0 13 9 22t22 9t22 -9t9 -22t-9 -22t-22 -9t-22 9t-9 22zM87 531
q0 11 8.5 19.5t19.5 8.5t19.5 -8.5t8.5 -19.5t-8.5 -19.5t-19.5 -8.5t-19.5 8.5t-8.5 19.5z" />
    <glyph glyph-name="uni06A4" unicode="&#x6a4;" horiz-adv-x="602" arabic-form="isolated" 
d="M94 103q0 -30 11 -43.5t39 -13.5h189v181q0 105 98 105h124v-227q0 -105 -98 -105h-312q-98 0 -98 105v92l47 30v-124zM380 46h78q28 0 39 13.5t11 43.5v183h-78q-28 0 -39 -13.5t-11 -43.5v-183zM367 451q0 13 9 22t22 9t22 -9t9 -22t-9 -22t-22 -9t-22 9t-9 22z
M465 451q0 13 9 22t22 9t22 -9t9 -22t-9 -22t-22 -9t-22 9t-9 22zM420 531q0 11 8.5 19.5t19.5 8.5t19.5 -8.5t8.5 -19.5t-8.5 -19.5t-19.5 -8.5t-19.5 8.5t-8.5 19.5z" />
    <glyph glyph-name="uni06A9" unicode="&#x6a9;" horiz-adv-x="602" arabic-form="isolated" 
d="M509 467v-46h-117q-28 0 -39 -13.5t-11 -43.5v-32h115q98 0 98 -105v-122q0 -105 -98 -105h-312q-98 0 -98 105v92l47 30v-124q0 -30 11 -43.5t39 -13.5h314q28 0 39 13.5t11 43.5v126q0 30 -11 43.5t-39 13.5h-163v76q0 105 98 105h116z" />
    <glyph glyph-name="uni06AF" unicode="&#x6af;" horiz-adv-x="602" arabic-form="isolated" 
d="M399 554q-20 0 -34 -1t-25 -4t-21.5 -9t-23.5 -16v47q11 9 21 14.5t22 9t26.5 5t35.5 1.5h109v-47h-110zM509 467v-46h-117q-28 0 -39 -13.5t-11 -43.5v-32h115q98 0 98 -105v-122q0 -105 -98 -105h-312q-98 0 -98 105v92l47 30v-124q0 -30 11 -43.5t39 -13.5h314
q28 0 39 13.5t11 43.5v126q0 30 -11 43.5t-39 13.5h-163v76q0 105 98 105h116z" />
    <glyph glyph-name="uni06BA" unicode="&#x6ba;" horiz-adv-x="492" arabic-form="isolated" 
d="M445 -20q0 -39 -16 -68.5t-43.5 -49t-63.5 -29.5t-76 -10q-38 0 -73.5 8t-63.5 27t-45 49.5t-17 74.5v164l47 30v-196q0 -32 13.5 -53t35.5 -33.5t49 -18t54 -5.5t54.5 6t49 19t35 33.5t13.5 49.5v354h47v-352z" />
    <glyph glyph-name="uni06BE" unicode="&#x6be;" horiz-adv-x="425" arabic-form="isolated" 
d="M218 100q0 22 -15.5 37t-36.5 15q-23 0 -38.5 -15t-15.5 -37q0 -23 15 -39t37 -16q23 0 38.5 17t15.5 38zM193 0q-9 0 -15.5 2t-13.5 8q-7 -6 -11.5 -8t-15.5 -2h-137v46h95q-11 12 -15.5 26t-4.5 28q0 19 7 35t19.5 28t28.5 18.5t34 6.5q38 0 64 -25t26 -63
q0 -15 -4 -27.5t-15 -26.5h46q28 0 39 13.5t11 43.5v126q0 30 -11 43.5t-39 13.5h-205v46h204q98 0 98 -105v-122q0 -105 -98 -105h-87z" />
    <glyph glyph-name="uni06C0" unicode="&#x6c0;" horiz-adv-x="316" arabic-form="isolated" 
d="M47 227q0 105 98 105h124v-221q0 -53 -30.5 -82.5t-80.5 -29.5q-53 0 -82 29.5t-29 82.5v116zM222 286h-78q-28 0 -39 -13.5t-11 -43.5v-121q0 -29 17.5 -46t46.5 -17t46.5 17t17.5 46v178zM195 500h-22q-13 0 -21 -7.5t-8 -21.5t8.5 -22.5t25.5 -8.5h37v-19h-113v19h32
q-5 6 -8.5 13.5t-3.5 18.5q0 22 15 34.5t37 12.5h21v-19z" />
    <glyph glyph-name="uni06C1" unicode="&#x6c1;" horiz-adv-x="316" arabic-form="isolated" 
d="M47 227q0 105 98 105h124v-221q0 -53 -30.5 -82.5t-80.5 -29.5q-53 0 -82 29.5t-29 82.5v116zM222 286h-78q-28 0 -39 -13.5t-11 -43.5v-121q0 -29 17.5 -46t46.5 -17t46.5 17t17.5 46v178z" />
    <glyph glyph-name="uni06CC" unicode="&#x6cc;" horiz-adv-x="490" arabic-form="isolated" 
d="M94 -20q0 -32 13.5 -53t35.5 -33.5t49 -18t54 -5.5t54.5 6t49 19t35 33.5t13.5 49.5v22h-78q-98 0 -98 105v122q0 105 98 105h125v-46h-126q-28 0 -39 -13.5t-11 -43.5v-126q0 -30 11 -43.5t39 -13.5h126v-66q0 -39 -16 -68.5t-43.5 -49t-63.5 -29.5t-76 -10
q-38 0 -73.5 8t-63.5 27t-45 49.5t-17 74.5v164l47 30v-196z" />
    <glyph glyph-name="uni06D2" unicode="&#x6d2;" horiz-adv-x="687" arabic-form="isolated" 
d="M145 0q-98 0 -98 105v122q0 105 98 105h209v30q0 48 29 76.5t82 28.5q46 0 78.5 -26t32.5 -79v-19h-47v20q0 59 -64 59t-64 -59v-77h-257q-28 0 -39 -13.5t-11 -43.5v-126q0 -30 11 -43.5t39 -13.5h498l-29 -46h-468z" />
    <glyph glyph-name="uni06D3" unicode="&#x6d3;" horiz-adv-x="687" arabic-form="isolated" 
d="M237 500h-22q-13 0 -21 -7.5t-8 -21.5t8.5 -22.5t25.5 -8.5h37v-19h-113v19h32q-5 6 -8.5 13.5t-3.5 18.5q0 22 15 34.5t37 12.5h21v-19zM145 0q-98 0 -98 105v122q0 105 98 105h209v30q0 48 29 76.5t82 28.5q46 0 78.5 -26t32.5 -79v-19h-47v20q0 59 -64 59t-64 -59v-77
h-257q-28 0 -39 -13.5t-11 -43.5v-126q0 -30 11 -43.5t39 -13.5h498l-29 -46h-468z" />
    <glyph glyph-name="uniFB51" unicode="&#x671;" horiz-adv-x="133" arabic-form="final" 
d="M133 0q-34 0 -60 23.5t-26 71.5v372h47v-374q0 -20 9 -33.5t30 -13.5h5v-46h-5zM2 591q3 4 7 7.5t10 3.5q11 0 20.5 -9t16.5 -9t11.5 8.5t10 19t14 19.5t24.5 9q18 0 27 -11t9 -26q0 -26 -21.5 -38t-47.5 -12q-27 0 -41 11t-20 11q-3 0 -7 -5l-15 -19l-18 14zM78 574
q4 -1 12 -1q20 0 31 10t11 21q0 5 -3.5 10.5t-11.5 5.5q-7 0 -11 -5t-7.5 -12t-8 -15t-12.5 -14z" />
    <glyph glyph-name="uniFB57" unicode="&#x67e;" horiz-adv-x="589" arabic-form="final" 
d="M508 332h47v-286h39v-46h-449q-98 0 -98 105v92l47 30v-124q0 -30 11 -43.5t39 -13.5h364v286zM222 -144q0 13 9 22t22 9t22 -9t9 -22t-9 -22t-22 -9t-22 9t-9 22zM320 -144q0 13 9 22t22 9t22 -9t9 -22t-9 -22t-22 -9t-22 9t-9 22zM275 -224q0 11 8.5 19.5t19.5 8.5
t19.5 -8.5t8.5 -19.5t-8.5 -19.5t-19.5 -8.5t-19.5 8.5t-8.5 19.5z" />
    <glyph glyph-name="uniFB58" unicode="&#x67e;" horiz-adv-x="219" arabic-form="initial" 
d="M0 0v46h75q28 0 39 13.5t11 43.5v229h47v-227q0 -105 -98 -105h-74zM20 -144q0 13 9 22t22 9t22 -9t9 -22t-9 -22t-22 -9t-22 9t-9 22zM118 -144q0 13 9 22t22 9t22 -9t9 -22t-9 -22t-22 -9t-22 9t-9 22zM73 -224q0 11 8.5 19.5t19.5 8.5t19.5 -8.5t8.5 -19.5t-8.5 -19.5
t-19.5 -8.5t-19.5 8.5t-8.5 19.5z" />
    <glyph glyph-name="uniFB59" unicode="&#x67e;" horiz-adv-x="207" arabic-form="medial" 
d="M125 46v286h47v-286h40v-46h-212v46h125zM20 -144q0 13 9 22t22 9t22 -9t9 -22t-9 -22t-22 -9t-22 9t-9 22zM118 -144q0 13 9 22t22 9t22 -9t9 -22t-9 -22t-22 -9t-22 9t-9 22zM73 -224q0 11 8.5 19.5t19.5 8.5t19.5 -8.5t8.5 -19.5t-8.5 -19.5t-19.5 -8.5t-19.5 8.5
t-8.5 19.5z" />
    <glyph glyph-name="uniFB67" unicode="&#x679;" horiz-adv-x="589" arabic-form="final" 
d="M508 332h47v-286h39v-46h-449q-98 0 -98 105v92l47 30v-124q0 -30 11 -43.5t39 -13.5h364v286zM348 439q9 0 12 3t3 9v41q0 8 -3 14t-11 6q-6 0 -13 -3l-47 -17q-8 -3 -11.5 -6t-3.5 -14v-33h74zM274 401l-19 -10v29h-37l8 19h29v131h19v-64l61 22q9 3 15 3
q17 0 24.5 -9.5t7.5 -22.5v-48q0 -18 -9.5 -24.5t-23.5 -6.5h-75v-19z" />
    <glyph glyph-name="uniFB68" unicode="&#x679;" horiz-adv-x="219" arabic-form="initial" 
d="M0 0v46h75q28 0 39 13.5t11 43.5v229h47v-227q0 -105 -98 -105h-74zM138 439q9 0 12 3t3 9v41q0 8 -3 14t-11 6q-6 0 -13 -3l-47 -17q-8 -3 -11.5 -6t-3.5 -14v-33h74zM64 401l-19 -10v29h-37l8 19h29v131h19v-64l61 22q9 3 15 3q17 0 24.5 -9.5t7.5 -22.5v-48
q0 -18 -9.5 -24.5t-23.5 -6.5h-75v-19z" />
    <glyph glyph-name="uniFB69" unicode="&#x679;" horiz-adv-x="207" arabic-form="medial" 
d="M125 46v286h47v-286h40v-46h-212v46h125zM134 439q9 0 12 3t3 9v41q0 8 -3 14t-11 6q-6 0 -13 -3l-47 -17q-8 -3 -11.5 -6t-3.5 -14v-33h74zM60 401l-19 -10v29h-37l8 19h29v131h19v-64l61 22q9 3 15 3q17 0 24.5 -9.5t7.5 -22.5v-48q0 -18 -9.5 -24.5t-23.5 -6.5h-75
v-19z" />
    <glyph glyph-name="uniFB6B" unicode="&#x6a4;" horiz-adv-x="589" arabic-form="final" 
d="M145 0q-98 0 -98 105v92l47 30v-124q0 -30 11 -43.5t39 -13.5h189v181q0 105 98 105h124v-286h39v-46h-449zM508 286h-78q-28 0 -39 -13.5t-11 -43.5v-183h128v240zM367 451q0 13 9 22t22 9t22 -9t9 -22t-9 -22t-22 -9t-22 9t-9 22zM465 451q0 13 9 22t22 9t22 -9t9 -22
t-9 -22t-22 -9t-22 9t-9 22zM420 531q0 11 8.5 19.5t19.5 8.5t19.5 -8.5t8.5 -19.5t-8.5 -19.5t-19.5 -8.5t-19.5 8.5t-8.5 19.5z" />
    <glyph glyph-name="uniFB6C" unicode="&#x6a4;" horiz-adv-x="344" arabic-form="initial" 
d="M0 46h75v181q0 105 98 105h124v-227q0 -105 -98 -105h-199v46zM122 46h78q28 0 39 13.5t11 43.5v183h-78q-28 0 -39 -13.5t-11 -43.5v-183zM109 451q0 13 9 22t22 9t22 -9t9 -22t-9 -22t-22 -9t-22 9t-9 22zM207 451q0 13 9 22t22 9t22 -9t9 -22t-9 -22t-22 -9t-22 9
t-9 22zM162 531q0 11 8.5 19.5t19.5 8.5t19.5 -8.5t8.5 -19.5t-8.5 -19.5t-19.5 -8.5t-19.5 8.5t-8.5 19.5z" />
    <glyph glyph-name="uniFB6D" unicode="&#x6a4;" horiz-adv-x="331" arabic-form="medial" 
d="M336 0h-336v46h75v181q0 105 98 105h124v-286h39v-46zM250 286h-78q-28 0 -39 -13.5t-11 -43.5v-183h128v240zM109 451q0 13 9 22t22 9t22 -9t9 -22t-9 -22t-22 -9t-22 9t-9 22zM207 451q0 13 9 22t22 9t22 -9t9 -22t-9 -22t-22 -9t-22 9t-9 22zM162 531q0 11 8.5 19.5
t19.5 8.5t19.5 -8.5t8.5 -19.5t-8.5 -19.5t-19.5 -8.5t-19.5 8.5t-8.5 19.5z" />
    <glyph glyph-name="uniFB7B" unicode="&#x686;" horiz-adv-x="371" arabic-form="final" 
d="M157 0q-11 0 -22 -3t-20 -10.5t-14.5 -20t-5.5 -30.5q0 -35 23.5 -50t55.5 -15l-31 -46q-45 10 -70.5 37.5t-25.5 72.5q0 24 8.5 44.5t23.5 35t35 23t44 8.5h131v183q0 30 -11 43.5t-39 13.5h-124v46h123q98 0 98 -105v-181h40v-46h-219zM224 -125q0 11 7 18t18 7t18 -7
t7 -18t-7 -18t-18 -7t-18 7t-7 18zM286 -125q0 11 7 18t18 7t18 -7t7 -18t-7 -18t-18 -7t-18 7t-7 18zM257 -178q0 10 6.5 16.5t16.5 6.5t16.5 -6.5t6.5 -16.5t-6.5 -16.5t-16.5 -6.5t-16.5 6.5t-6.5 16.5z" />
    <glyph glyph-name="uniFB7C" unicode="&#x686;" horiz-adv-x="345" arabic-form="initial" 
d="M0 46h201q28 0 39 13.5t11 43.5v126q0 30 -11 43.5t-39 13.5h-124v46h123q98 0 98 -105v-122q0 -105 -98 -105h-200v46zM80 -144q0 13 9 22t22 9t22 -9t9 -22t-9 -22t-22 -9t-22 9t-9 22zM178 -144q0 13 9 22t22 9t22 -9t9 -22t-9 -22t-22 -9t-22 9t-9 22zM133 -224
q0 11 8.5 19.5t19.5 8.5t19.5 -8.5t8.5 -19.5t-8.5 -19.5t-19.5 -8.5t-19.5 8.5t-8.5 19.5z" />
    <glyph glyph-name="uniFB7D" unicode="&#x686;" horiz-adv-x="332" arabic-form="medial" 
d="M0 46h250v183q0 30 -11 43.5t-39 13.5h-124v46h123q98 0 98 -105v-181h40v-46h-337v46zM80 -144q0 13 9 22t22 9t22 -9t9 -22t-9 -22t-22 -9t-22 9t-9 22zM178 -144q0 13 9 22t22 9t22 -9t9 -22t-9 -22t-22 -9t-22 9t-9 22zM133 -224q0 11 8.5 19.5t19.5 8.5t19.5 -8.5
t8.5 -19.5t-8.5 -19.5t-19.5 -8.5t-19.5 8.5t-8.5 19.5z" />
    <glyph glyph-name="uniFB89" unicode="&#x688;" horiz-adv-x="321" arabic-form="final" 
d="M233 439q9 0 12 3t3 9v41q0 8 -3 14t-11 6q-6 0 -13 -3l-47 -17q-8 -3 -11.5 -6t-3.5 -14v-33h74zM159 401l-19 -10v29h-37l8 19h29v131h19v-64l61 22q9 3 15 3q17 0 24.5 -9.5t7.5 -22.5v-48q0 -18 -9.5 -24.5t-23.5 -6.5h-75v-19zM239 181q0 30 -8.5 50t-22 32.5
t-30.5 17.5t-35 5h-41v46h39q30 0 56.5 -9.5t46 -28.5t31 -48t11.5 -67v-133h40v-46h-279v46h192v135z" />
    <glyph glyph-name="uniFB8B" unicode="&#x698;" horiz-adv-x="220" arabic-form="final" 
d="M186 -35q0 -28 -4 -48.5t-14 -36.5t-27.5 -29.5t-43.5 -27.5l-33 42q22 10 36.5 19t23 20t12 25t3.5 35v368h47v-286h39v-46h-39v-35zM34 451q0 13 9 22t22 9t22 -9t9 -22t-9 -22t-22 -9t-22 9t-9 22zM132 451q0 13 9 22t22 9t22 -9t9 -22t-9 -22t-22 -9t-22 9t-9 22z
M87 531q0 11 8.5 19.5t19.5 8.5t19.5 -8.5t8.5 -19.5t-8.5 -19.5t-19.5 -8.5t-19.5 8.5t-8.5 19.5z" />
    <glyph glyph-name="uniFB8D" unicode="&#x691;" horiz-adv-x="233" arabic-form="final" 
d="M199 -35q0 -28 -4 -48.5t-14 -36.5t-27.5 -29.5t-43.5 -27.5l-33 42q22 10 36.5 19t23 20t12 25t3.5 35v368h47v-286h39v-46h-39v-35zM164 439q9 0 12 3t3 9v41q0 8 -3 14t-11 6q-6 0 -13 -3l-47 -17q-8 -3 -11.5 -6t-3.5 -14v-33h74zM90 401l-19 -10v29h-37l8 19h29v131
h19v-64l61 22q9 3 15 3q17 0 24.5 -9.5t7.5 -22.5v-48q0 -18 -9.5 -24.5t-23.5 -6.5h-75v-19z" />
    <glyph glyph-name="uniFB8F" unicode="&#x6a9;" horiz-adv-x="589" arabic-form="final" 
d="M594 46v-46h-449q-98 0 -98 105v92l47 30v-124q0 -30 11 -43.5t39 -13.5h364v183q0 30 -11 43.5t-39 13.5h-163v76q0 105 98 105h116v-46h-117q-28 0 -39 -13.5t-11 -43.5v-32h115q98 0 98 -105v-181h39z" />
    <glyph glyph-name="uniFB90" unicode="&#x6a9;" horiz-adv-x="383" arabic-form="initial" 
d="M0 46h239q28 0 39 13.5t11 43.5v126q0 30 -11 43.5t-39 13.5h-163v76q0 105 98 105h116v-46h-117q-28 0 -39 -13.5t-11 -43.5v-32h115q98 0 98 -105v-122q0 -105 -98 -105h-238v46z" />
    <glyph glyph-name="uniFB91" unicode="&#x6a9;" horiz-adv-x="370" arabic-form="medial" 
d="M0 46h289v183q0 30 -11 43.5t-39 13.5h-163v76q0 105 98 105h116v-46h-117q-28 0 -39 -13.5t-11 -43.5v-32h115q98 0 98 -105v-181h39v-46h-375v46z" />
    <glyph glyph-name="uniFB93" unicode="&#x6af;" horiz-adv-x="589" arabic-form="final" 
d="M594 46v-46h-449q-98 0 -98 105v92l47 30v-124q0 -30 11 -43.5t39 -13.5h364v183q0 30 -11 43.5t-39 13.5h-163v76q0 105 98 105h116v-46h-117q-28 0 -39 -13.5t-11 -43.5v-32h115q98 0 98 -105v-181h39zM399 554q-20 0 -34 -1t-25 -4t-21.5 -9t-23.5 -16v47
q11 9 21 14.5t22 9t26.5 5t35.5 1.5h109v-47h-110z" />
    <glyph glyph-name="uniFB94" unicode="&#x6af;" horiz-adv-x="383" arabic-form="initial" 
d="M0 46h239q28 0 39 13.5t11 43.5v126q0 30 -11 43.5t-39 13.5h-163v76q0 105 98 105h116v-46h-117q-28 0 -39 -13.5t-11 -43.5v-32h115q98 0 98 -105v-122q0 -105 -98 -105h-238v46zM180 554q-20 0 -34 -1t-25 -4t-21.5 -9t-23.5 -16v47q11 9 21 14.5t22 9t26.5 5
t35.5 1.5h109v-47h-110z" />
    <glyph glyph-name="uniFB95" unicode="&#x6af;" horiz-adv-x="370" arabic-form="medial" 
d="M0 46h289v183q0 30 -11 43.5t-39 13.5h-163v76q0 105 98 105h116v-46h-117q-28 0 -39 -13.5t-11 -43.5v-32h115q98 0 98 -105v-181h39v-46h-375v46zM180 554q-20 0 -34 -1t-25 -4t-21.5 -9t-23.5 -16v47q11 9 21 14.5t22 9t26.5 5t35.5 1.5h109v-47h-110z" />
    <glyph glyph-name="uniFB9F" unicode="&#x6ba;" horiz-adv-x="481" arabic-form="final" 
d="M445 46h41v-46h-41v-20q0 -39 -16 -68.5t-43.5 -49t-63.5 -29.5t-76 -10q-38 0 -73.5 8t-63.5 27t-45 49.5t-17 74.5v164l47 30v-196q0 -32 13.5 -53t35.5 -33.5t49 -18t54 -5.5t54.5 6t49 19t35 33.5t13.5 49.5v354h47v-286z" />
    <glyph glyph-name="uniFBA5" unicode="&#x6c0;" horiz-adv-x="304" arabic-form="final" 
d="M195 499h-22q-13 0 -21 -7.5t-8 -21.5t8.5 -22.5t25.5 -8.5h37v-19h-113v19h32q-5 6 -8.5 13.5t-3.5 18.5q0 22 15 34.5t37 12.5h21v-19zM309 46v-46h-87v30l-30 -30h-47q-98 0 -98 105v122q0 105 98 105h124v-286h40zM94 103q0 -30 11 -43.5t39 -13.5h78v240h-78
q-28 0 -39 -13.5t-11 -43.5v-126z" />
    <glyph glyph-name="uniFBA7" unicode="&#x6c1;" horiz-adv-x="547" arabic-form="final" 
d="M507 94q0 -20 8.5 -34t31.5 -14h5v-46h-5q-42 0 -64.5 26t-22.5 72v184q-47 -3 -78 -20t-50 -47t-27 -72.5t-8 -95.5v-47q-54 0 -99.5 9t-79 32t-52.5 62t-19 100q0 18 1 36t3 36l48 32q-2 -26 -3.5 -50t-1.5 -53q0 -69 34 -109.5t122 -45.5q0 63 13 115t43 89.5t79.5 58
t121.5 20.5v-238z" />
    <glyph glyph-name="uniFBA8" unicode="&#x6c1;" horiz-adv-x="303" arabic-form="initial" 
d="M256 105q0 -88 -70 -103l-106 -107q-2 -2 -4 -4.5t-2 -7.5q0 -7 4 -13.5t4 -15.5q0 -14 -9 -21.5t-22 -7.5t-21.5 7.5t-8.5 23.5q0 10 4.5 16t10.5 12l116 116h-152v46h159q28 0 39 13.5t11 43.5v229h47v-227z" />
    <glyph glyph-name="uniFBA9" unicode="&#x6c1;" horiz-adv-x="342" arabic-form="medial" 
d="M39 46q27 0 44 -6.5t27 -18.5t14 -29.5t5 -39.5q2 -37 14 -59.5t50 -22.5q32 0 48 22.5t17 59.5q1 45 19.5 69.5t61.5 24.5h8v-46h-7q-22 0 -28 -12.5t-7 -35.5q-1 -25 -7 -48.5t-19.5 -41.5t-34 -28.5t-50.5 -10.5q-31 0 -52.5 9.5t-34.5 27t-19 41t-7 51.5
q-1 32 -11.5 40t-33.5 8h-36v46h39z" />
    <glyph glyph-name="uniFBAB" unicode="&#x6be;" horiz-adv-x="460" arabic-form="final" 
d="M240 0q-9 0 -15.5 2t-13.5 8q-7 -6 -11.5 -8t-15.5 -2h-137v46h95q-11 12 -15.5 26t-4.5 28q0 19 7 35t19.5 28t28.5 18.5t34 6.5q38 0 64 -25t26 -63q0 -15 -4 -27.5t-15 -26.5h96v183q0 30 -11 43.5t-39 13.5h-205v46h204q98 0 98 -105v-181h40v-46h-225zM265 100
q0 22 -15.5 37t-36.5 15q-23 0 -38.5 -15t-15.5 -37q0 -23 15 -39t37 -16q23 0 38.5 17t15.5 38z" />
    <glyph glyph-name="uniFBAC" unicode="&#x6be;" horiz-adv-x="425" arabic-form="initial" 
d="M218 100q0 22 -15.5 37t-36.5 15q-23 0 -38.5 -15t-15.5 -37q0 -23 15 -39t37 -16q23 0 38.5 17t15.5 38zM193 0q-9 0 -15.5 2t-13.5 8q-7 -6 -11.5 -8t-15.5 -2h-137v46h95q-11 12 -15.5 26t-4.5 28q0 19 7 35t19.5 28t28.5 18.5t34 6.5q38 0 64 -25t26 -63
q0 -15 -4 -27.5t-15 -26.5h46q28 0 39 13.5t11 43.5v126q0 30 -11 43.5t-39 13.5h-205v46h204q98 0 98 -105v-122q0 -105 -98 -105h-87z" />
    <glyph glyph-name="uniFBAD" unicode="&#x6be;" horiz-adv-x="413" arabic-form="medial" 
d="M193 0q-9 0 -15.5 2t-13.5 8q-7 -6 -11.5 -8t-15.5 -2h-137v46h95q-11 12 -15.5 26t-4.5 28q0 19 7 35t19.5 28t28.5 18.5t34 6.5q38 0 64 -25t26 -63q0 -15 -4 -27.5t-15 -26.5h96v183q0 30 -11 43.5t-39 13.5h-205v46h204q98 0 98 -105v-181h40v-46h-225zM218 100
q0 22 -15.5 37t-36.5 15q-23 0 -38.5 -15t-15.5 -37q0 -23 15 -39t37 -16q23 0 38.5 17t15.5 38z" />
    <glyph glyph-name="uniFBAF" unicode="&#x6d2;" horiz-adv-x="689" arabic-form="final" 
d="M611 -175h-447q-51 0 -84 30.5t-33 80.5q0 22 7.5 42t22 35t36.5 24t51 9h530v-46h-531q-29 0 -49.5 -14.5t-20.5 -49.5q0 -30 17.5 -47.5t52.5 -17.5h479z" />
    <glyph glyph-name="uniFBB1" unicode="&#x6d3;" horiz-adv-x="689" arabic-form="final" 
d="M611 -175h-447q-51 0 -84 30.5t-33 80.5q0 22 7.5 42t22 35t36.5 24t51 9h530v-46h-531q-29 0 -49.5 -14.5t-20.5 -49.5q0 -30 17.5 -47.5t52.5 -17.5h479zM246 222h-22q-13 0 -21 -7.5t-8 -21.5t8.5 -22.5t25.5 -8.5h37v-19h-113v19h32q-5 6 -8.5 13.5t-3.5 18.5
q0 22 15 34.5t37 12.5h21v-19z" />
    <glyph glyph-name="uniFBE8" unicode="&#x649;" horiz-adv-x="219" arabic-form="initial" 
d="M0 0v46h75q28 0 39 13.5t11 43.5v229h47v-227q0 -105 -98 -105h-74z" />
    <glyph glyph-name="uniFBE9" unicode="&#x649;" horiz-adv-x="207" arabic-form="medial" 
d="M125 46v286h47v-286h40v-46h-212v46h125z" />
    <glyph glyph-name="uniFBFD" unicode="&#x6cc;" horiz-adv-x="481" arabic-form="final" 
d="M445 -20q0 -39 -16 -68.5t-43.5 -49t-63.5 -29.5t-76 -10q-38 0 -73.5 8t-63.5 27t-45 49.5t-17 74.5v164l47 30v-196q0 -32 13.5 -53t35.5 -33.5t49 -18t54 -5.5t54.5 6t49 19t35 33.5t13.5 49.5v22h-76v46h164v-46h-41v-20z" />
    <glyph glyph-name="uniFBFE" unicode="&#x6cc;" horiz-adv-x="219" arabic-form="initial" 
d="M0 0v46h75q28 0 39 13.5t11 43.5v229h47v-227q0 -105 -98 -105h-74zM20 -144q0 13 9 22t22 9t22 -9t9 -22t-9 -22t-22 -9t-22 9t-9 22zM118 -144q0 13 9 22t22 9t22 -9t9 -22t-9 -22t-22 -9t-22 9t-9 22z" />
    <glyph glyph-name="uniFBFF" unicode="&#x6cc;" horiz-adv-x="207" arabic-form="medial" 
d="M125 46v286h47v-286h40v-46h-212v46h125zM20 -144q0 13 9 22t22 9t22 -9t9 -22t-9 -22t-22 -9t-22 9t-9 22zM118 -144q0 13 9 22t22 9t22 -9t9 -22t-9 -22t-22 -9t-22 9t-9 22z" />
    <glyph glyph-name="uniFC5E" unicode="&#xfc5e;" horiz-adv-x="0" arabic-form="isolated" 
d="M58 554q-35 0 -35 35v66h19v-66q0 -6 3 -11t13 -5h42v82h19v-82h41q10 0 13 5t3 11v66h19v-66q0 -35 -35 -35h-102zM21 789q3 6 8 11.5t15 5.5q8 0 12 -3.5t9 -8.5l18 -24q9 -12 13 -12t12 5l39 29q-14 14 -21.5 26.5t-7.5 27.5q0 22 14.5 34.5t34.5 12.5q21 0 35 -13
t14 -34q0 -12 -6.5 -23.5t-31.5 -30.5l18 -17l-17 -13l-18 17l-48 -36q-13 -10 -21 -10q-5 0 -8.5 2t-9.5 10l-31 40l-24 -45l-19 10zM164 804q18 13 25 23t7 19q0 12 -7.5 20t-21.5 8t-21.5 -8t-7.5 -20q0 -11 6.5 -21t19.5 -21z" />
    <glyph glyph-name="uniFC5F" unicode="&#xfc5f;" horiz-adv-x="0" arabic-form="isolated" 
d="M35 733q-35 0 -35 35v66h19v-66q0 -6 3 -11t13 -5h42v82h19v-82h41q10 0 13 5t3 11v66h19v-66q0 -35 -35 -35h-102zM29 554v20h114v-20h-114zM29 636v20h114v-20h-114z" />
    <glyph glyph-name="uniFC60" unicode="&#xfc60;" horiz-adv-x="0" arabic-form="isolated" 
d="M29 733v20h114v-20h-114zM35 554q-35 0 -35 35v66h19v-66q0 -6 3 -11t13 -5h42v82h19v-82h41q10 0 13 5t3 11v66h19v-66q0 -35 -35 -35h-102z" />
    <glyph glyph-name="uniFC61" unicode="&#xfc61;" horiz-adv-x="0" arabic-form="isolated" 
d="M35 554q-35 0 -35 35v66h19v-66q0 -6 3 -11t13 -5h42v82h19v-82h41q10 0 13 5t3 11v66h19v-66q0 -35 -35 -35h-102zM96 799q-14 14 -21 26t-7 27q0 22 14.5 34.5t34.5 12.5q21 0 35 -13t14 -34q0 -12 -6.5 -23.5t-31.5 -30.5l18 -17l-17 -13l-19 17q-20 -16 -45.5 -29.5
t-51.5 -23.5l-8 16q13 6 24.5 11t22 11t21 13t23.5 16zM114 810q18 13 25 23t7 19q0 12 -7.5 20t-21.5 8t-21.5 -8t-7.5 -20q0 -11 6.5 -21t19.5 -21z" />
    <glyph glyph-name="uniFC62" unicode="&#xfc62;" horiz-adv-x="0" arabic-form="isolated" 
d="M35 651q-35 0 -35 35v66h19v-66q0 -6 3 -11t13 -5h42v82h19v-82h41q10 0 13 5t3 11v66h19v-66q0 -35 -35 -35h-102zM29 554v20h114v-20h-114z" />
    <glyph glyph-name="uniFC63" unicode="&#xfc63;" horiz-adv-x="0" arabic-form="isolated" 
d="M77 733v138h19v-138h-19zM35 554q-35 0 -35 35v66h19v-66q0 -6 3 -11t13 -5h42v82h19v-82h41q10 0 13 5t3 11v66h19v-66q0 -35 -35 -35h-102z" />
    <glyph glyph-name="uniFE82" unicode="&#x622;" horiz-adv-x="133" arabic-form="final" 
d="M133 0q-34 0 -60 23.5t-26 71.5v372h47v-374q0 -20 9 -33.5t30 -13.5h5v-46h-5zM142 585l-20 -21q-10 -11 -24 -11q-8 0 -16 4.5t-15 9.5t-13 9.5t-11 4.5t-7.5 -2t-6.5 -6l-16 -17l-14 14l21 21q6 6 10.5 9t12.5 3t15 -4.5t13.5 -9.5t13 -9.5t13.5 -4.5q4 0 6.5 1.5
t7.5 6.5l16 16z" />
    <glyph glyph-name="uniFE84" unicode="&#x623;" horiz-adv-x="133" arabic-form="final" 
d="M133 0q-34 0 -60 23.5t-26 71.5v372h47v-374q0 -20 9 -33.5t30 -13.5h5v-46h-5zM107 633h-22q-13 0 -21 -7.5t-8 -21.5t8.5 -22.5t25.5 -8.5h37v-19h-113v19h32q-5 6 -8.5 13.5t-3.5 18.5q0 22 15 34.5t37 12.5h21v-19z" />
    <glyph glyph-name="uniFE86" unicode="&#x624;" horiz-adv-x="304" arabic-form="final" 
d="M47 227q0 105 98 105h124v-286h40v-46h-40v-10q0 -37 -7 -66.5t-24 -50.5t-46.5 -34t-75.5 -16l-30 41q70 2 103 28t33 83v25h-77q-98 0 -98 105v122zM94 103q0 -30 11 -43.5t39 -13.5h78v240h-78q-28 0 -39 -13.5t-11 -43.5v-126zM195 499h-22q-13 0 -21 -7.5t-8 -21.5
t8.5 -22.5t25.5 -8.5h37v-19h-113v19h32q-5 6 -8.5 13.5t-3.5 18.5q0 22 15 34.5t37 12.5h21v-19z" />
    <glyph glyph-name="uniFE88" unicode="&#x625;" horiz-adv-x="133" arabic-form="final" 
d="M133 0q-34 0 -60 23.5t-26 71.5v372h47v-374q0 -20 9 -33.5t30 -13.5h5v-46h-5zM107 -96h-22q-13 0 -21 -7.5t-8 -21.5t8.5 -22.5t25.5 -8.5h37v-19h-113v19h32q-5 6 -8.5 13.5t-3.5 18.5q0 22 15 34.5t37 12.5h21v-19z" />
    <glyph glyph-name="uniFE8A" unicode="&#x626;" horiz-adv-x="481" arabic-form="final" 
d="M445 -20q0 -39 -16 -68.5t-43.5 -49t-63.5 -29.5t-76 -10q-38 0 -73.5 8t-63.5 27t-45 49.5t-17 74.5v164l47 30v-196q0 -32 13.5 -53t35.5 -33.5t49 -18t54 -5.5t54.5 6t49 19t35 33.5t13.5 49.5v22h-76v46h164v-46h-41v-20zM106 338h-22q-13 0 -21 -7.5t-8 -21.5
t8.5 -22.5t25.5 -8.5h37v-19h-113v19h32q-5 6 -8.5 13.5t-3.5 18.5q0 22 15 34.5t37 12.5h21v-19z" />
    <glyph glyph-name="uniFE8B" unicode="&#x626;" horiz-adv-x="219" arabic-form="initial" 
d="M0 0v46h75q28 0 39 13.5t11 43.5v229h47v-227q0 -105 -98 -105h-74zM152 500h-22q-13 0 -21 -7.5t-8 -21.5t8.5 -22.5t25.5 -8.5h37v-19h-113v19h32q-5 6 -8.5 13.5t-3.5 18.5q0 22 15 34.5t37 12.5h21v-19z" />
    <glyph glyph-name="uniFE8C" unicode="&#x626;" horiz-adv-x="207" arabic-form="medial" 
d="M125 46v286h47v-286h40v-46h-212v46h125zM152 500h-22q-13 0 -21 -7.5t-8 -21.5t8.5 -22.5t25.5 -8.5h37v-19h-113v19h32q-5 6 -8.5 13.5t-3.5 18.5q0 22 15 34.5t37 12.5h21v-19z" />
    <glyph glyph-name="uniFE8E" unicode="&#x627;" horiz-adv-x="133" arabic-form="final" 
d="M133 0q-34 0 -60 23.5t-26 71.5v372h47v-374q0 -20 9 -33.5t30 -13.5h5v-46h-5v0z" />
    <glyph glyph-name="uniFE90" unicode="&#x628;" horiz-adv-x="589" arabic-form="final" 
d="M508 332h47v-286h39v-46h-449q-98 0 -98 105v92l47 30v-124q0 -30 11 -43.5t39 -13.5h364v286zM271 -144q0 13 9 22t22 9t22 -9t9 -22t-9 -22t-22 -9t-22 9t-9 22z" />
    <glyph glyph-name="uniFE91" unicode="&#x628;" horiz-adv-x="219" arabic-form="initial" 
d="M0 0v46h75q28 0 39 13.5t11 43.5v229h47v-227q0 -105 -98 -105h-74zM114 -144q0 13 9 22t22 9t22 -9t9 -22t-9 -22t-22 -9t-22 9t-9 22z" />
    <glyph glyph-name="uniFE92" unicode="&#x628;" horiz-adv-x="203" arabic-form="medial" 
d="M122 46v286h47v-286h39v-46h-208v46h122zM114 -144q0 13 9 22t22 9t22 -9t9 -22t-9 -22t-22 -9t-22 9t-9 22z" />
    <glyph glyph-name="uniFE94" unicode="&#x629;" horiz-adv-x="304" arabic-form="final" 
d="M309 46v-46h-87v30l-30 -30h-47q-98 0 -98 105v122q0 105 98 105h124v-286h40zM94 103q0 -30 11 -43.5t39 -13.5h78v240h-78q-28 0 -39 -13.5t-11 -43.5v-126zM80 451q0 13 9 22t22 9t22 -9t9 -22t-9 -22t-22 -9t-22 9t-9 22zM178 451q0 13 9 22t22 9t22 -9t9 -22t-9 -22
t-22 -9t-22 9t-9 22z" />
    <glyph glyph-name="uniFE96" unicode="&#x62a;" horiz-adv-x="589" arabic-form="final" 
d="M508 332h47v-286h39v-46h-449q-98 0 -98 105v92l47 30v-124q0 -30 11 -43.5t39 -13.5h364v286zM222 451q0 13 9 22t22 9t22 -9t9 -22t-9 -22t-22 -9t-22 9t-9 22zM320 451q0 13 9 22t22 9t22 -9t9 -22t-9 -22t-22 -9t-22 9t-9 22z" />
    <glyph glyph-name="uniFE97" unicode="&#x62a;" horiz-adv-x="219" arabic-form="initial" 
d="M0 0v46h75q28 0 39 13.5t11 43.5v229h47v-227q0 -105 -98 -105h-74zM20 451q0 13 9 22t22 9t22 -9t9 -22t-9 -22t-22 -9t-22 9t-9 22zM118 451q0 13 9 22t22 9t22 -9t9 -22t-9 -22t-22 -9t-22 9t-9 22z" />
    <glyph glyph-name="uniFE98" unicode="&#x62a;" horiz-adv-x="207" arabic-form="medial" 
d="M125 46v286h47v-286h40v-46h-212v46h125zM20 451q0 13 9 22t22 9t22 -9t9 -22t-9 -22t-22 -9t-22 9t-9 22zM118 451q0 13 9 22t22 9t22 -9t9 -22t-9 -22t-22 -9t-22 9t-9 22z" />
    <glyph glyph-name="uniFE9A" unicode="&#x62b;" horiz-adv-x="589" arabic-form="final" 
d="M508 332h47v-286h39v-46h-449q-98 0 -98 105v92l47 30v-124q0 -30 11 -43.5t39 -13.5h364v286zM222 451q0 13 9 22t22 9t22 -9t9 -22t-9 -22t-22 -9t-22 9t-9 22zM320 451q0 13 9 22t22 9t22 -9t9 -22t-9 -22t-22 -9t-22 9t-9 22zM275 531q0 11 8.5 19.5t19.5 8.5
t19.5 -8.5t8.5 -19.5t-8.5 -19.5t-19.5 -8.5t-19.5 8.5t-8.5 19.5z" />
    <glyph glyph-name="uniFE9B" unicode="&#x62b;" horiz-adv-x="219" arabic-form="initial" 
d="M0 0v46h75q28 0 39 13.5t11 43.5v229h47v-227q0 -105 -98 -105h-74zM20 451q0 13 9 22t22 9t22 -9t9 -22t-9 -22t-22 -9t-22 9t-9 22zM118 451q0 13 9 22t22 9t22 -9t9 -22t-9 -22t-22 -9t-22 9t-9 22zM73 531q0 11 8.5 19.5t19.5 8.5t19.5 -8.5t8.5 -19.5t-8.5 -19.5
t-19.5 -8.5t-19.5 8.5t-8.5 19.5z" />
    <glyph glyph-name="uniFE9C" unicode="&#x62b;" horiz-adv-x="207" arabic-form="medial" 
d="M125 46v286h47v-286h40v-46h-212v46h125zM20 451q0 13 9 22t22 9t22 -9t9 -22t-9 -22t-22 -9t-22 9t-9 22zM118 451q0 13 9 22t22 9t22 -9t9 -22t-9 -22t-22 -9t-22 9t-9 22zM73 531q0 11 8.5 19.5t19.5 8.5t19.5 -8.5t8.5 -19.5t-8.5 -19.5t-19.5 -8.5t-19.5 8.5
t-8.5 19.5z" />
    <glyph glyph-name="uniFE9E" unicode="&#x62c;" horiz-adv-x="371" arabic-form="final" 
d="M275 -144q0 13 9 22t22 9t22 -9t9 -22t-9 -22t-22 -9t-22 9t-9 22zM157 0q-11 0 -22 -3t-20 -10.5t-14.5 -20t-5.5 -30.5q0 -35 24.5 -50t56.5 -15h23l-31 -46q-58 2 -89.5 31t-31.5 79q0 24 8.5 44.5t23.5 35t35 23t44 8.5h131v183q0 30 -11 43.5t-39 13.5h-124v46h123
q98 0 98 -105v-181h40v-46h-219z" />
    <glyph glyph-name="uniFE9F" unicode="&#x62c;" horiz-adv-x="345" arabic-form="initial" 
d="M0 46h201q28 0 39 13.5t11 43.5v126q0 30 -11 43.5t-39 13.5h-124v46h123q98 0 98 -105v-122q0 -105 -98 -105h-200v46zM129 -144q0 13 9 22t22 9t22 -9t9 -22t-9 -22t-22 -9t-22 9t-9 22z" />
    <glyph glyph-name="uniFEA0" unicode="&#x62c;" horiz-adv-x="332" arabic-form="medial" 
d="M0 46h250v183q0 30 -11 43.5t-39 13.5h-124v46h123q98 0 98 -105v-181h40v-46h-337v46zM129 -144q0 13 9 22t22 9t22 -9t9 -22t-9 -22t-22 -9t-22 9t-9 22z" />
    <glyph glyph-name="uniFEA2" unicode="&#x62d;" horiz-adv-x="371" arabic-form="final" 
d="M157 0q-11 0 -22 -3t-20 -10.5t-14.5 -20t-5.5 -30.5q0 -35 22.5 -50t48.5 -15h162l-31 -46h-129q-58 0 -89.5 30t-31.5 80q0 24 8.5 44.5t23.5 35t35 23t44 8.5h131v183q0 30 -11 43.5t-39 13.5h-124v46h123q98 0 98 -105v-181h40v-46h-219z" />
    <glyph glyph-name="uniFEA3" unicode="&#x62d;" horiz-adv-x="345" arabic-form="initial" 
d="M0 46h201q28 0 39 13.5t11 43.5v126q0 30 -11 43.5t-39 13.5h-124v46h123q98 0 98 -105v-122q0 -105 -98 -105h-200v46z" />
    <glyph glyph-name="uniFEA4" unicode="&#x62d;" horiz-adv-x="332" arabic-form="medial" 
d="M0 46h250v183q0 30 -11 43.5t-39 13.5h-124v46h123q98 0 98 -105v-181h40v-46h-337v46z" />
    <glyph glyph-name="uniFEA6" unicode="&#x62e;" horiz-adv-x="371" arabic-form="final" 
d="M157 0q-11 0 -22 -3t-20 -10.5t-14.5 -20t-5.5 -30.5q0 -35 22.5 -50t48.5 -15h162l-31 -46h-129q-58 0 -89.5 30t-31.5 80q0 24 8.5 44.5t23.5 35t35 23t44 8.5h131v183q0 30 -11 43.5t-39 13.5h-124v46h123q98 0 98 -105v-181h40v-46h-219zM169 451q0 13 9 22t22 9
t22 -9t9 -22t-9 -22t-22 -9t-22 9t-9 22z" />
    <glyph glyph-name="uniFEA7" unicode="&#x62e;" horiz-adv-x="345" arabic-form="initial" 
d="M0 46h201q28 0 39 13.5t11 43.5v126q0 30 -11 43.5t-39 13.5h-124v46h123q98 0 98 -105v-122q0 -105 -98 -105h-200v46z" />
    <glyph glyph-name="uniFEA8" unicode="&#x62e;" horiz-adv-x="332" arabic-form="medial" 
d="M0 46h250v183q0 30 -11 43.5t-39 13.5h-124v46h123q98 0 98 -105v-181h40v-46h-337v46zM129 451q0 13 9 22t22 9t22 -9t9 -22t-9 -22t-22 -9t-22 9t-9 22z" />
    <glyph glyph-name="uniFEAA" unicode="&#x62f;" horiz-adv-x="321" arabic-form="final" 
d="M285 46h41v-46h-279v46h191v135q0 30 -8.5 50t-22 32.5t-30.5 17.5t-35 5h-41v46h39q30 0 56.5 -9.5t46 -28.5t31 -48t11.5 -67v-133z" />
    <glyph glyph-name="uniFEAC" unicode="&#x630;" horiz-adv-x="321" arabic-form="final" 
d="M285 46h41v-46h-279v46h191v135q0 30 -8.5 50t-22 32.5t-30.5 17.5t-35 5h-41v46h39q30 0 56.5 -9.5t46 -28.5t31 -48t11.5 -67v-133zM102 451q0 13 9 22t22 9t22 -9t9 -22t-9 -22t-22 -9t-22 9t-9 22z" />
    <glyph glyph-name="uniFEAE" unicode="&#x631;" horiz-adv-x="173" arabic-form="final" 
d="M139 -35q0 -28 -4 -48.5t-14 -36.5t-27.5 -29.5t-43.5 -27.5l-33 42q22 10 36.5 19t23 20t12 25t3.5 35v368h47v-286h39v-46h-39v-35z" />
    <glyph glyph-name="uniFEB0" unicode="&#x632;" horiz-adv-x="173" arabic-form="final" 
d="M139 -35q0 -28 -4 -48.5t-14 -36.5t-27.5 -29.5t-43.5 -27.5l-33 42q22 10 36.5 19t23 20t12 25t3.5 35v368h47v-286h39v-46h-39v-35zM84 451q0 13 9 22t22 9t22 -9t9 -22t-9 -22t-22 -9t-22 9t-9 22z" />
    <glyph glyph-name="uniFEB2" unicode="&#x633;" horiz-adv-x="830" arabic-form="final" 
d="M445 0v-20q0 -39 -16 -68.5t-43.5 -49t-63.5 -29.5t-76 -10q-38 0 -73.5 8t-63.5 27t-45 49.5t-17 74.5v164l47 30v-196q0 -32 13.5 -53t35.5 -33.5t49 -18t54 -5.5t54.5 6t49 19t35 33.5t13.5 49.5v354h47v-286h128v286h47v-286h128v286h47v-286h40v-46h-390z" />
    <glyph glyph-name="uniFEB3" unicode="&#x633;" horiz-adv-x="633" arabic-form="initial" 
d="M189 332h47v-286h128v286h47v-286h78q28 0 39 13.5t11 43.5v229h47v-227q0 -105 -98 -105h-488v46h189v286z" />
    <glyph glyph-name="uniFEB4" unicode="&#x633;" horiz-adv-x="620" arabic-form="medial" 
d="M188 332h47v-286h128v286h47v-286h128v286h47v-286h40v-46h-625v46h188v286z" />
    <glyph glyph-name="uniFEB6" unicode="&#x634;" horiz-adv-x="830" arabic-form="final" 
d="M445 0v-20q0 -39 -16 -68.5t-43.5 -49t-63.5 -29.5t-76 -10q-38 0 -73.5 8t-63.5 27t-45 49.5t-17 74.5v164l47 30v-196q0 -32 13.5 -53t35.5 -33.5t49 -18t54 -5.5t54.5 6t49 19t35 33.5t13.5 49.5v354h47v-286h128v286h47v-286h128v286h47v-286h40v-46h-390zM518 451
q0 13 9 22t22 9t22 -9t9 -22t-9 -22t-22 -9t-22 9t-9 22zM616 451q0 13 9 22t22 9t22 -9t9 -22t-9 -22t-22 -9t-22 9t-9 22zM571 531q0 11 8.5 19.5t19.5 8.5t19.5 -8.5t8.5 -19.5t-8.5 -19.5t-19.5 -8.5t-19.5 8.5t-8.5 19.5z" />
    <glyph glyph-name="uniFEB7" unicode="&#x634;" horiz-adv-x="633" arabic-form="initial" 
d="M189 332h47v-286h128v286h47v-286h78q28 0 39 13.5t11 43.5v229h47v-227q0 -105 -98 -105h-488v46h189v286zM308 451q0 13 9 22t22 9t22 -9t9 -22t-9 -22t-22 -9t-22 9t-9 22zM406 451q0 13 9 22t22 9t22 -9t9 -22t-9 -22t-22 -9t-22 9t-9 22zM361 531q0 11 8.5 19.5
t19.5 8.5t19.5 -8.5t8.5 -19.5t-8.5 -19.5t-19.5 -8.5t-19.5 8.5t-8.5 19.5z" />
    <glyph glyph-name="uniFEB8" unicode="&#x634;" horiz-adv-x="620" arabic-form="medial" 
d="M188 332h47v-286h128v286h47v-286h128v286h47v-286h40v-46h-625v46h188v286zM308 451q0 13 9 22t22 9t22 -9t9 -22t-9 -22t-22 -9t-22 9t-9 22zM406 451q0 13 9 22t22 9t22 -9t9 -22t-9 -22t-22 -9t-22 9t-9 22zM361 531q0 11 8.5 19.5t19.5 8.5t19.5 -8.5t8.5 -19.5
t-8.5 -19.5t-19.5 -8.5t-19.5 8.5t-8.5 19.5z" />
    <glyph glyph-name="uniFEBA" unicode="&#x635;" horiz-adv-x="775" arabic-form="final" 
d="M780 46v-46h-335v-20q0 -39 -16 -68.5t-43.5 -49t-63.5 -29.5t-76 -10q-38 0 -73.5 8t-63.5 27t-45 49.5t-17 74.5v164l47 30v-196q0 -32 13.5 -53t35.5 -33.5t49 -18t54 -5.5t54.5 6t49 19t35 33.5t13.5 49.5v354h47v-62l155 55q14 5 24.5 7t21.5 2q50 0 72 -29t22 -68
v-191h40zM693 239q0 21 -11 35t-36 14q-9 0 -16.5 -1.5t-18.5 -5.5l-124 -43q-14 -5 -22 -9t-12.5 -9.5t-6 -14t-1.5 -22.5v-137h248v193z" />
    <glyph glyph-name="uniFEBB" unicode="&#x635;" horiz-adv-x="464" arabic-form="initial" 
d="M122 -31l-47 -25v56h-75v46h75v286h47v-62l155 55q14 5 24.5 7t21.5 2q50 0 72 -29t22 -68v-132q0 -105 -98 -105h-197v-31zM370 239q0 21 -11 35t-36 14q-9 0 -16.5 -1.5t-18.5 -5.5l-124 -43q-14 -5 -22 -9t-12.5 -9.5t-6 -14t-1.5 -22.5v-137h198q28 0 39 13.5
t11 43.5v136z" />
    <glyph glyph-name="uniFEBC" unicode="&#x635;" horiz-adv-x="452" arabic-form="medial" 
d="M122 0v-31l-47 -25v56h-75v46h75v286h47v-62l155 55q14 5 24.5 7t21.5 2q50 0 72 -29t22 -68v-191h40v-46h-335zM370 239q0 21 -11 35t-36 14q-9 0 -16.5 -1.5t-18.5 -5.5l-124 -43q-14 -5 -22 -9t-12.5 -9.5t-6 -14t-1.5 -22.5v-137h248v193z" />
    <glyph glyph-name="uniFEBE" unicode="&#x636;" horiz-adv-x="775" arabic-form="final" 
d="M780 46v-46h-335v-20q0 -39 -16 -68.5t-43.5 -49t-63.5 -29.5t-76 -10q-38 0 -73.5 8t-63.5 27t-45 49.5t-17 74.5v164l47 30v-196q0 -32 13.5 -53t35.5 -33.5t49 -18t54 -5.5t54.5 6t49 19t35 33.5t13.5 49.5v354h47v-62l155 55q14 5 24.5 7t21.5 2q50 0 72 -29t22 -68
v-191h40zM693 239q0 21 -11 35t-36 14q-9 0 -16.5 -1.5t-18.5 -5.5l-124 -43q-14 -5 -22 -9t-12.5 -9.5t-6 -14t-1.5 -22.5v-137h248v193zM537 451q0 13 9 22t22 9t22 -9t9 -22t-9 -22t-22 -9t-22 9t-9 22z" />
    <glyph glyph-name="uniFEBF" unicode="&#x636;" horiz-adv-x="464" arabic-form="initial" 
d="M122 -31l-47 -25v56h-75v46h75v286h47v-62l155 55q14 5 24.5 7t21.5 2q50 0 72 -29t22 -68v-132q0 -105 -98 -105h-197v-31zM370 239q0 21 -11 35t-36 14q-9 0 -16.5 -1.5t-18.5 -5.5l-124 -43q-14 -5 -22 -9t-12.5 -9.5t-6 -14t-1.5 -22.5v-137h198q28 0 39 13.5
t11 43.5v136zM214 451q0 13 9 22t22 9t22 -9t9 -22t-9 -22t-22 -9t-22 9t-9 22z" />
    <glyph glyph-name="uniFEC0" unicode="&#x636;" horiz-adv-x="452" arabic-form="medial" 
d="M122 0v-31l-47 -25v56h-75v46h75v286h47v-62l155 55q14 5 24.5 7t21.5 2q50 0 72 -29t22 -68v-191h40v-46h-335zM370 239q0 21 -11 35t-36 14q-9 0 -16.5 -1.5t-18.5 -5.5l-124 -43q-14 -5 -22 -9t-12.5 -9.5t-6 -14t-1.5 -22.5v-137h248v193zM214 451q0 13 9 22t22 9
t22 -9t9 -22t-9 -22t-22 -9t-22 9t-9 22z" />
    <glyph glyph-name="uniFEC2" unicode="&#x637;" horiz-adv-x="515" arabic-form="final" 
d="M480 46h40v-46h-335v-31l-47 -25v56h-94l21 46h73v421h47v-197l155 55q14 5 24.5 7t21.5 2q50 0 72 -29t22 -68v-191zM433 239q0 21 -11 35t-36 14q-9 0 -16.5 -1.5t-18.5 -5.5l-124 -43q-14 -5 -22 -9t-12.5 -9.5t-6 -14t-1.5 -22.5v-137h248v193z" />
    <glyph glyph-name="uniFEC3" unicode="&#x637;" horiz-adv-x="464" arabic-form="initial" 
d="M122 -31l-47 -25v56h-75v46h75v421h47v-197l155 55q14 5 24.5 7t21.5 2q50 0 72 -29t22 -68v-132q0 -105 -98 -105h-197v-31zM370 239q0 21 -11 35t-36 14q-9 0 -16.5 -1.5t-18.5 -5.5l-124 -43q-14 -5 -22 -9t-12.5 -9.5t-6 -14t-1.5 -22.5v-137h198q28 0 39 13.5
t11 43.5v136z" />
    <glyph glyph-name="uniFEC4" unicode="&#x637;" horiz-adv-x="451" arabic-form="medial" 
d="M416 46h40v-46h-335v-31l-47 -25v56h-74v46h74v421h47v-197l155 55q14 5 24.5 7t21.5 2q50 0 72 -29t22 -68v-191zM369 239q0 21 -11 35t-36 14q-9 0 -16.5 -1.5t-18.5 -5.5l-124 -43q-14 -5 -22 -9t-12.5 -9.5t-6 -14t-1.5 -22.5v-137h248v193z" />
    <glyph glyph-name="uniFEC6" unicode="&#x638;" horiz-adv-x="515" arabic-form="final" 
d="M480 46h40v-46h-335v-31l-47 -25v56h-94l21 46h73v421h47v-197l155 55q14 5 24.5 7t21.5 2q50 0 72 -29t22 -68v-191zM433 239q0 21 -11 35t-36 14q-9 0 -16.5 -1.5t-18.5 -5.5l-124 -43q-14 -5 -22 -9t-12.5 -9.5t-6 -14t-1.5 -22.5v-137h248v193zM277 451q0 13 9 22
t22 9t22 -9t9 -22t-9 -22t-22 -9t-22 9t-9 22z" />
    <glyph glyph-name="uniFEC7" unicode="&#x638;" horiz-adv-x="464" arabic-form="initial" 
d="M122 -31l-47 -25v56h-75v46h75v421h47v-197l155 55q14 5 24.5 7t21.5 2q50 0 72 -29t22 -68v-132q0 -105 -98 -105h-197v-31zM370 239q0 21 -11 35t-36 14q-9 0 -16.5 -1.5t-18.5 -5.5l-124 -43q-14 -5 -22 -9t-12.5 -9.5t-6 -14t-1.5 -22.5v-137h198q28 0 39 13.5
t11 43.5v136zM214 451q0 13 9 22t22 9t22 -9t9 -22t-9 -22t-22 -9t-22 9t-9 22z" />
    <glyph glyph-name="uniFEC8" unicode="&#x638;" horiz-adv-x="451" arabic-form="medial" 
d="M416 46h40v-46h-335v-31l-47 -25v56h-74v46h74v421h47v-197l155 55q14 5 24.5 7t21.5 2q50 0 72 -29t22 -68v-191zM369 239q0 21 -11 35t-36 14q-9 0 -16.5 -1.5t-18.5 -5.5l-124 -43q-14 -5 -22 -9t-12.5 -9.5t-6 -14t-1.5 -22.5v-137h248v193zM214 451q0 13 9 22t22 9
t22 -9t9 -22t-9 -22t-22 -9t-22 9t-9 22z" />
    <glyph glyph-name="uniFECA" unicode="&#x639;" horiz-adv-x="402" arabic-form="final" 
d="M214 76q16 21 29 36.5t25 29t24.5 26l26.5 26.5q-5 43 -34.5 68.5t-70.5 25.5t-70.5 -25.5t-34.5 -68.5l26.5 -26.5t24.5 -26t25 -29t29 -36.5zM163 0q-29 0 -49.5 -14.5t-20.5 -49.5q0 -30 17.5 -47.5t52.5 -17.5h167l-31 -46h-135q-51 0 -84 30.5t-33 80.5q0 22 7.5 42
t22 35t36.5 24t51 9h16q-27 34 -53 61.5t-65 60.5v9q0 35 11 64t31.5 50t48.5 32.5t61 11.5t61 -11.5t48.5 -32.5t31.5 -50t11 -64v-9q-39 -33 -65 -60.5t-53 -61.5h159v-46h-137q-34 0 -56 20q-11 -10 -25.5 -15t-25.5 -5z" />
    <glyph glyph-name="uniFECB" unicode="&#x639;" horiz-adv-x="390" arabic-form="initial" 
d="M91 46q-11 11 -13.5 24.5t-2.5 33.5v123q0 105 98 105h123v-46h-124q-28 0 -39 -13.5t-11 -43.5v-126q0 -30 11 -43.5t39 -13.5h173v-46h-345v46h91z" />
    <glyph glyph-name="uniFECC" unicode="&#x639;" horiz-adv-x="421" arabic-form="medial" 
d="M228 76q16 21 29 36.5t25 29t24.5 26l26.5 26.5q-5 43 -34.5 68.5t-70.5 25.5t-70.5 -25.5t-34.5 -68.5l26.5 -26.5t24.5 -26t25 -29t29 -36.5zM228 20q-22 -20 -56 -20h-172v46h194q-27 34 -53 61.5t-65 60.5v9q0 35 11 64t31.5 50t48.5 32.5t61 11.5t61 -11.5
t48.5 -32.5t31.5 -50t11 -64v-9q-39 -33 -65 -60.5t-53 -61.5h164v-46h-142q-34 0 -56 20z" />
    <glyph glyph-name="uniFECE" unicode="&#x63a;" horiz-adv-x="402" arabic-form="final" 
d="M214 76q16 21 29 36.5t25 29t24.5 26l26.5 26.5q-5 43 -34.5 68.5t-70.5 25.5t-70.5 -25.5t-34.5 -68.5l26.5 -26.5t24.5 -26t25 -29t29 -36.5zM163 0q-29 0 -49.5 -14.5t-20.5 -49.5q0 -30 17.5 -47.5t52.5 -17.5h167l-31 -46h-135q-51 0 -84 30.5t-33 80.5q0 22 7.5 42
t22 35t36.5 24t51 9h16q-27 34 -53 61.5t-65 60.5v9q0 35 11 64t31.5 50t48.5 32.5t61 11.5t61 -11.5t48.5 -32.5t31.5 -50t11 -64v-9q-39 -33 -65 -60.5t-53 -61.5h159v-46h-137q-34 0 -56 20q-11 -10 -25.5 -15t-25.5 -5zM183 451q0 13 9 22t22 9t22 -9t9 -22t-9 -22
t-22 -9t-22 9t-9 22z" />
    <glyph glyph-name="uniFECF" unicode="&#x63a;" horiz-adv-x="390" arabic-form="initial" 
d="M91 46q-11 11 -13.5 24.5t-2.5 33.5v123q0 105 98 105h123v-46h-124q-28 0 -39 -13.5t-11 -43.5v-126q0 -30 11 -43.5t39 -13.5h173v-46h-345v46h91zM170 451q0 13 9 22t22 9t22 -9t9 -22t-9 -22t-22 -9t-22 9t-9 22z" />
    <glyph glyph-name="uniFED0" unicode="&#x63a;" horiz-adv-x="421" arabic-form="medial" 
d="M228 76q16 21 29 36.5t25 29t24.5 26l26.5 26.5q-5 43 -34.5 68.5t-70.5 25.5t-70.5 -25.5t-34.5 -68.5l26.5 -26.5t24.5 -26t25 -29t29 -36.5zM228 20q-22 -20 -56 -20h-172v46h194q-27 34 -53 61.5t-65 60.5v9q0 35 11 64t31.5 50t48.5 32.5t61 11.5t61 -11.5
t48.5 -32.5t31.5 -50t11 -64v-9q-39 -33 -65 -60.5t-53 -61.5h164v-46h-142q-34 0 -56 20z" />
    <glyph glyph-name="uniFED2" unicode="&#x641;" horiz-adv-x="589" arabic-form="final" 
d="M416 451q0 13 9 22t22 9t22 -9t9 -22t-9 -22t-22 -9t-22 9t-9 22zM555 46h39v-46h-449q-98 0 -98 105v92l47 30v-124q0 -30 11 -43.5t39 -13.5h189v181q0 105 98 105h124v-286zM508 286h-78q-28 0 -39 -13.5t-11 -43.5v-183h128v240z" />
    <glyph glyph-name="uniFED3" unicode="&#x641;" horiz-adv-x="344" arabic-form="initial" 
d="M0 46h75v181q0 105 98 105h124v-227q0 -105 -98 -105h-199v46zM158 451q0 13 9 22t22 9t22 -9t9 -22t-9 -22t-22 -9t-22 9t-9 22zM122 46h78q28 0 39 13.5t11 43.5v183h-78q-28 0 -39 -13.5t-11 -43.5v-183z" />
    <glyph glyph-name="uniFED4" unicode="&#x641;" horiz-adv-x="331" arabic-form="medial" 
d="M158 451q0 13 9 22t22 9t22 -9t9 -22t-9 -22t-22 -9t-22 9t-9 22zM0 46h75v181q0 105 98 105h124v-286h39v-46h-336v46zM250 286h-78q-28 0 -39 -13.5t-11 -43.5v-183h128v240z" />
    <glyph glyph-name="uniFED6" unicode="&#x642;" horiz-adv-x="481" arabic-form="final" 
d="M445 46h41v-46h-41v-20q0 -39 -16 -68.5t-43.5 -49t-63.5 -29.5t-76 -10q-38 0 -73.5 8t-63.5 27t-45 49.5t-17 74.5v164l47 30v-196q0 -32 13.5 -53t35.5 -33.5t49 -18t54 -5.5t54.5 6t49 19t35 33.5t13.5 49.5v22h-78q-98 0 -98 105v122q0 105 98 105h125v-286z
M398 286h-79q-28 0 -39 -13.5t-11 -43.5v-126q0 -30 11 -43.5t39 -13.5h79v240zM258 451q0 13 9 22t22 9t22 -9t9 -22t-9 -22t-22 -9t-22 9t-9 22zM356 451q0 13 9 22t22 9t22 -9t9 -22t-9 -22t-22 -9t-22 9t-9 22z" />
    <glyph glyph-name="uniFED7" unicode="&#x642;" horiz-adv-x="344" arabic-form="initial" 
d="M0 46h75v181q0 105 98 105h124v-227q0 -105 -98 -105h-199v46zM122 46h78q28 0 39 13.5t11 43.5v183h-78q-28 0 -39 -13.5t-11 -43.5v-183zM109 451q0 13 9 22t22 9t22 -9t9 -22t-9 -22t-22 -9t-22 9t-9 22zM207 451q0 13 9 22t22 9t22 -9t9 -22t-9 -22t-22 -9t-22 9
t-9 22z" />
    <glyph glyph-name="uniFED8" unicode="&#x642;" horiz-adv-x="331" arabic-form="medial" 
d="M336 0h-336v46h75v181q0 105 98 105h124v-286h39v-46zM250 286h-78q-28 0 -39 -13.5t-11 -43.5v-183h128v240zM109 451q0 13 9 22t22 9t22 -9t9 -22t-9 -22t-22 -9t-22 9t-9 22zM207 451q0 13 9 22t22 9t22 -9t9 -22t-9 -22t-22 -9t-22 9t-9 22z" />
    <glyph glyph-name="uniFEDA" unicode="&#x643;" horiz-adv-x="589" arabic-form="final" 
d="M508 467h47v-421h39v-46h-449q-98 0 -98 105v92l47 30v-124q0 -30 11 -43.5t39 -13.5h364v421zM335 308h-22q-13 0 -21 -7.5t-8 -21.5t8.5 -22.5t25.5 -8.5h37v-19h-113v19h32q-5 6 -8.5 13.5t-3.5 18.5q0 22 15 34.5t37 12.5h21v-19z" />
    <glyph glyph-name="uniFEDB" unicode="&#x643;" horiz-adv-x="383" arabic-form="initial" 
d="M0 46h239q28 0 39 13.5t11 43.5v126q0 30 -11 43.5t-39 13.5h-163v76q0 105 98 105h116v-46h-117q-28 0 -39 -14t-11 -44v-31h115q98 0 98 -105v-122q0 -105 -98 -105h-238v46z" />
    <glyph glyph-name="uniFEDC" unicode="&#x643;" horiz-adv-x="370" arabic-form="medial" 
d="M0 46h289v183q0 30 -11 43.5t-39 13.5h-163v76q0 105 98 105h116v-46h-117q-28 0 -39 -13.5t-11 -43.5v-32h115q98 0 98 -105v-181h39v-46h-375v46z" />
    <glyph glyph-name="uniFEDE" unicode="&#x644;" horiz-adv-x="481" arabic-form="final" 
d="M445 46h41v-46h-41v-20q0 -39 -16 -68.5t-43.5 -49t-63.5 -29.5t-76 -10q-38 0 -73.5 8t-63.5 27t-45 49.5t-17 74.5v164l47 30v-196q0 -32 13.5 -53t35.5 -33.5t49 -18t54 -5.5t54.5 6t49 19t35 33.5t13.5 49.5v489h47v-421z" />
    <glyph glyph-name="uniFEDF" unicode="&#x644;" horiz-adv-x="170" arabic-form="initial" 
d="M0 0v46h37q21 0 30 13.5t9 33.5v374h47v-372q0 -48 -26 -71.5t-60 -23.5h-37z" />
    <glyph glyph-name="uniFEE0" unicode="&#x644;" horiz-adv-x="157" arabic-form="medial" 
d="M76 46v421h47v-421h39v-46h-162v46h76z" />
    <glyph glyph-name="uniFEE2" unicode="&#x645;" horiz-adv-x="404" arabic-form="final" 
d="M147 0q-28 0 -40.5 -14t-12.5 -40v-97l-47 -26v122q0 51 26.5 76.5t74.5 25.5v180q0 105 98 105h124v-286h39v-46h-262zM323 286h-78q-28 0 -39 -13.5t-11 -43.5v-183h128v240z" />
    <glyph glyph-name="uniFEE3" unicode="&#x645;" horiz-adv-x="345" arabic-form="initial" 
d="M76 228q0 53 28 80t82 27t83 -27t29 -80v-205q0 -106 -112 -106q-45 0 -73.5 20t-36.5 63h-76v46h76v182zM123 23q0 -32 15.5 -46t47.5 -14q34 0 49.5 14t15.5 46v206q0 32 -15.5 46t-49.5 14q-32 0 -47.5 -14t-15.5 -46v-206z" />
    <glyph glyph-name="uniFEE4" unicode="&#x645;" horiz-adv-x="332" arabic-form="medial" 
d="M76 228q0 53 28 80t82 27t83 -27t29 -80v-182h39v-46h-41q-12 -83 -110 -83q-45 0 -73.5 20t-36.5 63h-76v46h76v182zM123 23q0 -32 15.5 -46t47.5 -14q34 0 49.5 14t15.5 46v206q0 32 -15.5 46t-49.5 14q-32 0 -47.5 -14t-15.5 -46v-206z" />
    <glyph glyph-name="uniFEE6" unicode="&#x646;" horiz-adv-x="481" arabic-form="final" 
d="M445 46h41v-46h-41v-20q0 -39 -16 -68.5t-43.5 -49t-63.5 -29.5t-76 -10q-38 0 -73.5 8t-63.5 27t-45 49.5t-17 74.5v164l47 30v-196q0 -32 13.5 -53t35.5 -33.5t49 -18t54 -5.5t54.5 6t49 19t35 33.5t13.5 49.5v354h47v-286zM221 451q0 13 9 22t22 9t22 -9t9 -22t-9 -22
t-22 -9t-22 9t-9 22z" />
    <glyph glyph-name="uniFEE7" unicode="&#x646;" horiz-adv-x="219" arabic-form="initial" 
d="M0 0v46h75q28 0 39 13.5t11 43.5v229h47v-227q0 -105 -98 -105h-74zM118 452q0 13 9 22t22 9t22 -9t9 -22t-9 -22t-22 -9t-22 9t-9 22z" />
    <glyph glyph-name="uniFEE8" unicode="&#x646;" horiz-adv-x="203" arabic-form="medial" 
d="M122 46v286h47v-286h39v-46h-208v46h122zM114 451q0 13 9 22t22 9t22 -9t9 -22t-9 -22t-22 -9t-22 9t-9 22z" />
    <glyph glyph-name="uniFEEA" unicode="&#x647;" horiz-adv-x="304" arabic-form="final" 
d="M309 46v-46h-87v30l-30 -30h-47q-98 0 -98 105v122q0 105 98 105h124v-286h40zM94 103q0 -30 11 -43.5t39 -13.5h78v240h-78q-28 0 -39 -13.5t-11 -43.5v-126z" />
    <glyph glyph-name="uniFEEB" unicode="&#x647;" horiz-adv-x="425" arabic-form="initial" 
d="M218 100q0 22 -15.5 37t-36.5 15q-23 0 -38.5 -15t-15.5 -37q0 -23 15 -39t37 -16q23 0 38.5 17t15.5 38zM193 0q-9 0 -15.5 2t-13.5 8q-7 -6 -11.5 -8t-15.5 -2h-137v46h95q-11 12 -15.5 26t-4.5 28q0 19 7 35t19.5 28t28.5 18.5t34 6.5q38 0 64 -25t26 -63
q0 -15 -4 -27.5t-15 -26.5h46q28 0 39 13.5t11 43.5v126q0 30 -11 43.5t-39 13.5h-205v46h204q98 0 98 -105v-122q0 -105 -98 -105h-87z" />
    <glyph glyph-name="uniFEEC" unicode="&#x647;" horiz-adv-x="413" arabic-form="medial" 
d="M193 0q-9 0 -15.5 2t-13.5 8q-7 -6 -11.5 -8t-15.5 -2h-137v46h95q-11 12 -15.5 26t-4.5 28q0 19 7 35t19.5 28t28.5 18.5t34 6.5q38 0 64 -25t26 -63q0 -15 -4 -27.5t-15 -26.5h96v183q0 30 -11 43.5t-39 13.5h-205v46h204q98 0 98 -105v-181h40v-46h-225zM218 100
q0 22 -15.5 37t-36.5 15q-23 0 -38.5 -15t-15.5 -37q0 -23 15 -39t37 -16q23 0 38.5 17t15.5 38z" />
    <glyph glyph-name="uniFEEE" unicode="&#x648;" horiz-adv-x="304" arabic-form="final" 
d="M47 227q0 105 98 105h124v-286h40v-46h-40v-10q0 -37 -7 -66.5t-24 -50.5t-46.5 -34t-75.5 -16l-30 41q70 2 103 28t33 83v25h-77q-98 0 -98 105v122zM94 103q0 -30 11 -43.5t39 -13.5h78v240h-78q-28 0 -39 -13.5t-11 -43.5v-126z" />
    <glyph glyph-name="uniFEF0" unicode="&#x649;" horiz-adv-x="481" arabic-form="final" 
d="M445 -20q0 -39 -16 -68.5t-43.5 -49t-63.5 -29.5t-76 -10q-38 0 -73.5 8t-63.5 27t-45 49.5t-17 74.5v164l47 30v-196q0 -32 13.5 -53t35.5 -33.5t49 -18t54 -5.5t54.5 6t49 19t35 33.5t13.5 49.5v22h-76v46h164v-46h-41v-20z" />
    <glyph glyph-name="uniFEF2" unicode="&#x64a;" horiz-adv-x="481" arabic-form="final" 
d="M445 -20q0 -39 -16 -68.5t-43.5 -49t-63.5 -29.5t-76 -10q-38 0 -73.5 8t-63.5 27t-45 49.5t-17 74.5v164l47 30v-196q0 -32 13.5 -53t35.5 -33.5t49 -18t54 -5.5t54.5 6t49 19t35 33.5t13.5 49.5v22h-76v46h164v-46h-41v-20zM169 -288q0 13 9 22t22 9t22 -9t9 -22
t-9 -22t-22 -9t-22 9t-9 22zM267 -288q0 13 9 22t22 9t22 -9t9 -22t-9 -22t-22 -9t-22 9t-9 22z" />
    <glyph glyph-name="uniFEF3" unicode="&#x64a;" horiz-adv-x="219" arabic-form="initial" 
d="M0 0v46h75q28 0 39 13.5t11 43.5v229h47v-227q0 -105 -98 -105h-74zM20 -144q0 13 9 22t22 9t22 -9t9 -22t-9 -22t-22 -9t-22 9t-9 22zM118 -144q0 13 9 22t22 9t22 -9t9 -22t-9 -22t-22 -9t-22 9t-9 22z" />
    <glyph glyph-name="uniFEF4" unicode="&#x64a;" horiz-adv-x="207" arabic-form="medial" 
d="M125 46v286h47v-286h40v-46h-212v46h125zM20 -144q0 13 9 22t22 9t22 -9t9 -22t-9 -22t-22 -9t-22 9t-9 22zM118 -144q0 13 9 22t22 9t22 -9t9 -22t-9 -22t-22 -9t-22 9t-9 22z" />
    <glyph glyph-name=".notdef" horiz-adv-x="500" 
d="M12 665h475v-665h-475v665zM250 375l161 243h-323zM60 91l161 242l-161 242v-484zM278 333l162 -243v485zM250 290l-162 -242h323z" />
    <glyph glyph-name="glyph1" horiz-adv-x="0" 
 />
    <glyph glyph-name="glyph2" horiz-adv-x="126" 
 />
    <glyph glyph-name="space" unicode=" " horiz-adv-x="126" 
 />
    <glyph glyph-name="exclam" unicode="!" horiz-adv-x="166" 
d="M112 466l-7 -349h-44l-8 349h59zM48 30q0 14 10.5 24.5t24.5 10.5t24.5 -10.5t10.5 -24.5t-10.5 -24.5t-24.5 -10.5t-24.5 10.5t-10.5 24.5z" />
    <glyph glyph-name="quotedbl" unicode="&#x22;" horiz-adv-x="217" 
d="M183 467l-11 -135h-36l-11 135h58zM93 467l-12 -135h-35l-12 135h59z" />
    <glyph glyph-name="numbersign" unicode="#" horiz-adv-x="462" 
d="M110 168l29 131h-71l9 39h70l29 129h45l-29 -129h126l29 129h46l-29 -129h67l-10 -39h-65l-29 -131h67l-10 -39h-66l-28 -129h-46l28 129h-126l-28 -129h-45l28 129h-70l9 39h70zM155 168h126l29 131h-126z" />
    <glyph glyph-name="dollar" unicode="$" horiz-adv-x="370" 
d="M203 475q29 -2 55.5 -9t47.5 -17l-10 -46q-17 9 -41.5 17.5t-51.5 10.5v-167q22 -10 44.5 -21.5t39.5 -27.5t28 -36.5t11 -48.5q0 -58 -34.5 -92t-88.5 -42v-59h-33v56q-31 1 -64.5 6.5t-61.5 18.5l10 46q21 -11 52.5 -18.5t63.5 -7.5v188q-28 12 -51 23.5t-40 25.5
t-26.5 31.5t-9.5 41.5q0 57 34 89t93 37v58h33v-57zM276 123q0 32 -21.5 52t-51.5 35v-170q13 2 26.5 7t23.5 14.5t16.5 24.5t6.5 37zM93 356q0 -28 22.5 -45.5t54.5 -32.5v152q-35 -4 -56 -20t-21 -54z" />
    <glyph glyph-name="percent" unicode="%" horiz-adv-x="660" 
d="M276 340q0 -39 -11 -64.5t-29 -40.5t-40.5 -21t-45.5 -6q-24 0 -45.5 6t-38 21t-26.5 40.5t-10 64.5q0 40 10 66t26.5 41.5t38 21.5t45.5 6q23 0 45.5 -6t40.5 -21.5t29 -41.5t11 -66zM237 340q0 29 -7.5 48.5t-19.5 31t-28 16t-32 4.5q-17 0 -31.5 -4.5t-25.5 -16
t-17.5 -30.5t-6.5 -49q0 -29 6.5 -48t17.5 -30t25.5 -15t31.5 -4q16 0 32 4t28 15t19.5 30t7.5 48zM472 479l-252 -491h-39l253 491h38zM630 126q0 -39 -11 -64.5t-29 -40.5t-40.5 -21t-45.5 -6q-24 0 -45.5 6t-38 21t-26.5 40.5t-10 64.5q0 40 10 66t26.5 41.5t38 21.5
t45.5 6q23 0 45.5 -6t40.5 -21.5t29 -41.5t11 -66zM591 126q0 29 -7.5 48.5t-19.5 31t-28 16t-32 4.5q-17 0 -31.5 -4.5t-25.5 -16t-17.5 -30.5t-6.5 -49q0 -29 6.5 -48t17.5 -30t25.5 -15t31.5 -4q16 0 32 4t28 15t19.5 30t7.5 48z" />
    <glyph glyph-name="ampersand" unicode="&#x26;" horiz-adv-x="465" 
d="M422 -1q-10 -3 -22 -4.5t-21 -1.5q-21 0 -36.5 11t-40.5 39q-18 -20 -47 -35t-74 -15q-63 0 -103.5 31t-40.5 96q0 34 8.5 58.5t21.5 41t28.5 26.5t29.5 17q-13 17 -26.5 45.5t-13.5 61.5q0 20 7.5 39t22 33.5t36 23.5t49.5 9q37 0 62.5 -7t39.5 -14l-9 -46
q-18 8 -38.5 14t-48.5 6q-31 0 -49.5 -14t-18.5 -45q0 -20 6.5 -40.5t29.5 -51.5q15 -21 33 -43.5t35 -43.5t33 -39.5t27 -30.5q9 18 14.5 33.5t8.5 32.5t4.5 37t1.5 46h103l-7 -43h-54q0 -35 -10.5 -73t-30.5 -69q12 -14 20 -23t14.5 -14t12 -6.5t12.5 -1.5q11 0 20.5 2
t19.5 5zM274 78q-26 26 -54.5 61t-70.5 87q-6 -2 -16 -8.5t-19.5 -18.5t-16.5 -29.5t-7 -41.5q0 -47 25 -68t68 -21q38 0 59 13t32 26z" />
    <glyph glyph-name="quotesingle" unicode="'" horiz-adv-x="127" 
d="M93 467l-12 -135h-35l-12 135h59z" />
    <glyph glyph-name="parenleft" unicode="(" horiz-adv-x="212" 
d="M150 -102q-21 30 -40.5 66.5t-34.5 78.5t-24 89.5t-9 100.5q0 52 9 100t24 90t34.5 78.5t40.5 66.5l44 -24q-25 -37 -44 -72.5t-31.5 -72.5t-19 -78t-6.5 -88t6 -88t18.5 -78t31.5 -72.5t44 -72.5z" />
    <glyph glyph-name="parenright" unicode=")" horiz-adv-x="212" 
d="M19 -78q25 37 44 72.5t31.5 72.5t18.5 78t6 88t-6.5 88t-19 78t-31.5 72.5t-44 72.5l44 24q21 -30 40.5 -66.5t34.5 -78.5t24 -90t9 -100q0 -53 -9 -100.5t-24 -89.5t-34.5 -78.5t-40.5 -66.5l-43 24v0z" />
    <glyph glyph-name="asterisk" unicode="*" horiz-adv-x="240" 
d="M185 330l-53 41l8 -69h-41l10 70l-54 -42l-22 37l60 25l-60 25l22 38l54 -43l-10 71h41l-8 -71l53 43l22 -38l-60 -25l60 -25z" />
    <glyph glyph-name="plus" unicode="+" horiz-adv-x="350" 
d="M320 202h-122v-143h-46v143h-122v47h122v143h46v-143h122v-47z" />
    <glyph glyph-name="comma" unicode="," horiz-adv-x="146" 
d="M108 15q0 -34 -20.5 -59.5t-51.5 -40.5l-9 24q16 11 25 23t9 23q0 7 -3.5 12.5t-8 11t-8 11.5t-3.5 14q0 11 8.5 20.5t25.5 9.5q15 0 25.5 -13t10.5 -36z" />
    <glyph glyph-name="hyphen" unicode="-" horiz-adv-x="266" 
d="M212 153h-158v44h158v-44z" />
    <glyph glyph-name="period" unicode="." horiz-adv-x="146" 
d="M38 30q0 14 10.5 24.5t24.5 10.5t24.5 -10.5t10.5 -24.5t-10.5 -24.5t-24.5 -10.5t-24.5 10.5t-10.5 24.5z" />
    <glyph glyph-name="slash" unicode="/" horiz-adv-x="336" 
d="M311 488l-237 -509h-49l237 509h49z" />
    <glyph glyph-name="zero" unicode="0" horiz-adv-x="456" 
d="M412 233q0 -69 -15.5 -115t-41 -73.5t-58.5 -39.5t-69 -12t-69.5 12t-59 39.5t-40.5 73.5t-15 115t15 115.5t40.5 74.5t59 40t69.5 12t69 -12t58.5 -40t41 -74.5t15.5 -115.5zM359 233q0 106 -35.5 151t-95.5 45t-95.5 -45t-35.5 -151q0 -105 36 -149.5t95 -44.5
q30 0 54 10.5t41 33.5t26.5 60t9.5 90z" />
    <glyph glyph-name="one" unicode="1" horiz-adv-x="225" 
d="M148 0h-51v414l-73 -35v47l81 41h43v-467z" />
    <glyph glyph-name="two" unicode="2" horiz-adv-x="362" 
d="M314 347q0 -37 -23 -75.5t-58 -77t-75.5 -76.5t-75.5 -73h233l-8 -45h-291v46q58 54 104 97.5t77 79.5t47.5 66.5t16.5 57.5q0 22 -7.5 37.5t-20.5 25t-30.5 14t-37.5 4.5q-43 0 -73 -11.5t-59 -25.5l9 56q34 15 62 21.5t67 6.5q38 0 65 -10t44.5 -27.5t25.5 -41t8 -49.5
z" />
    <glyph glyph-name="three" unicode="3" horiz-adv-x="367" 
d="M324 142q0 -35 -12 -62.5t-34 -47t-51.5 -29.5t-65.5 -10q-47 0 -78 11t-54 28l8 49q29 -22 54.5 -32t65.5 -10q19 0 39 4t36.5 15t27.5 31t11 52q0 23 -10 38.5t-26 24.5t-36.5 13t-42.5 4h-47v46h47q53 0 78.5 22.5t25.5 57.5q0 42 -28 62t-65 20q-23 0 -41 -2.5
t-33.5 -7.5t-29 -11.5t-27.5 -14.5l10 55q15 7 28.5 12t27 8.5t29.5 5t36 1.5q36 0 63 -10.5t45 -28t26.5 -40.5t8.5 -47q0 -25 -7.5 -42.5t-18.5 -30t-24.5 -20.5t-26.5 -12q15 -2 31 -9t29.5 -20t22 -31t8.5 -42z" />
    <glyph glyph-name="four" unicode="4" horiz-adv-x="400" 
d="M359 108h-64v-108h-51v108h-210l-7 38l211 321h57v-314h73zM244 153v234l-154 -234h154z" />
    <glyph glyph-name="five" unicode="5" horiz-adv-x="364" 
d="M280 146q0 31 -10.5 50.5t-26.5 30.5t-33.5 15t-32.5 4q-43 0 -72.5 -7.5t-58.5 -19.5l13 248h249l-8 -45h-191l-7 -138q17 4 36.5 6.5t43.5 2.5q69 0 109.5 -37.5t40.5 -106.5q0 -40 -14 -69t-37 -48.5t-52.5 -29t-60.5 -9.5q-50 0 -80.5 11t-54.5 28l10 49
q14 -11 26 -19t25.5 -13t30.5 -7.5t42 -2.5q16 0 35.5 4t36.5 15.5t29 32.5t12 55z" />
    <glyph glyph-name="six" unicode="6" horiz-adv-x="407" 
d="M370 146q0 -41 -12 -69.5t-33 -47.5t-50.5 -27.5t-63.5 -8.5q-39 0 -69.5 12.5t-52.5 40.5t-33.5 72t-11.5 107q0 55 10 101t31.5 79t56.5 51.5t86 18.5q42 0 74 -9t50 -18l-9 -50q-22 13 -50 21.5t-63 8.5q-40 0 -66 -12.5t-41 -35.5t-21 -57t-6 -76q22 17 54 28.5
t74 11.5q28 0 54.5 -7t46.5 -23.5t32.5 -43.5t12.5 -67zM317 142q0 31 -7.5 50t-20.5 30t-31 15t-39 4q-43 0 -73 -12t-50 -29q0 -50 9.5 -81.5t25.5 -49t37.5 -24t45.5 -6.5q17 0 35 4t33 15t25 31.5t10 52.5z" />
    <glyph glyph-name="seven" unicode="7" horiz-adv-x="324" 
d="M302 433l-179 -433h-57l175 422h-229l8 45h282v-34z" />
    <glyph glyph-name="eight" unicode="8" horiz-adv-x="414" 
d="M378 136q0 -69 -47 -106t-124 -37t-124 37t-47 106q0 22 7 39.5t19 30t27 20.5t31 13q-72 25 -72 103q0 33 12.5 57.5t34 41.5t50.5 25.5t62 8.5q34 0 63 -8.5t50.5 -25.5t33.5 -41.5t12 -57.5q0 -38 -18 -64t-54 -39q16 -5 31 -12t27 -19t19 -29.5t7 -42.5zM316 342
q0 42 -29 65.5t-80 23.5q-50 0 -79.5 -23.5t-29.5 -65.5q0 -38 28 -60t81 -22t81 22t28 60zM325 131q0 24 -11 40.5t-28.5 26.5t-38.5 14.5t-40 4.5q-20 0 -40.5 -4.5t-38 -14.5t-28.5 -26.5t-11 -40.5t10 -41.5t26.5 -29t37.5 -17.5t44 -6t44.5 6t38 17.5t26 29t9.5 41.5z
" />
    <glyph glyph-name="nine" unicode="9" horiz-adv-x="407" 
d="M37 325q0 39 12.5 67.5t34.5 47t52 27t64 8.5q83 0 123 -62.5t40 -183.5q0 -53 -11 -96.5t-33.5 -74.5t-58.5 -48t-85 -17q-50 0 -81 11.5t-52 27.5l9 50q21 -17 54 -29.5t69 -12.5q69 0 103.5 44t34.5 139q-22 -20 -58 -30.5t-71 -10.5q-39 0 -67 12t-45.5 32
t-25.5 45.5t-8 53.5zM90 325q0 -33 10 -52.5t25 -29t32 -12.5t31 -3q32 0 68 12t56 35q-1 45 -12 75t-27.5 47.5t-36.5 24.5t-38 7q-22 0 -41.5 -5t-34.5 -17t-23.5 -32t-8.5 -50z" />
    <glyph glyph-name="colon" unicode=":" horiz-adv-x="170" 
d="M50 30q0 14 10.5 24.5t24.5 10.5t24.5 -10.5t10.5 -24.5t-10.5 -24.5t-24.5 -10.5t-24.5 10.5t-10.5 24.5zM50 244q0 14 10.5 24.5t24.5 10.5t24.5 -10.5t10.5 -24.5t-10.5 -24.5t-24.5 -10.5t-24.5 10.5t-10.5 24.5z" />
    <glyph glyph-name="semicolon" unicode=";" horiz-adv-x="166" 
d="M46 244q0 14 10.5 24.5t24.5 10.5t24.5 -10.5t10.5 -24.5t-10.5 -24.5t-24.5 -10.5t-24.5 10.5t-10.5 24.5zM116 15q0 -34 -20.5 -59.5t-51.5 -40.5l-9 24q16 11 25 23t9 23q0 7 -3.5 12.5t-8 11t-8 11.5t-3.5 14q0 11 8.5 20.5t25.5 9.5q15 0 25.5 -13t10.5 -36z" />
    <glyph glyph-name="less" unicode="&#x3c;" horiz-adv-x="257" 
d="M223 69l-191 136v50l191 136v-58l-145 -103l145 -103v-58z" />
    <glyph glyph-name="equal" unicode="=" horiz-adv-x="350" 
d="M320 260h-290v47h290v-47zM320 144h-290v46h290v-46z" />
    <glyph glyph-name="greater" unicode="&#x3e;" horiz-adv-x="257" 
d="M34 127l145 103l-145 103v58l191 -136v-50l-191 -136v58z" />
    <glyph glyph-name="question" unicode="?" horiz-adv-x="306" 
d="M272 365q0 -32 -9 -54t-22 -38t-29 -27.5t-29 -22.5t-22 -23.5t-9 -29.5v-53h-51v62q0 33 18.5 52.5t41 36t41 35.5t18.5 51q0 24 -7 39t-19 23t-28 11t-34 3q-25 0 -47 -5.5t-42 -14.5l-9 45q23 8 49 14t54 6q135 0 135 -110zM91 30q0 14 10.5 24.5t24.5 10.5
t24.5 -10.5t10.5 -24.5t-10.5 -24.5t-24.5 -10.5t-24.5 10.5t-10.5 24.5z" />
    <glyph glyph-name="at" unicode="@" horiz-adv-x="668" 
d="M404 42q-17 -23 -44.5 -35t-59.5 -12q-51 0 -75 25.5t-24 69.5q0 32 11.5 53t30 33t43.5 17t52 5q15 0 33 -1t32 -2v27q0 23 -6 36.5t-17.5 20t-28 8.5t-36.5 2q-23 0 -48.5 -5.5t-42.5 -13.5l9 44q48 18 99 18q30 0 52.5 -5t37.5 -18.5t22.5 -37t7.5 -60.5v-121
q0 -26 8.5 -41t34.5 -15q37 0 55.5 38.5t18.5 110.5q0 64 -15.5 110t-45.5 74.5t-73.5 42t-98.5 13.5q-58 0 -102 -15.5t-73.5 -49.5t-44.5 -87t-15 -129q0 -124 52.5 -188.5t161.5 -64.5q63 0 112 9.5t72 17.5l10 -42q-32 -8 -79 -15.5t-118 -7.5q-70 0 -119.5 21.5t-81 61
t-46.5 95.5t-15 124q0 154 73.5 231t212.5 77q57 0 108 -13.5t90 -45.5t61.5 -85.5t22.5 -133.5q0 -38 -7 -72t-22 -59.5t-38 -41t-56 -15.5q-13 0 -26 0.5t-25 5t-22.5 14t-17.5 27.5zM403 155q-14 1 -31 2t-33 1q-36 0 -61.5 -13t-25.5 -55q0 -30 19 -42t49 -12
q19 0 34.5 6.5t26 17.5t16.5 25t6 28v42z" />
    <glyph glyph-name="A" unicode="A" horiz-adv-x="406" 
d="M391 0h-59l-37 116h-184l-37 -116h-59l157 467h62zM125 160h156l-78 243z" />
    <glyph glyph-name="B" unicode="B" horiz-adv-x="380" 
d="M350 137q0 -71 -35.5 -104t-108.5 -33h-153v467h146q66 0 101.5 -27.5t35.5 -93.5q0 -42 -16.5 -63.5t-45.5 -37.5q41 -13 58.5 -43.5t17.5 -64.5zM282 345q0 32 -15 54t-60 22h-101v-155h105q13 0 26 4t23 13t16 24t6 38zM296 132q0 37 -20 62.5t-60 25.5h-110v-174h112
q40 0 59 20.5t19 65.5z" />
    <glyph glyph-name="C" unicode="C" horiz-adv-x="394" 
d="M357 8q-20 -7 -46 -11t-54 -4q-49 0 -89.5 15t-69.5 44.5t-45 73t-16 100.5q0 51 13 96.5t39.5 79t66.5 53t94 19.5q40 0 67.5 -6t51.5 -16l-10 -48q-26 11 -51.5 16.5t-52.5 5.5q-43 0 -74 -15t-51 -42t-29.5 -64t-9.5 -82q0 -59 19 -95t46 -55.5t56 -25.5t49 -6
q29 0 55 5.5t52 14.5z" />
    <glyph glyph-name="D" unicode="D" horiz-adv-x="440" 
d="M400 233q0 -69 -16.5 -114t-43 -71.5t-61 -37t-70.5 -10.5h-156v467h151q54 0 91 -16t60.5 -46t34 -73.5t10.5 -98.5zM346 233q0 57 -12 93.5t-30.5 57.5t-40.5 29t-42 8h-115v-375h115q24 0 46.5 9.5t40 31.5t28 57.5t10.5 88.5z" />
    <glyph glyph-name="E" unicode="E" horiz-adv-x="351" 
d="M320 46l-9 -46h-258v467h267l-9 -46h-205v-165h187l-8 -46h-179v-164h214z" />
    <glyph glyph-name="F" unicode="F" horiz-adv-x="332" 
d="M311 467l-9 -46h-196v-169h176l-9 -46h-167v-206h-53v467h258z" />
    <glyph glyph-name="G" unicode="G" horiz-adv-x="442" 
d="M263 41q21 0 40 3t40 9v157h-118l8 46h161v-241q-11 -4 -27 -8t-34.5 -7t-38 -5t-35.5 -2q-37 0 -76 11t-71 38t-52.5 71.5t-20.5 112.5q0 51 13 96.5t40 79t68.5 53t97.5 19.5q51 0 83 -8.5t43 -13.5l-8 -49q-25 10 -54 16.5t-65 6.5q-43 0 -74 -15t-51 -42t-29.5 -64
t-9.5 -82q0 -59 19 -95t46 -55.5t56 -25.5t49 -6z" />
    <glyph glyph-name="H" unicode="H" horiz-adv-x="436" 
d="M106 256h225v211h52v-467h-52v210h-225v-210h-53v467h53v-211z" />
    <glyph glyph-name="I" unicode="I" horiz-adv-x="163" 
d="M108 0h-53v467h53v-467z" />
    <glyph glyph-name="J" unicode="J" horiz-adv-x="235" 
d="M184 108q0 -22 -4 -42.5t-15 -36.5t-31 -25.5t-53 -9.5q-15 0 -32.5 2t-29.5 4l-10 51q14 -4 31 -6.5t30 -2.5q35 0 48 12.5t13 44.5v322h-92l9 46h136v-359z" />
    <glyph glyph-name="K" unicode="K" horiz-adv-x="407" 
d="M106 207l214 260h57l-137 -173l159 -294h-59l-137 251l-97 -112v-139h-53v467h53v-260z" />
    <glyph glyph-name="L" unicode="L" horiz-adv-x="319" 
d="M298 46l-9 -46h-236v467h53v-421h192z" />
    <glyph glyph-name="M" unicode="M" horiz-adv-x="539" 
d="M486 0h-53v383l-136 -383h-55l-136 383v-383h-53v467h78l139 -405l138 405h78v-467z" />
    <glyph glyph-name="N" unicode="N" horiz-adv-x="436" 
d="M383 0h-47l-230 361v-361h-53v467h47l230 -360v360h53v-467z" />
    <glyph glyph-name="O" unicode="O" horiz-adv-x="463" 
d="M423 233q0 -69 -16 -115t-42.5 -73.5t-61 -39.5t-72.5 -12t-72.5 12t-60.5 39.5t-42 73.5t-16 115t16 115.5t42 74.5t60.5 40t72.5 12t72.5 -12t61 -40t42.5 -74.5t16 -115.5zM369 233q0 53 -10 90t-28 60t-43.5 33.5t-56.5 10.5t-56.5 -10.5t-43.5 -33.5t-27.5 -60
t-9.5 -90t10 -89.5t28 -59t43 -33t56 -10.5t56.5 10t43.5 33t28 59.5t10 89.5z" />
    <glyph glyph-name="P" unicode="P" horiz-adv-x="382" 
d="M350 314q0 -68 -35 -106.5t-99 -38.5h-110v-169h-53v467h163q69 0 101.5 -41.5t32.5 -111.5zM297 314q0 58 -23 82.5t-56 24.5h-112v-206h112q32 0 55.5 22.5t23.5 76.5z" />
    <glyph glyph-name="Q" unicode="Q" horiz-adv-x="463" 
d="M350 -100l-111 93h-8q-38 0 -72.5 12t-60.5 39.5t-42 73.5t-16 115t16 115.5t42 74.5t60.5 40t72.5 12t72.5 -12t61 -40t42.5 -74.5t16 -115.5q0 -54 -10 -93.5t-27 -67.5t-40.5 -45t-50.5 -25l90 -47zM369 233q0 53 -10 90t-28 60.5t-43.5 34t-56.5 10.5t-56.5 -10.5
t-43.5 -34t-27.5 -60.5t-9.5 -90t10 -89.5t28 -59t43 -33t56 -10.5t56.5 10t43.5 33t28 59.5t10 89.5z" />
    <glyph glyph-name="R" unicode="R" horiz-adv-x="391" 
d="M349 324q0 -51 -21.5 -85.5t-60.5 -48.5l98 -190h-60l-89 180h-110v-180h-53v467h158q66 0 102 -37t36 -106zM296 323q0 40 -20 69t-63 29h-107v-195h104q36 0 61 23t25 74z" />
    <glyph glyph-name="S" unicode="S" horiz-adv-x="335" 
d="M311 130q0 -34 -12 -59.5t-32.5 -43t-48.5 -26t-61 -8.5q-35 0 -67.5 6t-61.5 19l10 52q23 -13 54.5 -21t63.5 -8q15 0 33 3t33.5 12t25.5 25t10 42t-16.5 44t-42 32t-54.5 27t-54.5 29t-42 38.5t-16.5 55.5q0 63 41.5 94.5t111.5 31.5q32 0 61 -7t49 -16l-10 -49
q-21 11 -46 18t-56 7q-98 0 -98 -73q0 -23 16.5 -39t42 -29t54.5 -26t54.5 -30t42 -41t16.5 -60z" />
    <glyph glyph-name="T" unicode="T" horiz-adv-x="350" 
d="M328 467l-9 -46h-116v-421h-53v421h-120v46h298z" />
    <glyph glyph-name="U" unicode="U" horiz-adv-x="430" 
d="M380 159q0 -35 -9.5 -65.5t-30 -53t-51.5 -35t-74 -12.5q-48 0 -79.5 14t-50.5 37t-27 53t-8 62v308h53v-312q0 -50 26.5 -82t85.5 -32q60 0 86.5 32t26.5 82v312h52v-308z" />
    <glyph glyph-name="V" unicode="V" horiz-adv-x="410" 
d="M17 467h59l129 -403l131 403h57l-158 -467h-61z" />
    <glyph glyph-name="W" unicode="W" horiz-adv-x="597" 
d="M576 467l-122 -467h-65l-90 396l-91 -396h-65l-122 467h59l95 -405l89 405h69l89 -405l95 405h59z" />
    <glyph glyph-name="X" unicode="X" horiz-adv-x="367" 
d="M181 275l105 192h57l-124 -218l138 -249h-60l-116 211l-115 -211h-56l133 243l-127 224h61z" />
    <glyph glyph-name="Y" unicode="Y" horiz-adv-x="379" 
d="M370 467l-154 -274v-193h-53v194l-154 273h62l120 -221l121 221h58z" />
    <glyph glyph-name="Z" unicode="Z" horiz-adv-x="370" 
d="M332 0h-301v31l227 390h-218l10 46h277v-31l-228 -390h233v-46z" />
    <glyph glyph-name="bracketleft" unicode="[" horiz-adv-x="196" 
d="M181 -102h-127v670h127v-39h-78v-591h78v-40z" />
    <glyph glyph-name="backslash" unicode="\" horiz-adv-x="336" 
d="M75 488l236 -509h-49l-237 509h50z" />
    <glyph glyph-name="bracketright" unicode="]" horiz-adv-x="196" 
d="M15 -62h78v591h-78v39h127v-670h-127v40z" />
    <glyph glyph-name="asciicircum" unicode="^" 
d="M343 271h-63l-100 141l-101 -141h-64l146 196h37z" />
    <glyph glyph-name="underscore" unicode="_" horiz-adv-x="307" 
d="M312 -136h-317v46h317v-46z" />
    <glyph glyph-name="grave" unicode="`" horiz-adv-x="144" 
d="M70 454l74 -73h-58l-86 73h70z" />
    <glyph glyph-name="a" unicode="a" horiz-adv-x="327" 
d="M320 7q-22 -11 -47 -11q-24 0 -32.5 14t-8.5 32q-3 -5 -11 -13t-20.5 -15.5t-30.5 -13t-41 -5.5q-51 0 -75.5 29.5t-24.5 68.5q0 32 11.5 53t30.5 33t44 17t52 5q32 0 65 -3v29q0 41 -20.5 54t-63.5 13q-25 0 -50 -5.5t-46 -13.5l9 44q23 8 49 13t51 5q30 0 52.5 -5
t37.5 -18.5t22.5 -37t7.5 -60.5v-166q0 -18 16 -18q5 0 16 3zM232 158q-17 2 -29.5 2.5t-29.5 0.5q-41 0 -67 -12.5t-26 -52.5q0 -28 15.5 -44t47.5 -16q36 0 62.5 21t26.5 56v45z" />
    <glyph glyph-name="b" unicode="b" horiz-adv-x="377" 
d="M341 164q0 -90 -42 -129.5t-120 -39.5q-40 0 -69.5 4t-58.5 12v456h49v-174q18 18 44 31.5t66 13.5q28 0 52.5 -9.5t41.5 -30.5t27 -54t10 -80zM290 160q0 70 -23.5 101t-71.5 31q-26 0 -44 -9t-29 -23.5t-16.5 -33.5t-5.5 -40v-138q11 -3 33 -6t39 -3q30 0 52 5.5
t36.5 19t22 37t7.5 59.5z" />
    <glyph glyph-name="c" unicode="c" horiz-adv-x="302" 
d="M273 279q-39 16 -77 16q-58 0 -84 -34t-26 -99q0 -59 25.5 -91.5t90.5 -32.5q21 0 38 4t37 12l-10 -44q-11 -5 -31 -10t-46 -5q-70 0 -112.5 42t-42.5 129q0 76 40 124t115 48q33 0 54 -4.5t38 -12.5z" />
    <glyph glyph-name="d" unicode="d" horiz-adv-x="382" 
d="M283 274q-20 8 -41 14.5t-50 6.5q-48 0 -73.5 -31.5t-25.5 -98.5q0 -72 23 -99.5t69 -27.5q26 0 44.5 8t30.5 20.5t17.5 29t5.5 34.5v144zM283 43q-13 -16 -38.5 -32.5t-71.5 -16.5q-24 0 -47 7t-42 25.5t-30.5 51.5t-11.5 84q0 85 39 130.5t104 45.5q38 0 60 -5.5
t38 -11.5v146h49v-418q0 -8 3 -13.5t12 -5.5q8 0 17 4l8 -28q-13 -6 -23 -8.5t-24 -2.5q-23 0 -32 13t-10 35z" />
    <glyph glyph-name="e" unicode="e" horiz-adv-x="346" 
d="M312 191q0 -10 -0.5 -20.5t-1.5 -19.5h-223q0 -65 27.5 -89t82.5 -24q16 0 28.5 1t24 2.5t24 4.5t28.5 8l-10 -44q-18 -6 -41 -10.5t-62 -4.5q-79 0 -115.5 40.5t-36.5 125.5q0 26 5.5 57t21 57.5t43 44.5t72.5 18q39 0 64.5 -13t41 -34t21.5 -47t6 -53zM267 191v10
q0 39 -19.5 67.5t-68.5 28.5q-47 0 -68.5 -27.5t-23.5 -78.5h180z" />
    <glyph glyph-name="f" unicode="f" horiz-adv-x="197" 
d="M190 425q-9 5 -21.5 7.5t-22.5 2.5q-25 0 -33 -10t-8 -39v-54h73v-40h-73v-292h-49v292h-47l8 40h39v49q0 49 16 74t67 25q18 0 31.5 -2.5t29.5 -8.5z" />
    <glyph glyph-name="g" unicode="g" horiz-adv-x="372" 
d="M326 15q0 -42 -7.5 -71t-25.5 -46.5t-47.5 -25t-72.5 -7.5q-33 0 -67.5 7t-63.5 21l11 47q26 -13 58.5 -21t60.5 -8q61 0 83 20.5t22 69.5v38q-14 -16 -37.5 -29.5t-67.5 -13.5q-63 0 -99 40.5t-36 132.5q0 48 11.5 80t32.5 52t49.5 28.5t61.5 8.5q40 0 75.5 -5.5
t58.5 -10.5v-307zM277 285q-14 3 -34 6t-44 3q-60 0 -86 -29t-26 -92q0 -70 23.5 -100.5t71.5 -30.5q33 0 52 11.5t28.5 27t12 32.5t2.5 29v143z" />
    <glyph glyph-name="h" unicode="h" 
d="M262 233q0 33 -10 46.5t-37 13.5q-20 0 -38 -5t-33.5 -12.5t-28 -15.5t-20.5 -14v-246h-49v467h49v-178q25 20 56.5 34.5t66.5 14.5q52 0 72.5 -25t20.5 -81v-183q0 -8 3 -13.5t12 -5.5q8 0 17 4l8 -28q-13 -6 -23 -8.5t-24 -2.5q-23 0 -32.5 12t-9.5 36v190z" />
    <glyph glyph-name="i" unicode="i" horiz-adv-x="146" 
d="M106 431q0 -14 -9.5 -23.5t-23.5 -9.5t-24 9.5t-10 23.5t10 23.5t24 9.5t23.5 -9.5t9.5 -23.5zM48 332h49v-283q0 -8 3 -13.5t12 -5.5q8 0 17 4l8 -28q-13 -6 -23 -8.5t-24 -2.5q-23 0 -32.5 12t-9.5 36v289z" />
    <glyph glyph-name="j" unicode="j" horiz-adv-x="137" 
d="M-45 -82q9 -3 20.5 -5.5t23.5 -2.5q25 0 33.5 10t8.5 39v373h49v-362q0 -22 -2 -41t-10.5 -33.5t-25.5 -22.5t-46 -8q-16 0 -29 2.5t-31 8.5zM99 431q0 -14 -9.5 -23.5t-23.5 -9.5t-24 9.5t-10 23.5t10 23.5t24 9.5t23.5 -9.5t9.5 -23.5z" />
    <glyph glyph-name="k" unicode="k" horiz-adv-x="315" 
d="M313 0h-57l-109 175l-52 -51v-124h-49v467h49v-282l153 147h60l-127 -124z" />
    <glyph glyph-name="l" unicode="l" horiz-adv-x="145" 
d="M48 467h49v-418q0 -8 3 -13.5t12 -5.5q8 0 17 4l8 -28q-13 -6 -23 -8.5t-24 -2.5q-23 0 -32.5 12t-9.5 36v424z" />
    <glyph glyph-name="m" unicode="m" horiz-adv-x="559" 
d="M304 0h-49v230q0 38 -10 50.5t-37 12.5q-34 0 -62.5 -16t-50.5 -31v-246h-49v332h49v-43q20 16 50 32.5t69 16.5q12 0 25 -1.5t24.5 -6.5t21 -16t14.5 -29q29 23 61.5 38t65.5 15q44 0 65 -20.5t21 -77.5v-191q0 -8 3 -13.5t12 -5.5q8 0 17 4l8 -28q-13 -6 -23 -8.5
t-24 -2.5q-23 0 -32.5 12t-9.5 36v191q0 32 -10 45.5t-36 13.5q-17 0 -33.5 -5t-31.5 -12t-27.5 -15.5t-20.5 -14.5v-246z" />
    <glyph glyph-name="n" unicode="n" 
d="M262 233q0 33 -10 46.5t-37 13.5q-20 0 -38 -5.5t-33.5 -13.5t-28 -16.5t-20.5 -14.5v-243h-49v332h49v-46q25 20 56.5 36t66.5 16q52 0 72.5 -25t20.5 -81v-183q0 -8 3 -13.5t12 -5.5q8 0 17 4l8 -28q-13 -6 -23 -8.5t-24 -2.5q-23 0 -32.5 12t-9.5 36v190z" />
    <glyph glyph-name="o" unicode="o" horiz-adv-x="386" 
d="M193 37q22 0 41 5t33.5 19.5t22.5 39.5t8 64q0 40 -8 65.5t-22.5 40t-33.5 20t-41 5.5t-41 -5.5t-33.5 -20t-22.5 -40t-8 -65.5q0 -39 8 -64t22.5 -39.5t33.5 -19.5t41 -5zM193 -5q-30 0 -58 7.5t-49.5 27t-35 52t-13.5 83.5t13.5 84.5t35 53t49.5 27.5t58 8t58 -8
t49.5 -27.5t35 -53t13.5 -84.5t-13.5 -83.5t-35 -52t-49.5 -27t-58 -7.5z" />
    <glyph glyph-name="p" unicode="p" horiz-adv-x="372" 
d="M335 171q0 -36 -8.5 -68t-26 -56t-44 -38t-63.5 -14q-32 0 -55.5 7.5t-42.5 19.5v-152h-49v462h49v-43q14 19 40.5 34t69.5 15q23 0 46.5 -7t42 -25.5t30 -51t11.5 -83.5zM284 167q0 68 -21.5 96.5t-67.5 28.5q-26 0 -45 -8.5t-31 -22t-18 -31t-6 -34.5v-126
q19 -15 41.5 -23t42.5 -8q25 0 44.5 6t33 21t20.5 39.5t7 61.5z" />
    <glyph glyph-name="q" unicode="q" horiz-adv-x="373" 
d="M327 -130h-49v169q-12 -15 -36 -29.5t-71 -14.5q-29 0 -53.5 8.5t-42.5 28.5t-28 52t-10 79q0 49 13.5 83t36 54t51.5 29t61 9q47 0 74.5 -4.5t53.5 -11.5v-452zM88 167q0 -70 21.5 -98t69.5 -28q33 0 52.5 11.5t30 27t13.5 32.5t3 29v144q-13 3 -33 6t-44 3
q-14 0 -33.5 -2.5t-37 -14.5t-30 -38t-12.5 -72z" />
    <glyph glyph-name="r" unicode="r" horiz-adv-x="241" 
d="M95 287q12 20 32.5 35.5t48.5 15.5q20 0 32.5 -6t19.5 -11l-9 -41q-10 6 -22 10t-26 4t-26.5 -5t-22 -12.5t-17 -15.5t-10.5 -14v-247h-49v332h49v-45v0z" />
    <glyph glyph-name="s" unicode="s" horiz-adv-x="292" 
d="M266 96q0 -43 -33 -72t-94 -29q-42 0 -67 5.5t-38 10.5l10 45q15 -6 40.5 -12.5t51.5 -6.5q38 0 59 12.5t21 41.5q0 17 -13 28.5t-32 20t-42 16.5t-42 19.5t-32 27.5t-13 42q0 47 34 70t86 23q28 0 51 -4.5t42 -12.5l-9 -43q-15 6 -38 11.5t-47 5.5q-26 0 -47.5 -8.5
t-21.5 -34.5q0 -16 13 -26.5t32 -19t42 -17t42 -20.5t32 -29.5t13 -43.5z" />
    <glyph glyph-name="t" unicode="t" horiz-adv-x="207" 
d="M190 6q-16 -6 -28 -8.5t-26 -2.5q-23 0 -38 7t-23.5 19.5t-12 30t-3.5 38.5v202h-46l8 40h38v92l49 17v-109h74v-40h-74v-203q0 -29 7.5 -39t27.5 -10q19 0 38 8l9 -42v0z" />
    <glyph glyph-name="u" unicode="u" 
d="M262 332h49v-283q0 -8 3 -13.5t12 -5.5q8 0 17 4l8 -28q-13 -6 -23 -8.5t-24 -2.5q-23 0 -32.5 12.5t-9.5 38.5q-23 -20 -53.5 -36t-65.5 -16q-56 0 -76.5 24t-20.5 82v232h49v-233q0 -35 11 -47.5t40 -12.5q19 0 37 5.5t33 13.5t26.5 16.5t19.5 14.5v243z" />
    <glyph glyph-name="v" unicode="v" horiz-adv-x="304" 
d="M295 332l-117 -332h-52l-117 332h53l91 -271l91 271h51z" />
    <glyph glyph-name="w" unicode="w" horiz-adv-x="457" 
d="M259 332l71 -270l62 270h52l-87 -332h-53l-75 277l-75 -277h-53l-88 332h52l63 -270l71 270h60z" />
    <glyph glyph-name="x" unicode="x" horiz-adv-x="304" 
d="M152 203l83 129h55l-107 -159l113 -173h-56l-88 141l-88 -141h-56l113 173l-106 159h54z" />
    <glyph glyph-name="y" unicode="y" horiz-adv-x="309" 
d="M300 332l-120 -344q-12 -34 -23.5 -57.5t-25.5 -38t-31.5 -21t-42.5 -6.5q-18 0 -34.5 4t-25.5 9l10 41q25 -11 55 -11t47 23t32 82l-128 319h53l98 -256l83 256h53z" />
    <glyph glyph-name="z" unicode="z" horiz-adv-x="277" 
d="M260 0h-226v30l162 262h-153l9 40h208v-28l-166 -264h166v-40z" />
    <glyph glyph-name="braceleft" unicode="{" horiz-adv-x="244" 
d="M223 -102q-40 0 -65.5 13.5t-40.5 42t-20.5 73t-5.5 105.5q0 37 -10 61t-40 28v28q30 3 40 25.5t10 60.5q0 58 5.5 101.5t20.5 73t40.5 44t65.5 14.5v-39q-25 0 -40.5 -13.5t-24.5 -38.5t-12.5 -61t-3.5 -81q0 -23 -2 -37.5t-7 -25t-13 -19t-21 -18.5q11 -8 19 -17
t13.5 -20.5t8 -27.5t2.5 -38q0 -91 16.5 -142.5t64.5 -51.5v-40z" />
    <glyph glyph-name="bar" unicode="|" horiz-adv-x="175" 
d="M111 -139h-47v699h47v-699z" />
    <glyph glyph-name="braceright" unicode="}" horiz-adv-x="244" 
d="M21 -62q48 0 64.5 51.5t16.5 142.5q0 22 2.5 38t8 27.5t13.5 20.5t19 17q-13 10 -21 18.5t-13 19t-7 25t-2 37.5q0 91 -16 142.5t-65 51.5v39q40 0 65.5 -14.5t40.5 -44t20.5 -73t5.5 -101.5q0 -38 10 -60.5t40 -25.5v-28q-30 -4 -40 -28t-10 -61q0 -61 -5.5 -105.5
t-20.5 -73t-40.5 -42t-65.5 -13.5v40z" />
    <glyph glyph-name="asciitilde" unicode="~" horiz-adv-x="294" 
d="M276 242q-4 -37 -21 -57.5t-49 -20.5q-14 0 -30.5 5t-33.5 11.5t-32 11.5t-24 5q-8 0 -14 -7t-6 -24h-48q3 35 19 58t48 23q14 0 31 -5t33.5 -11.5t31.5 -11.5t26 -5q8 0 14 6t8 22h47z" />
    <glyph glyph-name="uni00A0" unicode="&#xa0;" horiz-adv-x="126" 
 />
    <glyph glyph-name="exclamdown" unicode="&#xa1;" horiz-adv-x="166" 
d="M54 -11l7 349h44l8 -349h-59zM118 425q0 -14 -10.5 -24.5t-24.5 -10.5t-24.5 10.5t-10.5 24.5t10.5 24.5t24.5 10.5t24.5 -10.5t10.5 -24.5z" />
    <glyph glyph-name="cent" unicode="&#xa2;" horiz-adv-x="312" 
d="M278 345q-36 15 -72 16v-257q22 0 39 4t37 12l-10 -44q-10 -5 -27 -9.5t-39 -5.5v-61h-31v62q-62 5 -98.5 47t-36.5 123q0 71 34.5 117.5t100.5 53.5v64h31v-63q28 -1 47 -5.5t34 -11.5zM91 228q0 -51 18 -82.5t66 -39.5v253q-45 -8 -64.5 -41t-19.5 -90z" />
    <glyph glyph-name="sterling" unicode="&#xa3;" horiz-adv-x="409" 
d="M360 45l-8 -45h-274v34q21 43 27 81t6 60v16.5t-1 17.5h-57v42h52q-5 18 -9.5 45.5t-4.5 50.5q0 26 7.5 49.5t24.5 41t44 27.5t66 10q36 0 67 -8t51 -19l-9 -48q-21 10 -46 19t-56 9q-45 0 -70.5 -18t-25.5 -63q0 -21 3.5 -44.5t8.5 -51.5h159v-42h-153q1 -6 1.5 -14
t0.5 -20q0 -26 -7 -61.5t-25 -68.5h228z" />
    <glyph glyph-name="currency" unicode="&#xa4;" horiz-adv-x="433" 
d="M298 137q-35 -27 -81 -27q-18 0 -40 5.5t-42 21.5l-47 -48l-32 33l48 46q-27 38 -27 80q0 21 6.5 42t20.5 38l-48 47l32 33l47 -48q21 15 42.5 21t39.5 6q19 0 41 -6.5t40 -20.5l48 48l31 -33l-48 -47q15 -20 21 -40t6 -40q0 -43 -27 -80l48 -46l-31 -33zM217 155
q19 0 36 7.5t29.5 20.5t20 30t7.5 36q0 21 -8 38t-21 29t-29.5 18.5t-34.5 6.5q-41 0 -67.5 -27t-26.5 -65q0 -19 7.5 -36t20 -30t29.5 -20.5t37 -7.5z" />
    <glyph glyph-name="yen" unicode="&#xa5;" horiz-adv-x="458" 
d="M191 214l-143 253h61l120 -221l120 221h61l-143 -253h90v-35h-102v-50h102v-35h-102v-94h-52v94h-102v35h102v50h-102v35h90z" />
    <glyph glyph-name="brokenbar" unicode="&#xa6;" horiz-adv-x="175" 
d="M111 249h-47v283h47v-283zM111 -132h-47v282h47v-282z" />
    <glyph glyph-name="section" unicode="&#xa7;" horiz-adv-x="390" 
d="M352 -28q0 -21 -7 -43.5t-25 -41t-49 -30t-79 -11.5q-35 0 -75 6.5t-70 18.5l12 52q35 -17 69 -24t63 -7q106 0 106 77q0 26 -19 42t-48 28t-62.5 22.5t-62.5 25.5t-48 38.5t-19 61.5q0 26 18 51.5t50 40.5q-9 4 -18.5 10.5t-17.5 15.5t-13 21t-5 28q0 24 8.5 46
t27.5 38.5t48 26.5t71 10q38 0 72 -6t57 -16l-12 -50q-23 11 -54.5 18.5t-63.5 7.5q-17 0 -34.5 -2t-32 -9.5t-24 -21.5t-9.5 -38q0 -19 18 -32t45 -24t58.5 -21.5t58.5 -25.5t45 -35.5t18 -50.5q0 -23 -7.5 -40t-18 -29t-22.5 -19.5t-20 -11.5l22.5 -13.5t23.5 -19t18 -27
t7 -37.5zM295 160q0 18 -13 31t-34.5 24.5t-50.5 22.5t-60 23q-7 -4 -15 -9t-14.5 -13t-11 -19.5t-4.5 -29.5q0 -24 16.5 -39.5t41 -27t51.5 -20t48 -17.5q6 4 14 9t15 13.5t12 21t5 30.5z" />
    <glyph glyph-name="dieresis" unicode="&#xa8;" horiz-adv-x="185" 
d="M72 417q0 -14 -10.5 -24.5t-25.5 -10.5q-14 0 -25 10.5t-11 24.5q0 15 11 25.5t25 10.5q15 0 25.5 -10.5t10.5 -25.5zM185 417q0 -14 -10.5 -24.5t-25.5 -10.5q-14 0 -24.5 10.5t-10.5 24.5q0 15 10.5 25.5t24.5 10.5q15 0 25.5 -10.5t10.5 -25.5z" />
    <glyph glyph-name="copyright" unicode="&#xa9;" horiz-adv-x="418" 
d="M258 233q-9 -3 -21 -4.5t-24 -1.5q-17 0 -32 3.5t-26.5 13t-18.5 26t-7 41.5q0 49 21.5 69t60.5 20q17 0 30.5 -2.5t21.5 -5.5l-5 -28q-7 2 -18.5 5t-27.5 3q-23 0 -37 -11.5t-14 -50.5q0 -30 13.5 -42.5t40.5 -12.5q15 0 27.5 2.5t20.5 4.5zM371 316q0 -35 -12.5 -65
t-34 -52.5t-51.5 -35t-64 -12.5t-63.5 12.5t-51.5 35t-34.5 52.5t-12.5 65t12.5 65t34.5 52t51.5 34.5t63.5 12.5t64 -12.5t51.5 -34.5t34 -52t12.5 -65zM342 316q0 27 -9.5 52t-27 44t-42 30t-54.5 11q-29 0 -53.5 -11t-42 -30t-27 -44t-9.5 -52q0 -28 9.5 -53t27 -43.5
t42 -29.5t53.5 -11q30 0 54.5 11t42 29.5t27 43.5t9.5 53z" />
    <glyph glyph-name="ordfeminine" unicode="&#xaa;" horiz-adv-x="280" 
d="M240 261q-8 -4 -15 -5.5t-18 -1.5q-25 0 -25 31q-5 -6 -21 -18.5t-47 -12.5q-34 0 -50 16.5t-16 45.5q0 21 7.5 35t20 22.5t29 11.5t34.5 3q11 0 20.5 -0.5t22.5 -1.5v17q0 31 -16 38t-42 7q-28 0 -61 -13l6 29q17 6 32.5 9t33.5 3q40 0 59.5 -15.5t19.5 -64.5v-106
q0 -13 11 -13q2 0 10 2zM182 360q-12 1 -20 1h-19q-27 0 -44 -8t-17 -36q0 -21 13 -28.5t33 -7.5t37 14t17 37v28z" />
    <glyph glyph-name="guillemotleft" unicode="&#xab;" horiz-adv-x="310" 
d="M286 66h-46l-85 120l85 117h46l-77 -117zM174 66h-45l-85 120l85 117h45l-76 -117z" />
    <glyph glyph-name="logicalnot" unicode="&#xac;" horiz-adv-x="350" 
d="M275 127v151h-245v46h289v-197h-44z" />
    <glyph glyph-name="uni00AD" unicode="&#xad;" horiz-adv-x="268" 
d="M213 153h-158v44h158v-44z" />
    <glyph glyph-name="registered" unicode="&#xae;" horiz-adv-x="418" 
d="M371 316q0 -35 -12.5 -65t-34 -52.5t-51.5 -35t-64 -12.5t-63.5 12.5t-51.5 35t-34.5 52.5t-12.5 65t12.5 65t34.5 52t51.5 34.5t63.5 12.5t64 -12.5t51.5 -34.5t34 -52t12.5 -65zM342 316q0 27 -9.5 52t-27 44t-42 30t-54.5 11q-29 0 -53.5 -11t-42 -30t-27 -44
t-9.5 -52q0 -28 9.5 -53t27 -43.5t42 -29.5t53.5 -11q30 0 54.5 11t42 29.5t27 43.5t9.5 53zM276 343q0 -15 -7.5 -26t-19.5 -18l36 -67h-34l-31 60h-33v-60h-31v169h60q32 0 46 -17t14 -41zM246 344q0 14 -8 22.5t-21 8.5h-30v-58h30q11 0 20 6.5t9 20.5z" />
    <glyph glyph-name="macron" unicode="&#xaf;" horiz-adv-x="160" 
d="M160 398h-160v37h160v-37z" />
    <glyph glyph-name="degree" unicode="&#xb0;" horiz-adv-x="259" 
d="M222 407q0 -19 -7 -36t-20 -29.5t-30 -19.5t-36 -7t-36 7t-29.5 19.5t-19.5 29.5t-7 36t7 36t19.5 30t29.5 20t36 7q39 0 66 -27t27 -66zM188 407q0 23 -15 42.5t-44 19.5q-28 0 -43.5 -18t-15.5 -44t16.5 -43.5t42.5 -17.5q29 0 44 19t15 42z" />
    <glyph glyph-name="plusminus" unicode="&#xb1;" horiz-adv-x="350" 
d="M320 243h-122v-143h-46v143h-122v47h122v143h46v-143h122v-47zM320 47v-47h-290v47h290z" />
    <glyph glyph-name="uni00B2" unicode="&#xb2;" horiz-adv-x="273" 
d="M233 403q0 -21 -14 -41.5t-35 -40.5t-46 -40t-48 -39h143l-5 -29h-187v24q73 62 114 99t41 67q0 24 -16 33t-42 9q-30 0 -49.5 -5t-36.5 -13l6 31q23 8 40.5 12.5t43.5 4.5q50 0 70.5 -21.5t20.5 -50.5z" />
    <glyph glyph-name="uni00B3" unicode="&#xb3;" horiz-adv-x="248" 
d="M216 287q0 -45 -29.5 -64t-76.5 -19q-37 0 -59 8t-27 13l6 31q12 -8 29.5 -15t48.5 -7q12 0 24.5 1.5t23 7t17.5 16t7 27.5q0 25 -22.5 33.5t-50.5 8.5h-30v30h30q35 0 50 11t15 31q0 23 -17 32t-41 9q-26 0 -46.5 -5.5t-39.5 -14.5l7 34q17 7 34.5 11.5t44.5 4.5
q48 0 72 -20t24 -51q0 -14 -5 -23.5t-13 -16t-17.5 -10.5t-17.5 -7q20 -2 39.5 -16t19.5 -40z" />
    <glyph glyph-name="acute" unicode="&#xb4;" horiz-adv-x="144" 
d="M144 454l-86 -73h-58l74 73h70z" />
    <glyph glyph-name="mu" unicode="&#xb5;" 
d="M262 332h49v-283q0 -8 3 -13.5t12 -5.5q8 0 17 4l8 -28q-13 -6 -23 -8.5t-24 -2.5q-23 0 -32.5 12.5t-9.5 38.5q-23 -20 -53.5 -36t-65.5 -16q-29 0 -48 9v-133h-49v462h49v-233q0 -35 11 -47.5t40 -12.5q19 0 37 5.5t33 13.5t26.5 16.5t19.5 14.5v243z" />
    <glyph glyph-name="paragraph" unicode="&#xb6;" horiz-adv-x="397" 
d="M302 -81v508h-42v-508h-45v261h-26q-72 0 -110 36.5t-38 106.5q0 33 8 59.5t27 45.5t50 29t76 10h145v-548h-45z" />
    <glyph glyph-name="periodcentered" unicode="&#xb7;" horiz-adv-x="148" 
d="M39 247q0 14 10.5 24.5t24.5 10.5t24.5 -10.5t10.5 -24.5t-10.5 -24.5t-24.5 -10.5t-24.5 10.5t-10.5 24.5z" />
    <glyph glyph-name="cedilla" unicode="&#xb8;" horiz-adv-x="123" 
d="M123 -43l-73 -98h-50l59 98h64z" />
    <glyph glyph-name="uni00B9" unicode="&#xb9;" horiz-adv-x="167" 
d="M113 214h-35v225l-48 -20v30l55 22h28v-257z" />
    <glyph glyph-name="ordmasculine" unicode="&#xba;" horiz-adv-x="304" 
d="M254 363q0 -33 -9 -54.5t-24 -33.5t-34 -17t-38 -5t-37 5t-31.5 17t-22 33.5t-8.5 54.5t8.5 55t22 34.5t31.5 17.5t37 5t38 -5t34 -17.5t24 -34.5t9 -55zM222 363q0 25 -6 41.5t-16 26.5t-23 13.5t-28 3.5q-14 0 -26.5 -3.5t-21.5 -13t-14 -26t-5 -42.5t5 -42t14 -25
t21.5 -12t26.5 -3q15 0 28 3t23 12t16 25t6 42z" />
    <glyph glyph-name="guillemotright" unicode="&#xbb;" horiz-adv-x="310" 
d="M100 186l-76 117h46l84 -117l-84 -120h-46zM212 186l-77 117h46l85 -117l-85 -120h-46z" />
    <glyph glyph-name="onequarter" unicode="&#xbc;" horiz-adv-x="492" 
d="M113 214h-35v225l-48 -20v30l55 22h28v-257zM351 479l-245 -491h-35l245 491h35zM453 57h-41v-57h-35v57h-136l-4 24l137 176h38v-171h46zM377 86v125l-98 -125h98z" />
    <glyph glyph-name="onehalf" unicode="&#xbd;" horiz-adv-x="518" 
d="M113 214h-35v225l-48 -20v30l55 22h28v-257zM470 190q0 -21 -14 -41t-35 -40.5t-46 -40.5t-48 -39h143l-5 -29h-187v25q74 60 114.5 98t40.5 67q0 25 -16 33.5t-43 8.5q-29 0 -48.5 -5t-36.5 -13l6 31q23 8 40.5 12.5t43.5 4.5q50 0 70.5 -21.5t20.5 -50.5zM351 479
l-245 -491h-35l245 491h35z" />
    <glyph glyph-name="threequarters" unicode="&#xbe;" horiz-adv-x="586" 
d="M546 57h-41v-57h-35v57h-135l-5 24l138 176h37v-171h47zM470 86v125l-97 -125h97zM437 479l-245 -491h-35l245 491h35zM226 291q0 -45 -29.5 -64t-76.5 -19q-37 0 -59 8t-27 13l6 31q12 -8 29.5 -15t48.5 -7q12 0 24.5 1.5t23 7t17.5 16t7 27.5q0 25 -22.5 33.5
t-50.5 8.5h-30v30h30q35 0 50 11t15 31q0 23 -17 32t-41 9q-26 0 -46.5 -5.5t-39.5 -14.5l7 34q17 7 34.5 11.5t44.5 4.5q48 0 72 -20t24 -51q0 -14 -5 -23.5t-13 -16t-17.5 -10.5t-17.5 -7q20 -2 39.5 -16t19.5 -40z" />
    <glyph glyph-name="questiondown" unicode="&#xbf;" horiz-adv-x="306" 
d="M34 90q0 32 9 54t22 38t29 27.5t29 22.5t22 23t9 30v53h51v-62q0 -33 -18.5 -52.5t-41 -36t-41 -35.5t-18.5 -51q0 -24 7 -39t19 -23t28 -11t34 -3q25 0 47 5.5t42 14.5l9 -45q-23 -8 -49 -14t-54 -6q-135 0 -135 110zM215 425q0 -14 -10.5 -24.5t-24.5 -10.5t-24.5 10.5
t-10.5 24.5t10.5 24.5t24.5 10.5t24.5 -10.5t10.5 -24.5z" />
    <glyph glyph-name="Agrave" unicode="&#xc0;" horiz-adv-x="406" 
d="M391 0h-59l-37 116h-184l-37 -116h-59l157 467h62zM125 160h156l-78 243zM201 589l74 -73h-58l-86 73h70z" />
    <glyph glyph-name="Aacute" unicode="&#xc1;" horiz-adv-x="406" 
d="M391 0h-59l-37 116h-184l-37 -116h-59l157 467h62zM125 160h156l-78 243zM288 589l-86 -73h-58l74 73h70z" />
    <glyph glyph-name="Acircumflex" unicode="&#xc2;" horiz-adv-x="406" 
d="M391 0h-59l-37 116h-184l-37 -116h-59l157 467h62zM125 160h156l-78 243zM111 516l67 72h54l66 -72h-56l-38 43l-37 -43h-56z" />
    <glyph glyph-name="Atilde" unicode="&#xc3;" horiz-adv-x="406" 
d="M391 0h-59l-37 116h-184l-37 -116h-59l157 467h62zM125 160h156l-78 243zM303 588q-3 -35 -13.5 -54.5t-34.5 -19.5q-13 0 -26.5 6t-26.5 13t-24.5 13t-20.5 6q-10 0 -12 -10t-3 -26h-38q2 34 12.5 55t39.5 21q11 0 24 -6t26 -12.5t24 -12.5t18 -6q10 0 12.5 9t4.5 24h38
z" />
    <glyph glyph-name="Adieresis" unicode="&#xc4;" horiz-adv-x="406" 
d="M391 0h-59l-37 116h-184l-37 -116h-59l157 467h62zM125 160h156l-78 243zM184 552q0 -14 -10.5 -24.5t-25.5 -10.5q-14 0 -25 10.5t-11 24.5q0 15 11 25.5t25 10.5q15 0 25.5 -10.5t10.5 -25.5zM297 552q0 -14 -10.5 -24.5t-25.5 -10.5q-14 0 -24.5 10.5t-10.5 24.5
q0 15 10.5 25.5t24.5 10.5q15 0 25.5 -10.5t10.5 -25.5z" />
    <glyph glyph-name="Aring" unicode="&#xc5;" horiz-adv-x="406" 
d="M391 0h-59l-37 116h-184l-37 -116h-59l157 467h62zM125 160h156l-78 243zM203 538q11 0 18 7.5t7 18.5t-7 18t-18 7t-18 -7t-7 -18t7 -18.5t18 -7.5zM203 514q-20 0 -35 13.5t-15 36.5t15 36t35 13t35 -13t15 -36t-15 -36.5t-35 -13.5z" />
    <glyph glyph-name="AE" unicode="&#xc6;" horiz-adv-x="577" 
d="M546 46l-9 -46h-257v123h-157l-64 -123h-59l250 467h296l-9 -46h-205v-165h188l-9 -46h-179v-164h214zM280 167v256l-134 -256h134z" />
    <glyph glyph-name="Ccedilla" unicode="&#xc7;" horiz-adv-x="394" 
d="M357 8q-20 -7 -46 -11t-54 -4q-49 0 -89.5 15t-69.5 44.5t-45 73t-16 100.5q0 51 13 96.5t39.5 79t66.5 53t94 19.5q40 0 67.5 -6t51.5 -16l-10 -48q-26 11 -51.5 16.5t-52.5 5.5q-43 0 -74 -15t-51 -42t-29.5 -64t-9.5 -82q0 -59 19 -95t46 -55.5t56 -25.5t49 -6
q29 0 55 5.5t52 14.5zM278 -43l-73 -98h-50l59 98h64z" />
    <glyph glyph-name="Egrave" unicode="&#xc8;" horiz-adv-x="351" 
d="M320 46l-9 -46h-258v467h267l-9 -46h-205v-165h187l-8 -46h-179v-164h214zM173 589l74 -73h-58l-86 73h70z" />
    <glyph glyph-name="Eacute" unicode="&#xc9;" horiz-adv-x="351" 
d="M320 46l-9 -46h-258v467h267l-9 -46h-205v-165h187l-8 -46h-179v-164h214zM267 589l-86 -73h-58l74 73h70z" />
    <glyph glyph-name="Ecircumflex" unicode="&#xca;" horiz-adv-x="351" 
d="M320 46l-9 -46h-258v467h267l-9 -46h-205v-165h187l-8 -46h-179v-164h214zM100 516l67 72h54l66 -72h-56l-38 43l-37 -43h-56z" />
    <glyph glyph-name="Edieresis" unicode="&#xcb;" horiz-adv-x="351" 
d="M320 46l-9 -46h-258v467h267l-9 -46h-205v-165h187l-8 -46h-179v-164h214zM169 552q0 -14 -10.5 -24.5t-25.5 -10.5q-14 0 -25 10.5t-11 24.5q0 15 11 25.5t25 10.5q15 0 25.5 -10.5t10.5 -25.5zM282 552q0 -14 -10.5 -24.5t-25.5 -10.5q-14 0 -24.5 10.5t-10.5 24.5
q0 15 10.5 25.5t24.5 10.5q15 0 25.5 -10.5t10.5 -25.5z" />
    <glyph glyph-name="Igrave" unicode="&#xcc;" horiz-adv-x="163" 
d="M108 0h-53v467h53v-467zM79 589l74 -73h-58l-86 73h70z" />
    <glyph glyph-name="Iacute" unicode="&#xcd;" horiz-adv-x="163" 
d="M108 0h-53v467h53v-467zM153 589l-86 -73h-58l74 73h70z" />
    <glyph glyph-name="Icircumflex" unicode="&#xce;" horiz-adv-x="163" 
d="M108 0h-53v467h53v-467zM-12 516l67 72h54l66 -72h-56l-38 43l-37 -43h-56z" />
    <glyph glyph-name="Idieresis" unicode="&#xcf;" horiz-adv-x="163" 
d="M108 0h-53v467h53v-467zM61 552q0 -14 -10.5 -24.5t-25.5 -10.5q-14 0 -25 10.5t-11 24.5q0 15 11 25.5t25 10.5q15 0 25.5 -10.5t10.5 -25.5zM174 552q0 -14 -10.5 -24.5t-25.5 -10.5q-14 0 -24.5 10.5t-10.5 24.5q0 15 10.5 25.5t24.5 10.5q15 0 25.5 -10.5t10.5 -25.5
z" />
    <glyph glyph-name="Eth" unicode="&#xd0;" horiz-adv-x="453" 
d="M413 233q0 -69 -16.5 -114t-43 -71.5t-61 -37t-70.5 -10.5h-156v210h-65v44h65v213h151q54 0 91 -16t60.5 -46t34 -73.5t10.5 -98.5zM359 233q0 57 -12 93.5t-30.5 57.5t-40.5 29t-42 8h-115v-167h81v-44h-81v-164h115q24 0 46.5 9.5t40 31.5t28 57.5t10.5 88.5z" />
    <glyph glyph-name="Ntilde" unicode="&#xd1;" horiz-adv-x="436" 
d="M383 0h-47l-230 361v-361h-53v467h47l230 -360v360h53v-467zM317 588q-3 -35 -13.5 -54.5t-34.5 -19.5q-13 0 -26.5 6t-26.5 13t-24.5 13t-20.5 6q-10 0 -12 -10t-3 -26h-38q2 34 12.5 55t39.5 21q11 0 24 -6t26 -12.5t24 -12.5t18 -6q10 0 12.5 9t4.5 24h38z" />
    <glyph glyph-name="Ograve" unicode="&#xd2;" horiz-adv-x="463" 
d="M423 233q0 -69 -16 -115t-42.5 -73.5t-61 -39.5t-72.5 -12t-72.5 12t-60.5 39.5t-42 73.5t-16 115t16 115.5t42 74.5t60.5 40t72.5 12t72.5 -12t61 -40t42.5 -74.5t16 -115.5zM369 233q0 53 -10 90t-28 60t-43.5 33.5t-56.5 10.5t-56.5 -10.5t-43.5 -33.5t-27.5 -60
t-9.5 -90t10 -89.5t28 -59t43 -33t56 -10.5t56.5 10t43.5 33t28 59.5t10 89.5zM229 589l74 -73h-58l-86 73h70z" />
    <glyph glyph-name="Oacute" unicode="&#xd3;" horiz-adv-x="463" 
d="M423 233q0 -69 -16 -115t-42.5 -73.5t-61 -39.5t-72.5 -12t-72.5 12t-60.5 39.5t-42 73.5t-16 115t16 115.5t42 74.5t60.5 40t72.5 12t72.5 -12t61 -40t42.5 -74.5t16 -115.5zM369 233q0 53 -10 90t-28 60t-43.5 33.5t-56.5 10.5t-56.5 -10.5t-43.5 -33.5t-27.5 -60
t-9.5 -90t10 -89.5t28 -59t43 -33t56 -10.5t56.5 10t43.5 33t28 59.5t10 89.5zM303 589l-86 -73h-58l74 73h70z" />
    <glyph glyph-name="Ocircumflex" unicode="&#xd4;" horiz-adv-x="463" 
d="M423 233q0 -69 -16 -115t-42.5 -73.5t-61 -39.5t-72.5 -12t-72.5 12t-60.5 39.5t-42 73.5t-16 115t16 115.5t42 74.5t60.5 40t72.5 12t72.5 -12t61 -40t42.5 -74.5t16 -115.5zM369 233q0 53 -10 90t-28 60t-43.5 33.5t-56.5 10.5t-56.5 -10.5t-43.5 -33.5t-27.5 -60
t-9.5 -90t10 -89.5t28 -59t43 -33t56 -10.5t56.5 10t43.5 33t28 59.5t10 89.5zM138 516l67 72h54l66 -72h-56l-38 43l-37 -43h-56z" />
    <glyph glyph-name="Otilde" unicode="&#xd5;" horiz-adv-x="463" 
d="M423 233q0 -69 -16 -115t-42.5 -73.5t-61 -39.5t-72.5 -12t-72.5 12t-60.5 39.5t-42 73.5t-16 115t16 115.5t42 74.5t60.5 40t72.5 12t72.5 -12t61 -40t42.5 -74.5t16 -115.5zM369 233q0 53 -10 90t-28 60t-43.5 33.5t-56.5 10.5t-56.5 -10.5t-43.5 -33.5t-27.5 -60
t-9.5 -90t10 -89.5t28 -59t43 -33t56 -10.5t56.5 10t43.5 33t28 59.5t10 89.5zM331 588q-3 -35 -13.5 -54.5t-34.5 -19.5q-13 0 -26.5 6t-26.5 13t-24.5 13t-20.5 6q-10 0 -12 -10t-3 -26h-38q2 34 12.5 55t39.5 21q11 0 24 -6t26 -12.5t24 -12.5t18 -6q10 0 12.5 9t4.5 24
h38z" />
    <glyph glyph-name="Odieresis" unicode="&#xd6;" horiz-adv-x="463" 
d="M423 233q0 -69 -16 -115t-42.5 -73.5t-61 -39.5t-72.5 -12t-72.5 12t-60.5 39.5t-42 73.5t-16 115t16 115.5t42 74.5t60.5 40t72.5 12t72.5 -12t61 -40t42.5 -74.5t16 -115.5zM369 233q0 53 -10 90t-28 60t-43.5 33.5t-56.5 10.5t-56.5 -10.5t-43.5 -33.5t-27.5 -60
t-9.5 -90t10 -89.5t28 -59t43 -33t56 -10.5t56.5 10t43.5 33t28 59.5t10 89.5zM211 552q0 -14 -10.5 -24.5t-25.5 -10.5q-14 0 -25 10.5t-11 24.5q0 15 11 25.5t25 10.5q15 0 25.5 -10.5t10.5 -25.5zM324 552q0 -14 -10.5 -24.5t-25.5 -10.5q-14 0 -24.5 10.5t-10.5 24.5
q0 15 10.5 25.5t24.5 10.5q15 0 25.5 -10.5t10.5 -25.5z" />
    <glyph glyph-name="multiply" unicode="&#xd7;" horiz-adv-x="344" 
d="M289 73l-117 117l-117 -117l-32 31l118 118l-118 117l32 32l118 -118l117 118l31 -31l-117 -118l117 -117z" />
    <glyph glyph-name="Oslash" unicode="&#xd8;" horiz-adv-x="463" 
d="M103 39q-29 27 -46 74.5t-17 119.5q0 69 16 115.5t42 74.5t60.5 40t72.5 12q24 0 47.5 -4.5t43.5 -15.5l23 43h50l-37 -69q29 -28 47 -75.5t18 -120.5q0 -69 -16 -115t-42.5 -73.5t-61 -39.5t-72.5 -12q-52 0 -92 20l-22 -42h-49zM369 233q0 52 -9.5 88.5t-26.5 59.5
l-171 -324q29 -16 69 -16q31 0 56.5 10t43.5 33t28 59.5t10 89.5zM94 233q0 -51 9 -87t26 -59l170 324q-27 17 -68 17q-31 0 -56.5 -10.5t-43.5 -34t-27.5 -60.5t-9.5 -90z" />
    <glyph glyph-name="Ugrave" unicode="&#xd9;" horiz-adv-x="430" 
d="M380 159q0 -35 -9.5 -65.5t-30 -53t-51.5 -35t-74 -12.5q-48 0 -79.5 14t-50.5 37t-27 53t-8 62v308h53v-312q0 -50 26.5 -82t85.5 -32q60 0 86.5 32t26.5 82v312h52v-308zM209 589l74 -73h-58l-86 73h70z" />
    <glyph glyph-name="Uacute" unicode="&#xda;" horiz-adv-x="430" 
d="M380 159q0 -35 -9.5 -65.5t-30 -53t-51.5 -35t-74 -12.5q-48 0 -79.5 14t-50.5 37t-27 53t-8 62v308h53v-312q0 -50 26.5 -82t85.5 -32q60 0 86.5 32t26.5 82v312h52v-308zM287 589l-86 -73h-58l74 73h70z" />
    <glyph glyph-name="Ucircumflex" unicode="&#xdb;" horiz-adv-x="430" 
d="M380 159q0 -35 -9.5 -65.5t-30 -53t-51.5 -35t-74 -12.5q-48 0 -79.5 14t-50.5 37t-27 53t-8 62v308h53v-312q0 -50 26.5 -82t85.5 -32q60 0 86.5 32t26.5 82v312h52v-308zM121 516l67 72h54l66 -72h-56l-38 43l-37 -43h-56z" />
    <glyph glyph-name="Udieresis" unicode="&#xdc;" horiz-adv-x="430" 
d="M380 159q0 -35 -9.5 -65.5t-30 -53t-51.5 -35t-74 -12.5q-48 0 -79.5 14t-50.5 37t-27 53t-8 62v308h53v-312q0 -50 26.5 -82t85.5 -32q60 0 86.5 32t26.5 82v312h52v-308zM194 552q0 -14 -10.5 -24.5t-25.5 -10.5q-14 0 -25 10.5t-11 24.5q0 15 11 25.5t25 10.5
q15 0 25.5 -10.5t10.5 -25.5zM307 552q0 -14 -10.5 -24.5t-25.5 -10.5q-14 0 -24.5 10.5t-10.5 24.5q0 15 10.5 25.5t24.5 10.5q15 0 25.5 -10.5t10.5 -25.5z" />
    <glyph glyph-name="Yacute" unicode="&#xdd;" horiz-adv-x="379" 
d="M370 467l-154 -274v-193h-53v194l-154 273h62l120 -221l121 221h58zM263 589l-86 -73h-58l74 73h70z" />
    <glyph glyph-name="Thorn" unicode="&#xde;" horiz-adv-x="382" 
d="M350 230q0 -68 -35 -106.5t-99 -38.5h-110v-85h-53v467h53v-84h110q69 0 101.5 -41.5t32.5 -111.5zM297 230q0 58 -23 82.5t-56 24.5h-112v-206h112q32 0 55.5 22.5t23.5 76.5z" />
    <glyph glyph-name="germandbls" unicode="&#xdf;" horiz-adv-x="369" 
d="M335 97q0 -49 -30 -75.5t-84 -26.5q-29 0 -50.5 5.5t-36.5 10.5l12 45q13 -6 33.5 -12.5t41.5 -6.5q31 0 48.5 14.5t17.5 45.5q0 19 -9.5 32t-24 23t-31.5 19t-31.5 20t-24 26.5t-9.5 38.5q0 26 14.5 40.5t31.5 26t31.5 24t14.5 35.5q0 28 -21.5 42t-49.5 14
q-36 0 -59.5 -19t-23.5 -63v-356h-49v349q0 63 33 97t99 34q24 0 45.5 -6.5t38 -18.5t26 -30.5t9.5 -42.5q0 -29 -15 -47.5t-32.5 -31t-32.5 -23t-15 -23.5t10 -23t24.5 -20t32 -20.5t32 -24t24.5 -31t10 -41.5z" />
    <glyph glyph-name="agrave" unicode="&#xe0;" horiz-adv-x="327" 
d="M320 7q-22 -11 -47 -11q-24 0 -32.5 14t-8.5 32q-3 -5 -11 -13t-20.5 -15.5t-30.5 -13t-41 -5.5q-51 0 -75.5 29.5t-24.5 68.5q0 32 11.5 53t30.5 33t44 17t52 5q32 0 65 -3v29q0 41 -20.5 54t-63.5 13q-25 0 -50 -5.5t-46 -13.5l9 44q23 8 49 13t51 5q30 0 52.5 -5
t37.5 -18.5t22.5 -37t7.5 -60.5v-166q0 -18 16 -18q5 0 16 3zM232 158q-17 2 -29.5 2.5t-29.5 0.5q-41 0 -67 -12.5t-26 -52.5q0 -28 15.5 -44t47.5 -16q36 0 62.5 21t26.5 56v45zM161 454l74 -73h-58l-86 73h70z" />
    <glyph glyph-name="aacute" unicode="&#xe1;" horiz-adv-x="327" 
d="M320 7q-22 -11 -47 -11q-24 0 -32.5 14t-8.5 32q-3 -5 -11 -13t-20.5 -15.5t-30.5 -13t-41 -5.5q-51 0 -75.5 29.5t-24.5 68.5q0 32 11.5 53t30.5 33t44 17t52 5q32 0 65 -3v29q0 41 -20.5 54t-63.5 13q-25 0 -50 -5.5t-46 -13.5l9 44q23 8 49 13t51 5q30 0 52.5 -5
t37.5 -18.5t22.5 -37t7.5 -60.5v-166q0 -18 16 -18q5 0 16 3zM232 158q-17 2 -29.5 2.5t-29.5 0.5q-41 0 -67 -12.5t-26 -52.5q0 -28 15.5 -44t47.5 -16q36 0 62.5 21t26.5 56v45zM235 454l-86 -73h-58l74 73h70z" />
    <glyph glyph-name="acircumflex" unicode="&#xe2;" horiz-adv-x="327" 
d="M320 7q-22 -11 -47 -11q-24 0 -32.5 14t-8.5 32q-3 -5 -11 -13t-20.5 -15.5t-30.5 -13t-41 -5.5q-51 0 -75.5 29.5t-24.5 68.5q0 32 11.5 53t30.5 33t44 17t52 5q32 0 65 -3v29q0 41 -20.5 54t-63.5 13q-25 0 -50 -5.5t-46 -13.5l9 44q23 8 49 13t51 5q30 0 52.5 -5
t37.5 -18.5t22.5 -37t7.5 -60.5v-166q0 -18 16 -18q5 0 16 3zM232 158q-17 2 -29.5 2.5t-29.5 0.5q-41 0 -67 -12.5t-26 -52.5q0 -28 15.5 -44t47.5 -16q36 0 62.5 21t26.5 56v45zM70 381l67 72h54l66 -72h-56l-38 43l-37 -43h-56z" />
    <glyph glyph-name="atilde" unicode="&#xe3;" horiz-adv-x="327" 
d="M320 7q-22 -11 -47 -11q-24 0 -32.5 14t-8.5 32q-3 -5 -11 -13t-20.5 -15.5t-30.5 -13t-41 -5.5q-51 0 -75.5 29.5t-24.5 68.5q0 32 11.5 53t30.5 33t44 17t52 5q32 0 65 -3v29q0 41 -20.5 54t-63.5 13q-25 0 -50 -5.5t-46 -13.5l9 44q23 8 49 13t51 5q30 0 52.5 -5
t37.5 -18.5t22.5 -37t7.5 -60.5v-166q0 -18 16 -18q5 0 16 3zM232 158q-17 2 -29.5 2.5t-29.5 0.5q-41 0 -67 -12.5t-26 -52.5q0 -28 15.5 -44t47.5 -16q36 0 62.5 21t26.5 56v45zM263 453q-3 -35 -13.5 -54.5t-34.5 -19.5q-13 0 -26.5 6t-26.5 13t-24.5 13t-20.5 6
q-10 0 -12 -10t-3 -26h-38q2 34 12.5 55t39.5 21q11 0 24 -6t26 -12.5t24 -12.5t18 -6q10 0 12.5 9t4.5 24h38z" />
    <glyph glyph-name="adieresis" unicode="&#xe4;" horiz-adv-x="327" 
d="M320 7q-22 -11 -47 -11q-24 0 -32.5 14t-8.5 32q-3 -5 -11 -13t-20.5 -15.5t-30.5 -13t-41 -5.5q-51 0 -75.5 29.5t-24.5 68.5q0 32 11.5 53t30.5 33t44 17t52 5q32 0 65 -3v29q0 41 -20.5 54t-63.5 13q-25 0 -50 -5.5t-46 -13.5l9 44q23 8 49 13t51 5q30 0 52.5 -5
t37.5 -18.5t22.5 -37t7.5 -60.5v-166q0 -18 16 -18q5 0 16 3zM232 158q-17 2 -29.5 2.5t-29.5 0.5q-41 0 -67 -12.5t-26 -52.5q0 -28 15.5 -44t47.5 -16q36 0 62.5 21t26.5 56v45zM143 417q0 -14 -10.5 -24.5t-25.5 -10.5q-14 0 -25 10.5t-11 24.5q0 15 11 25.5t25 10.5
q15 0 25.5 -10.5t10.5 -25.5zM256 417q0 -14 -10.5 -24.5t-25.5 -10.5q-14 0 -24.5 10.5t-10.5 24.5q0 15 10.5 25.5t24.5 10.5q15 0 25.5 -10.5t10.5 -25.5z" />
    <glyph glyph-name="aring" unicode="&#xe5;" horiz-adv-x="327" 
d="M320 7q-22 -11 -47 -11q-24 0 -32.5 14t-8.5 32q-3 -5 -11 -13t-20.5 -15.5t-30.5 -13t-41 -5.5q-51 0 -75.5 29.5t-24.5 68.5q0 32 11.5 53t30.5 33t44 17t52 5q32 0 65 -3v29q0 41 -20.5 54t-63.5 13q-25 0 -50 -5.5t-46 -13.5l9 44q23 8 49 13t51 5q30 0 52.5 -5
t37.5 -18.5t22.5 -37t7.5 -60.5v-166q0 -18 16 -18q5 0 16 3zM232 158q-17 2 -29.5 2.5t-29.5 0.5q-41 0 -67 -12.5t-26 -52.5q0 -28 15.5 -44t47.5 -16q36 0 62.5 21t26.5 56v45zM163 403q11 0 18 7.5t7 18.5t-7 18t-18 7t-18 -7t-7 -18t7 -18.5t18 -7.5zM163 379
q-20 0 -35 13.5t-15 36.5t15 36t35 13t35 -13t15 -36t-15 -36.5t-35 -13.5z" />
    <glyph glyph-name="ae" unicode="&#xe6;" horiz-adv-x="537" 
d="M503 191q0 -10 -0.5 -20.5t-1.5 -19.5h-223q0 -65 27.5 -89t82.5 -24q16 0 28.5 1t24 2.5t24 4.5t28.5 8l-10 -44q-18 -6 -41 -10.5t-62 -4.5q-98 0 -130 65q-6 -10 -16 -21.5t-25 -21t-35.5 -16t-47.5 -6.5q-51 0 -75.5 29.5t-24.5 68.5q0 32 11.5 52.5t30.5 32t44 15.5
t52 4q16 0 32 -1.5t33 -3.5v35q0 41 -20.5 54t-63.5 13q-25 0 -50 -5.5t-46 -13.5l9 44q23 8 49 13t51 5q38 0 64.5 -10.5t40.5 -39.5q16 23 41.5 37t65.5 14q39 0 64.5 -13t41 -34t21.5 -47t6 -53zM458 191v10q0 39 -19.5 67.5t-68.5 28.5q-47 0 -68.5 -27.5t-23.5 -78.5
h180zM229 152q-17 2 -31 3.5t-28 1.5q-21 0 -38 -2t-29 -8.5t-19 -18.5t-7 -32q0 -28 15.5 -44t47.5 -16q36 0 59 18t34 50q-2 11 -3 24.5t-1 23.5z" />
    <glyph glyph-name="ccedilla" unicode="&#xe7;" horiz-adv-x="302" 
d="M273 279q-39 16 -77 16q-58 0 -84 -34t-26 -99q0 -59 25.5 -91.5t90.5 -32.5q21 0 38 4t37 12l-10 -44q-11 -5 -31 -10t-46 -5q-70 0 -112.5 42t-42.5 129q0 76 40 124t115 48q33 0 54 -4.5t38 -12.5zM212 -43l-73 -98h-50l59 98h64z" />
    <glyph glyph-name="egrave" unicode="&#xe8;" horiz-adv-x="346" 
d="M312 191q0 -10 -0.5 -20.5t-1.5 -19.5h-223q0 -65 27.5 -89t82.5 -24q16 0 28.5 1t24 2.5t24 4.5t28.5 8l-10 -44q-18 -6 -41 -10.5t-62 -4.5q-79 0 -115.5 40.5t-36.5 125.5q0 26 5.5 57t21 57.5t43 44.5t72.5 18q39 0 64.5 -13t41 -34t21.5 -47t6 -53zM267 191v10
q0 39 -19.5 67.5t-68.5 28.5q-47 0 -68.5 -27.5t-23.5 -78.5h180zM171 454l74 -73h-58l-86 73h70z" />
    <glyph glyph-name="eacute" unicode="&#xe9;" horiz-adv-x="346" 
d="M312 191q0 -10 -0.5 -20.5t-1.5 -19.5h-223q0 -65 27.5 -89t82.5 -24q16 0 28.5 1t24 2.5t24 4.5t28.5 8l-10 -44q-18 -6 -41 -10.5t-62 -4.5q-79 0 -115.5 40.5t-36.5 125.5q0 26 5.5 57t21 57.5t43 44.5t72.5 18q39 0 64.5 -13t41 -34t21.5 -47t6 -53zM267 191v10
q0 39 -19.5 67.5t-68.5 28.5q-47 0 -68.5 -27.5t-23.5 -78.5h180zM252 454l-86 -73h-58l74 73h70z" />
    <glyph glyph-name="ecircumflex" unicode="&#xea;" horiz-adv-x="346" 
d="M312 191q0 -10 -0.5 -20.5t-1.5 -19.5h-223q0 -65 27.5 -89t82.5 -24q16 0 28.5 1t24 2.5t24 4.5t28.5 8l-10 -44q-18 -6 -41 -10.5t-62 -4.5q-79 0 -115.5 40.5t-36.5 125.5q0 26 5.5 57t21 57.5t43 44.5t72.5 18q39 0 64.5 -13t41 -34t21.5 -47t6 -53zM267 191v10
q0 39 -19.5 67.5t-68.5 28.5q-47 0 -68.5 -27.5t-23.5 -78.5h180zM90 381l67 72h54l66 -72h-56l-38 43l-37 -43h-56z" />
    <glyph glyph-name="edieresis" unicode="&#xeb;" horiz-adv-x="346" 
d="M312 191q0 -10 -0.5 -20.5t-1.5 -19.5h-223q0 -65 27.5 -89t82.5 -24q16 0 28.5 1t24 2.5t24 4.5t28.5 8l-10 -44q-18 -6 -41 -10.5t-62 -4.5q-79 0 -115.5 40.5t-36.5 125.5q0 26 5.5 57t21 57.5t43 44.5t72.5 18q39 0 64.5 -13t41 -34t21.5 -47t6 -53zM267 191v10
q0 39 -19.5 67.5t-68.5 28.5q-47 0 -68.5 -27.5t-23.5 -78.5h180zM158 417q0 -14 -10.5 -24.5t-25.5 -10.5q-14 0 -25 10.5t-11 24.5q0 15 11 25.5t25 10.5q15 0 25.5 -10.5t10.5 -25.5zM271 417q0 -14 -10.5 -24.5t-25.5 -10.5q-14 0 -24.5 10.5t-10.5 24.5q0 15 10.5 25.5
t24.5 10.5q15 0 25.5 -10.5t10.5 -25.5z" />
    <glyph glyph-name="igrave" unicode="&#xec;" horiz-adv-x="146" 
d="M48 332h49v-283q0 -8 3 -13.5t12 -5.5q8 0 17 4l8 -28q-13 -6 -23 -8.5t-24 -2.5q-23 0 -32.5 12t-9.5 36v289zM71 454l74 -73h-58l-86 73h70z" />
    <glyph glyph-name="iacute" unicode="&#xed;" horiz-adv-x="146" 
d="M48 332h49v-283q0 -8 3 -13.5t12 -5.5q8 0 17 4l8 -28q-13 -6 -23 -8.5t-24 -2.5q-23 0 -32.5 12t-9.5 36v289zM145 454l-86 -73h-58l74 73h70z" />
    <glyph glyph-name="icircumflex" unicode="&#xee;" horiz-adv-x="146" 
d="M48 332h49v-283q0 -8 3 -13.5t12 -5.5q8 0 17 4l8 -28q-13 -6 -23 -8.5t-24 -2.5q-23 0 -32.5 12t-9.5 36v289zM-20 381l67 72h54l66 -72h-56l-38 43l-37 -43h-56z" />
    <glyph glyph-name="idieresis" unicode="&#xef;" horiz-adv-x="146" 
d="M48 332h49v-283q0 -8 3 -13.5t12 -5.5q8 0 17 4l8 -28q-13 -6 -23 -8.5t-24 -2.5q-23 0 -32.5 12t-9.5 36v289zM53 417q0 -14 -10.5 -24.5t-25.5 -10.5q-14 0 -25 10.5t-11 24.5q0 15 11 25.5t25 10.5q15 0 25.5 -10.5t10.5 -25.5zM166 417q0 -14 -10.5 -24.5
t-25.5 -10.5q-14 0 -24.5 10.5t-10.5 24.5q0 15 10.5 25.5t24.5 10.5q15 0 25.5 -10.5t10.5 -25.5z" />
    <glyph glyph-name="eth" unicode="&#xf0;" horiz-adv-x="386" 
d="M237 467q5 -8 9.5 -15t9.5 -17l72 24l11 -33l-66 -21q36 -65 55.5 -126.5t19.5 -116.5q0 -50 -13.5 -82.5t-36 -51t-51 -26t-58.5 -7.5q-29 0 -56.5 7.5t-48.5 26t-33.5 51t-12.5 82.5t12.5 83t33.5 52.5t48.5 27t56.5 7.5q26 0 48 -7t28 -12q-8 19 -16.5 38t-20.5 39
l-65 -22l-11 33l60 20q-17 30 -29 46h54zM280 263q-40 28 -91 28q-22 0 -40.5 -5.5t-32 -20t-21 -39.5t-7.5 -64t7.5 -63.5t21 -38.5t32 -19t40.5 -5t41.5 5t34.5 19t24 38.5t9 63.5q0 32 -6.5 61t-11.5 40z" />
    <glyph glyph-name="ntilde" unicode="&#xf1;" 
d="M262 233q0 33 -10 46.5t-37 13.5q-20 0 -38 -5.5t-33.5 -13.5t-28 -16.5t-20.5 -14.5v-243h-49v332h49v-46q25 20 56.5 36t66.5 16q52 0 72.5 -25t20.5 -81v-183q0 -8 3 -13.5t12 -5.5q8 0 17 4l8 -28q-13 -6 -23 -8.5t-24 -2.5q-23 0 -32.5 12t-9.5 36v190zM278 453
q-3 -35 -13.5 -54.5t-34.5 -19.5q-13 0 -26.5 6t-26.5 13t-24.5 13t-20.5 6q-10 0 -12 -10t-3 -26h-38q2 34 12.5 55t39.5 21q11 0 24 -6t26 -12.5t24 -12.5t18 -6q10 0 12.5 9t4.5 24h38z" />
    <glyph glyph-name="ograve" unicode="&#xf2;" horiz-adv-x="386" 
d="M193 37q22 0 41 5t33.5 19.5t22.5 39.5t8 64q0 40 -8 65.5t-22.5 40t-33.5 20t-41 5.5t-41 -5.5t-33.5 -20t-22.5 -40t-8 -65.5q0 -39 8 -64t22.5 -39.5t33.5 -19.5t41 -5zM193 -5q-30 0 -58 7.5t-49.5 27t-35 52t-13.5 83.5t13.5 84.5t35 53t49.5 27.5t58 8t58 -8
t49.5 -27.5t35 -53t13.5 -84.5t-13.5 -83.5t-35 -52t-49.5 -27t-58 -7.5zM191 454l74 -73h-58l-86 73h70z" />
    <glyph glyph-name="oacute" unicode="&#xf3;" horiz-adv-x="386" 
d="M193 37q22 0 41 5t33.5 19.5t22.5 39.5t8 64q0 40 -8 65.5t-22.5 40t-33.5 20t-41 5.5t-41 -5.5t-33.5 -20t-22.5 -40t-8 -65.5q0 -39 8 -64t22.5 -39.5t33.5 -19.5t41 -5zM193 -5q-30 0 -58 7.5t-49.5 27t-35 52t-13.5 83.5t13.5 84.5t35 53t49.5 27.5t58 8t58 -8
t49.5 -27.5t35 -53t13.5 -84.5t-13.5 -83.5t-35 -52t-49.5 -27t-58 -7.5zM265 454l-86 -73h-58l74 73h70z" />
    <glyph glyph-name="ocircumflex" unicode="&#xf4;" horiz-adv-x="386" 
d="M193 37q22 0 41 5t33.5 19.5t22.5 39.5t8 64q0 40 -8 65.5t-22.5 40t-33.5 20t-41 5.5t-41 -5.5t-33.5 -20t-22.5 -40t-8 -65.5q0 -39 8 -64t22.5 -39.5t33.5 -19.5t41 -5zM193 -5q-30 0 -58 7.5t-49.5 27t-35 52t-13.5 83.5t13.5 84.5t35 53t49.5 27.5t58 8t58 -8
t49.5 -27.5t35 -53t13.5 -84.5t-13.5 -83.5t-35 -52t-49.5 -27t-58 -7.5zM99 381l67 72h54l66 -72h-56l-38 43l-37 -43h-56z" />
    <glyph glyph-name="otilde" unicode="&#xf5;" horiz-adv-x="386" 
d="M193 37q22 0 41 5t33.5 19.5t22.5 39.5t8 64q0 40 -8 65.5t-22.5 40t-33.5 20t-41 5.5t-41 -5.5t-33.5 -20t-22.5 -40t-8 -65.5q0 -39 8 -64t22.5 -39.5t33.5 -19.5t41 -5zM193 -5q-30 0 -58 7.5t-49.5 27t-35 52t-13.5 83.5t13.5 84.5t35 53t49.5 27.5t58 8t58 -8
t49.5 -27.5t35 -53t13.5 -84.5t-13.5 -83.5t-35 -52t-49.5 -27t-58 -7.5zM292 453q-3 -35 -13.5 -54.5t-34.5 -19.5q-13 0 -26.5 6t-26.5 13t-24.5 13t-20.5 6q-10 0 -12 -10t-3 -26h-38q2 34 12.5 55t39.5 21q11 0 24 -6t26 -12.5t24 -12.5t18 -6q10 0 12.5 9t4.5 24h38z
" />
    <glyph glyph-name="odieresis" unicode="&#xf6;" horiz-adv-x="386" 
d="M193 37q22 0 41 5t33.5 19.5t22.5 39.5t8 64q0 40 -8 65.5t-22.5 40t-33.5 20t-41 5.5t-41 -5.5t-33.5 -20t-22.5 -40t-8 -65.5q0 -39 8 -64t22.5 -39.5t33.5 -19.5t41 -5zM193 -5q-30 0 -58 7.5t-49.5 27t-35 52t-13.5 83.5t13.5 84.5t35 53t49.5 27.5t58 8t58 -8
t49.5 -27.5t35 -53t13.5 -84.5t-13.5 -83.5t-35 -52t-49.5 -27t-58 -7.5zM172 417q0 -14 -10.5 -24.5t-25.5 -10.5q-14 0 -25 10.5t-11 24.5q0 15 11 25.5t25 10.5q15 0 25.5 -10.5t10.5 -25.5zM285 417q0 -14 -10.5 -24.5t-25.5 -10.5q-14 0 -24.5 10.5t-10.5 24.5
q0 15 10.5 25.5t24.5 10.5q15 0 25.5 -10.5t10.5 -25.5z" />
    <glyph glyph-name="divide" unicode="&#xf7;" horiz-adv-x="350" 
d="M212 93q0 -16 -10.5 -26.5t-26.5 -10.5q-15 0 -25.5 10.5t-10.5 26.5q0 15 10.5 25.5t25.5 10.5q16 0 26.5 -10.5t10.5 -25.5zM320 251v-47h-290v47h290zM212 363q0 -16 -10.5 -26.5t-26.5 -10.5q-15 0 -25.5 10.5t-10.5 26.5q0 15 10.5 25.5t25.5 10.5q16 0 26.5 -10.5
t10.5 -25.5z" />
    <glyph glyph-name="oslash" unicode="&#xf8;" horiz-adv-x="384" 
d="M316 356l-28 -52q26 -19 42.5 -53t16.5 -89q0 -50 -13.5 -82.5t-36 -51t-51 -26t-58.5 -7.5q-29 0 -58 8l-17 -32h-44l25 48q-26 18 -41.5 52t-15.5 91q0 50 12.5 83t33.5 52.5t48.5 27t56.5 7.5q17 0 33.5 -2.5t32.5 -8.5l18 35h44zM87 162q0 -39 7.5 -63.5t21.5 -38.5
l118 224q-20 7 -46 7q-22 0 -40.5 -5.5t-32 -20t-21 -39.5t-7.5 -64zM298 162q0 38 -8.5 62.5t-22.5 38.5l-117 -223q15 -4 38 -4q22 0 42 5t35 19t24 38.5t9 63.5z" />
    <glyph glyph-name="ugrave" unicode="&#xf9;" 
d="M262 332h49v-283q0 -8 3 -13.5t12 -5.5q8 0 17 4l8 -28q-13 -6 -23 -8.5t-24 -2.5q-23 0 -32.5 12.5t-9.5 38.5q-23 -20 -53.5 -36t-65.5 -16q-56 0 -76.5 24t-20.5 82v232h49v-233q0 -35 11 -47.5t40 -12.5q19 0 37 5.5t33 13.5t26.5 16.5t19.5 14.5v243zM177 454
l74 -73h-58l-86 73h70z" />
    <glyph glyph-name="uacute" unicode="&#xfa;" 
d="M262 332h49v-283q0 -8 3 -13.5t12 -5.5q8 0 17 4l8 -28q-13 -6 -23 -8.5t-24 -2.5q-23 0 -32.5 12.5t-9.5 38.5q-23 -20 -53.5 -36t-65.5 -16q-56 0 -76.5 24t-20.5 82v232h49v-233q0 -35 11 -47.5t40 -12.5q19 0 37 5.5t33 13.5t26.5 16.5t19.5 14.5v243zM251 454
l-86 -73h-58l74 73h70z" />
    <glyph glyph-name="ucircumflex" unicode="&#xfb;" 
d="M262 332h49v-283q0 -8 3 -13.5t12 -5.5q8 0 17 4l8 -28q-13 -6 -23 -8.5t-24 -2.5q-23 0 -32.5 12.5t-9.5 38.5q-23 -20 -53.5 -36t-65.5 -16q-56 0 -76.5 24t-20.5 82v232h49v-233q0 -35 11 -47.5t40 -12.5q19 0 37 5.5t33 13.5t26.5 16.5t19.5 14.5v243zM85 381l67 72
h54l66 -72h-56l-38 43l-37 -43h-56z" />
    <glyph glyph-name="udieresis" unicode="&#xfc;" 
d="M262 332h49v-283q0 -8 3 -13.5t12 -5.5q8 0 17 4l8 -28q-13 -6 -23 -8.5t-24 -2.5q-23 0 -32.5 12.5t-9.5 38.5q-23 -20 -53.5 -36t-65.5 -16q-56 0 -76.5 24t-20.5 82v232h49v-233q0 -35 11 -47.5t40 -12.5q19 0 37 5.5t33 13.5t26.5 16.5t19.5 14.5v243zM158 417
q0 -14 -10.5 -24.5t-25.5 -10.5q-14 0 -25 10.5t-11 24.5q0 15 11 25.5t25 10.5q15 0 25.5 -10.5t10.5 -25.5zM271 417q0 -14 -10.5 -24.5t-25.5 -10.5q-14 0 -24.5 10.5t-10.5 24.5q0 15 10.5 25.5t24.5 10.5q15 0 25.5 -10.5t10.5 -25.5z" />
    <glyph glyph-name="yacute" unicode="&#xfd;" horiz-adv-x="309" 
d="M300 332l-120 -344q-12 -34 -23.5 -57.5t-25.5 -38t-31.5 -21t-42.5 -6.5q-18 0 -34.5 4t-25.5 9l10 41q25 -11 55 -11t47 23t32 82l-128 319h53l98 -256l83 256h53zM236 454l-86 -73h-58l74 73h70z" />
    <glyph glyph-name="thorn" unicode="&#xfe;" horiz-adv-x="372" 
d="M335 171q0 -36 -8.5 -68t-26 -56t-44 -38t-63.5 -14q-32 0 -55.5 7.5t-42.5 19.5v-152h-49v597h49v-178q14 19 40.5 34t69.5 15q23 0 46.5 -7t42 -25.5t30 -51t11.5 -83.5zM284 167q0 68 -21.5 96.5t-67.5 28.5q-26 0 -45 -8.5t-31 -22t-18 -31t-6 -34.5v-126
q19 -15 41.5 -23t42.5 -8q25 0 44.5 6t33 21t20.5 39.5t7 61.5z" />
    <glyph glyph-name="ydieresis" unicode="&#xff;" horiz-adv-x="309" 
d="M300 332l-120 -344q-12 -34 -23.5 -57.5t-25.5 -38t-31.5 -21t-42.5 -6.5q-18 0 -34.5 4t-25.5 9l10 41q25 -11 55 -11t47 23t32 82l-128 319h53l98 -256l83 256h53zM141 417q0 -14 -10.5 -24.5t-25.5 -10.5q-14 0 -25 10.5t-11 24.5q0 15 11 25.5t25 10.5
q15 0 25.5 -10.5t10.5 -25.5zM254 417q0 -14 -10.5 -24.5t-25.5 -10.5q-14 0 -24.5 10.5t-10.5 24.5q0 15 10.5 25.5t24.5 10.5q15 0 25.5 -10.5t10.5 -25.5z" />
    <glyph glyph-name="Amacron" unicode="&#x100;" horiz-adv-x="406" 
d="M391 0h-59l-37 116h-184l-37 -116h-59l157 467h62zM125 160h156l-78 243zM283 533h-160v37h160v-37z" />
    <glyph glyph-name="amacron" unicode="&#x101;" horiz-adv-x="327" 
d="M320 7q-22 -11 -47 -11q-24 0 -32.5 14t-8.5 32q-3 -5 -11 -13t-20.5 -15.5t-30.5 -13t-41 -5.5q-51 0 -75.5 29.5t-24.5 68.5q0 32 11.5 53t30.5 33t44 17t52 5q32 0 65 -3v29q0 41 -20.5 54t-63.5 13q-25 0 -50 -5.5t-46 -13.5l9 44q23 8 49 13t51 5q30 0 52.5 -5
t37.5 -18.5t22.5 -37t7.5 -60.5v-166q0 -18 16 -18q5 0 16 3zM232 158q-17 2 -29.5 2.5t-29.5 0.5q-41 0 -67 -12.5t-26 -52.5q0 -28 15.5 -44t47.5 -16q36 0 62.5 21t26.5 56v45zM243 398h-160v37h160v-37z" />
    <glyph glyph-name="Abreve" unicode="&#x102;" horiz-adv-x="406" 
d="M391 0h-59l-37 116h-184l-37 -116h-59l157 467h62zM125 160h156l-78 243zM280 589q-2 -37 -23 -56t-55 -19q-35 0 -55 19t-22 56h39q1 -18 11 -30t27 -12q18 0 28 12t11 30h39z" />
    <glyph glyph-name="abreve" unicode="&#x103;" horiz-adv-x="327" 
d="M320 7q-22 -11 -47 -11q-24 0 -32.5 14t-8.5 32q-3 -5 -11 -13t-20.5 -15.5t-30.5 -13t-41 -5.5q-51 0 -75.5 29.5t-24.5 68.5q0 32 11.5 53t30.5 33t44 17t52 5q32 0 65 -3v29q0 41 -20.5 54t-63.5 13q-25 0 -50 -5.5t-46 -13.5l9 44q23 8 49 13t51 5q30 0 52.5 -5
t37.5 -18.5t22.5 -37t7.5 -60.5v-166q0 -18 16 -18q5 0 16 3zM232 158q-17 2 -29.5 2.5t-29.5 0.5q-41 0 -67 -12.5t-26 -52.5q0 -28 15.5 -44t47.5 -16q36 0 62.5 21t26.5 56v45zM241 454q-2 -37 -23 -56t-55 -19q-35 0 -55 19t-22 56h39q1 -18 11 -30t27 -12q18 0 28 12
t11 30h39z" />
    <glyph glyph-name="Aogonek" unicode="&#x104;" horiz-adv-x="406" 
d="M397 -128q-5 -2 -15 -3.5t-15 -1.5q-41 0 -58.5 18t-17.5 46q0 25 17.5 43t33.5 26h-10l-37 116h-184l-37 -116h-59l157 467h62l157 -467q-26 -11 -42.5 -30t-16.5 -39q0 -22 13 -27.5t28 -5.5q8 0 16 1t14 3zM125 160h156l-78 243z" />
    <glyph glyph-name="aogonek" unicode="&#x105;" horiz-adv-x="327" 
d="M314 -126q-5 -2 -15 -3.5t-15 -1.5q-41 0 -58.5 18t-17.5 46q0 23 15 40.5t31 26.5q-13 5 -17.5 16.5t-4.5 25.5q-3 -5 -11 -13t-20.5 -15.5t-30.5 -13t-41 -5.5q-51 0 -75.5 29.5t-24.5 68.5q0 32 11.5 53t30.5 33t44 17t52 5q32 0 65 -3v29q0 41 -20.5 54t-63.5 13
q-25 0 -50 -5.5t-46 -13.5l9 44q23 8 49 13t51 5q30 0 52.5 -5t37.5 -18.5t22.5 -37t7.5 -60.5v-166q0 -18 16 -18q5 0 16 3l7 -28q-5 -2 -9 -4t-9 -3q-23 -11 -38 -29.5t-15 -37.5q0 -22 13 -27.5t28 -5.5q8 0 16 1t14 3zM232 158q-17 2 -29.5 2.5t-29.5 0.5
q-41 0 -67 -12.5t-26 -52.5q0 -28 15.5 -44t47.5 -16q36 0 62.5 21t26.5 56v45z" />
    <glyph glyph-name="Cacute" unicode="&#x106;" horiz-adv-x="394" 
d="M357 8q-20 -7 -46 -11t-54 -4q-49 0 -89.5 15t-69.5 44.5t-45 73t-16 100.5q0 51 13 96.5t39.5 79t66.5 53t94 19.5q40 0 67.5 -6t51.5 -16l-10 -48q-26 11 -51.5 16.5t-52.5 5.5q-43 0 -74 -15t-51 -42t-29.5 -64t-9.5 -82q0 -59 19 -95t46 -55.5t56 -25.5t49 -6
q29 0 55 5.5t52 14.5zM319 589l-86 -73h-58l74 73h70z" />
    <glyph glyph-name="cacute" unicode="&#x107;" horiz-adv-x="302" 
d="M273 279q-39 16 -77 16q-58 0 -84 -34t-26 -99q0 -59 25.5 -91.5t90.5 -32.5q21 0 38 4t37 12l-10 -44q-11 -5 -31 -10t-46 -5q-70 0 -112.5 42t-42.5 129q0 76 40 124t115 48q33 0 54 -4.5t38 -12.5zM253 454l-86 -73h-58l74 73h70z" />
    <glyph glyph-name="Ccircumflex" unicode="&#x108;" horiz-adv-x="394" 
d="M357 8q-20 -7 -46 -11t-54 -4q-49 0 -89.5 15t-69.5 44.5t-45 73t-16 100.5q0 51 13 96.5t39.5 79t66.5 53t94 19.5q40 0 67.5 -6t51.5 -16l-10 -48q-26 11 -51.5 16.5t-52.5 5.5q-43 0 -74 -15t-51 -42t-29.5 -64t-9.5 -82q0 -59 19 -95t46 -55.5t56 -25.5t49 -6
q29 0 55 5.5t52 14.5zM141 516l67 72h54l66 -72h-56l-38 43l-37 -43h-56z" />
    <glyph glyph-name="ccircumflex" unicode="&#x109;" horiz-adv-x="302" 
d="M273 279q-39 16 -77 16q-58 0 -84 -34t-26 -99q0 -59 25.5 -91.5t90.5 -32.5q21 0 38 4t37 12l-10 -44q-11 -5 -31 -10t-46 -5q-70 0 -112.5 42t-42.5 129q0 76 40 124t115 48q33 0 54 -4.5t38 -12.5zM79 381l67 72h54l66 -72h-56l-38 43l-37 -43h-56z" />
    <glyph glyph-name="Cdotaccent" unicode="&#x10a;" horiz-adv-x="394" 
d="M357 8q-20 -7 -46 -11t-54 -4q-49 0 -89.5 15t-69.5 44.5t-45 73t-16 100.5q0 51 13 96.5t39.5 79t66.5 53t94 19.5q40 0 67.5 -6t51.5 -16l-10 -48q-26 11 -51.5 16.5t-52.5 5.5q-43 0 -74 -15t-51 -42t-29.5 -64t-9.5 -82q0 -59 19 -95t46 -55.5t56 -25.5t49 -6
q29 0 55 5.5t52 14.5zM282 552q0 -14 -10.5 -24.5t-24.5 -10.5t-25 10.5t-11 24.5q0 15 11 25.5t25 10.5t24.5 -10.5t10.5 -25.5z" />
    <glyph glyph-name="cdotaccent" unicode="&#x10b;" horiz-adv-x="302" 
d="M273 279q-39 16 -77 16q-58 0 -84 -34t-26 -99q0 -59 25.5 -91.5t90.5 -32.5q21 0 38 4t37 12l-10 -44q-11 -5 -31 -10t-46 -5q-70 0 -112.5 42t-42.5 129q0 76 40 124t115 48q33 0 54 -4.5t38 -12.5zM221 417q0 -14 -10.5 -24.5t-24.5 -10.5t-25 10.5t-11 24.5
q0 15 11 25.5t25 10.5t24.5 -10.5t10.5 -25.5z" />
    <glyph glyph-name="Ccaron" unicode="&#x10c;" horiz-adv-x="394" 
d="M357 8q-20 -7 -46 -11t-54 -4q-49 0 -89.5 15t-69.5 44.5t-45 73t-16 100.5q0 51 13 96.5t39.5 79t66.5 53t94 19.5q40 0 67.5 -6t51.5 -16l-10 -48q-26 11 -51.5 16.5t-52.5 5.5q-43 0 -74 -15t-51 -42t-29.5 -64t-9.5 -82q0 -59 19 -95t46 -55.5t56 -25.5t49 -6
q29 0 55 5.5t52 14.5zM338 589l-67 -73h-54l-66 73h56l38 -44l37 44h56z" />
    <glyph glyph-name="ccaron" unicode="&#x10d;" horiz-adv-x="302" 
d="M273 279q-39 16 -77 16q-58 0 -84 -34t-26 -99q0 -59 25.5 -91.5t90.5 -32.5q21 0 38 4t37 12l-10 -44q-11 -5 -31 -10t-46 -5q-70 0 -112.5 42t-42.5 129q0 76 40 124t115 48q33 0 54 -4.5t38 -12.5zM278 454l-67 -73h-54l-66 73h56l38 -44l37 44h56z" />
    <glyph glyph-name="Dcaron" unicode="&#x10e;" horiz-adv-x="440" 
d="M400 233q0 -69 -16.5 -114t-43 -71.5t-61 -37t-70.5 -10.5h-156v467h151q54 0 91 -16t60.5 -46t34 -73.5t10.5 -98.5zM346 233q0 57 -12 93.5t-30.5 57.5t-40.5 29t-42 8h-115v-375h115q24 0 46.5 9.5t40 31.5t28 57.5t10.5 88.5zM289 589l-67 -73h-54l-66 73h56l38 -44
l37 44h56z" />
    <glyph glyph-name="dcaron" unicode="&#x10f;" horiz-adv-x="445" 
d="M283 274q-20 8 -41 14.5t-50 6.5q-48 0 -73.5 -31.5t-25.5 -98.5q0 -72 23 -99.5t69 -27.5q26 0 44.5 8t30.5 20.5t17.5 29t5.5 34.5v144zM283 43q-13 -16 -38.5 -32.5t-71.5 -16.5q-24 0 -47 7t-42 25.5t-30.5 51.5t-11.5 84q0 85 39 130.5t104 45.5q38 0 60 -5.5
t38 -11.5v146h49v-418q0 -8 3 -13.5t12 -5.5q8 0 17 4l8 -28q-13 -6 -23 -8.5t-24 -2.5q-23 0 -32 13t-10 35zM445 434q0 -31 -18.5 -53.5t-46.5 -36.5l-8 21q14 11 22.5 21t8.5 21q0 6 -3.5 11l-7 10t-7 10.5t-3.5 12.5q0 10 7.5 18.5t23.5 8.5q14 0 23 -11.5t9 -32.5z" />
    <glyph glyph-name="Dcroat" unicode="&#x110;" horiz-adv-x="453" 
d="M413 233q0 -69 -16.5 -114t-43 -71.5t-61 -37t-70.5 -10.5h-156v210h-65v44h65v213h151q54 0 91 -16t60.5 -46t34 -73.5t10.5 -98.5zM359 233q0 57 -12 93.5t-30.5 57.5t-40.5 29t-42 8h-115v-167h81v-44h-81v-164h115q24 0 46.5 9.5t40 31.5t28 57.5t10.5 88.5z" />
    <glyph glyph-name="dcroat" unicode="&#x111;" horiz-adv-x="382" 
d="M362 372h-30v-323q0 -8 3 -13.5t12 -5.5q8 0 17 4l8 -28q-13 -6 -23 -8.5t-24 -2.5q-23 0 -32 13t-10 35q-13 -16 -38.5 -32.5t-71.5 -16.5q-24 0 -47 7t-42 25.5t-30.5 51.5t-11.5 84q0 85 39 130.5t104 45.5q38 0 60 -5.5t38 -11.5v51h-79v40h79v55h49v-55h30v-40z
M283 274q-20 8 -41 14.5t-50 6.5q-48 0 -73.5 -31.5t-25.5 -98.5q0 -72 23 -99.5t69 -27.5q26 0 44.5 8t30.5 20.5t17.5 29t5.5 34.5v144z" />
    <glyph glyph-name="Emacron" unicode="&#x112;" horiz-adv-x="351" 
d="M320 46l-9 -46h-258v467h267l-9 -46h-205v-165h187l-8 -46h-179v-164h214zM272 533h-160v37h160v-37z" />
    <glyph glyph-name="emacron" unicode="&#x113;" horiz-adv-x="346" 
d="M312 191q0 -10 -0.5 -20.5t-1.5 -19.5h-223q0 -65 27.5 -89t82.5 -24q16 0 28.5 1t24 2.5t24 4.5t28.5 8l-10 -44q-18 -6 -41 -10.5t-62 -4.5q-79 0 -115.5 40.5t-36.5 125.5q0 26 5.5 57t21 57.5t43 44.5t72.5 18q39 0 64.5 -13t41 -34t21.5 -47t6 -53zM267 191v10
q0 39 -19.5 67.5t-68.5 28.5q-47 0 -68.5 -27.5t-23.5 -78.5h180zM262 398h-160v37h160v-37z" />
    <glyph glyph-name="Ebreve" unicode="&#x114;" horiz-adv-x="351" 
d="M320 46l-9 -46h-258v467h267l-9 -46h-205v-165h187l-8 -46h-179v-164h214zM264 589q-2 -37 -23 -56t-55 -19q-35 0 -55 19t-22 56h39q1 -18 11 -30t27 -12q18 0 28 12t11 30h39z" />
    <glyph glyph-name="ebreve" unicode="&#x115;" horiz-adv-x="346" 
d="M312 191q0 -10 -0.5 -20.5t-1.5 -19.5h-223q0 -65 27.5 -89t82.5 -24q16 0 28.5 1t24 2.5t24 4.5t28.5 8l-10 -44q-18 -6 -41 -10.5t-62 -4.5q-79 0 -115.5 40.5t-36.5 125.5q0 26 5.5 57t21 57.5t43 44.5t72.5 18q39 0 64.5 -13t41 -34t21.5 -47t6 -53zM267 191v10
q0 39 -19.5 67.5t-68.5 28.5q-47 0 -68.5 -27.5t-23.5 -78.5h180zM260 454q-2 -37 -23 -56t-55 -19q-35 0 -55 19t-22 56h39q1 -18 11 -30t27 -12q18 0 28 12t11 30h39z" />
    <glyph glyph-name="Edotaccent" unicode="&#x116;" horiz-adv-x="351" 
d="M320 46l-9 -46h-258v467h267l-9 -46h-205v-165h187l-8 -46h-179v-164h214zM223 552q0 -14 -10.5 -24.5t-24.5 -10.5t-25 10.5t-11 24.5q0 15 11 25.5t25 10.5t24.5 -10.5t10.5 -25.5z" />
    <glyph glyph-name="edotaccent" unicode="&#x117;" horiz-adv-x="346" 
d="M312 191q0 -10 -0.5 -20.5t-1.5 -19.5h-223q0 -65 27.5 -89t82.5 -24q16 0 28.5 1t24 2.5t24 4.5t28.5 8l-10 -44q-18 -6 -41 -10.5t-62 -4.5q-79 0 -115.5 40.5t-36.5 125.5q0 26 5.5 57t21 57.5t43 44.5t72.5 18q39 0 64.5 -13t41 -34t21.5 -47t6 -53zM267 191v10
q0 39 -19.5 67.5t-68.5 28.5q-47 0 -68.5 -27.5t-23.5 -78.5h180zM220 417q0 -14 -10.5 -24.5t-24.5 -10.5t-25 10.5t-11 24.5q0 15 11 25.5t25 10.5t24.5 -10.5t10.5 -25.5z" />
    <glyph glyph-name="Eogonek" unicode="&#x118;" horiz-adv-x="351" 
d="M291 -128q-5 -2 -15 -3.5t-15 -1.5q-41 0 -58.5 18t-17.5 46q0 25 17.5 43t33.5 26h-183v467h267l-9 -46h-205v-165h187l-8 -46h-179v-164h214l-9 -46h-26q-26 -11 -42.5 -30t-16.5 -39q0 -22 13 -27.5t28 -5.5q8 0 16 1t14 3z" />
    <glyph glyph-name="eogonek" unicode="&#x119;" horiz-adv-x="346" 
d="M265 -127q-5 -2 -15 -3.5t-15 -1.5q-41 0 -58.5 18t-17.5 46q0 21 13 37t27 26h-10q-79 0 -115.5 40.5t-36.5 125.5q0 26 5.5 57t21 57.5t43 44.5t72.5 18q39 0 64.5 -13t41 -34t21.5 -47t6 -53q0 -10 -0.5 -20.5t-1.5 -19.5h-223q0 -65 27.5 -89t82.5 -24q16 0 28.5 1
t24 2.5t24 4.5t28.5 8l-10 -44q-15 -6 -33 -9q-26 -11 -42.5 -30t-16.5 -39q0 -22 13 -27.5t28 -5.5q8 0 16 1t14 3zM267 191v10q0 39 -19.5 67.5t-68.5 28.5q-47 0 -68.5 -27.5t-23.5 -78.5h180z" />
    <glyph glyph-name="Ecaron" unicode="&#x11a;" horiz-adv-x="351" 
d="M320 46l-9 -46h-258v467h267l-9 -46h-205v-165h187l-8 -46h-179v-164h214zM280 589l-67 -73h-54l-66 73h56l38 -44l37 44h56z" />
    <glyph glyph-name="ecaron" unicode="&#x11b;" horiz-adv-x="346" 
d="M312 191q0 -10 -0.5 -20.5t-1.5 -19.5h-223q0 -65 27.5 -89t82.5 -24q16 0 28.5 1t24 2.5t24 4.5t28.5 8l-10 -44q-18 -6 -41 -10.5t-62 -4.5q-79 0 -115.5 40.5t-36.5 125.5q0 26 5.5 57t21 57.5t43 44.5t72.5 18q39 0 64.5 -13t41 -34t21.5 -47t6 -53zM267 191v10
q0 39 -19.5 67.5t-68.5 28.5q-47 0 -68.5 -27.5t-23.5 -78.5h180zM275 454l-67 -73h-54l-66 73h56l38 -44l37 44h56z" />
    <glyph glyph-name="Gcircumflex" unicode="&#x11c;" horiz-adv-x="442" 
d="M263 41q21 0 40 3t40 9v157h-118l8 46h161v-241q-11 -4 -27 -8t-34.5 -7t-38 -5t-35.5 -2q-37 0 -76 11t-71 38t-52.5 71.5t-20.5 112.5q0 51 13 96.5t40 79t68.5 53t97.5 19.5q51 0 83 -8.5t43 -13.5l-8 -49q-25 10 -54 16.5t-65 6.5q-43 0 -74 -15t-51 -42t-29.5 -64
t-9.5 -82q0 -59 19 -95t46 -55.5t56 -25.5t49 -6zM155 516l67 72h54l66 -72h-56l-38 43l-37 -43h-56z" />
    <glyph glyph-name="gcircumflex" unicode="&#x11d;" horiz-adv-x="372" 
d="M326 15q0 -42 -7.5 -71t-25.5 -46.5t-47.5 -25t-72.5 -7.5q-33 0 -67.5 7t-63.5 21l11 47q26 -13 58.5 -21t60.5 -8q61 0 83 20.5t22 69.5v38q-14 -16 -37.5 -29.5t-67.5 -13.5q-63 0 -99 40.5t-36 132.5q0 48 11.5 80t32.5 52t49.5 28.5t61.5 8.5q40 0 75.5 -5.5
t58.5 -10.5v-307zM277 285q-14 3 -34 6t-44 3q-60 0 -86 -29t-26 -92q0 -70 23.5 -100.5t71.5 -30.5q33 0 52 11.5t28.5 27t12 32.5t2.5 29v143zM103 381l67 72h54l66 -72h-56l-38 43l-37 -43h-56z" />
    <glyph glyph-name="Gbreve" unicode="&#x11e;" horiz-adv-x="442" 
d="M263 41q21 0 40 3t40 9v157h-118l8 46h161v-241q-11 -4 -27 -8t-34.5 -7t-38 -5t-35.5 -2q-37 0 -76 11t-71 38t-52.5 71.5t-20.5 112.5q0 51 13 96.5t40 79t68.5 53t97.5 19.5q51 0 83 -8.5t43 -13.5l-8 -49q-25 10 -54 16.5t-65 6.5q-43 0 -74 -15t-51 -42t-29.5 -64
t-9.5 -82q0 -59 19 -95t46 -55.5t56 -25.5t49 -6zM326 589q-2 -37 -23 -56t-55 -19q-35 0 -55 19t-22 56h39q1 -18 11 -30t27 -12q18 0 28 12t11 30h39z" />
    <glyph glyph-name="gbreve" unicode="&#x11f;" horiz-adv-x="372" 
d="M326 15q0 -42 -7.5 -71t-25.5 -46.5t-47.5 -25t-72.5 -7.5q-33 0 -67.5 7t-63.5 21l11 47q26 -13 58.5 -21t60.5 -8q61 0 83 20.5t22 69.5v38q-14 -16 -37.5 -29.5t-67.5 -13.5q-63 0 -99 40.5t-36 132.5q0 48 11.5 80t32.5 52t49.5 28.5t61.5 8.5q40 0 75.5 -5.5
t58.5 -10.5v-307zM277 285q-14 3 -34 6t-44 3q-60 0 -86 -29t-26 -92q0 -70 23.5 -100.5t71.5 -30.5q33 0 52 11.5t28.5 27t12 32.5t2.5 29v143zM271 454q-2 -37 -23 -56t-55 -19q-35 0 -55 19t-22 56h39q1 -18 11 -30t27 -12q18 0 28 12t11 30h39z" />
    <glyph glyph-name="Gdotaccent" unicode="&#x120;" horiz-adv-x="442" 
d="M263 41q21 0 40 3t40 9v157h-118l8 46h161v-241q-11 -4 -27 -8t-34.5 -7t-38 -5t-35.5 -2q-37 0 -76 11t-71 38t-52.5 71.5t-20.5 112.5q0 51 13 96.5t40 79t68.5 53t97.5 19.5q51 0 83 -8.5t43 -13.5l-8 -49q-25 10 -54 16.5t-65 6.5q-43 0 -74 -15t-51 -42t-29.5 -64
t-9.5 -82q0 -59 19 -95t46 -55.5t56 -25.5t49 -6zM287 552q0 -14 -10.5 -24.5t-24.5 -10.5t-25 10.5t-11 24.5q0 15 11 25.5t25 10.5t24.5 -10.5t10.5 -25.5z" />
    <glyph glyph-name="gdotaccent" unicode="&#x121;" horiz-adv-x="372" 
d="M326 15q0 -42 -7.5 -71t-25.5 -46.5t-47.5 -25t-72.5 -7.5q-33 0 -67.5 7t-63.5 21l11 47q26 -13 58.5 -21t60.5 -8q61 0 83 20.5t22 69.5v38q-14 -16 -37.5 -29.5t-67.5 -13.5q-63 0 -99 40.5t-36 132.5q0 48 11.5 80t32.5 52t49.5 28.5t61.5 8.5q40 0 75.5 -5.5
t58.5 -10.5v-307zM277 285q-14 3 -34 6t-44 3q-60 0 -86 -29t-26 -92q0 -70 23.5 -100.5t71.5 -30.5q33 0 52 11.5t28.5 27t12 32.5t2.5 29v143zM225 417q0 -14 -10.5 -24.5t-24.5 -10.5t-25 10.5t-11 24.5q0 15 11 25.5t25 10.5t24.5 -10.5t10.5 -25.5z" />
    <glyph glyph-name="uni0122" unicode="&#x122;" horiz-adv-x="442" 
d="M263 41q21 0 40 3t40 9v157h-118l8 46h161v-241q-11 -4 -27 -8t-34.5 -7t-38 -5t-35.5 -2q-37 0 -76 11t-71 38t-52.5 71.5t-20.5 112.5q0 51 13 96.5t40 79t68.5 53t97.5 19.5q51 0 83 -8.5t43 -13.5l-8 -49q-25 10 -54 16.5t-65 6.5q-43 0 -74 -15t-51 -42t-29.5 -64
t-9.5 -82q0 -59 19 -95t46 -55.5t56 -25.5t49 -6zM284 -87q0 -31 -18.5 -53.5t-46.5 -36.5l-8 21q14 11 22.5 21t8.5 21q0 6 -3.5 11l-7 10t-7 10.5t-3.5 12.5q0 10 7.5 18.5t23.5 8.5q14 0 23 -11.5t9 -32.5z" />
    <glyph glyph-name="uni0123" unicode="&#x123;" horiz-adv-x="372" 
d="M326 15q0 -42 -7.5 -71t-25.5 -46.5t-47.5 -25t-72.5 -7.5q-33 0 -67.5 7t-63.5 21l11 47q26 -13 58.5 -21t60.5 -8q61 0 83 20.5t22 69.5v38q-14 -16 -37.5 -29.5t-67.5 -13.5q-63 0 -99 40.5t-36 132.5q0 48 11.5 80t32.5 52t49.5 28.5t61.5 8.5q40 0 75.5 -5.5
t58.5 -10.5v-307zM277 285q-14 3 -34 6t-44 3q-60 0 -86 -29t-26 -92q0 -70 23.5 -100.5t71.5 -30.5q33 0 52 11.5t28.5 27t12 32.5t2.5 29v143zM160.009 429.989q0 30.9961 18.498 53.4932q18.4971 22.498 46.4941 36.4961l7.99902 -20.998
q-13.998 -10.998 -22.4971 -20.9971t-8.49902 -20.9971q0 -6 3.49902 -10.999q3.5 -4.99902 7 -9.99902q3.49902 -4.99902 6.99902 -10.498q3.49902 -5.5 3.49902 -12.499q0 -9.99902 -7.49902 -18.4971q-7.49902 -8.49902 -23.4971 -8.49902q-13.998 0 -22.9971 11.498
q-8.99902 11.499 -8.99902 32.4961z" />
    <glyph glyph-name="Hcircumflex" unicode="&#x124;" horiz-adv-x="380" 
d="M78 256h225v211h52v-467h-52v210h-225v-210h-53v467h53v-211zM96 516l67 72h54l66 -72h-56l-38 43l-37 -43h-56z" />
    <glyph glyph-name="hcircumflex" unicode="&#x125;" 
d="M262 233q0 33 -10 46.5t-37 13.5q-20 0 -38 -5t-33.5 -12.5t-28 -15.5t-20.5 -14v-246h-49v467h49v-178q25 20 56.5 34.5t66.5 14.5q52 0 72.5 -25t20.5 -81v-183q0 -8 3 -13.5t12 -5.5q8 0 17 4l8 -28q-13 -6 -23 -8.5t-24 -2.5q-23 0 -32.5 12t-9.5 36v190zM-23 516
l67 72h54l66 -72h-56l-38 43l-37 -43h-56z" />
    <glyph glyph-name="Hbar" unicode="&#x126;" horiz-adv-x="436" 
d="M436 346h-53v-346h-52v210h-225v-210h-53v346h-53v46h53v75h53v-75h225v75h52v-75h53v-46zM331 256v90h-225v-90h225z" />
    <glyph glyph-name="hbar" unicode="&#x127;" 
d="M262 233q0 33 -10 46.5t-37 13.5q-20 0 -38 -5t-33.5 -12.5t-28 -15.5t-20.5 -14v-246h-49v372h-40v40h40v55h49v-55h79v-40h-79v-83q25 20 56.5 34.5t66.5 14.5q52 0 72.5 -25t20.5 -81v-183q0 -8 3 -13.5t12 -5.5q8 0 17 4l8 -28q-13 -6 -23 -8.5t-24 -2.5
q-23 0 -32.5 12t-9.5 36v190z" />
    <glyph glyph-name="Itilde" unicode="&#x128;" horiz-adv-x="163" 
d="M108 0h-53v467h53v-467zM181 588q-3 -35 -13.5 -54.5t-34.5 -19.5q-13 0 -26.5 6t-26.5 13t-24.5 13t-20.5 6q-10 0 -12 -10t-3 -26h-38q2 34 12.5 55t39.5 21q11 0 24 -6t26 -12.5t24 -12.5t18 -6q10 0 12.5 9t4.5 24h38z" />
    <glyph glyph-name="itilde" unicode="&#x129;" horiz-adv-x="146" 
d="M173 453q-3 -35 -13.5 -54.5t-34.5 -19.5q-13 0 -26.5 6t-26.5 13t-24.5 13t-20.5 6q-10 0 -12 -10t-3 -26h-38q2 34 12.5 55t39.5 21q11 0 24 -6t26 -12.5t24 -12.5t18 -6q10 0 12.5 9t4.5 24h38zM48 332h49v-283q0 -8 3 -13.5t12 -5.5q8 0 17 4l8 -28q-13 -6 -23 -8.5
t-24 -2.5q-23 0 -32.5 12t-9.5 36v289z" />
    <glyph glyph-name="Imacron" unicode="&#x12a;" horiz-adv-x="163" 
d="M108 0h-53v467h53v-467zM161 533h-160v37h160v-37z" />
    <glyph glyph-name="imacron" unicode="&#x12b;" horiz-adv-x="146" 
d="M153 398h-160v37h160v-37zM48 332h49v-283q0 -8 3 -13.5t12 -5.5q8 0 17 4l8 -28q-13 -6 -23 -8.5t-24 -2.5q-23 0 -32.5 12t-9.5 36v289z" />
    <glyph glyph-name="Ibreve" unicode="&#x12c;" horiz-adv-x="163" 
d="M108 0h-53v467h53v-467zM159 589q-2 -37 -23 -56t-55 -19q-35 0 -55 19t-22 56h39q1 -18 11 -30t27 -12q18 0 28 12t11 30h39z" />
    <glyph glyph-name="ibreve" unicode="&#x12d;" horiz-adv-x="146" 
d="M151 454q-2 -37 -23 -56t-55 -19q-35 0 -55 19t-22 56h39q1 -18 11 -30t27 -12q18 0 28 12t11 30h39zM48 332h49v-283q0 -8 3 -13.5t12 -5.5q8 0 17 4l8 -28q-13 -6 -23 -8.5t-24 -2.5q-23 0 -32.5 12t-9.5 36v289z" />
    <glyph glyph-name="Iogonek" unicode="&#x12e;" horiz-adv-x="163" 
d="M114 -128q-5 -2 -15 -3.5t-15 -1.5q-41 0 -58.5 18t-17.5 46q0 25 17.5 43t33.5 26h-4v467h53v-467q-26 -11 -42.5 -30t-16.5 -39q0 -22 13 -27.5t28 -5.5q8 0 16 1t14 3z" />
    <glyph glyph-name="iogonek" unicode="&#x12f;" horiz-adv-x="146" 
d="M131 -127q-5 -2 -15 -3.5t-15 -1.5q-41 0 -58.5 18t-17.5 46q0 23 15 40t30 26q-22 8 -22 45v289h49v-283q0 -8 3 -13.5t12 -5.5q8 0 17 4l8 -28q-12 -5 -24.5 -11.5t-23 -15t-17 -20t-6.5 -27.5q0 -22 13 -27.5t28 -5.5q8 0 16 1t14 3zM106 431q0 -14 -9.5 -23.5
t-23.5 -9.5t-24 9.5t-10 23.5t10 23.5t24 9.5t23.5 -9.5t9.5 -23.5z" />
    <glyph glyph-name="Idotaccent" unicode="&#x130;" horiz-adv-x="163" 
d="M108 0h-53v467h53v-467zM117 552q0 -14 -10.5 -24.5t-24.5 -10.5t-25 10.5t-11 24.5q0 15 11 25.5t25 10.5t24.5 -10.5t10.5 -25.5z" />
    <glyph glyph-name="dotlessi" unicode="&#x131;" horiz-adv-x="146" 
d="M48 332h49v-283q0 -8 3 -13.5t12 -5.5q8 0 17 4l8 -28q-13 -6 -23 -8.5t-24 -2.5q-23 0 -32.5 12t-9.5 36v289z" />
    <glyph glyph-name="Jcircumflex" unicode="&#x134;" horiz-adv-x="235" 
d="M184 108q0 -22 -4 -42.5t-15 -36.5t-31 -25.5t-53 -9.5q-15 0 -32.5 2t-29.5 4l-10 51q14 -4 31 -6.5t30 -2.5q35 0 48 12.5t13 44.5v322h-92l9 46h136v-359zM24 516l67 72h54l66 -72h-56l-38 43l-37 -43h-56z" />
    <glyph glyph-name="jcircumflex" unicode="&#x135;" horiz-adv-x="137" 
d="M-45 -82q9 -3 20.5 -5.5t23.5 -2.5q25 0 33.5 10t8.5 39v373h49v-362q0 -22 -2 -41t-10.5 -33.5t-25.5 -22.5t-46 -8q-16 0 -29 2.5t-31 8.5zM-28 382l67 72h54l66 -72h-56l-38 43l-37 -43h-56z" />
    <glyph glyph-name="uni0136" unicode="&#x136;" horiz-adv-x="407" 
d="M106 207l214 260h57l-137 -173l159 -294h-59l-137 251l-97 -112v-139h-53v467h53v-260zM240 -87q0 -31 -18.5 -53.5t-46.5 -36.5l-8 21q14 11 22.5 21t8.5 21q0 6 -3.5 11l-7 10t-7 10.5t-3.5 12.5q0 10 7.5 18.5t23.5 8.5q14 0 23 -11.5t9 -32.5z" />
    <glyph glyph-name="uni0137" unicode="&#x137;" horiz-adv-x="315" 
d="M313 0h-57l-109 175l-52 -51v-124h-49v467h49v-282l153 147h60l-127 -124zM194 -87q0 -31 -18.5 -53.5t-46.5 -36.5l-8 21q14 11 22.5 21t8.5 21q0 6 -3.5 11l-7 10t-7 10.5t-3.5 12.5q0 10 7.5 18.5t23.5 8.5q14 0 23 -11.5t9 -32.5z" />
    <glyph glyph-name="kgreenlandic" unicode="&#x138;" horiz-adv-x="315" 
d="M186 206l135 -206h-57l-114 169l-55 -57v-112h-49v332h49v-159l153 159h60z" />
    <glyph glyph-name="Lacute" unicode="&#x139;" horiz-adv-x="319" 
d="M298 46l-9 -46h-236v467h53v-421h192zM251 589l-86 -73h-58l74 73h70z" />
    <glyph glyph-name="lacute" unicode="&#x13a;" horiz-adv-x="145" 
d="M48 467h49v-418q0 -8 3 -13.5t12 -5.5q8 0 17 4l8 -28q-13 -6 -23 -8.5t-24 -2.5q-23 0 -32.5 12t-9.5 36v424zM144 589l-86 -73h-58l74 73h70z" />
    <glyph glyph-name="uni013B" unicode="&#x13b;" horiz-adv-x="319" 
d="M298 46l-9 -46h-236v467h53v-421h192zM211 -87q0 -31 -18.5 -53.5t-46.5 -36.5l-8 21q14 11 22.5 21t8.5 21q0 6 -3.5 11l-7 10t-7 10.5t-3.5 12.5q0 10 7.5 18.5t23.5 8.5q14 0 23 -11.5t9 -32.5z" />
    <glyph glyph-name="uni013C" unicode="&#x13c;" horiz-adv-x="145" 
d="M48 467h49v-418q0 -8 3 -13.5t12 -5.5q8 0 17 4l8 -28q-13 -6 -23 -8.5t-24 -2.5q-23 0 -32.5 12t-9.5 36v424zM119 -87q0 -31 -18.5 -53.5t-46.5 -36.5l-8 21q14 11 22.5 21t8.5 21q0 6 -3.5 11l-7 10t-7 10.5t-3.5 12.5q0 10 7.5 18.5t23.5 8.5q14 0 23 -11.5t9 -32.5z
" />
    <glyph glyph-name="Lcaron" unicode="&#x13d;" horiz-adv-x="319" 
d="M298 46l-9 -46h-236v467h53v-421h192zM224 428q0 -31 -18.5 -53.5t-46.5 -36.5l-8 21q14 11 22.5 21t8.5 21q0 6 -3.5 11l-7 10t-7 10.5t-3.5 12.5q0 10 7.5 18.5t23.5 8.5q14 0 23 -11.5t9 -32.5z" />
    <glyph glyph-name="lcaron" unicode="&#x13e;" horiz-adv-x="200" 
d="M48 467h49v-418q0 -8 3 -13.5t12 -5.5q8 0 17 4l8 -28q-13 -6 -23 -8.5t-24 -2.5q-23 0 -32.5 12t-9.5 36v424zM200 428q0 -31 -18.5 -53.5t-46.5 -36.5l-8 21q14 11 22.5 21t8.5 21q0 6 -3.5 11l-7 10t-7 10.5t-3.5 12.5q0 10 7.5 18.5t23.5 8.5q14 0 23 -11.5t9 -32.5z
" />
    <glyph glyph-name="Ldot" unicode="&#x13f;" horiz-adv-x="319" 
d="M298 46l-9 -46h-236v467h53v-421h192zM204 238q0 14 10.5 24.5t24.5 10.5t24.5 -10.5t10.5 -24.5t-10.5 -24.5t-24.5 -10.5t-24.5 10.5t-10.5 24.5z" />
    <glyph glyph-name="ldot" unicode="&#x140;" horiz-adv-x="219" 
d="M48 467h49v-418q0 -8 3 -13.5t12 -5.5q8 0 17 4l8 -28q-13 -6 -23 -8.5t-24 -2.5q-23 0 -32.5 12t-9.5 36v424zM147 247q0 14 10.5 24.5t24.5 10.5t24.5 -10.5t10.5 -24.5t-10.5 -24.5t-24.5 -10.5t-24.5 10.5t-10.5 24.5z" />
    <glyph glyph-name="Lslash" unicode="&#x141;" horiz-adv-x="334" 
d="M313 46l-9 -46h-236v213l-55 -42v52l55 42v202h53v-162l86 66v-52l-86 -66v-207h192z" />
    <glyph glyph-name="lslash" unicode="&#x142;" horiz-adv-x="176" 
d="M67 214l-48 -36v52l48 37v200h49v-163l49 38v-53l-49 -38v-202q0 -8 3 -13.5t12 -5.5q8 0 17 4l8 -28q-13 -6 -23 -8.5t-24 -2.5q-23 0 -32.5 12t-9.5 36v171z" />
    <glyph glyph-name="Nacute" unicode="&#x143;" horiz-adv-x="436" 
d="M383 0h-47l-230 361v-361h-53v467h47l230 -360v360h53v-467zM297 589l-86 -73h-58l74 73h70z" />
    <glyph glyph-name="nacute" unicode="&#x144;" 
d="M262 233q0 33 -10 46.5t-37 13.5q-20 0 -38 -5.5t-33.5 -13.5t-28 -16.5t-20.5 -14.5v-243h-49v332h49v-46q25 20 56.5 36t66.5 16q52 0 72.5 -25t20.5 -81v-183q0 -8 3 -13.5t12 -5.5q8 0 17 4l8 -28q-13 -6 -23 -8.5t-24 -2.5q-23 0 -32.5 12t-9.5 36v190zM257 454
l-86 -73h-58l74 73h70z" />
    <glyph glyph-name="uni0145" unicode="&#x145;" horiz-adv-x="436" 
d="M383 0h-47l-230 361v-361h-53v467h47l230 -360v360h53v-467zM254 -87q0 -31 -18.5 -53.5t-46.5 -36.5l-8 21q14 11 22.5 21t8.5 21q0 6 -3.5 11l-7 10t-7 10.5t-3.5 12.5q0 10 7.5 18.5t23.5 8.5q14 0 23 -11.5t9 -32.5z" />
    <glyph glyph-name="uni0146" unicode="&#x146;" 
d="M262 233q0 33 -10 46.5t-37 13.5q-20 0 -38 -5.5t-33.5 -13.5t-28 -16.5t-20.5 -14.5v-243h-49v332h49v-46q25 20 56.5 36t66.5 16q52 0 72.5 -25t20.5 -81v-183q0 -8 3 -13.5t12 -5.5q8 0 17 4l8 -28q-13 -6 -23 -8.5t-24 -2.5q-23 0 -32.5 12t-9.5 36v190zM215 -87
q0 -31 -18.5 -53.5t-46.5 -36.5l-8 21q14 11 22.5 21t8.5 21q0 6 -3.5 11l-7 10t-7 10.5t-3.5 12.5q0 10 7.5 18.5t23.5 8.5q14 0 23 -11.5t9 -32.5z" />
    <glyph glyph-name="Ncaron" unicode="&#x147;" horiz-adv-x="436" 
d="M383 0h-47l-230 361v-361h-53v467h47l230 -360v360h53v-467zM311 589l-67 -73h-54l-66 73h56l38 -44l37 44h56z" />
    <glyph glyph-name="ncaron" unicode="&#x148;" 
d="M262 233q0 33 -10 46.5t-37 13.5q-20 0 -38 -5.5t-33.5 -13.5t-28 -16.5t-20.5 -14.5v-243h-49v332h49v-46q25 20 56.5 36t66.5 16q52 0 72.5 -25t20.5 -81v-183q0 -8 3 -13.5t12 -5.5q8 0 17 4l8 -28q-13 -6 -23 -8.5t-24 -2.5q-23 0 -32.5 12t-9.5 36v190zM278 454
l-67 -73h-54l-66 73h56l38 -44l37 44h56z" />
    <glyph glyph-name="Eng" unicode="&#x14a;" horiz-adv-x="434" 
d="M269 -87q35 0 48 12.5t13 44.5v39l-224 352v-361h-53v467h47l230 -360v360h53v-488q0 -22 -4 -42.5t-15 -36.5t-31 -25.5t-53 -9.5q-15 0 -32.5 2t-29.5 4l-10 51q14 -4 31 -6.5t30 -2.5z" />
    <glyph glyph-name="eng" unicode="&#x14b;" 
d="M311 -30q0 -22 -2 -41t-10.5 -33.5t-25.5 -22.5t-46 -8q-16 0 -29 2.5t-31 8.5l9 42q9 -3 20.5 -5.5t23.5 -2.5q25 0 33.5 10t8.5 39v274q0 33 -10 46.5t-37 13.5q-20 0 -38 -5.5t-33.5 -13.5t-28 -16.5t-20.5 -14.5v-243h-49v332h49v-46q25 20 56.5 36t66.5 16
q52 0 72.5 -25t20.5 -81v-262z" />
    <glyph glyph-name="Omacron" unicode="&#x14c;" horiz-adv-x="463" 
d="M423 233q0 -69 -16 -115t-42.5 -73.5t-61 -39.5t-72.5 -12t-72.5 12t-60.5 39.5t-42 73.5t-16 115t16 115.5t42 74.5t60.5 40t72.5 12t72.5 -12t61 -40t42.5 -74.5t16 -115.5zM369 233q0 53 -10 90t-28 60t-43.5 33.5t-56.5 10.5t-56.5 -10.5t-43.5 -33.5t-27.5 -60
t-9.5 -90t10 -89.5t28 -59t43 -33t56 -10.5t56.5 10t43.5 33t28 59.5t10 89.5zM311 533h-160v37h160v-37z" />
    <glyph glyph-name="omacron" unicode="&#x14d;" horiz-adv-x="386" 
d="M193 37q22 0 41 5t33.5 19.5t22.5 39.5t8 64q0 40 -8 65.5t-22.5 40t-33.5 20t-41 5.5t-41 -5.5t-33.5 -20t-22.5 -40t-8 -65.5q0 -39 8 -64t22.5 -39.5t33.5 -19.5t41 -5zM193 -5q-30 0 -58 7.5t-49.5 27t-35 52t-13.5 83.5t13.5 84.5t35 53t49.5 27.5t58 8t58 -8
t49.5 -27.5t35 -53t13.5 -84.5t-13.5 -83.5t-35 -52t-49.5 -27t-58 -7.5zM273 398h-160v37h160v-37z" />
    <glyph glyph-name="Obreve" unicode="&#x14e;" horiz-adv-x="463" 
d="M423 233q0 -69 -16 -115t-42.5 -73.5t-61 -39.5t-72.5 -12t-72.5 12t-60.5 39.5t-42 73.5t-16 115t16 115.5t42 74.5t60.5 40t72.5 12t72.5 -12t61 -40t42.5 -74.5t16 -115.5zM369 233q0 53 -10 90t-28 60t-43.5 33.5t-56.5 10.5t-56.5 -10.5t-43.5 -33.5t-27.5 -60
t-9.5 -90t10 -89.5t28 -59t43 -33t56 -10.5t56.5 10t43.5 33t28 59.5t10 89.5zM309 589q-2 -37 -23 -56t-55 -19q-35 0 -55 19t-22 56h39q1 -18 11 -30t27 -12q18 0 28 12t11 30h39z" />
    <glyph glyph-name="obreve" unicode="&#x14f;" horiz-adv-x="386" 
d="M193 37q22 0 41 5t33.5 19.5t22.5 39.5t8 64q0 40 -8 65.5t-22.5 40t-33.5 20t-41 5.5t-41 -5.5t-33.5 -20t-22.5 -40t-8 -65.5q0 -39 8 -64t22.5 -39.5t33.5 -19.5t41 -5zM193 -5q-30 0 -58 7.5t-49.5 27t-35 52t-13.5 83.5t13.5 84.5t35 53t49.5 27.5t58 8t58 -8
t49.5 -27.5t35 -53t13.5 -84.5t-13.5 -83.5t-35 -52t-49.5 -27t-58 -7.5zM270 454q-2 -37 -23 -56t-55 -19q-35 0 -55 19t-22 56h39q1 -18 11 -30t27 -12q18 0 28 12t11 30h39z" />
    <glyph glyph-name="Ohungarumlaut" unicode="&#x150;" horiz-adv-x="463" 
d="M423 233q0 -69 -16 -115t-42.5 -73.5t-61 -39.5t-72.5 -12t-72.5 12t-60.5 39.5t-42 73.5t-16 115t16 115.5t42 74.5t60.5 40t72.5 12t72.5 -12t61 -40t42.5 -74.5t16 -115.5zM369 233q0 53 -10 90t-28 60t-43.5 33.5t-56.5 10.5t-56.5 -10.5t-43.5 -33.5t-27.5 -60
t-9.5 -90t10 -89.5t28 -59t43 -33t56 -10.5t56.5 10t43.5 33t28 59.5t10 89.5zM375 589l-86 -73h-58l74 73h70zM252 589l-86 -73h-58l74 73h70z" />
    <glyph glyph-name="ohungarumlaut" unicode="&#x151;" horiz-adv-x="386" 
d="M193 37q22 0 41 5t33.5 19.5t22.5 39.5t8 64q0 40 -8 65.5t-22.5 40t-33.5 20t-41 5.5t-41 -5.5t-33.5 -20t-22.5 -40t-8 -65.5q0 -39 8 -64t22.5 -39.5t33.5 -19.5t41 -5zM193 -5q-30 0 -58 7.5t-49.5 27t-35 52t-13.5 83.5t13.5 84.5t35 53t49.5 27.5t58 8t58 -8
t49.5 -27.5t35 -53t13.5 -84.5t-13.5 -83.5t-35 -52t-49.5 -27t-58 -7.5zM335 454l-86 -73h-58l74 73h70zM212 454l-86 -73h-58l74 73h70z" />
    <glyph glyph-name="OE" unicode="&#x152;" horiz-adv-x="666" 
d="M635 46l-9 -46h-257v51q-26 -32 -62 -45t-76 -13q-38 0 -72.5 12t-60.5 39.5t-42 73.5t-16 115t16 115.5t42 74.5t60.5 40t72.5 12q40 0 76 -13.5t62 -45.5v51h266l-9 -46h-205v-165h188l-9 -46h-179v-164h214zM369 233q0 53 -10 90t-28 60.5t-43.5 34t-56.5 10.5
t-56.5 -10.5t-43.5 -34t-27.5 -60.5t-9.5 -90t10 -89.5t28 -59t43 -33t56 -10.5t56.5 10t43.5 33t28 59.5t10 89.5z" />
    <glyph glyph-name="oe" unicode="&#x153;" horiz-adv-x="606" 
d="M193 -5q-30 0 -58 7.5t-49.5 27t-35 52t-13.5 83.5t13.5 84.5t35 53t49.5 27.5t58 8q38 0 73 -15t56 -52q14 29 42 48t75 19q39 0 64.5 -13t41 -34t21.5 -47t6 -53q0 -10 -0.5 -20.5t-1.5 -19.5h-223q0 -65 27.5 -89t82.5 -24q16 0 28.5 1t24 2.5t24 4.5t28.5 8l-10 -44
q-18 -6 -41 -10.5t-62 -4.5q-96 0 -129 61q-22 -34 -55.5 -47.5t-71.5 -13.5zM193 37q22 0 41 5t33.5 19.5t22.5 39.5t8 64q0 40 -8 65.5t-22.5 40t-33.5 20t-41 5.5t-41 -5.5t-33.5 -20t-22.5 -40t-8 -65.5q0 -39 8 -64t22.5 -39.5t33.5 -19.5t41 -5zM527 191v10
q0 39 -19.5 67.5t-68.5 28.5q-47 0 -68.5 -27.5t-23.5 -78.5h180z" />
    <glyph glyph-name="Racute" unicode="&#x154;" horiz-adv-x="391" 
d="M349 324q0 -51 -21.5 -85.5t-60.5 -48.5l98 -190h-60l-89 180h-110v-180h-53v467h158q66 0 102 -37t36 -106zM296 323q0 40 -20 69t-63 29h-107v-195h104q36 0 61 23t25 74zM267 589l-86 -73h-58l74 73h70z" />
    <glyph glyph-name="racute" unicode="&#x155;" horiz-adv-x="241" 
d="M95 287q12 20 32.5 35.5t48.5 15.5q20 0 32.5 -6t19.5 -11l-9 -41q-10 6 -22 10t-26 4t-26.5 -5t-22 -12.5t-17 -15.5t-10.5 -14v-247h-49v332h49v-45v0zM192 454l-86 -73h-58l74 73h70z" />
    <glyph glyph-name="uni0156" unicode="&#x156;" horiz-adv-x="391" 
d="M349 324q0 -51 -21.5 -85.5t-60.5 -48.5l98 -190h-60l-89 180h-110v-180h-53v467h158q66 0 102 -37t36 -106zM296 323q0 40 -20 69t-63 29h-107v-195h104q36 0 61 23t25 74zM232 -87q0 -31 -18.5 -53.5t-46.5 -36.5l-8 21q14 11 22.5 21t8.5 21q0 6 -3.5 11l-7 10
t-7 10.5t-3.5 12.5q0 10 7.5 18.5t23.5 8.5q14 0 23 -11.5t9 -32.5z" />
    <glyph glyph-name="uni0157" unicode="&#x157;" horiz-adv-x="241" 
d="M95 287q12 20 32.5 35.5t48.5 15.5q20 0 32.5 -6t19.5 -11l-9 -41q-10 6 -22 10t-26 4t-26.5 -5t-22 -12.5t-17 -15.5t-10.5 -14v-247h-49v332h49v-45v0zM103 -87q0 -31 -18.5 -53.5t-46.5 -36.5l-8 21q14 11 22.5 21t8.5 21q0 6 -3.5 11l-7 10t-7 10.5t-3.5 12.5
q0 10 7.5 18.5t23.5 8.5q14 0 23 -11.5t9 -32.5z" />
    <glyph glyph-name="Rcaron" unicode="&#x158;" horiz-adv-x="391" 
d="M349 324q0 -51 -21.5 -85.5t-60.5 -48.5l98 -190h-60l-89 180h-110v-180h-53v467h158q66 0 102 -37t36 -106zM296 323q0 40 -20 69t-63 29h-107v-195h104q36 0 61 23t25 74zM289 589l-67 -73h-54l-66 73h56l38 -44l37 44h56z" />
    <glyph glyph-name="rcaron" unicode="&#x159;" horiz-adv-x="241" 
d="M95 287q12 20 32.5 35.5t48.5 15.5q20 0 32.5 -6t19.5 -11l-9 -41q-10 6 -22 10t-26 4t-26.5 -5t-22 -12.5t-17 -15.5t-10.5 -14v-247h-49v332h49v-45v0zM214 454l-67 -73h-54l-66 73h56l38 -44l37 44h56z" />
    <glyph glyph-name="Sacute" unicode="&#x15a;" horiz-adv-x="335" 
d="M311 130q0 -34 -12 -59.5t-32.5 -43t-48.5 -26t-61 -8.5q-35 0 -67.5 6t-61.5 19l10 52q23 -13 54.5 -21t63.5 -8q15 0 33 3t33.5 12t25.5 25t10 42t-16.5 44t-42 32t-54.5 27t-54.5 29t-42 38.5t-16.5 55.5q0 63 41.5 94.5t111.5 31.5q32 0 61 -7t49 -16l-10 -49
q-21 11 -46 18t-56 7q-98 0 -98 -73q0 -23 16.5 -39t42 -29t54.5 -26t54.5 -30t42 -41t16.5 -60zM250 589l-86 -73h-58l74 73h70z" />
    <glyph glyph-name="sacute" unicode="&#x15b;" horiz-adv-x="292" 
d="M266 96q0 -43 -33 -72t-94 -29q-42 0 -67 5.5t-38 10.5l10 45q15 -6 40.5 -12.5t51.5 -6.5q38 0 59 12.5t21 41.5q0 17 -13 28.5t-32 20t-42 16.5t-42 19.5t-32 27.5t-13 42q0 47 34 70t86 23q28 0 51 -4.5t42 -12.5l-9 -43q-15 6 -38 11.5t-47 5.5q-26 0 -47.5 -8.5
t-21.5 -34.5q0 -16 13 -26.5t32 -19t42 -17t42 -20.5t32 -29.5t13 -43.5zM233 454l-86 -73h-58l74 73h70z" />
    <glyph glyph-name="Scircumflex" unicode="&#x15c;" horiz-adv-x="335" 
d="M311 130q0 -34 -12 -59.5t-32.5 -43t-48.5 -26t-61 -8.5q-35 0 -67.5 6t-61.5 19l10 52q23 -13 54.5 -21t63.5 -8q15 0 33 3t33.5 12t25.5 25t10 42t-16.5 44t-42 32t-54.5 27t-54.5 29t-42 38.5t-16.5 55.5q0 63 41.5 94.5t111.5 31.5q32 0 61 -7t49 -16l-10 -49
q-21 11 -46 18t-56 7q-98 0 -98 -73q0 -23 16.5 -39t42 -29t54.5 -26t54.5 -30t42 -41t16.5 -60zM83 516l67 72h54l66 -72h-56l-38 43l-37 -43h-56z" />
    <glyph glyph-name="scircumflex" unicode="&#x15d;" horiz-adv-x="292" 
d="M266 96q0 -43 -33 -72t-94 -29q-42 0 -67 5.5t-38 10.5l10 45q15 -6 40.5 -12.5t51.5 -6.5q38 0 59 12.5t21 41.5q0 17 -13 28.5t-32 20t-42 16.5t-42 19.5t-32 27.5t-13 42q0 47 34 70t86 23q28 0 51 -4.5t42 -12.5l-9 -43q-15 6 -38 11.5t-47 5.5q-26 0 -47.5 -8.5
t-21.5 -34.5q0 -16 13 -26.5t32 -19t42 -17t42 -20.5t32 -29.5t13 -43.5zM60 381l67 72h54l66 -72h-56l-38 43l-37 -43h-56z" />
    <glyph glyph-name="Scedilla" unicode="&#x15e;" horiz-adv-x="335" 
d="M311 130q0 -34 -12 -59.5t-32.5 -43t-48.5 -26t-61 -8.5q-35 0 -67.5 6t-61.5 19l10 52q23 -13 54.5 -21t63.5 -8q15 0 33 3t33.5 12t25.5 25t10 42t-16.5 44t-42 32t-54.5 27t-54.5 29t-42 38.5t-16.5 55.5q0 63 41.5 94.5t111.5 31.5q32 0 61 -7t49 -16l-10 -49
q-21 11 -46 18t-56 7q-98 0 -98 -73q0 -23 16.5 -39t42 -29t54.5 -26t54.5 -30t42 -41t16.5 -60zM199 -43l-73 -98h-50l59 98h64z" />
    <glyph glyph-name="scedilla" unicode="&#x15f;" horiz-adv-x="292" 
d="M266 96q0 -43 -33 -72t-94 -29q-42 0 -67 5.5t-38 10.5l10 45q15 -6 40.5 -12.5t51.5 -6.5q38 0 59 12.5t21 41.5q0 17 -13 28.5t-32 20t-42 16.5t-42 19.5t-32 27.5t-13 42q0 47 34 70t86 23q28 0 51 -4.5t42 -12.5l-9 -43q-15 6 -38 11.5t-47 5.5q-26 0 -47.5 -8.5
t-21.5 -34.5q0 -16 13 -26.5t32 -19t42 -17t42 -20.5t32 -29.5t13 -43.5zM187 -43l-73 -98h-50l59 98h64z" />
    <glyph glyph-name="Scaron" unicode="&#x160;" horiz-adv-x="335" 
d="M311 130q0 -34 -12 -59.5t-32.5 -43t-48.5 -26t-61 -8.5q-35 0 -67.5 6t-61.5 19l10 52q23 -13 54.5 -21t63.5 -8q15 0 33 3t33.5 12t25.5 25t10 42t-16.5 44t-42 32t-54.5 27t-54.5 29t-42 38.5t-16.5 55.5q0 63 41.5 94.5t111.5 31.5q32 0 61 -7t49 -16l-10 -49
q-21 11 -46 18t-56 7q-98 0 -98 -73q0 -23 16.5 -39t42 -29t54.5 -26t54.5 -30t42 -41t16.5 -60zM272 589l-67 -73h-54l-66 73h56l38 -44l37 44h56z" />
    <glyph glyph-name="scaron" unicode="&#x161;" horiz-adv-x="292" 
d="M266 96q0 -43 -33 -72t-94 -29q-42 0 -67 5.5t-38 10.5l10 45q15 -6 40.5 -12.5t51.5 -6.5q38 0 59 12.5t21 41.5q0 17 -13 28.5t-32 20t-42 16.5t-42 19.5t-32 27.5t-13 42q0 47 34 70t86 23q28 0 51 -4.5t42 -12.5l-9 -43q-15 6 -38 11.5t-47 5.5q-26 0 -47.5 -8.5
t-21.5 -34.5q0 -16 13 -26.5t32 -19t42 -17t42 -20.5t32 -29.5t13 -43.5zM249 454l-67 -73h-54l-66 73h56l38 -44l37 44h56z" />
    <glyph glyph-name="uni0162" unicode="&#x162;" horiz-adv-x="350" 
d="M328 467l-9 -46h-116v-421h-53v421h-120v46h298zM209 -87q0 -31 -18.5 -53.5t-46.5 -36.5l-8 21q14 11 22.5 21t8.5 21q0 6 -3.5 11l-7 10t-7 10.5t-3.5 12.5q0 10 7.5 18.5t23.5 8.5q14 0 23 -11.5t9 -32.5z" />
    <glyph glyph-name="uni0163" unicode="&#x163;" horiz-adv-x="207" 
d="M190 6q-16 -6 -28 -8.5t-26 -2.5q-23 0 -38 7t-23.5 19.5t-12 30t-3.5 38.5v202h-46l8 40h38v92l49 17v-109h74v-40h-74v-203q0 -29 7.5 -39t27.5 -10q19 0 38 8l9 -42v0zM146 -87q0 -31 -18.5 -53.5t-46.5 -36.5l-8 21q14 11 22.5 21t8.5 21q0 6 -3.5 11l-7 10t-7 10.5
t-3.5 12.5q0 10 7.5 18.5t23.5 8.5q14 0 23 -11.5t9 -32.5z" />
    <glyph glyph-name="Tcaron" unicode="&#x164;" horiz-adv-x="350" 
d="M328 467l-9 -46h-116v-421h-53v421h-120v46h298zM268 589l-67 -73h-54l-66 73h56l38 -44l37 44h56z" />
    <glyph glyph-name="tcaron" unicode="&#x165;" horiz-adv-x="217" 
d="M190 6q-16 -6 -28 -8.5t-26 -2.5q-23 0 -38 7t-23.5 19.5t-12 30t-3.5 38.5v202h-46l8 40h38v92l49 17v-109h74v-40h-74v-203q0 -29 7.5 -39t27.5 -10q19 0 38 8l9 -42v0zM200.052 434.16q0 -27.376 -16.4512 -49.9209t-41.3281 -34.6221l-7.22266 19.3242
q12.8398 8.85645 20.0625 20.5312q7.22168 11.6758 7.22168 20.5322q0 5.63574 -2.80859 10.0645t-6.41992 8.85742t-6.41992 9.25879q-2.80859 4.83203 -2.80859 11.2734q0 8.85645 6.82129 16.5059q6.82129 7.64844 20.4639 7.64844q12.0371 0 20.4629 -10.4668
q8.42676 -10.4668 8.42676 -28.9863z" />
    <glyph glyph-name="Tbar" unicode="&#x166;" horiz-adv-x="350" 
d="M328 467l-9 -46h-116v-154h121v-46h-121v-221h-53v221h-115v46h115v154h-120v46h298z" />
    <glyph glyph-name="tbar" unicode="&#x167;" horiz-adv-x="207" 
d="M190 6q-16 -6 -28 -8.5t-26 -2.5q-23 0 -38 7t-23.5 19.5t-12 30t-3.5 38.5v62h-42v40h42v100h-46l8 40h38v92l49 17v-109h74v-40h-74v-100h74v-40h-74v-63q0 -29 7.5 -39t27.5 -10q19 0 38 8l9 -42v0z" />
    <glyph glyph-name="Utilde" unicode="&#x168;" horiz-adv-x="430" 
d="M380 159q0 -35 -9.5 -65.5t-30 -53t-51.5 -35t-74 -12.5q-48 0 -79.5 14t-50.5 37t-27 53t-8 62v308h53v-312q0 -50 26.5 -82t85.5 -32q60 0 86.5 32t26.5 82v312h52v-308zM314 588q-3 -35 -13.5 -54.5t-34.5 -19.5q-13 0 -26.5 6t-26.5 13t-24.5 13t-20.5 6
q-10 0 -12 -10t-3 -26h-38q2 34 12.5 55t39.5 21q11 0 24 -6t26 -12.5t24 -12.5t18 -6q10 0 12.5 9t4.5 24h38z" />
    <glyph glyph-name="utilde" unicode="&#x169;" 
d="M262 332h49v-283q0 -8 3 -13.5t12 -5.5q8 0 17 4l8 -28q-13 -6 -23 -8.5t-24 -2.5q-23 0 -32.5 12.5t-9.5 38.5q-23 -20 -53.5 -36t-65.5 -16q-56 0 -76.5 24t-20.5 82v232h49v-233q0 -35 11 -47.5t40 -12.5q19 0 37 5.5t33 13.5t26.5 16.5t19.5 14.5v243zM278 453
q-3 -35 -13.5 -54.5t-34.5 -19.5q-13 0 -26.5 6t-26.5 13t-24.5 13t-20.5 6q-10 0 -12 -10t-3 -26h-38q2 34 12.5 55t39.5 21q11 0 24 -6t26 -12.5t24 -12.5t18 -6q10 0 12.5 9t4.5 24h38z" />
    <glyph glyph-name="Umacron" unicode="&#x16a;" horiz-adv-x="430" 
d="M380 159q0 -35 -9.5 -65.5t-30 -53t-51.5 -35t-74 -12.5q-48 0 -79.5 14t-50.5 37t-27 53t-8 62v308h53v-312q0 -50 26.5 -82t85.5 -32q60 0 86.5 32t26.5 82v312h52v-308zM295 533h-160v37h160v-37z" />
    <glyph glyph-name="umacron" unicode="&#x16b;" 
d="M262 332h49v-283q0 -8 3 -13.5t12 -5.5q8 0 17 4l8 -28q-13 -6 -23 -8.5t-24 -2.5q-23 0 -32.5 12.5t-9.5 38.5q-23 -20 -53.5 -36t-65.5 -16q-56 0 -76.5 24t-20.5 82v232h49v-233q0 -35 11 -47.5t40 -12.5q19 0 37 5.5t33 13.5t26.5 16.5t19.5 14.5v243zM259 398h-160
v37h160v-37z" />
    <glyph glyph-name="Ubreve" unicode="&#x16c;" horiz-adv-x="430" 
d="M380 159q0 -35 -9.5 -65.5t-30 -53t-51.5 -35t-74 -12.5q-48 0 -79.5 14t-50.5 37t-27 53t-8 62v308h53v-312q0 -50 26.5 -82t85.5 -32q60 0 86.5 32t26.5 82v312h52v-308zM292 589q-2 -37 -23 -56t-55 -19q-35 0 -55 19t-22 56h39q1 -18 11 -30t27 -12q18 0 28 12t11 30
h39z" />
    <glyph glyph-name="ubreve" unicode="&#x16d;" 
d="M262 332h49v-283q0 -8 3 -13.5t12 -5.5q8 0 17 4l8 -28q-13 -6 -23 -8.5t-24 -2.5q-23 0 -32.5 12.5t-9.5 38.5q-23 -20 -53.5 -36t-65.5 -16q-56 0 -76.5 24t-20.5 82v232h49v-233q0 -35 11 -47.5t40 -12.5q19 0 37 5.5t33 13.5t26.5 16.5t19.5 14.5v243zM256 454
q-2 -37 -23 -56t-55 -19q-35 0 -55 19t-22 56h39q1 -18 11 -30t27 -12q18 0 28 12t11 30h39z" />
    <glyph glyph-name="Uring" unicode="&#x16e;" horiz-adv-x="430" 
d="M380 159q0 -35 -9.5 -65.5t-30 -53t-51.5 -35t-74 -12.5q-48 0 -79.5 14t-50.5 37t-27 53t-8 62v308h53v-312q0 -50 26.5 -82t85.5 -32q60 0 86.5 32t26.5 82v312h52v-308zM215 538q11 0 18 7.5t7 18.5t-7 18t-18 7t-18 -7t-7 -18t7 -18.5t18 -7.5zM215 514
q-20 0 -35 13.5t-15 36.5t15 36t35 13t35 -13t15 -36t-15 -36.5t-35 -13.5z" />
    <glyph glyph-name="uring" unicode="&#x16f;" 
d="M262 332h49v-283q0 -8 3 -13.5t12 -5.5q8 0 17 4l8 -28q-13 -6 -23 -8.5t-24 -2.5q-23 0 -32.5 12.5t-9.5 38.5q-23 -20 -53.5 -36t-65.5 -16q-56 0 -76.5 24t-20.5 82v232h49v-233q0 -35 11 -47.5t40 -12.5q19 0 37 5.5t33 13.5t26.5 16.5t19.5 14.5v243zM179 403
q11 0 18 7.5t7 18.5t-7 18t-18 7t-18 -7t-7 -18t7 -18.5t18 -7.5zM179 379q-20 0 -35 13.5t-15 36.5t15 36t35 13t35 -13t15 -36t-15 -36.5t-35 -13.5z" />
    <glyph glyph-name="Uhungarumlaut" unicode="&#x170;" horiz-adv-x="430" 
d="M380 159q0 -35 -9.5 -65.5t-30 -53t-51.5 -35t-74 -12.5q-48 0 -79.5 14t-50.5 37t-27 53t-8 62v308h53v-312q0 -50 26.5 -82t85.5 -32q60 0 86.5 32t26.5 82v312h52v-308zM358 589l-86 -73h-58l74 73h70zM235 589l-86 -73h-58l74 73h70z" />
    <glyph glyph-name="uhungarumlaut" unicode="&#x171;" 
d="M262 332h49v-283q0 -8 3 -13.5t12 -5.5q8 0 17 4l8 -28q-13 -6 -23 -8.5t-24 -2.5q-23 0 -32.5 12.5t-9.5 38.5q-23 -20 -53.5 -36t-65.5 -16q-56 0 -76.5 24t-20.5 82v232h49v-233q0 -35 11 -47.5t40 -12.5q19 0 37 5.5t33 13.5t26.5 16.5t19.5 14.5v243zM320 454
l-86 -73h-58l74 73h70zM197 454l-86 -73h-58l74 73h70z" />
    <glyph glyph-name="Uogonek" unicode="&#x172;" horiz-adv-x="430" 
d="M254 -132q-5 -2 -15 -3.5t-15 -1.5q-41 0 -58.5 18t-17.5 46q0 23 15.5 40.5t30.5 26.5q-41 3 -69 17.5t-44.5 37t-23.5 51.5t-7 59v308h53v-312q0 -50 26.5 -82t85.5 -32q60 0 86.5 32t26.5 82v312h52v-308q0 -32 -8 -60t-24.5 -50t-42.5 -36t-61 -18q-24 -11 -39.5 -30
t-15.5 -38q0 -22 13 -27.5t28 -5.5q8 0 16 1t14 3z" />
    <glyph glyph-name="uogonek" unicode="&#x173;" 
d="M345 -127q-5 -2 -15 -3.5t-15 -1.5q-41 0 -58.5 18t-17.5 46q0 23 15 40t30 26q-22 8 -22 48q-23 -20 -53.5 -36t-65.5 -16q-56 0 -76.5 24t-20.5 82v232h49v-233q0 -35 11 -47.5t40 -12.5q19 0 37 5.5t33 13.5t26.5 16.5t19.5 14.5v243h49v-283q0 -8 3 -13.5t12 -5.5
q8 0 17 4l8 -28q-5 -2 -9 -4t-8 -3q-24 -11 -39 -29.5t-15 -37.5q0 -22 13 -27.5t28 -5.5q8 0 16 1t14 3z" />
    <glyph glyph-name="Wcircumflex" unicode="&#x174;" horiz-adv-x="597" 
d="M576 467l-122 -467h-65l-90 396l-91 -396h-65l-122 467h59l95 -405l89 405h69l89 -405l95 405h59zM205 516l67 72h54l66 -72h-56l-38 43l-37 -43h-56z" />
    <glyph glyph-name="wcircumflex" unicode="&#x175;" horiz-adv-x="457" 
d="M259 332l71 -270l62 270h52l-87 -332h-53l-75 277l-75 -277h-53l-88 332h52l63 -270l71 270h60zM135 381l67 72h54l66 -72h-56l-38 43l-37 -43h-56z" />
    <glyph glyph-name="Ycircumflex" unicode="&#x176;" horiz-adv-x="379" 
d="M370 467l-154 -274v-193h-53v194l-154 273h62l120 -221l121 221h58zM98 516l67 72h54l66 -72h-56l-38 43l-37 -43h-56z" />
    <glyph glyph-name="ycircumflex" unicode="&#x177;" horiz-adv-x="309" 
d="M300 332l-120 -344q-12 -34 -23.5 -57.5t-25.5 -38t-31.5 -21t-42.5 -6.5q-18 0 -34.5 4t-25.5 9l10 41q25 -11 55 -11t47 23t32 82l-128 319h53l98 -256l83 256h53zM67 381l67 72h54l66 -72h-56l-38 43l-37 -43h-56z" />
    <glyph glyph-name="Ydieresis" unicode="&#x178;" horiz-adv-x="379" 
d="M370 467l-154 -274v-193h-53v194l-154 273h62l120 -221l121 221h58zM171 552q0 -14 -10.5 -24.5t-25.5 -10.5q-14 0 -25 10.5t-11 24.5q0 15 11 25.5t25 10.5q15 0 25.5 -10.5t10.5 -25.5zM284 552q0 -14 -10.5 -24.5t-25.5 -10.5q-14 0 -24.5 10.5t-10.5 24.5
q0 15 10.5 25.5t24.5 10.5q15 0 25.5 -10.5t10.5 -25.5z" />
    <glyph glyph-name="Zacute" unicode="&#x179;" horiz-adv-x="370" 
d="M332 0h-301v31l227 390h-218l10 46h277v-31l-228 -390h233v-46zM257 589l-86 -73h-58l74 73h70z" />
    <glyph glyph-name="zacute" unicode="&#x17a;" horiz-adv-x="277" 
d="M260 0h-226v30l162 262h-153l9 40h208v-28l-166 -264h166v-40zM233 454l-86 -73h-58l74 73h70z" />
    <glyph glyph-name="Zdotaccent" unicode="&#x17b;" horiz-adv-x="370" 
d="M332 0h-301v31l227 390h-218l10 46h277v-31l-228 -390h233v-46zM220 552q0 -14 -10.5 -24.5t-24.5 -10.5t-25 10.5t-11 24.5q0 15 11 25.5t25 10.5t24.5 -10.5t10.5 -25.5z" />
    <glyph glyph-name="zdotaccent" unicode="&#x17c;" horiz-adv-x="277" 
d="M260 0h-226v30l162 262h-153l9 40h208v-28l-166 -264h166v-40zM190 417q0 -14 -10.5 -24.5t-24.5 -10.5t-25 10.5t-11 24.5q0 15 11 25.5t25 10.5t24.5 -10.5t10.5 -25.5z" />
    <glyph glyph-name="Zcaron" unicode="&#x17d;" horiz-adv-x="370" 
d="M332 0h-301v31l227 390h-218l10 46h277v-31l-228 -390h233v-46zM278 589l-67 -73h-54l-66 73h56l38 -44l37 44h56z" />
    <glyph glyph-name="zcaron" unicode="&#x17e;" horiz-adv-x="277" 
d="M260 0h-226v30l162 262h-153l9 40h208v-28l-166 -264h166v-40zM249 454l-67 -73h-54l-66 73h56l38 -44l37 44h56z" />
    <glyph glyph-name="florin" unicode="&#x192;" horiz-adv-x="271" 
d="M-21 -84q9 -3 19 -3q34 0 56.5 24.5t26.5 78.5l14 202h-49l7 40h44l4 70q3 46 11 75t22 45t34 21.5t47 5.5q17 0 29.5 -3.5t23.5 -8.5l-9 -43q-11 5 -22 8.5t-26 3.5q-16 0 -27 -4t-18 -15.5t-11 -30.5t-5 -49l-4 -75h64v-40h-67l-13 -203q-5 -66 -38 -104t-94 -39
q-8 0 -13.5 0.5t-12.5 1.5z" />
    <glyph glyph-name="AEacute" unicode="&#x1fc;" horiz-adv-x="596" 
d="M565 46l-9 -46h-257v123h-157l-64 -123h-59l250 467h296l-9 -46h-205v-165h188l-9 -46h-179v-164h214zM299 167v256l-134 -256h134zM504 589l-86 -73h-58l74 73h70z" />
    <glyph glyph-name="aeacute" unicode="&#x1fd;" horiz-adv-x="540" 
d="M506 191q0 -10 -0.5 -20.5t-1.5 -19.5h-223q0 -65 27.5 -89t82.5 -24q16 0 28.5 1t24 2.5t24 4.5t28.5 8l-10 -44q-18 -6 -41 -10.5t-62 -4.5q-98 0 -130 65q-6 -10 -16 -21.5t-25 -21t-35.5 -16t-47.5 -6.5q-51 0 -75.5 29.5t-24.5 68.5q0 32 11.5 52.5t30.5 32t44 15.5
t52 4q16 0 32 -1.5t33 -3.5v35q0 41 -20.5 54t-63.5 13q-25 0 -50 -5.5t-46 -13.5l9 44q23 8 49 13t51 5q38 0 64.5 -10.5t40.5 -39.5q16 23 41.5 37t65.5 14q39 0 64.5 -13t41 -34t21.5 -47t6 -53zM461 191v10q0 39 -19.5 67.5t-68.5 28.5q-47 0 -68.5 -27.5t-23.5 -78.5
h180zM232 152q-17 2 -31 3.5t-28 1.5q-21 0 -38 -2t-29 -8.5t-19 -18.5t-7 -32q0 -28 15.5 -44t47.5 -16q36 0 59 18t34 50q-2 11 -3 24.5t-1 23.5zM350 454l-86 -73h-58l74 73h70z" />
    <glyph glyph-name="Oslashacute" unicode="&#x1fe;" horiz-adv-x="463" 
d="M103 39q-29 27 -46 74.5t-17 119.5q0 69 16 115.5t42 74.5t60.5 40t72.5 12q24 0 47.5 -4.5t43.5 -15.5l23 43h50l-37 -69q29 -28 47 -75.5t18 -120.5q0 -69 -16 -115t-42.5 -73.5t-61 -39.5t-72.5 -12q-52 0 -92 20l-22 -42h-49zM369 233q0 52 -9.5 88.5t-26.5 59.5
l-171 -324q29 -16 69 -16q31 0 56.5 10t43.5 33t28 59.5t10 89.5zM94 233q0 -51 9 -87t26 -59l170 324q-27 17 -68 17q-31 0 -56.5 -10.5t-43.5 -34t-27.5 -60.5t-9.5 -90zM314 589l-86 -73h-58l74 73h70z" />
    <glyph glyph-name="oslashacute" unicode="&#x1ff;" horiz-adv-x="384" 
d="M316 356l-28 -52q26 -19 42.5 -53t16.5 -89q0 -50 -13.5 -82.5t-36 -51t-51 -26t-58.5 -7.5q-29 0 -58 8l-17 -32h-44l25 48q-26 18 -41.5 52t-15.5 91q0 50 12.5 83t33.5 52.5t48.5 27t56.5 7.5q17 0 33.5 -2.5t32.5 -8.5l18 35h44zM87 162q0 -39 7.5 -63.5t21.5 -38.5
l118 224q-20 7 -46 7q-22 0 -40.5 -5.5t-32 -20t-21 -39.5t-7.5 -64zM298 162q0 38 -8.5 62.5t-22.5 38.5l-117 -223q15 -4 38 -4q22 0 42 5t35 19t24 38.5t9 63.5zM274 454l-86 -73h-58l74 73h70z" />
    <glyph glyph-name="uni0218" unicode="&#x218;" horiz-adv-x="335" 
d="M311 130q0 -34 -12 -59.5t-32.5 -43t-48.5 -26t-61 -8.5q-35 0 -67.5 6t-61.5 19l10 52q23 -13 54.5 -21t63.5 -8q15 0 33 3t33.5 12t25.5 25t10 42t-16.5 44t-42 32t-54.5 27t-54.5 29t-42 38.5t-16.5 55.5q0 63 41.5 94.5t111.5 31.5q32 0 61 -7t49 -16l-10 -49
q-21 11 -46 18t-56 7q-98 0 -98 -73q0 -23 16.5 -39t42 -29t54.5 -26t54.5 -30t42 -41t16.5 -60zM203 -87q0 -31 -18.5 -53.5t-46.5 -36.5l-8 21q14 11 22.5 21t8.5 21q0 6 -3.5 11l-7 10t-7 10.5t-3.5 12.5q0 10 7.5 18.5t23.5 8.5q14 0 23 -11.5t9 -32.5z" />
    <glyph glyph-name="uni0219" unicode="&#x219;" horiz-adv-x="292" 
d="M266 96q0 -43 -33 -72t-94 -29q-42 0 -67 5.5t-38 10.5l10 45q15 -6 40.5 -12.5t51.5 -6.5q38 0 59 12.5t21 41.5q0 17 -13 28.5t-32 20t-42 16.5t-42 19.5t-32 27.5t-13 42q0 47 34 70t86 23q28 0 51 -4.5t42 -12.5l-9 -43q-15 6 -38 11.5t-47 5.5q-26 0 -47.5 -8.5
t-21.5 -34.5q0 -16 13 -26.5t32 -19t42 -17t42 -20.5t32 -29.5t13 -43.5zM182 -87q0 -31 -18.5 -53.5t-46.5 -36.5l-8 21q14 11 22.5 21t8.5 21q0 6 -3.5 11l-7 10t-7 10.5t-3.5 12.5q0 10 7.5 18.5t23.5 8.5q14 0 23 -11.5t9 -32.5z" />
    <glyph glyph-name="uni021A" unicode="&#x21a;" horiz-adv-x="350" 
d="M328 467l-9 -46h-116v-421h-53v421h-120v46h298zM209 -87q0 -31 -18.5 -53.5t-46.5 -36.5l-8 21q14 11 22.5 21t8.5 21q0 6 -3.5 11l-7 10t-7 10.5t-3.5 12.5q0 10 7.5 18.5t23.5 8.5q14 0 23 -11.5t9 -32.5z" />
    <glyph glyph-name="uni021B" unicode="&#x21b;" horiz-adv-x="207" 
d="M190 6q-16 -6 -28 -8.5t-26 -2.5q-23 0 -38 7t-23.5 19.5t-12 30t-3.5 38.5v202h-46l8 40h38v92l49 17v-109h74v-40h-74v-203q0 -29 7.5 -39t27.5 -10q19 0 38 8l9 -42v0zM146 -87q0 -31 -18.5 -53.5t-46.5 -36.5l-8 21q14 11 22.5 21t8.5 21q0 6 -3.5 11l-7 10t-7 10.5
t-3.5 12.5q0 10 7.5 18.5t23.5 8.5q14 0 23 -11.5t9 -32.5z" />
    <glyph glyph-name="circumflex" unicode="&#x2c6;" horiz-adv-x="187" 
d="M0 381l67 72h54l66 -72h-56l-38 43l-37 -43h-56z" />
    <glyph glyph-name="caron" unicode="&#x2c7;" horiz-adv-x="187" 
d="M187 454l-67 -73h-54l-66 73h56l38 -44l37 44h56z" />
    <glyph glyph-name="uni02C9" unicode="&#x2c9;" horiz-adv-x="160" 
d="M160 398h-160v37h160v-37z" />
    <glyph glyph-name="breve" unicode="&#x2d8;" horiz-adv-x="155" 
d="M155 454q-2 -37 -23 -56t-55 -19q-35 0 -55 19t-22 56h39q1 -18 11 -30t27 -12q18 0 28 12t11 30h39z" />
    <glyph glyph-name="dotaccent" unicode="&#x2d9;" horiz-adv-x="71" 
d="M71 417q0 -14 -10.5 -24.5t-24.5 -10.5t-25 10.5t-11 24.5q0 15 11 25.5t25 10.5t24.5 -10.5t10.5 -25.5z" />
    <glyph glyph-name="ring" unicode="&#x2da;" horiz-adv-x="100" 
d="M50 403q11 0 18 7.5t7 18.5t-7 18t-18 7t-18 -7t-7 -18t7 -18.5t18 -7.5zM50 379q-20 0 -35 13.5t-15 36.5t15 36t35 13t35 -13t15 -36t-15 -36.5t-35 -13.5z" />
    <glyph glyph-name="ogonek" unicode="&#x2db;" horiz-adv-x="112" 
d="M106 -118q-5 -2 -15 -3.5t-15 -1.5q-41 0 -58.5 18t-17.5 46q0 25 17.5 43t33.5 26h49q-26 -11 -42.5 -30t-16.5 -39q0 -22 13 -27.5t28 -5.5q8 0 16 1t14 3z" />
    <glyph glyph-name="tilde" unicode="&#x2dc;" horiz-adv-x="199" 
d="M199 453q-3 -35 -13.5 -54.5t-34.5 -19.5q-13 0 -26.5 6t-26.5 13t-24.5 13t-20.5 6q-10 0 -12 -10t-3 -26h-38q2 34 12.5 55t39.5 21q11 0 24 -6t26 -12.5t24 -12.5t18 -6q10 0 12.5 9t4.5 24h38z" />
    <glyph glyph-name="hungarumlaut" unicode="&#x2dd;" horiz-adv-x="267" 
d="M267 454l-86 -73h-58l74 73h70zM144 454l-86 -73h-58l74 73h70z" />
    <glyph glyph-name="uni03A9" unicode="&#x3a9;" horiz-adv-x="488" 
d="M297 0v41q16 14 34.5 34t34 47t25.5 61.5t10 79.5q0 41 -10 76t-29.5 60.5t-48.5 40t-67 14.5q-36 0 -65 -14t-50 -39.5t-32.5 -60.5t-11.5 -76q0 -44 10 -78.5t25 -61.5t33.5 -47.5t36.5 -35.5v-41h-156v41h105q-16 13 -34.5 33.5t-34.5 48.5t-26.5 64.5t-10.5 81.5
q0 49 15 91t43 72.5t67 48t86 17.5q49 0 88 -17t65 -47t40 -71.5t14 -91.5q0 -41 -9.5 -76t-25 -64.5t-34.5 -52t-38 -37.5h107v-41h-156z" />
    <glyph glyph-name="uni03BC" unicode="&#x3bc;" 
d="M262 332h49v-283q0 -8 3 -13.5t12 -5.5q8 0 17 4l8 -28q-13 -6 -23 -8.5t-24 -2.5q-23 0 -32.5 12.5t-9.5 38.5q-23 -20 -53.5 -36t-65.5 -16q-29 0 -48 9v-133h-49v462h49v-233q0 -35 11 -47.5t40 -12.5q19 0 37 5.5t33 13.5t26.5 16.5t19.5 14.5v243z" />
    <glyph glyph-name="pi" unicode="&#x3c0;" horiz-adv-x="446" 
d="M413 5q-8 -5 -20 -7t-24 -2q-44 0 -62.5 26t-18.5 64v224h-131v-217q0 -29 -2.5 -52.5t-7.5 -40.5h-50q5 20 7.5 45.5t2.5 49.5v215q-22 0 -39 -4t-30 -11l-15 36q13 7 36 13t60 6h293v-40h-74v-219q0 -30 10 -43t34 -13q9 0 21 5z" />
    <glyph glyph-name="uni05C3" unicode="&#x5c3;" horiz-adv-x="142" 
d="M40 27q0 13 9 22t22 9t22 -9t9 -22t-9 -22t-22 -9t-22 9t-9 22zM40 243q0 13 9 22t22 9t22 -9t9 -22t-9 -22t-22 -9t-22 9t-9 22z" />
    <glyph glyph-name="uni05C4" unicode="&#x5c4;" horiz-adv-x="142" 
d="M40 27q0 13 9 22t22 9t22 -9t9 -22t-9 -22t-22 -9t-22 9t-9 22z" />
    <glyph glyph-name="uni060C" unicode="&#x60c;" horiz-adv-x="143" 
d="M40 36q0 13 6 26t15 24.5t20.5 21t22.5 16.5l11 -27q-13 -7 -22.5 -17t-9.5 -20t9.5 -17t9.5 -20q0 -11 -8 -19t-22 -8t-23 10t-9 30z" />
    <glyph glyph-name="uni061B" unicode="&#x61b;" horiz-adv-x="143" 
d="M40 27q0 13 9 22t22 9t22 -9t9 -22t-9 -22t-22 -9t-22 9t-9 22zM40 257q0 13 6 26t15 24.5t20.5 21t22.5 16.5l11 -27q-13 -7 -22.5 -17t-9.5 -20t9.5 -17t9.5 -20q0 -11 -8 -19t-22 -8t-23 10t-9 30z" />
    <glyph glyph-name="uni061F" unicode="&#x61f;" horiz-adv-x="288" 
d="M239 161h-46v70h-20q-60 0 -93 30.5t-33 89.5q0 55 31.5 85.5t85.5 30.5h75v-47h-78q-31 0 -49 -19.5t-18 -51.5q0 -33 16 -51.5t51 -18.5h78v-118zM185 30q0 13 9 22t22 9t22 -9t9 -22t-9 -22t-22 -9t-22 9t-9 22z" />
    <glyph glyph-name="uni0640" unicode="&#x640;" horiz-adv-x="102" 
d="M107 46v-46h-107v46h107z" />
    <glyph glyph-name="uni064B" unicode="&#x64b;" horiz-adv-x="0" 
d="M0 554v20h113v-20h-113zM0 636v20h113v-20h-113z" />
    <glyph glyph-name="uni064C" unicode="&#x64c;" horiz-adv-x="0" 
d="M21 606q3 6 8 11.5t15 5.5q8 0 12.5 -3.5t8.5 -8.5l20 -27q6 -9 11 -9q4 0 12 5l39 29q-14 14 -21.5 26.5t-7.5 27.5q0 22 14.5 34.5t34.5 12.5q21 0 35 -13t14 -34q0 -12 -6.5 -23.5t-31.5 -30.5l18 -17l-17 -13l-18 17l-48 -36q-13 -10 -21 -10q-5 0 -8.5 2t-9.5 10
l-31 40l-24 -45l-19 10zM164 621q18 13 25 23t7 19q0 12 -7.5 20t-21.5 8t-21.5 -8t-7.5 -20q0 -11 6.5 -21t19.5 -21z" />
    <glyph glyph-name="uni064D" unicode="&#x64d;" horiz-adv-x="0" 
d="M0 -171v20h113v-20h-113zM0 -89v20h113v-20h-113z" />
    <glyph glyph-name="uni064E" unicode="&#x64e;" horiz-adv-x="0" 
d="M0 554v20h113v-20h-113z" />
    <glyph glyph-name="uni064F" unicode="&#x64f;" horiz-adv-x="0" 
d="M91 591q-14 14 -21 26t-7 27q0 22 14.5 34.5t34.5 12.5q21 0 35 -13t14 -34q0 -12 -6.5 -23.5t-31.5 -30.5l18 -17l-17 -13l-19 17q-20 -16 -45.5 -29.5t-51.5 -23.5l-8 16q13 6 24.5 11t22 11t21 13t23.5 16zM109 602q18 13 25 23t7 19q0 12 -7.5 20t-21.5 8t-21.5 -8
t-7.5 -20q0 -11 6.5 -21t19.5 -21z" />
    <glyph glyph-name="uni0650" unicode="&#x650;" horiz-adv-x="0" 
d="M0 -89v20h113v-20h-113z" />
    <glyph glyph-name="uni0651" unicode="&#x651;" horiz-adv-x="0" 
d="M35 554q-35 0 -35 35v66h19v-66q0 -6 3 -11t13 -5h42v82h19v-82h41q10 0 13 5t3 11v66h19v-66q0 -35 -35 -35h-102z" />
    <glyph glyph-name="uni0652" unicode="&#x652;" horiz-adv-x="0" 
d="M0 598q0 20 14.5 34.5t34.5 14.5t34.5 -14.5t14.5 -34.5t-14.5 -34.5t-34.5 -14.5t-34.5 14.5t-14.5 34.5zM21 598q0 -11 8.5 -19.5t19.5 -8.5t19.5 8.5t8.5 19.5t-8.5 19.5t-19.5 8.5t-19.5 -8.5t-8.5 -19.5z" />
    <glyph glyph-name="uni0653" unicode="&#x653;" horiz-adv-x="0" 
d="M143 585l-20 -21q-10 -11 -24 -11q-8 0 -16 4.5t-15 9.5t-13 9.5t-11 4.5t-7.5 -2t-6.5 -6l-16 -17l-14 14l21 21q6 6 10.5 9t12.5 3t15 -4.5t13.5 -9.5t13 -9.5t13.5 -4.5q4 0 6.5 1.5t7.5 6.5l16 16z" />
    <glyph glyph-name="uni0654" unicode="&#x654;" horiz-adv-x="0" 
d="M93 633h-22q-13 0 -21 -7.5t-8 -21.5t8.5 -22.5t25.5 -8.5h37v-19h-113v19h32q-5 6 -8.5 13.5t-3.5 18.5q0 22 15 34.5t37 12.5h21v-19z" />
    <glyph glyph-name="uni0655" unicode="&#x655;" horiz-adv-x="0" 
d="M93 -96h-22q-13 0 -21 -7.5t-8 -21.5t8.5 -22.5t25.5 -8.5h37v-19h-113v19h32q-5 6 -8.5 13.5t-3.5 18.5q0 22 15 34.5t37 12.5h21v-19z" />
    <glyph glyph-name="uni0660" unicode="&#x660;" horiz-adv-x="204" 
d="M47 220q0 23 16 39t39 16t39 -16t16 -39t-16 -39t-39 -16t-39 16t-16 39z" />
    <glyph glyph-name="uni0661" unicode="&#x661;" horiz-adv-x="141" 
d="M94 0h-47v467h47v-467z" />
    <glyph glyph-name="uni0662" unicode="&#x662;" horiz-adv-x="294" 
d="M94 0h-47v362q0 105 98 105h102v-46h-103q-28 0 -39 -13.5t-11 -43.5v-364z" />
    <glyph glyph-name="uni0663" unicode="&#x663;" horiz-adv-x="491" 
d="M47 0v467h47v-211h128v211h47v-211h78q28 0 39 13.5t11 43.5v154h47v-152q0 -105 -98 -105h-252v-210h-47z" />
    <glyph glyph-name="uni0664" unicode="&#x664;" horiz-adv-x="306" 
d="M188 0q-66 0 -104 35.5t-38 94.5q0 32 11.5 58t38.5 46q-26 19 -38 45t-12 57q0 57 36.5 94t105.5 37h71v-46h-71q-45 0 -70 -23.5t-25 -61.5q0 -41 24 -60t60 -19h82v-46h-82q-45 0 -64.5 -24t-19.5 -57q0 -43 27.5 -63.5t66.5 -20.5h72v-46h-71z" />
    <glyph glyph-name="uni0665" unicode="&#x665;" horiz-adv-x="364" 
d="M182 467q47 0 75.5 -26t35.5 -83l24 -199q2 -10 2.5 -20t0.5 -18q0 -26 -10.5 -48.5t-29 -38.5t-43.5 -25t-55 -9t-55 9t-43.5 25t-29 38.5t-10.5 48.5q0 8 0.5 18t2.5 20l24 199q7 57 35.5 83t75.5 26zM182 423q-25 0 -42 -13.5t-22 -52.5l-24 -203q-1 -8 -1.5 -14.5
t-0.5 -14.5q0 -35 24.5 -57t65.5 -22t65.5 22t24.5 57q0 8 -0.5 14.5t-1.5 14.5l-24 203q-5 39 -22 52.5t-42 13.5z" />
    <glyph glyph-name="uni0666" unicode="&#x666;" horiz-adv-x="294" 
d="M200 364q0 30 -11 43.5t-39 13.5h-103v46h102q98 0 98 -105v-362h-47v364z" />
    <glyph glyph-name="uni0667" unicode="&#x667;" horiz-adv-x="382" 
d="M191 0q-41 0 -61 24.5t-25 58.5l-62 384h48l60 -384q2 -15 11 -26t29 -11t29 11t11 26l60 384h48l-62 -384q-5 -34 -25 -58.5t-61 -24.5z" />
    <glyph glyph-name="uni0668" unicode="&#x668;" horiz-adv-x="382" 
d="M191 467q41 0 61 -24.5t25 -58.5l62 -384h-48l-60 384q-2 15 -11 26t-29 11t-29 -11t-11 -26l-60 -384h-48l62 384q5 34 25 58.5t61 24.5z" />
    <glyph glyph-name="uni0669" unicode="&#x669;" horiz-adv-x="316" 
d="M148 210q-45 0 -73 27t-28 80v43q0 53 28 80t73 27h121v-467h-47v210h-74zM222 256v165h-75q-23 0 -38 -14.5t-15 -44.5v-47q0 -30 15 -44.5t38 -14.5h75z" />
    <glyph glyph-name="uni066A" unicode="&#x66a;" horiz-adv-x="345" 
d="M98 0h-51l199 467h52zM230 79q0 13 9 22t22 9t22 -9t9 -22t-9 -22t-22 -9t-22 9t-9 22zM53 388q0 13 9 22t22 9t22 -9t9 -22t-9 -22t-22 -9t-22 9t-9 22z" />
    <glyph glyph-name="uni066B" unicode="&#x66b;" horiz-adv-x="143" 
d="M28 -43q13 7 22.5 17t9.5 20t-9.5 17t-9.5 20q0 11 8 19t22 8t23 -10t9 -30q0 -13 -6 -26t-15 -24.5t-20.5 -21t-22.5 -16.5z" />
    <glyph glyph-name="uni066C" unicode="&#x66c;" horiz-adv-x="143" 
d="M40 36q0 13 6 26t15 24.5t20.5 21t22.5 16.5l11 -27q-13 -7 -22.5 -17t-9.5 -20t9.5 -17t9.5 -20q0 -11 -8 -19t-22 -8t-23 10t-9 30z" />
    <glyph glyph-name="uni066D" unicode="&#x66d;" horiz-adv-x="417" 
d="M185 309h47v-130l124 41l14 -45l-124 -42l80 -104l-38 -29l-79 104l-81 -104l-36 29l80 104l-125 42l13 45l125 -41v130z" />
    <glyph glyph-name="uni0670" unicode="&#x670;" horiz-adv-x="0" 
d="M0 545v138h19v-138h-19z" />
    <glyph glyph-name="uni06C2" unicode="&#x6c2;" horiz-adv-x="316" 
d="M47 227q0 105 98 105h124v-221q0 -53 -30.5 -82.5t-80.5 -29.5q-53 0 -82 29.5t-29 82.5v116zM222 286h-78q-28 0 -39 -13.5t-11 -43.5v-121q0 -29 17.5 -46t46.5 -17t46.5 17t17.5 46v178zM195 500h-22q-13 0 -21 -7.5t-8 -21.5t8.5 -22.5t25.5 -8.5h37v-19h-113v19h32
q-5 6 -8.5 13.5t-3.5 18.5q0 22 15 34.5t37 12.5h21v-19z" />
    <glyph glyph-name="uni06C3" unicode="&#x6c3;" horiz-adv-x="316" 
d="M81 451q0 13 9 22t22 9t22 -9t9 -22t-9 -22t-22 -9t-22 9t-9 22zM179 451q0 13 9 22t22 9t22 -9t9 -22t-9 -22t-22 -9t-22 9t-9 22zM47 227q0 105 98 105h124v-221q0 -53 -30.5 -82.5t-80.5 -29.5q-53 0 -82 29.5t-29 82.5v116zM222 286h-78q-28 0 -39 -13.5t-11 -43.5
v-121q0 -29 17.5 -46t46.5 -17t46.5 17t17.5 46v178z" />
    <glyph glyph-name="uni06F0" unicode="&#x6f0;" horiz-adv-x="204" 
d="M47 220q0 23 16 39t39 16t39 -16t16 -39t-16 -39t-39 -16t-39 16t-16 39z" />
    <glyph glyph-name="uni06F1" unicode="&#x6f1;" horiz-adv-x="141" 
d="M94 0h-47v467h47v-467z" />
    <glyph glyph-name="uni06F2" unicode="&#x6f2;" horiz-adv-x="294" 
d="M94 0h-47v362q0 105 98 105h102v-46h-103q-28 0 -39 -13.5t-11 -43.5v-364z" />
    <glyph glyph-name="uni06F3" unicode="&#x6f3;" horiz-adv-x="491" 
d="M47 0v467h47v-211h128v211h47v-211h78q28 0 39 13.5t11 43.5v154h47v-152q0 -105 -98 -105h-252v-210h-47z" />
    <glyph glyph-name="uni06F4" unicode="&#x6f4;" horiz-adv-x="387" 
d="M340 332q-5 -35 -20.5 -58.5t-40.5 -37.5t-57 -20t-68 -6h-60v-210h-47v467h47v-101q37 51 83.5 75t112.5 26v-47q-36 0 -69 -11.5t-59 -33t-44 -52t-24 -67.5h60q22 0 44.5 2t41.5 9.5t33.5 23t21.5 41.5h45v0z" />
    <glyph glyph-name="uni06F5" unicode="&#x6f5;" horiz-adv-x="390" 
d="M195 95q9 -18 24 -33t38 -15q25 0 33.5 15.5t8.5 35.5q0 9 -1 18t-3 18l-35 224q-5 29 -20 47t-45 18t-45 -18t-20 -47l-35 -224q-2 -9 -3 -18t-1 -18q0 -20 8.5 -35.5t33.5 -15.5q23 0 38 15t24 33zM195 39q-14 -17 -32 -27.5t-40 -10.5q-38 0 -58.5 26t-20.5 64
q0 14 2 28.5t4 28.5l33 209q4 24 11 44.5t19.5 35t32.5 22.5t49 8t49 -8t32.5 -22.5t19.5 -35t11 -44.5l33 -209q2 -14 4 -28.5t2 -28.5q0 -38 -20.5 -64t-58.5 -26q-22 0 -40 10.5t-32 27.5z" />
    <glyph glyph-name="uni06F6" unicode="&#x6f6;" horiz-adv-x="403" 
d="M47 0q16 58 46.5 109.5t78.5 90.5q-38 22 -60 52t-22 75q0 61 41.5 100.5t114.5 39.5q18 0 31 -2t28 -6v-49q-12 5 -27 8t-34 3q-50 0 -78.5 -26.5t-28.5 -66.5q0 -33 18 -57t60 -41q32 20 65 35t76 23v-46q-101 -27 -164.5 -84t-97.5 -158h-47z" />
    <glyph glyph-name="uni06F7" unicode="&#x6f7;" horiz-adv-x="382" 
d="M191 0q-41 0 -61 24.5t-25 58.5l-62 384h48l60 -384q2 -15 11 -26t29 -11t29 11t11 26l60 384h48l-62 -384q-5 -34 -25 -58.5t-61 -24.5z" />
    <glyph glyph-name="uni06F8" unicode="&#x6f8;" horiz-adv-x="382" 
d="M191 467q41 0 61 -24.5t25 -58.5l62 -384h-48l-60 384q-2 15 -11 26t-29 11t-29 -11t-11 -26l-60 -384h-48l62 384q5 34 25 58.5t61 24.5z" />
    <glyph glyph-name="uni06F9" unicode="&#x6f9;" horiz-adv-x="316" 
d="M148 210q-45 0 -73 27t-28 80v43q0 53 28 80t73 27h121v-467h-47v210h-74zM222 256v165h-75q-23 0 -38 -14.5t-15 -44.5v-47q0 -30 15 -44.5t38 -14.5h75z" />
    <glyph glyph-name="Wgrave" unicode="&#x1e80;" horiz-adv-x="597" 
d="M576 467l-122 -467h-65l-90 396l-91 -396h-65l-122 467h59l95 -405l89 405h69l89 -405l95 405h59zM296 589l74 -73h-58l-86 73h70z" />
    <glyph glyph-name="wgrave" unicode="&#x1e81;" horiz-adv-x="457" 
d="M259 332l71 -270l62 270h52l-87 -332h-53l-75 277l-75 -277h-53l-88 332h52l63 -270l71 270h60zM226 454l74 -73h-58l-86 73h70z" />
    <glyph glyph-name="Wacute" unicode="&#x1e82;" horiz-adv-x="597" 
d="M576 467l-122 -467h-65l-90 396l-91 -396h-65l-122 467h59l95 -405l89 405h69l89 -405l95 405h59zM370 589l-86 -73h-58l74 73h70z" />
    <glyph glyph-name="wacute" unicode="&#x1e83;" horiz-adv-x="457" 
d="M259 332l71 -270l62 270h52l-87 -332h-53l-75 277l-75 -277h-53l-88 332h52l63 -270l71 270h60zM300 454l-86 -73h-58l74 73h70z" />
    <glyph glyph-name="Wdieresis" unicode="&#x1e84;" horiz-adv-x="597" 
d="M576 467l-122 -467h-65l-90 396l-91 -396h-65l-122 467h59l95 -405l89 405h69l89 -405l95 405h59zM278 552q0 -14 -10.5 -24.5t-25.5 -10.5q-14 0 -25 10.5t-11 24.5q0 15 11 25.5t25 10.5q15 0 25.5 -10.5t10.5 -25.5zM391 552q0 -14 -10.5 -24.5t-25.5 -10.5
q-14 0 -24.5 10.5t-10.5 24.5q0 15 10.5 25.5t24.5 10.5q15 0 25.5 -10.5t10.5 -25.5z" />
    <glyph glyph-name="wdieresis" unicode="&#x1e85;" horiz-adv-x="457" 
d="M259 332l71 -270l62 270h52l-87 -332h-53l-75 277l-75 -277h-53l-88 332h52l63 -270l71 270h60zM208 417q0 -14 -10.5 -24.5t-25.5 -10.5q-14 0 -25 10.5t-11 24.5q0 15 11 25.5t25 10.5q15 0 25.5 -10.5t10.5 -25.5zM321 417q0 -14 -10.5 -24.5t-25.5 -10.5
q-14 0 -24.5 10.5t-10.5 24.5q0 15 10.5 25.5t24.5 10.5q15 0 25.5 -10.5t10.5 -25.5z" />
    <glyph glyph-name="Ygrave" unicode="&#x1ef2;" horiz-adv-x="379" 
d="M370 467l-154 -274v-193h-53v194l-154 273h62l120 -221l121 221h58zM187 589l74 -73h-58l-86 73h70z" />
    <glyph glyph-name="ygrave" unicode="&#x1ef3;" horiz-adv-x="309" 
d="M300 332l-120 -344q-12 -34 -23.5 -57.5t-25.5 -38t-31.5 -21t-42.5 -6.5q-18 0 -34.5 4t-25.5 9l10 41q25 -11 55 -11t47 23t32 82l-128 319h53l98 -256l83 256h53zM152 454l74 -73h-58l-86 73h70z" />
    <glyph glyph-name="uni200C" unicode="&#x200c;" horiz-adv-x="0" 
d="M0 -70v551l-28 -29l-11 10l37 37l-37 36l11 11l36 -37l36 37l11 -11l-36 -36l36 -37l-11 -10l-28 29v-551h-16z" />
    <glyph glyph-name="uni200D" unicode="&#x200d;" horiz-adv-x="0" 
d="M0 -59v562h15v-562h-15z" />
    <glyph glyph-name="uni200E" unicode="&#x200e;" horiz-adv-x="0" 
d="M0 -64v569h75l-28 28l10 11l47 -47l-47 -47l-10 11l29 29h-60v-554h-16z" />
    <glyph glyph-name="uni200F" unicode="&#x200f;" horiz-adv-x="0" 
d="M0 -71v561h-60l30 -29l-11 -11l-47 47l47 47l11 -11l-28 -28h74v-576h-16z" />
    <glyph glyph-name="endash" unicode="&#x2013;" horiz-adv-x="384" 
d="M367 171h-350v46h350v-46z" />
    <glyph glyph-name="emdash" unicode="&#x2014;" horiz-adv-x="734" 
d="M717 171h-700v46h700v-46z" />
    <glyph glyph-name="quoteleft" unicode="&#x2018;" horiz-adv-x="142" 
d="M41 456q0 23 10.5 36t25.5 13q17 0 25.5 -9.5t8.5 -20.5q0 -8 -3.5 -14t-8 -11.5t-8 -11t-3.5 -12.5q0 -11 9 -25.5t25 -25.5l-9 -24q-31 15 -51.5 43t-20.5 62z" />
    <glyph glyph-name="quoteright" unicode="&#x2019;" horiz-adv-x="142" 
d="M101 456q0 -34 -20.5 -62t-51.5 -43l-9 24q16 11 25 25.5t9 25.5q0 7 -3.5 12.5t-8 11t-8 11.5t-3.5 14q0 11 8.5 20.5t25.5 9.5q15 0 25.5 -13t10.5 -36z" />
    <glyph glyph-name="quotesinglbase" unicode="&#x201a;" horiz-adv-x="142" 
d="M101 15q0 -34 -20.5 -62t-51.5 -43l-9 24q16 11 25 25.5t9 25.5q0 7 -3.5 12.5t-8 11t-8 11.5t-3.5 14q0 11 8.5 20.5t25.5 9.5q15 0 25.5 -13t10.5 -36z" />
    <glyph glyph-name="quotedblleft" unicode="&#x201c;" horiz-adv-x="240" 
d="M41 456q0 23 10.5 36t25.5 13q17 0 25.5 -9.5t8.5 -20.5q0 -8 -3.5 -14t-8 -11.5t-8 -11t-3.5 -12.5q0 -11 9 -25.5t25 -25.5l-9 -24q-31 15 -51.5 43t-20.5 62zM139 456q0 23 10.5 36t25.5 13q17 0 25.5 -9.5t8.5 -20.5q0 -8 -3.5 -14t-8 -11.5t-8 -11t-3.5 -12.5
q0 -11 9 -25.5t25 -25.5l-9 -24q-31 15 -51.5 43t-20.5 62z" />
    <glyph glyph-name="quotedblright" unicode="&#x201d;" horiz-adv-x="240" 
d="M199 456q0 -34 -20.5 -62t-51.5 -43l-9 24q16 11 25 25.5t9 25.5q0 7 -3.5 12.5t-8 11t-8 11.5t-3.5 14q0 11 8.5 20.5t25.5 9.5q15 0 25.5 -13t10.5 -36zM101 456q0 -34 -20.5 -62t-51.5 -43l-9 24q16 11 25 25.5t9 25.5q0 7 -3.5 12.5t-8 11t-8 11.5t-3.5 14
q0 11 8.5 20.5t25.5 9.5q15 0 25.5 -13t10.5 -36z" />
    <glyph glyph-name="quotedblbase" unicode="&#x201e;" horiz-adv-x="240" 
d="M199 15q0 -34 -20.5 -62t-51.5 -43l-9 24q16 11 25 25.5t9 25.5q0 7 -3.5 12.5t-8 11t-8 11.5t-3.5 14q0 11 8.5 20.5t25.5 9.5q15 0 25.5 -13t10.5 -36zM101 15q0 -34 -20.5 -62t-51.5 -43l-9 24q16 11 25 25.5t9 25.5q0 7 -3.5 12.5t-8 11t-8 11.5t-3.5 14
q0 11 8.5 20.5t25.5 9.5q15 0 25.5 -13t10.5 -36z" />
    <glyph glyph-name="dagger" unicode="&#x2020;" horiz-adv-x="300" 
d="M257 302l-89 11l10 -359h-57l11 359l-89 -11v56l89 -10l-11 164h57l-10 -164l89 10v-56z" />
    <glyph glyph-name="daggerdbl" unicode="&#x2021;" horiz-adv-x="300" 
d="M168 153l89 11v-56l-89 10l10 -164h-57l11 164l-89 -10v56l89 -11v160l-89 -11v56l89 -10l-11 164h57l-10 -164l89 10v-56l-89 11v-160z" />
    <glyph glyph-name="bullet" unicode="&#x2022;" horiz-adv-x="284" 
d="M243 211q0 -21 -8 -39t-22 -31.5t-32 -21.5t-39 -8t-39 8t-32 21.5t-22 31.5t-8 39t8 39.5t22 32t32 21.5t39 8t39 -8t32 -21.5t22 -32t8 -39.5z" />
    <glyph glyph-name="ellipsis" unicode="&#x2026;" horiz-adv-x="387" 
d="M60 30q0 14 10.5 24.5t24.5 10.5t24.5 -10.5t10.5 -24.5t-10.5 -24.5t-24.5 -10.5t-24.5 10.5t-10.5 24.5zM169 30q0 14 10.5 24.5t24.5 10.5t24.5 -10.5t10.5 -24.5t-10.5 -24.5t-24.5 -10.5t-24.5 10.5t-10.5 24.5zM278 30q0 14 10.5 24.5t24.5 10.5t24.5 -10.5
t10.5 -24.5t-10.5 -24.5t-24.5 -10.5t-24.5 10.5t-10.5 24.5z" />
    <glyph glyph-name="perthousand" unicode="&#x2030;" horiz-adv-x="961" 
d="M276 340q0 -39 -11 -64.5t-29 -40.5t-40.5 -21t-45.5 -6q-24 0 -45.5 6t-38 21t-26.5 40.5t-10 64.5q0 40 10 66t26.5 41.5t38 21.5t45.5 6q23 0 45.5 -6t40.5 -21.5t29 -41.5t11 -66zM237 340q0 29 -7.5 48.5t-19.5 31t-28 16t-32 4.5q-17 0 -31.5 -4.5t-25.5 -16
t-17.5 -30.5t-6.5 -49q0 -29 6.5 -48t17.5 -30t25.5 -15t31.5 -4q16 0 32 4t28 15t19.5 30t7.5 48zM472 479l-252 -491h-39l253 491h38zM630 126q0 -39 -11 -64.5t-29 -40.5t-40.5 -21t-45.5 -6q-24 0 -45.5 6t-38 21t-26.5 40.5t-10 64.5q0 40 10 66t26.5 41.5t38 21.5
t45.5 6q23 0 45.5 -6t40.5 -21.5t29 -41.5t11 -66zM591 126q0 29 -7.5 48.5t-19.5 31t-28 16t-32 4.5q-17 0 -31.5 -4.5t-25.5 -16t-17.5 -30.5t-6.5 -49q0 -29 6.5 -48t17.5 -30t25.5 -15t31.5 -4q16 0 32 4t28 15t19.5 30t7.5 48zM931 126q0 -39 -11 -64.5t-29 -40.5
t-40.5 -21t-45.5 -6q-24 0 -45.5 6t-38 21t-26.5 40.5t-10 64.5q0 40 10 66t26.5 41.5t38 21.5t45.5 6q23 0 45.5 -6t40.5 -21.5t29 -41.5t11 -66zM892 126q0 29 -7.5 48.5t-19.5 31t-28 16t-32 4.5q-17 0 -31.5 -4.5t-25.5 -16t-17.5 -30.5t-6.5 -49q0 -29 6.5 -48
t17.5 -30t25.5 -15t31.5 -4q16 0 32 4t28 15t19.5 30t7.5 48z" />
    <glyph glyph-name="guilsinglleft" unicode="&#x2039;" horiz-adv-x="198" 
d="M174 66h-45l-85 120l85 117h45l-76 -117z" />
    <glyph glyph-name="guilsinglright" unicode="&#x203a;" horiz-adv-x="198" 
d="M100 186l-76 117h46l84 -117l-84 -120h-46z" />
    <glyph glyph-name="fraction" unicode="&#x2044;" horiz-adv-x="315" 
d="M298 479l-245 -491h-36l246 491h35z" />
    <glyph glyph-name="Euro" unicode="&#x20ac;" horiz-adv-x="434" 
d="M85 286q6 42 21 76.5t39 59.5t57 39t75 14q41 0 66.5 -6.5t42.5 -15.5l-9 -45q-17 10 -41 15.5t-55 5.5q-69 0 -102 -40t-42 -103h218l-9 -40h-213v-37h205l-10 -41h-191q7 -41 23.5 -66.5t37.5 -39t44.5 -18t44.5 -4.5q29 0 53 6.5t44 14.5l-9 -51q-40 -16 -92 -16
q-78 0 -131 43t-67 131h-55v41h51v37h-51v40h55z" />
    <glyph glyph-name="uni2113" unicode="&#x2113;" horiz-adv-x="343" 
d="M283 37q-14 -14 -37 -27.5t-53 -13.5q-23 0 -39 8.5t-26 22.5t-14.5 32t-4.5 38v87l-46 -50l-19 22l65 67v162q0 62 23.5 93.5t63.5 31.5q19 0 32 -7t21 -17.5t11.5 -23.5t3.5 -24q0 -24 -6.5 -47.5t-19.5 -48.5t-33 -52.5t-47 -60.5v-128q0 -38 14 -52.5t37 -14.5
q19 0 33.5 9.5t25.5 20.5zM158 270q42 53 58 92t16 67q0 18 -7.5 31t-24.5 13q-20 0 -31 -19t-11 -61v-123z" />
    <glyph glyph-name="trademark" unicode="&#x2122;" horiz-adv-x="427" 
d="M164 467l-5 -29h-44v-154h-31v154h-43v29h123zM376 284h-30v144l-43 -144h-32l-43 144v-144h-31v183h48l42 -150l42 150h47v-183z" />
    <glyph glyph-name="Omega" unicode="&#x2126;" horiz-adv-x="488" 
d="M297 0v41q16 14 34.5 34t34 47t25.5 61.5t10 79.5q0 41 -10 76t-29.5 60.5t-48.5 40t-67 14.5q-36 0 -65 -14t-50 -39.5t-32.5 -60.5t-11.5 -76q0 -44 10 -78.5t25 -61.5t33.5 -47.5t36.5 -35.5v-41h-156v41h105q-16 13 -34.5 33.5t-34.5 48.5t-26.5 64.5t-10.5 81.5
q0 49 15 91t43 72.5t67 48t86 17.5q49 0 88 -17t65 -47t40 -71.5t14 -91.5q0 -41 -9.5 -76t-25 -64.5t-34.5 -52t-38 -37.5h107v-41h-156z" />
    <glyph glyph-name="estimated" unicode="&#x212e;" horiz-adv-x="472" 
d="M410 98q-16 -24 -33.5 -43.5t-39 -33.5t-47.5 -21.5t-59 -7.5q-47 0 -84.5 17t-64 46.5t-41 69t-14.5 84.5t14 84.5t40.5 69t64.5 46.5t86 17t86 -17t64 -46.5t40.5 -69t15.5 -84.5h-322v-144q23 -23 52 -35t63 -12q56 0 92 26t62 69zM346 352q-22 22 -52 35t-63 13
q-68 0 -115 -47v-118h230v117z" />
    <glyph glyph-name="onethird" unicode="&#x2153;" horiz-adv-x="545" 
d="M363 479l-245 -491h-35l245 491h35zM113 214h-35v225l-48 -20v30l55 22h28v-257zM494 78q0 -45 -29.5 -64t-76.5 -19q-37 0 -59 8t-27 13l6 31q12 -8 29.5 -15t48.5 -7q12 0 24.5 1.5t23 7t17.5 16t7 27.5q0 25 -22.5 33.5t-50.5 8.5h-30v30h30q35 0 50 11t15 31
q0 23 -17 32t-41 9q-26 0 -46.5 -5.5t-39.5 -14.5l7 34q17 7 34.5 11.5t44.5 4.5q48 0 72 -20t24 -51q0 -14 -5 -23.5t-13 -16t-17.5 -10.5t-17.5 -7q20 -2 39.5 -16t19.5 -40z" />
    <glyph glyph-name="twothirds" unicode="&#x2154;" horiz-adv-x="637" 
d="M455 479l-245 -491h-35l245 491h35zM586 78q0 -45 -29.5 -64t-76.5 -19q-37 0 -59 8t-27 13l6 31q12 -8 29.5 -15t48.5 -7q12 0 24.5 1.5t23 7t17.5 16t7 27.5q0 25 -22.5 33.5t-50.5 8.5h-30v30h30q35 0 50 11t15 31q0 23 -17 32t-41 9q-26 0 -46.5 -5.5t-39.5 -14.5
l7 34q17 7 34.5 11.5t44.5 4.5q48 0 72 -20t24 -51q0 -14 -5 -23.5t-13 -16t-17.5 -10.5t-17.5 -7q20 -2 39.5 -16t19.5 -40zM230 399q0 -21 -14 -41t-35 -40.5t-46 -40.5t-48 -39h143l-5 -29h-187v25q74 60 114.5 98t40.5 67q0 25 -16 33.5t-43 8.5q-29 0 -48.5 -5
t-36.5 -13l6 31q23 8 40.5 12.5t43.5 4.5q50 0 70.5 -21.5t20.5 -50.5z" />
    <glyph glyph-name="oneeighth" unicode="&#x215b;" horiz-adv-x="577" 
d="M380 479l-245 -491h-35l245 491h35zM113 214h-35v225l-48 -20v30l55 22h28v-257zM526 76q0 -39 -28 -60t-76 -21q-46 0 -74.5 21t-28.5 60q0 23 12.5 36t30.5 20q-36 15 -36 55q0 37 28 56.5t68 19.5q42 0 69.5 -19.5t27.5 -56.5q0 -40 -35 -55q17 -6 29.5 -18t12.5 -38z
M485 187q0 22 -16 34.5t-47 12.5q-29 0 -45 -12.5t-16 -34.5q0 -42 61 -42q34 0 48.5 11.5t14.5 30.5zM490 73q0 26 -21.5 35.5t-46.5 9.5q-26 0 -46 -10t-20 -35q0 -26 20 -37.5t46 -11.5q32 0 50 12.5t18 36.5z" />
    <glyph glyph-name="threeeighths" unicode="&#x215c;" horiz-adv-x="641" 
d="M444 479l-245 -491h-35l245 491h35zM590 76q0 -39 -28 -60t-76 -21q-46 0 -74.5 21t-28.5 60q0 23 12.5 36t30.5 20q-36 15 -36 55q0 37 28 56.5t68 19.5q42 0 69.5 -19.5t27.5 -56.5q0 -40 -35 -55q17 -6 29.5 -18t12.5 -38zM549 187q0 22 -16 34.5t-47 12.5
q-29 0 -45 -12.5t-16 -34.5q0 -42 61 -42q34 0 48.5 11.5t14.5 30.5zM554 73q0 26 -21.5 35.5t-46.5 9.5q-26 0 -46 -10t-20 -35q0 -26 20 -37.5t46 -11.5q32 0 50 12.5t18 36.5zM226 291q0 -45 -29.5 -64t-76.5 -19q-37 0 -59 8t-27 13l6 31q12 -8 29.5 -15t48.5 -7
q12 0 24.5 1.5t23 7t17.5 16t7 27.5q0 25 -22.5 33.5t-50.5 8.5h-30v30h30q35 0 50 11t15 31q0 23 -17 32t-41 9q-26 0 -46.5 -5.5t-39.5 -14.5l7 34q17 7 34.5 11.5t44.5 4.5q48 0 72 -20t24 -51q0 -14 -5 -23.5t-13 -16t-17.5 -10.5t-17.5 -7q20 -2 39.5 -16t19.5 -40z
" />
    <glyph glyph-name="fiveeighths" unicode="&#x215d;" horiz-adv-x="641" 
d="M444 479l-245 -491h-35l245 491h35zM590 76q0 -39 -28 -60t-76 -21q-46 0 -74.5 21t-28.5 60q0 23 12.5 36t30.5 20q-36 15 -36 55q0 37 28 56.5t68 19.5q42 0 69.5 -19.5t27.5 -56.5q0 -40 -35 -55q17 -6 29.5 -18t12.5 -38zM549 187q0 22 -16 34.5t-47 12.5
q-29 0 -45 -12.5t-16 -34.5q0 -42 61 -42q34 0 48.5 11.5t14.5 30.5zM554 73q0 26 -21.5 35.5t-46.5 9.5q-26 0 -46 -10t-20 -35q0 -26 20 -37.5t46 -11.5q32 0 50 12.5t18 36.5zM177 292q0 32 -18 42.5t-38 10.5t-36.5 -4t-36.5 -12l9 138h141l-4 -30h-108l-5 -68
q8 2 21 3.5t24 1.5q39 0 62.5 -21t23.5 -60q0 -22 -8 -38.5t-21 -27.5t-30 -16.5t-34 -5.5q-26 0 -44.5 7t-34.5 18l8 34q16 -15 31.5 -22t38.5 -7q8 0 18 2.5t19 8.5t15.5 17t6.5 29z" />
    <glyph glyph-name="seveneighths" unicode="&#x215e;" horiz-adv-x="566" 
d="M206 444l-119 -234h-37l118 227h-143l4 30h177v-23zM369 479l-245 -491h-35l245 491h35zM515 76q0 -39 -28 -60t-76 -21q-46 0 -74.5 21t-28.5 60q0 23 12.5 36t30.5 20q-36 15 -36 55q0 37 28 56.5t68 19.5q42 0 69.5 -19.5t27.5 -56.5q0 -40 -35 -55q17 -6 29.5 -18
t12.5 -38zM474 187q0 22 -16 34.5t-47 12.5q-29 0 -45 -12.5t-16 -34.5q0 -42 61 -42q34 0 48.5 11.5t14.5 30.5zM479 73q0 26 -21.5 35.5t-46.5 9.5q-26 0 -46 -10t-20 -35q0 -26 20 -37.5t46 -11.5q32 0 50 12.5t18 36.5z" />
    <glyph glyph-name="partialdiff" unicode="&#x2202;" horiz-adv-x="396" 
d="M310 300q3 22 3 49q0 62 -25 92t-70 30q-20 0 -35.5 -5.5t-30.5 -13.5l-13 36q17 9 38 15.5t47 6.5q68 0 103.5 -45.5t35.5 -134.5q0 -27 -5 -62t-15.5 -72.5t-27.5 -74t-40 -65t-53.5 -46t-68.5 -17.5q-54 0 -87 35t-33 94q0 50 15.5 92t41.5 72t58.5 46.5t67.5 16.5
q36 0 59.5 -14.5t34.5 -34.5zM303 248q-9 28 -29 45t-55 17q-28 0 -52.5 -14.5t-43 -40t-29 -60.5t-10.5 -75q0 -41 19.5 -64t51.5 -23q51 0 90 58.5t58 156.5z" />
    <glyph glyph-name="Delta" unicode="&#x2206;" horiz-adv-x="429" 
d="M20 0v26l166 464h59l164 -464v-26h-389zM225 401q-5 12 -6.5 21t-3.5 17h-2q-2 -8 -3.5 -17t-6.5 -21l-126 -358h273z" />
    <glyph glyph-name="product" unicode="&#x220f;" horiz-adv-x="494" 
d="M383 -161v607h-272v-607h-51v650h374v-650h-51z" />
    <glyph glyph-name="summation" unicode="&#x2211;" horiz-adv-x="434" 
d="M16 -161v28l234 300l-218 288v34h360v-41h-293l206 -281l-220 -287h324v-41h-393z" />
    <glyph glyph-name="minus" unicode="&#x2212;" horiz-adv-x="350" 
d="M320 251v-47h-290v47h290z" />
    <glyph glyph-name="uni2215" unicode="&#x2215;" horiz-adv-x="315" 
d="M298 479l-245 -491h-36l246 491h35z" />
    <glyph glyph-name="uni2219" unicode="&#x2219;" horiz-adv-x="146" 
d="M38 247q0 14 10.5 24.5t24.5 10.5t24.5 -10.5t10.5 -24.5t-10.5 -24.5t-24.5 -10.5t-24.5 10.5t-10.5 24.5z" />
    <glyph glyph-name="radical" unicode="&#x221a;" horiz-adv-x="350" 
d="M178 -8l-96 242l-38 -22l-16 29l78 46l92 -230l116 453h43l-135 -518h-44z" />
    <glyph glyph-name="infinity" unicode="&#x221e;" horiz-adv-x="576" 
d="M286 165q-23 -34 -56.5 -57t-73.5 -23q-54 0 -88 32.5t-34 85.5q0 55 34 87.5t86 32.5q45 0 78 -23.5t55 -55.5q9 13 21.5 27.5t29 25.5t36.5 18.5t43 7.5q54 0 88 -32t34 -85q0 -25 -8.5 -47t-24 -38.5t-38 -26t-49.5 -9.5q-42 0 -76 22.5t-57 57.5zM313 205
q20 -34 46 -53t55 -19q37 0 54 22t17 50q0 29 -17 50t-54 21q-32 0 -56.5 -20t-44.5 -51zM260 205q-20 32 -46.5 51.5t-55.5 19.5q-35 0 -52.5 -22t-17.5 -51q0 -31 20 -50.5t50 -19.5q32 0 58 21t44 51z" />
    </font>
</defs>
</svg>
