<?xml version="1.0" encoding="utf-8"?>
<!-- Generator: Adobe Illustrator 28.0.0, SVG Export Plug-In . SVG Version: 6.00 Build 0)  -->
<svg version="1.1" id="Layer_1" xmlns="http://www.w3.org/2000/svg" xmlns:xlink="http://www.w3.org/1999/xlink" x="0px" y="0px"
	 viewBox="0 0 1920 768" style="enable-background:new 0 0 1920 768;" xml:space="preserve">
<style type="text/css">
	.st0{fill:#F1CEB6;}
	.st1{fill:#261D1A;}
	.st2{fill:#042B56;}
</style>
<g>
	<path id="CUSTOM_00000038385087304640461540000005320830651100910218_" class="st0" d="M1881.88,617.93H617.26
		c-10.01,0-18.12-7.77-18.12-17.36c0-9.59,8.11-17.36,18.12-17.36h1264.62c10.01,0,18.12,7.77,18.12,17.36
		C1900,610.15,1891.89,617.93,1881.88,617.93z"/>
	<path class="st1" d="M597.74,29.65v506.23c-3.27,0.25-6.5,0.65-9.64,1.31L493.41,96.8l-5.82,1.25l94.73,440.62
		c-2.86,0.84-5.68,1.79-8.4,2.94l-177.99-413.8l-5.46,2.35L568.57,544.2c-2.26,1.18-4.46,2.45-6.58,3.84L313.61,172.18l-4.96,3.28
		l248.51,376.06c-2.49,1.92-4.9,3.94-7.13,6.15L231.48,239.11l-4.2,4.2L546,562.04c-2.03,2.34-3.97,4.77-5.71,7.35L164.83,320.47
		l-3.29,4.96L537.2,574.47c-1.46,2.57-2.81,5.22-3.96,7.96L116.77,410.77l-2.26,5.49l416.68,171.76c-0.8,2.4-1.48,4.85-2.03,7.35
		L88.87,500.03l-1.25,5.81l440.52,95.38c-0.23,1.59-0.42,3.19-0.55,4.81H21.36v11.89h588.27V29.65H597.74z M539.48,606.03
		c2.83-30.83,27.43-55.42,58.26-58.26v58.26H539.48z"/>
	<g>
		<g>
			<path class="st2" d="M704.18,516.03V330.8h48.42c8.64,0,16.54,0.88,23.68,2.65c7.14,1.77,13.23,4.5,18.26,8.2
				c5.03,3.7,8.95,8.51,11.77,14.42c2.82,5.91,4.23,12.92,4.23,21.04c0,10.94-2.6,20.55-7.81,28.84
				c-5.21,8.29-13.1,13.94-23.68,16.93c4.94,1.06,9.74,2.82,14.42,5.29c4.67,2.47,8.73,5.65,12.17,9.53
				c3.44,3.88,6.22,8.38,8.33,13.5c2.12,5.12,3.18,10.85,3.18,17.2c0,7.94-1.68,14.86-5.03,20.77c-3.35,5.91-7.81,10.85-13.36,14.82
				c-5.56,3.97-11.95,6.97-19.18,9c-7.24,2.03-14.64,3.04-22.23,3.04H704.18z M726.14,351.71v60.6h28.58
				c10.41,0,18.65-2.91,24.74-8.73s9.13-13.5,9.13-23.02c0-10.41-3.18-17.82-9.53-22.23c-6.35-4.41-14.64-6.62-24.87-6.62H726.14z
				 M726.14,433.21v61.92h29.37c5.47,0,10.58-0.62,15.35-1.85c4.76-1.23,8.95-3.13,12.57-5.69c3.61-2.55,6.48-5.69,8.6-9.39
				c2.12-3.7,3.18-8.11,3.18-13.23c0-5.47-1.24-10.23-3.7-14.29c-2.47-4.06-5.69-7.36-9.66-9.92c-3.97-2.56-8.6-4.45-13.89-5.69
				c-5.29-1.23-10.68-1.85-16.14-1.85H726.14z"/>
			<path class="st2" d="M839.92,466.28c0-7.05,1.36-13.76,4.1-20.11c2.73-6.35,6.48-11.86,11.25-16.54
				c4.76-4.67,10.36-8.38,16.8-11.11c6.44-2.73,13.36-4.1,20.77-4.1c7.41,0,14.38,1.37,20.9,4.1c6.52,2.74,12.17,6.44,16.93,11.11
				c4.76,4.68,8.51,10.19,11.25,16.54c2.73,6.35,4.1,13.06,4.1,20.11c0,7.24-1.37,13.98-4.1,20.24
				c-2.74,6.26-6.48,11.78-11.25,16.54c-4.76,4.76-10.41,8.51-16.93,11.25c-6.53,2.73-13.5,4.1-20.9,4.1
				c-7.41,0-14.33-1.37-20.77-4.1c-6.44-2.73-12.04-6.48-16.8-11.25c-4.76-4.76-8.51-10.27-11.25-16.54
				C841.28,480.26,839.92,473.52,839.92,466.28z M861.88,466.55c0,4.23,0.79,8.2,2.38,11.91c1.59,3.71,3.75,6.93,6.48,9.66
				c2.73,2.74,5.95,4.9,9.66,6.48c3.7,1.59,7.67,2.38,11.91,2.38s8.2-0.79,11.91-2.38c3.7-1.59,6.97-3.75,9.79-6.48
				c2.82-2.73,5.03-5.95,6.62-9.66c1.59-3.7,2.38-7.67,2.38-11.91s-0.79-8.2-2.38-11.91c-1.59-3.7-3.8-6.97-6.62-9.79
				c-2.82-2.82-6.09-5.03-9.79-6.62c-3.7-1.59-7.67-2.38-11.91-2.38s-8.2,0.79-11.91,2.38c-3.7,1.59-6.93,3.79-9.66,6.62
				c-2.74,2.82-4.9,6.09-6.48,9.79S861.88,462.31,861.88,466.55z"/>
			<path class="st2" d="M965.6,466.28c0-7.05,1.37-13.76,4.1-20.11c2.73-6.35,6.48-11.86,11.25-16.54
				c4.76-4.67,10.36-8.38,16.8-11.11c6.44-2.73,13.36-4.1,20.77-4.1c7.41,0,14.38,1.37,20.9,4.1c6.53,2.74,12.17,6.44,16.94,11.11
				c4.76,4.68,8.51,10.19,11.25,16.54c2.73,6.35,4.1,13.06,4.1,20.11c0,7.24-1.37,13.98-4.1,20.24
				c-2.74,6.26-6.48,11.78-11.25,16.54s-10.41,8.51-16.94,11.25c-6.53,2.73-13.49,4.1-20.9,4.1c-7.41,0-14.33-1.37-20.77-4.1
				c-6.44-2.73-12.04-6.48-16.8-11.25c-4.76-4.76-8.51-10.27-11.25-16.54C966.97,480.26,965.6,473.52,965.6,466.28z M987.57,466.55
				c0,4.23,0.79,8.2,2.38,11.91c1.59,3.71,3.75,6.93,6.48,9.66c2.73,2.74,5.95,4.9,9.66,6.48c3.71,1.59,7.67,2.38,11.91,2.38
				c4.23,0,8.2-0.79,11.91-2.38c3.71-1.59,6.97-3.75,9.79-6.48c2.82-2.73,5.03-5.95,6.62-9.66c1.59-3.7,2.38-7.67,2.38-11.91
				s-0.79-8.2-2.38-11.91s-3.79-6.97-6.62-9.79c-2.82-2.82-6.09-5.03-9.79-6.62c-3.7-1.59-7.67-2.38-11.91-2.38
				c-4.23,0-8.2,0.79-11.91,2.38c-3.71,1.59-6.93,3.79-9.66,6.62c-2.74,2.82-4.89,6.09-6.48,9.79S987.57,462.31,987.57,466.55z"/>
			<path class="st2" d="M1168.29,414.42l12.97,12.97c-6,5.65-11.64,10.98-16.93,16.01c-5.29,5.03-10.94,10.37-16.94,16.01
				c6.88,9.53,13.76,18.96,20.64,28.31c6.88,9.35,13.76,18.79,20.64,28.31h-25.4c-5.12-7.05-10.32-14.11-15.61-21.17
				c-5.29-7.05-10.5-14.11-15.61-21.17c-2.12,1.94-4.28,3.97-6.48,6.09c-2.21,2.12-4.37,4.15-6.48,6.09v30.17h-21.96V317.57h21.96
				V460.2c8.47-7.94,16.67-15.57,24.61-22.89C1151.62,429.99,1159.82,422.36,1168.29,414.42z"/>
			<path class="st2" d="M1203.22,466.55c0-6.88,1.36-13.5,4.1-19.85c2.73-6.35,6.48-11.91,11.25-16.67
				c4.76-4.76,10.41-8.55,16.94-11.38c6.52-2.82,13.49-4.23,20.9-4.23c4.76,0,9.17,0.71,13.23,2.12c4.06,1.41,7.58,2.96,10.58,4.63
				c3,1.68,5.38,3.31,7.14,4.9c1.76,1.59,2.65,2.65,2.65,3.17c0-1.94,0.17-3.97,0.53-6.09c0.35-2.12,0.53-4.23,0.53-6.35h18.26
				v99.23h-19.32v-8.47v-2.38c0,0.53-0.79,1.5-2.38,2.91c-1.59,1.41-3.79,2.87-6.62,4.37c-2.82,1.5-6.31,2.87-10.45,4.1
				c-4.15,1.23-8.86,1.85-14.16,1.85c-7.41,0-14.38-1.37-20.9-4.1c-6.53-2.73-12.17-6.48-16.94-11.25
				c-4.76-4.76-8.51-10.27-11.25-16.54C1204.58,480.26,1203.22,473.6,1203.22,466.55z M1225.45,466.28c0,8.65,2.87,15.92,8.6,21.83
				c5.73,5.91,13.19,8.86,22.36,8.86c9.17,0,16.62-2.95,22.36-8.86c5.73-5.91,8.6-13.18,8.6-21.83c0-8.82-2.87-16.1-8.6-21.83
				c-5.73-5.73-13.19-8.6-22.36-8.6c-9.17,0-16.63,2.87-22.36,8.6C1228.31,450.19,1225.45,457.46,1225.45,466.28z"/>
			<path class="st2" d="M1346.9,317.57h21.96v112.72l-0.79,11.91c3.88-8.64,9.53-15.3,16.93-19.98c7.41-4.67,16.14-7.28,26.2-7.81
				c10.41,0,18.61,2.74,24.61,8.2c6,5.47,9.17,12.61,9.53,21.43v71.97h-21.96v-61.92c-0.36-4.76-2.08-8.86-5.16-12.3
				c-3.09-3.44-7.98-5.33-14.69-5.69c-4.59,0-8.96,0.79-13.1,2.38c-4.15,1.59-7.81,3.79-10.98,6.62c-3.17,2.82-5.73,6.18-7.67,10.05
				c-1.94,3.88-2.91,8.12-2.91,12.7v48.16h-21.96V317.57z"/>
			<path class="st2" d="M1473.64,466.28c0-7.05,1.37-13.76,4.1-20.11c2.73-6.35,6.48-11.86,11.25-16.54
				c4.76-4.67,10.36-8.38,16.8-11.11c6.44-2.73,13.36-4.1,20.77-4.1s14.38,1.37,20.9,4.1c6.52,2.74,12.17,6.44,16.94,11.11
				c4.76,4.68,8.51,10.19,11.25,16.54c2.73,6.35,4.1,13.06,4.1,20.11c0,7.24-1.37,13.98-4.1,20.24
				c-2.74,6.26-6.48,11.78-11.25,16.54c-4.76,4.76-10.41,8.51-16.94,11.25c-6.53,2.73-13.49,4.1-20.9,4.1s-14.33-1.37-20.77-4.1
				c-6.44-2.73-12.04-6.48-16.8-11.25s-8.51-10.27-11.25-16.54C1475.01,480.26,1473.64,473.52,1473.64,466.28z M1495.61,466.55
				c0,4.23,0.79,8.2,2.38,11.91c1.59,3.71,3.75,6.93,6.48,9.66c2.73,2.74,5.95,4.9,9.66,6.48c3.7,1.59,7.67,2.38,11.91,2.38
				s8.2-0.79,11.91-2.38c3.7-1.59,6.97-3.75,9.79-6.48c2.82-2.73,5.03-5.95,6.62-9.66c1.59-3.7,2.38-7.67,2.38-11.91
				s-0.79-8.2-2.38-11.91c-1.59-3.7-3.79-6.97-6.62-9.79c-2.82-2.82-6.09-5.03-9.79-6.62c-3.7-1.59-7.67-2.38-11.91-2.38
				s-8.2,0.79-11.91,2.38c-3.71,1.59-6.93,3.79-9.66,6.62c-2.74,2.82-4.9,6.09-6.48,9.79
				C1496.4,458.34,1495.61,462.31,1495.61,466.55z"/>
			<path class="st2" d="M1627.11,516.03h-21.96V317.57h21.96V516.03z"/>
			<path class="st2" d="M1654.1,378.43c0-4.06,1.41-7.41,4.23-10.06c2.82-2.65,6-3.97,9.53-3.97c3.35,0,6.44,1.32,9.26,3.97
				c2.82,2.65,4.23,6,4.23,10.06c0,4.06-1.41,7.37-4.23,9.92c-2.82,2.56-5.91,3.84-9.26,3.84c-3.53,0-6.71-1.28-9.53-3.84
				C1655.51,385.8,1654.1,382.49,1654.1,378.43z M1678.44,516.03h-21.96V416.8h21.96V516.03z"/>
			<path class="st2" d="M1776.35,490.36c2.29,2.82,4.5,5.6,6.62,8.33c2.12,2.74,4.32,5.52,6.61,8.33
				c-4.59,3.53-9.66,6.31-15.21,8.34c-5.56,2.03-11.51,3.04-17.86,3.04c-7.41,0-14.33-1.37-20.77-4.1
				c-6.44-2.73-12.04-6.48-16.8-11.25s-8.51-10.27-11.25-16.54c-2.74-6.26-4.1-13.01-4.1-20.24c0-7.05,1.37-13.76,4.1-20.11
				c2.73-6.35,6.48-11.86,11.25-16.54c4.76-4.67,10.36-8.38,16.8-11.11c6.44-2.73,13.36-4.1,20.77-4.1c6.52,0,12.61,1.02,18.26,3.04
				c5.64,2.03,10.76,4.81,15.35,8.33c-2.29,2.82-4.59,5.56-6.88,8.2c-2.29,2.65-4.59,5.38-6.88,8.2
				c-5.65-4.23-12.26-6.35-19.85-6.35c-9.17,0-16.63,2.87-22.36,8.6c-5.73,5.73-8.6,13.01-8.6,21.83c0,8.65,2.87,15.92,8.6,21.83
				c5.73,5.91,13.18,8.86,22.36,8.86C1764.26,496.98,1770.88,494.77,1776.35,490.36z"/>
			<path class="st2" d="M1870.28,425.53c-1.94,2.82-3.97,5.56-6.09,8.2c-2.12,2.65-4.15,5.38-6.09,8.2c-0.88-0.88-2.6-2.12-5.16-3.7
				c-2.56-1.59-5.95-2.38-10.19-2.38c-3.88,0-6.71,0.84-8.47,2.51c-1.77,1.68-2.47,3.93-2.12,6.75c0.35,2.12,1.67,3.84,3.97,5.16
				c2.29,1.32,4.98,2.6,8.07,3.84c3.08,1.24,6.39,2.65,9.92,4.23c3.53,1.59,6.79,3.57,9.79,5.95c3,2.38,5.47,5.38,7.41,9
				c1.94,3.62,2.91,8.16,2.91,13.63c0,2.47-0.49,5.47-1.46,9c-0.97,3.53-2.69,6.97-5.16,10.32c-2.47,3.35-5.91,6.18-10.32,8.47
				c-4.41,2.29-10.15,3.44-17.2,3.44c-6.53,0-12.79-1.1-18.79-3.31c-6-2.2-10.76-5.25-14.29-9.13c2.29-2.65,4.5-5.33,6.61-8.07
				c2.12-2.73,4.32-5.42,6.62-8.07c3.88,2.47,7.14,4.28,9.79,5.42c2.65,1.15,6.09,1.72,10.32,1.72c0.17,0,0.83-0.04,1.98-0.13
				c1.15-0.09,2.42-0.44,3.84-1.06c1.41-0.62,2.69-1.54,3.84-2.78c1.15-1.23,1.81-3.08,1.98-5.56c0.17-3.18-0.71-5.6-2.65-7.28
				c-1.94-1.67-4.46-3.08-7.54-4.23c-3.09-1.15-6.48-2.29-10.19-3.44c-3.71-1.15-7.19-2.73-10.45-4.76
				c-3.27-2.03-5.95-4.89-8.07-8.6c-2.12-3.7-3.18-8.64-3.18-14.82c0-5.47,1.06-10.06,3.18-13.76c2.12-3.7,4.76-6.75,7.94-9.13
				c3.18-2.38,6.62-4.1,10.32-5.16c3.7-1.06,7.05-1.59,10.05-1.59c1.76,0,3.92,0.18,6.48,0.53c2.56,0.36,5.16,0.97,7.81,1.85
				c2.65,0.88,5.25,2.03,7.81,3.44C1866.09,421.65,1868.34,423.42,1870.28,425.53z"/>
		</g>
	</g>
	<circle class="st0" cx="1666.85" cy="378.43" r="15.35"/>
	<g>
		<g>
			<path class="st2" d="M868.35,672.55c-0.6,0.75-1.18,1.49-1.75,2.24c-0.57,0.75-1.16,1.49-1.75,2.24c-0.4-0.4-0.92-0.83-1.57-1.31
				c-0.65-0.47-1.38-0.91-2.2-1.31c-0.82-0.4-1.74-0.73-2.76-1.01c-1.02-0.27-2.1-0.41-3.25-0.41c-2.89,0-5.03,0.82-6.42,2.46
				c-1.39,1.64-2.09,3.58-2.09,5.82c0,1.25,0.24,2.29,0.71,3.14c0.47,0.85,1.09,1.56,1.87,2.13c0.77,0.57,1.64,1.06,2.61,1.46
				s1.98,0.77,3.02,1.12c1.64,0.6,3.41,1.31,5.3,2.13c1.89,0.82,3.65,1.87,5.26,3.14c1.62,1.27,2.96,2.83,4.03,4.67
				c1.07,1.84,1.61,4.06,1.61,6.65c0,2.24-0.41,4.26-1.23,6.05s-1.94,3.32-3.36,4.59s-3.07,2.24-4.97,2.91
				c-1.89,0.67-3.88,1.01-5.97,1.01c-1.89,0-3.73-0.26-5.53-0.78s-3.44-1.2-4.93-2.02c-1.49-0.82-2.83-1.73-4-2.73
				c-1.17-1-2.08-1.99-2.73-2.99l3.88-3.88c0.65,0.7,1.42,1.43,2.31,2.2c0.9,0.77,1.87,1.48,2.91,2.13
				c1.05,0.65,2.19,1.17,3.44,1.57c1.24,0.4,2.59,0.6,4.03,0.6c1.29,0,2.54-0.19,3.73-0.56c1.19-0.37,2.25-0.92,3.17-1.64
				c0.92-0.72,1.65-1.63,2.2-2.73c0.55-1.09,0.82-2.36,0.82-3.81c0-1.99-0.49-3.61-1.46-4.85c-0.97-1.24-2.17-2.28-3.58-3.1
				c-1.42-0.82-2.9-1.48-4.44-1.98c-1.54-0.5-2.89-0.97-4.03-1.42c-0.9-0.35-1.97-0.82-3.21-1.42c-1.25-0.6-2.43-1.41-3.55-2.43
				c-1.12-1.02-2.08-2.29-2.87-3.81c-0.8-1.52-1.22-3.37-1.27-5.56c-0.05-1.64,0.17-3.29,0.67-4.93c0.5-1.64,1.32-3.14,2.46-4.48
				c1.14-1.34,2.66-2.44,4.56-3.29c1.89-0.85,4.21-1.27,6.94-1.27c1.99,0,4.06,0.35,6.2,1.05
				C863.32,668.84,865.71,670.31,868.35,672.55z"/>
			<path class="st2" d="M893.22,719.67V667.4h32.18v5.9h-25.99v17.1h23.07v5.9h-23.07v17.47h27.03v5.9H893.22z"/>
			<path class="st2" d="M995,719.67h-6.2c-1.44-3.43-2.9-6.88-4.37-10.34c-1.47-3.46-2.93-6.91-4.37-10.34h-16.43
				c-1.45,3.44-2.9,6.88-4.37,10.34c-1.47,3.46-2.92,6.91-4.37,10.34h-6.2c3.88-9.16,7.74-18.27,11.57-27.33
				c3.83-9.06,7.69-18.17,11.58-27.33c3.88,9.16,7.74,18.27,11.57,27.33C987.26,701.4,991.12,710.51,995,719.67z M972.52,681.21
				l-0.67-2.46c-0.7,2.49-1.57,4.9-2.62,7.24c-1.04,2.34-2.07,4.7-3.06,7.09h11.35c-0.85-1.99-1.68-3.97-2.5-5.94
				C974.2,685.19,973.37,683.21,972.52,681.21z"/>
			<path class="st2" d="M1014.93,719.67V667.4h12.32c1.69,0,3.57,0.26,5.64,0.78c2.07,0.52,4,1.36,5.79,2.5
				c1.79,1.15,3.29,2.61,4.48,4.41c1.19,1.79,1.79,3.96,1.79,6.5c0,3.73-0.93,6.86-2.8,9.37c-1.87,2.51-4.59,4.17-8.18,4.97
				l11.2,23.75h-6.72l-10.98-23.3h-1.27h-5.08v23.3H1014.93z M1021.13,690.4h6.5c2.19,0,4-0.29,5.41-0.86
				c1.42-0.57,2.55-1.28,3.4-2.13c0.85-0.85,1.44-1.79,1.79-2.84c0.35-1.04,0.52-2.04,0.52-2.99c0-1.09-0.29-2.15-0.86-3.17
				c-0.57-1.02-1.34-1.92-2.31-2.69c-0.97-0.77-2.14-1.38-3.51-1.83c-1.37-0.45-2.83-0.67-4.37-0.67h-6.57V690.4z"/>
			<path class="st2" d="M1102.08,711.61l3.36,4.93c-1.99,1.15-4.12,2.05-6.38,2.73c-2.27,0.67-4.67,1.01-7.21,1.01
				c-3.68,0-7.14-0.7-10.38-2.09c-3.24-1.39-6.06-3.3-8.48-5.71c-2.42-2.41-4.32-5.24-5.71-8.48c-1.39-3.24-2.09-6.69-2.09-10.38
				c0-3.68,0.7-7.16,2.09-10.42c1.39-3.26,3.3-6.1,5.71-8.51c2.41-2.41,5.24-4.33,8.48-5.75c3.24-1.42,6.7-2.13,10.38-2.13
				c2.54,0,4.94,0.32,7.21,0.97c2.26,0.65,4.42,1.57,6.46,2.76c-0.55,0.85-1.12,1.68-1.72,2.5c-0.6,0.82-1.17,1.66-1.72,2.5
				c-1.54-0.9-3.16-1.59-4.85-2.09c-1.69-0.5-3.48-0.75-5.38-0.75c-2.84,0-5.49,0.55-7.95,1.64c-2.46,1.1-4.63,2.6-6.5,4.52
				c-1.87,1.92-3.34,4.14-4.41,6.68c-1.07,2.54-1.61,5.23-1.61,8.07c0,2.84,0.54,5.53,1.61,8.06s2.54,4.74,4.41,6.61
				s4.03,3.35,6.5,4.44c2.46,1.1,5.12,1.64,7.95,1.64C1095.53,714.37,1098.94,713.45,1102.08,711.61z"/>
			<path class="st2" d="M1127.62,719.67V667.4h6.2v23h28.23v-23h6.2v52.27h-6.2V696.3h-28.23v23.37H1127.62z"/>
			<path class="st2" d="M1224.02,719.67V667.4h32.18v5.9h-25.99v17.1h23.07v5.9h-23.07v23.37H1224.02z"/>
			<path class="st2" d="M1278.53,693.61c0-3.63,0.7-7.08,2.09-10.34c1.39-3.26,3.3-6.11,5.71-8.55c2.41-2.44,5.24-4.37,8.48-5.79
				c3.24-1.42,6.7-2.13,10.38-2.13c3.63,0,7.08,0.71,10.34,2.13s6.11,3.35,8.55,5.79c2.44,2.44,4.37,5.29,5.79,8.55
				c1.42,3.26,2.13,6.71,2.13,10.34c0,3.68-0.71,7.14-2.13,10.38c-1.42,3.24-3.35,6.06-5.79,8.48c-2.44,2.42-5.29,4.32-8.55,5.71
				s-6.71,2.09-10.34,2.09c-3.68,0-7.14-0.7-10.38-2.09c-3.24-1.39-6.06-3.3-8.48-5.71c-2.42-2.41-4.32-5.24-5.71-8.48
				C1279.22,700.75,1278.53,697.3,1278.53,693.61z M1284.73,693.61c0,2.89,0.54,5.59,1.61,8.1c1.07,2.51,2.54,4.7,4.41,6.57
				s4.04,3.35,6.53,4.44c2.49,1.1,5.15,1.64,7.99,1.64c2.84,0,5.5-0.55,7.99-1.64c2.49-1.09,4.67-2.58,6.53-4.44
				s3.33-4.06,4.41-6.57c1.07-2.51,1.61-5.21,1.61-8.1c0-2.89-0.54-5.59-1.61-8.1c-1.07-2.51-2.54-4.72-4.41-6.61
				c-1.87-1.89-4.04-3.38-6.53-4.48c-2.49-1.09-5.15-1.64-7.99-1.64c-2.84,0-5.5,0.55-7.99,1.64c-2.49,1.1-4.67,2.59-6.53,4.48
				c-1.87,1.89-3.34,4.1-4.41,6.61C1285.26,688.02,1284.73,690.72,1284.73,693.61z"/>
			<path class="st2" d="M1352.16,719.67V667.4h12.32c1.69,0,3.57,0.26,5.64,0.78c2.07,0.52,4,1.36,5.79,2.5
				c1.79,1.15,3.29,2.61,4.48,4.41c1.19,1.79,1.79,3.96,1.79,6.5c0,3.73-0.93,6.86-2.8,9.37c-1.87,2.51-4.59,4.17-8.18,4.97
				l11.2,23.75h-6.72l-10.98-23.3h-1.27h-5.08v23.3H1352.16z M1358.35,690.4h6.5c2.19,0,4-0.29,5.41-0.86
				c1.42-0.57,2.55-1.28,3.4-2.13c0.85-0.85,1.44-1.79,1.79-2.84c0.35-1.04,0.52-2.04,0.52-2.99c0-1.09-0.29-2.15-0.86-3.17
				c-0.57-1.02-1.34-1.92-2.31-2.69c-0.97-0.77-2.14-1.38-3.51-1.83c-1.37-0.45-2.83-0.67-4.37-0.67h-6.57V690.4z"/>
			<path class="st2" d="M1435.71,719.67V667.4h13.67c2.44,0,4.67,0.25,6.68,0.75c2.02,0.5,3.73,1.27,5.15,2.31
				c1.42,1.05,2.53,2.4,3.32,4.07c0.79,1.67,1.19,3.65,1.19,5.94c0,3.09-0.74,5.8-2.2,8.14c-1.47,2.34-3.7,3.93-6.68,4.78
				c1.39,0.3,2.75,0.8,4.07,1.49c1.32,0.7,2.46,1.59,3.43,2.69c0.97,1.1,1.75,2.37,2.35,3.81c0.6,1.44,0.9,3.06,0.9,4.85
				c0,2.24-0.47,4.19-1.42,5.86c-0.95,1.67-2.2,3.06-3.77,4.18c-1.57,1.12-3.37,1.97-5.41,2.54c-2.04,0.57-4.13,0.86-6.27,0.86
				H1435.71z M1441.91,673.3v17.1h8.06c2.94,0,5.26-0.82,6.98-2.46c1.72-1.64,2.58-3.81,2.58-6.5c0-2.94-0.9-5.03-2.69-6.27
				c-1.79-1.24-4.13-1.87-7.02-1.87H1441.91z M1441.91,696.3v17.47h8.29c1.54,0,2.99-0.17,4.33-0.52c1.34-0.35,2.53-0.88,3.55-1.61
				c1.02-0.72,1.83-1.61,2.43-2.65c0.6-1.04,0.9-2.29,0.9-3.73c0-1.54-0.35-2.89-1.04-4.03c-0.7-1.14-1.61-2.08-2.73-2.8
				c-1.12-0.72-2.43-1.26-3.92-1.61c-1.49-0.35-3.01-0.52-4.55-0.52H1441.91z"/>
			<path class="st2" d="M1487.16,693.61c0-3.63,0.7-7.08,2.09-10.34c1.39-3.26,3.3-6.11,5.71-8.55c2.41-2.44,5.24-4.37,8.48-5.79
				c3.24-1.42,6.7-2.13,10.38-2.13c3.63,0,7.08,0.71,10.34,2.13s6.11,3.35,8.55,5.79c2.44,2.44,4.37,5.29,5.79,8.55
				c1.42,3.26,2.13,6.71,2.13,10.34c0,3.68-0.71,7.14-2.13,10.38c-1.42,3.24-3.35,6.06-5.79,8.48c-2.44,2.42-5.29,4.32-8.55,5.71
				s-6.71,2.09-10.34,2.09c-3.68,0-7.14-0.7-10.38-2.09c-3.24-1.39-6.06-3.3-8.48-5.71c-2.42-2.41-4.32-5.24-5.71-8.48
				C1487.86,700.75,1487.16,697.3,1487.16,693.61z M1493.36,693.61c0,2.89,0.54,5.59,1.61,8.1c1.07,2.51,2.54,4.7,4.41,6.57
				s4.04,3.35,6.53,4.44c2.49,1.1,5.15,1.64,7.99,1.64c2.84,0,5.5-0.55,7.99-1.64c2.49-1.09,4.67-2.58,6.53-4.44
				s3.33-4.06,4.41-6.57c1.07-2.51,1.61-5.21,1.61-8.1c0-2.89-0.54-5.59-1.61-8.1c-1.07-2.51-2.54-4.72-4.41-6.61
				c-1.87-1.89-4.04-3.38-6.53-4.48c-2.49-1.09-5.15-1.64-7.99-1.64c-2.84,0-5.5,0.55-7.99,1.64c-2.49,1.1-4.67,2.59-6.53,4.48
				c-1.87,1.89-3.34,4.1-4.41,6.61C1493.89,688.02,1493.36,690.72,1493.36,693.61z"/>
			<path class="st2" d="M1561.09,693.61c0-3.63,0.7-7.08,2.09-10.34c1.39-3.26,3.3-6.11,5.71-8.55c2.41-2.44,5.24-4.37,8.48-5.79
				c3.24-1.42,6.7-2.13,10.38-2.13c3.63,0,7.08,0.71,10.34,2.13s6.11,3.35,8.55,5.79c2.44,2.44,4.37,5.29,5.79,8.55
				c1.42,3.26,2.13,6.71,2.13,10.34c0,3.68-0.71,7.14-2.13,10.38c-1.42,3.24-3.35,6.06-5.79,8.48c-2.44,2.42-5.29,4.32-8.55,5.71
				s-6.71,2.09-10.34,2.09c-3.68,0-7.14-0.7-10.38-2.09c-3.24-1.39-6.06-3.3-8.48-5.71c-2.42-2.41-4.32-5.24-5.71-8.48
				C1561.79,700.75,1561.09,697.3,1561.09,693.61z M1567.29,693.61c0,2.89,0.54,5.59,1.61,8.1c1.07,2.51,2.54,4.7,4.41,6.57
				s4.04,3.35,6.53,4.44c2.49,1.1,5.15,1.64,7.99,1.64c2.84,0,5.5-0.55,7.99-1.64c2.49-1.09,4.67-2.58,6.53-4.44
				s3.33-4.06,4.41-6.57c1.07-2.51,1.61-5.21,1.61-8.1c0-2.89-0.54-5.59-1.61-8.1c-1.07-2.51-2.54-4.72-4.41-6.61
				c-1.87-1.89-4.04-3.38-6.53-4.48c-2.49-1.09-5.15-1.64-7.99-1.64c-2.84,0-5.5,0.55-7.99,1.64c-2.49,1.1-4.67,2.59-6.53,4.48
				c-1.87,1.89-3.34,4.1-4.41,6.61C1567.82,688.02,1567.29,690.72,1567.29,693.61z"/>
			<path class="st2" d="M1673.77,719.67h-7.39c-3.58-4.53-7.14-9.05-10.68-13.55c-3.54-4.5-7.09-9.02-10.68-13.55
				c-0.8,0.75-1.57,1.48-2.31,2.2c-0.75,0.72-1.52,1.46-2.32,2.2v22.7h-6.2V667.4h6.2v20.46c-0.05,0.4-0.09,0.8-0.11,1.19
				c-0.03,0.4-0.06,0.8-0.11,1.2c0.25-0.3,0.49-0.58,0.71-0.86c0.22-0.27,0.46-0.56,0.71-0.86c3.73-3.53,7.43-7.06,11.09-10.57
				s7.36-7.03,11.09-10.57h7.62c-3.73,3.58-7.44,7.12-11.13,10.6c-3.68,3.49-7.39,7.02-11.13,10.6c4.13,5.23,8.24,10.41,12.32,15.53
				C1665.53,709.27,1669.64,714.44,1673.77,719.67z"/>
			<path class="st2" d="M1719.92,672.55c-0.6,0.75-1.18,1.49-1.75,2.24c-0.57,0.75-1.16,1.49-1.75,2.24
				c-0.4-0.4-0.92-0.83-1.57-1.31c-0.65-0.47-1.38-0.91-2.2-1.31c-0.82-0.4-1.74-0.73-2.76-1.01c-1.02-0.27-2.1-0.41-3.25-0.41
				c-2.89,0-5.03,0.82-6.42,2.46c-1.39,1.64-2.09,3.58-2.09,5.82c0,1.25,0.24,2.29,0.71,3.14c0.47,0.85,1.09,1.56,1.87,2.13
				c0.77,0.57,1.64,1.06,2.61,1.46s1.98,0.77,3.02,1.12c1.64,0.6,3.41,1.31,5.3,2.13c1.89,0.82,3.65,1.87,5.26,3.14
				c1.62,1.27,2.96,2.83,4.03,4.67c1.07,1.84,1.61,4.06,1.61,6.65c0,2.24-0.41,4.26-1.23,6.05c-0.82,1.79-1.94,3.32-3.36,4.59
				c-1.42,1.27-3.08,2.24-4.97,2.91c-1.89,0.67-3.88,1.01-5.97,1.01c-1.89,0-3.73-0.26-5.53-0.78s-3.43-1.2-4.93-2.02
				c-1.49-0.82-2.83-1.73-4-2.73c-1.17-1-2.08-1.99-2.73-2.99l3.88-3.88c0.65,0.7,1.42,1.43,2.31,2.2c0.9,0.77,1.87,1.48,2.91,2.13
				c1.05,0.65,2.19,1.17,3.44,1.57c1.24,0.4,2.59,0.6,4.03,0.6c1.29,0,2.54-0.19,3.73-0.56c1.19-0.37,2.25-0.92,3.17-1.64
				c0.92-0.72,1.65-1.63,2.2-2.73c0.55-1.09,0.82-2.36,0.82-3.81c0-1.99-0.49-3.61-1.46-4.85c-0.97-1.24-2.17-2.28-3.58-3.1
				s-2.9-1.48-4.44-1.98c-1.54-0.5-2.89-0.97-4.03-1.42c-0.9-0.35-1.97-0.82-3.21-1.42s-2.43-1.41-3.55-2.43
				c-1.12-1.02-2.08-2.29-2.88-3.81c-0.8-1.52-1.22-3.37-1.27-5.56c-0.05-1.64,0.17-3.29,0.67-4.93c0.5-1.64,1.32-3.14,2.46-4.48
				c1.14-1.34,2.66-2.44,4.55-3.29c1.89-0.85,4.21-1.27,6.95-1.27c1.99,0,4.06,0.35,6.2,1.05
				C1714.89,668.84,1717.28,670.31,1719.92,672.55z"/>
		</g>
	</g>
</g>
<g>
</g>
<g>
</g>
<g>
</g>
<g>
</g>
<g>
</g>
<g>
</g>
<g>
</g>
<g>
</g>
<g>
</g>
<g>
</g>
<g>
</g>
<g>
</g>
<g>
</g>
<g>
</g>
<g>
</g>
</svg>
